/* XPM */
static char * argument_xpm[] = {
"24 24 115 2",
"  	c None",
". 	c #E7E5EC",
"+ 	c #C7C4E1",
"@ 	c #828095",
"# 	c #9492A0",
"$ 	c #CBC9DA",
"% 	c #C3BDDB",
"& 	c #BAB6CE",
"* 	c #CFCCE6",
"= 	c #B1AFC4",
"- 	c #DDDCED",
"; 	c #9C99AB",
"> 	c #929197",
", 	c #E4E1F0",
"' 	c #CBC8E1",
") 	c #D3D0E5",
"! 	c #DAD9E9",
"~ 	c #E2E2EF",
"{ 	c #E8E8F2",
"] 	c #CBCBCE",
"^ 	c #D1D1D4",
"/ 	c #AEAEB0",
"( 	c #C3BFDA",
"_ 	c #D5D1EB",
": 	c #BDBBD0",
"< 	c #BEBDCE",
"[ 	c #DAD9E6",
"} 	c #E1E2EB",
"| 	c #F3F4FB",
"1 	c #F9FAFF",
"2 	c #FFFFFF",
"3 	c #C0C0C3",
"4 	c #BBBBBB",
"5 	c #D3D0E4",
"6 	c #DDDAEE",
"7 	c #B9B8CA",
"8 	c #C3C2CF",
"9 	c #BABAC3",
"0 	c #FAFAFE",
"a 	c #F1F2F5",
"b 	c #F1F2F6",
"c 	c #E3E4E8",
"d 	c #7A7A7C",
"e 	c #E0DFE9",
"f 	c #E1E1F4",
"g 	c #D5D4E1",
"h 	c #FAF9FF",
"i 	c #6B6C71",
"j 	c #FFFFFE",
"k 	c #EFF0F0",
"l 	c #F4F9FC",
"m 	c #EEEEEF",
"n 	c #ECF0F5",
"o 	c #DBE2E8",
"p 	c #A3A8AB",
"q 	c #E2E0F2",
"r 	c #E9E7FA",
"s 	c #DCDCE3",
"t 	c #E6E5EF",
"u 	c #C3C5C7",
"v 	c #FDFDFC",
"w 	c #F3F5F5",
"x 	c #ECF0F4",
"y 	c #E7ECEF",
"z 	c #E4ECF1",
"A 	c #EDF7FF",
"B 	c #747E85",
"C 	c #E4E2EF",
"D 	c #E8E9EF",
"E 	c #757778",
"F 	c #ECEDED",
"G 	c #E9E9EB",
"H 	c #E0E6EA",
"I 	c #DFE6EE",
"J 	c #DAE5ED",
"K 	c #434B52",
"L 	c #D4D6DA",
"M 	c #F0F1F6",
"N 	c #CACBCD",
"O 	c #DFE3E8",
"P 	c #EBF2F7",
"Q 	c #D0DAE3",
"R 	c #CEDBE3",
"S 	c #BBCDDA",
"T 	c #C9D2D6",
"U 	c #DCDCDF",
"V 	c #E2E7EB",
"W 	c #E4EBF1",
"X 	c #CFDAE3",
"Y 	c #C4CCD7",
"Z 	c #C0CDD6",
"` 	c #9BABB4",
" .	c #B7B9BC",
"..	c #E2E2E2",
"+.	c #E2EEF8",
"@.	c #D6DEE3",
"#.	c #DEE8F0",
"$.	c #CEDCE7",
"%.	c #68747F",
"&.	c #8E9295",
"*.	c #CACBC8",
"=.	c #DFDFDF",
"-.	c #959698",
";.	c #82888B",
">.	c #E3EAF1",
",.	c #525A60",
"'.	c #BFC6CC",
").	c #697C85",
"!.	c #6A7077",
"~.	c #B7B6B9",
"{.	c #C7C7C7",
"].	c #E6EDF2",
"^.	c #808489",
"/.	c #BABBBB",
"(.	c #E5E6E6",
"                                                ",
"                                                ",
"                                                ",
"                                                ",
"                                                ",
"                .   + @   #                     ",
"              $ % & * = - ; >                   ",
"              , ' ) ! ~ { ] ^ /                 ",
"            ( _ : < [ } | 1 2 3 4               ",
"            5 6 7 8 9 0 a b c d                 ",
"          e f g h i j k l m n o p               ",
"          q r s t u v w x y z A B               ",
"            C   D E F G H I J K                 ",
"                L M N O P Q R S T               ",
"            U C   c V W X Y Z `  .              ",
"              ..  +.@.#.$.%.&.*.=.              ",
"                -.;.>.,.'.).!.~.{.              ",
"                    ].^./.  (.                  ",
"                                                ",
"                                                ",
"                                                ",
"                                                ",
"                                                ",
"                                                "};
