/* XPM */
static char * bookmark_xpm[] = {
"11 23 2 1",
" 	c None",
".	c #2028DB",
"           ",
"           ",
".          ",
"..         ",
"...        ",
"....       ",
".....      ",
"......     ",
".......    ",
"........   ",
".........  ",
".......... ",
".........  ",
"........   ",
".......    ",
"......     ",
".....      ",
"....       ",
"...        ",
"..         ",
".          ",
"           ",
"           "};
