/* XPM */
static char * build_xpm[] = {
"24 24 78 1",
" 	c None",
".	c #C9CCD1",
"+	c #AEB1AF",
"@	c #A1A2A2",
"#	c #AFB1B0",
"$	c #B5B8B4",
"%	c #C0C3C7",
"&	c #D2D6D7",
"*	c #B8BCBC",
"=	c #D9E0D4",
"-	c #C0C7C0",
";	c #858D89",
">	c #B8BDBC",
",	c #BDC2C0",
"'	c #D5D5D5",
")	c #BDABA5",
"!	c #C7C5AF",
"~	c #888E8F",
"{	c #AFB0B0",
"]	c #989B9A",
"^	c #898D8C",
"/	c #A7A9A8",
"(	c #EEE6E2",
"_	c #D59568",
":	c #9F7754",
"<	c #BEBDBE",
"[	c #B7B7B7",
"}	c #CCB3A9",
"|	c #C88B5E",
"1	c #876F62",
"2	c #EAE8EA",
"3	c #C99778",
"4	c #906243",
"5	c #C7B0A7",
"6	c #DA9B75",
"7	c #8E7F72",
"8	c #DBAB7F",
"9	c #B1835F",
"0	c #CDCCC9",
"a	c #DCCAC2",
"b	c #D89A6B",
"c	c #907760",
"d	c #CDA07A",
"e	c #B07A54",
"f	c #ACA6A0",
"g	c #D5C3BD",
"h	c #DD9F67",
"i	c #8C694D",
"j	c #D4A47B",
"k	c #C18351",
"l	c #AB9C90",
"m	c #E6D6CD",
"n	c #D7995F",
"o	c #A37551",
"p	c #E1DEDA",
"q	c #C9A386",
"r	c #CC8E59",
"s	c #957D6E",
"t	c #DAD3D1",
"u	c #D39661",
"v	c #A26F4A",
"w	c #C1BDBC",
"x	c #D2AA8D",
"y	c #CD8D56",
"z	c #896F5C",
"A	c #ECE1DC",
"B	c #E1A46E",
"C	c #A87144",
"D	c #CCC6C0",
"E	c #DEBAA1",
"F	c #CB8F5C",
"G	c #96755B",
"H	c #B18F73",
"I	c #A66F40",
"J	c #A1988F",
"K	c #E8EEEE",
"L	c #A8A199",
"M	c #E8E9EA",
"                        ",
"                        ",
"                        ",
"           .+@#$%&      ",
"              *=-;>,'   ",
"              )!~{]^/   ",
"             (_:<  [    ",
"             }|1        ",
"            234'        ",
"            567         ",
"            890         ",
"           abc          ",
"           def          ",
"          ghi           ",
"          jkl           ",
"         mnop           ",
"         qrs            ",
"        tuvw            ",
"        xyz             ",
"       ABCD             ",
"       EFG              ",
"       HIJ              ",
"       KLM              ",
"                        "};
