/* XPM */
static char * data_xpm[] = {
"24 24 73 1",
" 	c None",
".	c #CBD2FE",
"+	c #8D9EFE",
"@	c #0027FF",
"#	c #2445FF",
"$	c #93A3FE",
"%	c #7F92FF",
"&	c #6F84FF",
"*	c #9BAAFF",
"=	c #6178FF",
"-	c #B9C3FF",
";	c #3453FF",
">	c #2042FF",
",	c #C3CCFF",
"'	c #95A5FE",
")	c #A1AFFF",
"!	c #B3BEFF",
"~	c #C4CDFF",
"{	c #CFD6FE",
"]	c #5972FF",
"^	c #8194FF",
"/	c #A4B2FF",
"(	c #798DFF",
"_	c #7B8EFF",
":	c #C1CAFF",
"<	c #E6EAFF",
"[	c #F1F3FF",
"}	c #FDFDFF",
"|	c #7288FF",
"1	c #B4C0FF",
"2	c #7186FF",
"3	c #8395FF",
"4	c #7489FF",
"5	c #F3F4FF",
"6	c #E3E7FF",
"7	c #C6CFFF",
"8	c #0024F0",
"9	c #BDC6FF",
"0	c #A9B5FF",
"a	c #0020D6",
"b	c #DDE2FF",
"c	c #EFF1FF",
"d	c #DBE0FF",
"e	c #BFC8FF",
"f	c #4D67FE",
"g	c #D1D7FE",
"h	c #B6C1FF",
"i	c #C9D1FE",
"j	c #8699FF",
"k	c #F6F8FF",
"l	c #D5DBFE",
"m	c #D3D9FE",
"n	c #E9ECFF",
"o	c #0025F6",
"p	c #0023EA",
"q	c #D9DEFF",
"r	c #001590",
"s	c #ABB7FF",
"t	c #E1E5FF",
"u	c #DFE3FF",
"v	c #AFBBFF",
"w	c #91A1FE",
"x	c #9FADFF",
"y	c #D7DDFE",
"z	c #B1BCFF",
"A	c #0022E2",
"B	c #2949FF",
"C	c #0D31FE",
"D	c #001AAE",
"E	c #0023EE",
"F	c #0021DC",
"G	c #6B81FF",
"H	c #042AFF",
"                        ",
"                        ",
"                        ",
"                        ",
"                        ",
"        . +@ #          ",
"       $%&*=-;>         ",
"       ,')!~{')]        ",
"      ^/(_!:<[}%|       ",
"      )123456678        ",
"     9:05a}bcdbef       ",
"     ,ghijk<blmno       ",
"      ~ gpq{7i~r        ",
"        st$,uvvwx       ",
"      h~ 7.mv$$f&       ",
"       , yh.zA>$9       ",
"        BCgDjEFG+       ",
"          lH| i         ",
"                        ",
"                        ",
"                        ",
"                        ",
"                        ",
"                        "};
