/* XPM */
static char * export_xpm[] = {
"24 24 364 2",
"  	c None",
". 	c #F1F1F1",
"+ 	c #F1F0F1",
"@ 	c #F0F0F0",
"# 	c #F1F1F2",
"$ 	c #F2F2F1",
"% 	c #ECEFEE",
"& 	c #E7EAEB",
"* 	c #E3E4E7",
"= 	c #CBD1D7",
"- 	c #E7DFD5",
"; 	c #EBE5DA",
"> 	c #F0F0F1",
", 	c #F1F3F5",
"' 	c #EFEFEF",
") 	c #F2F2F2",
"! 	c #F2F3F4",
"~ 	c #E6E9EB",
"{ 	c #DBDEE2",
"] 	c #DCE0E5",
"^ 	c #E2E6EA",
"/ 	c #D8DCE2",
"( 	c #C6D1DA",
"_ 	c #E1D6D4",
": 	c #E2CBAA",
"< 	c #D8B383",
"[ 	c #DDC5A4",
"} 	c #F2F2F3",
"| 	c #F1F1F0",
"1 	c #EEEFEF",
"2 	c #DEE2E5",
"3 	c #CDD2D7",
"4 	c #D6DBE0",
"5 	c #E1E5E9",
"6 	c #D6DADE",
"7 	c #D1D4D9",
"8 	c #DADDE2",
"9 	c #D4DBE2",
"0 	c #9CC0C8",
"a 	c #E0C6A8",
"b 	c #E1C9A3",
"c 	c #D8AF78",
"d 	c #D4B17D",
"e 	c #ECEBE0",
"f 	c #F0EFF1",
"g 	c #F0F1F2",
"h 	c #D6D4D1",
"i 	c #D5DCE2",
"j 	c #D8DDE2",
"k 	c #CFD5DA",
"l 	c #CFD6DC",
"m 	c #D8DDE0",
"n 	c #E0E4E8",
"o 	c #DCDFE5",
"p 	c #DCE1E4",
"q 	c #E8E8E8",
"r 	c #C4C5C9",
"s 	c #DECDB3",
"t 	c #E3CAA5",
"u 	c #D9B887",
"v 	c #CEA66D",
"w 	c #E3D1B7",
"x 	c #EEEFED",
"y 	c #F1F3F3",
"z 	c #B58878",
"A 	c #C19C80",
"B 	c #CFD8DD",
"C 	c #D4D9DF",
"D 	c #D6D9DE",
"E 	c #DCDFE1",
"F 	c #DDE1E2",
"G 	c #DDE1E3",
"H 	c #E2E5E7",
"I 	c #DCDEE1",
"J 	c #DDE1E4",
"K 	c #DBE0E5",
"L 	c #E1D5C1",
"M 	c #E0C39B",
"N 	c #E0C9A8",
"O 	c #E5DBCD",
"P 	c #E1D2C0",
"Q 	c #E3DFD7",
"R 	c #F3F4F4",
"S 	c #D6C3BD",
"T 	c #D9C7BE",
"U 	c #B89777",
"V 	c #D2DAE1",
"W 	c #D5D8DC",
"X 	c #DDDFE3",
"Y 	c #E0E1E2",
"Z 	c #DDE2E3",
"` 	c #D7DBDC",
" .	c #DEE1E3",
"..	c #E7E9EA",
"+.	c #EDEEEE",
"@.	c #EFEFF0",
"#.	c #E8DDCE",
"$.	c #E0BF94",
"%.	c #E1C9AA",
"&.	c #F0EFEE",
"*.	c #F1F0F0",
"=.	c #F1F2F2",
"-.	c #F3F7FA",
";.	c #B89773",
">.	c #C9D6D7",
",.	c #DADDDF",
"'.	c #E0E1E4",
").	c #E8E8E7",
"!.	c #E9E9E9",
"~.	c #EAE9EB",
"{.	c #EBEBEC",
"].	c #EDEDED",
"^.	c #E7E3D7",
"/.	c #DDC093",
"(.	c #E1C7A6",
"_.	c #F0EFEF",
":.	c #F1F5F7",
"<.	c #B99976",
"[.	c #C7D0D3",
"}.	c #CDD5DC",
"|.	c #D2D7DB",
"1.	c #E7E6EA",
"2.	c #E3E5E7",
"3.	c #E8E7E9",
"4.	c #EAE7EC",
"5.	c #E8E6EA",
"6.	c #EBE8EE",
"7.	c #EDEEED",
"8.	c #E9E7DD",
"9.	c #E0BF93",
"0.	c #E2C7A7",
"a.	c #EFEEEE",
"b.	c #F0F4F7",
"c.	c #BB9E79",
"d.	c #C5CED3",
"e.	c #C8CED7",
"f.	c #CFD4DB",
"g.	c #E5E5E7",
"h.	c #E6E8E7",
"i.	c #E6E6E6",
"j.	c #E8E8EB",
"k.	c #EAECED",
"l.	c #DAA7D8",
"m.	c #E1C4E0",
"n.	c #EBEAE3",
"o.	c #DDBF90",
"p.	c #E0C4A5",
"q.	c #EEEEEE",
"r.	c #EFF0F0",
"s.	c #EDE9E2",
"t.	c #F0EDE9",
"u.	c #F1F1F5",
"v.	c #BFA37E",
"w.	c #C4CDD2",
"x.	c #CACFD6",
"y.	c #C3CDD5",
"z.	c #E3E8E6",
"A.	c #D8AFD8",
"B.	c #E2DBE3",
"C.	c #DBB7DB",
"D.	c #E1BEE2",
"E.	c #DAB5DD",
"F.	c #E2D9E7",
"G.	c #EBE9E9",
"H.	c #DDBD91",
"I.	c #DAC09B",
"J.	c #DFE0E4",
"K.	c #EFEFF1",
"L.	c #F0EBE6",
"M.	c #DEBF94",
"N.	c #D9B687",
"O.	c #E2CEB5",
"P.	c #ECE7E1",
"Q.	c #F2F5FC",
"R.	c #C1A57D",
"S.	c #C2CDD2",
"T.	c #D2D6DC",
"U.	c #B9C3CC",
"V.	c #E3E7E6",
"W.	c #D4A5D5",
"X.	c #E5DFE7",
"Y.	c #DAB7DB",
"Z.	c #E6D6E6",
"`.	c #E7E8EA",
" +	c #E7E6E9",
".+	c #EDEBEB",
"++	c #D5B68B",
"@+	c #D9C09B",
"#+	c #D6DADF",
"$+	c #E0E2E5",
"%+	c #EBEBED",
"&+	c #EDE7DF",
"*+	c #E1C7A5",
"=+	c #D8B180",
"-+	c #CB985B",
";+	c #C89861",
">+	c #D2B38F",
",+	c #C1AA89",
"'+	c #C1CED4",
")+	c #D7DBDF",
"!+	c #B6C2CC",
"~+	c #DFE5E3",
"{+	c #CF92CF",
"]+	c #DEC6DF",
"^+	c #E8E8EC",
"/+	c #E8E4E9",
"(+	c #EFF2F5",
"_+	c #CEB48B",
":+	c #CBAE8B",
"<+	c #DBDEE5",
"[+	c #E2E5E8",
"}+	c #EBECED",
"|+	c #F0F1F1",
"1+	c #E3CAA8",
"2+	c #E1C49E",
"3+	c #C49459",
"4+	c #C48952",
"5+	c #BD8149",
"6+	c #BB9D7C",
"7+	c #BEBFBB",
"8+	c #DBDDE4",
"9+	c #C8CFD5",
"0+	c #E2E5E5",
"a+	c #E4E4E5",
"b+	c #E4E5E7",
"c+	c #E6E6E9",
"d+	c #E5E8E8",
"e+	c #E7E6E4",
"f+	c #D5C4A7",
"g+	c #D7B588",
"h+	c #DFC39E",
"i+	c #EBE6DD",
"j+	c #EDEDEE",
"k+	c #EFEDE8",
"l+	c #DCBF96",
"m+	c #DBB98E",
"n+	c #C08650",
"o+	c #B97D46",
"p+	c #B77945",
"q+	c #B39278",
"r+	c #D7D7D3",
"s+	c #C0A293",
"t+	c #D2D7DD",
"u+	c #E1E2E5",
"v+	c #E2E4E5",
"w+	c #E0DED7",
"x+	c #D6C7B2",
"y+	c #CFAF87",
"z+	c #D9B888",
"A+	c #D9BC93",
"B+	c #E0C5A3",
"C+	c #E0CAAD",
"D+	c #E2D1B9",
"E+	c #D6B992",
"F+	c #F2F3F5",
"G+	c #EEF0F1",
"H+	c #E9E0D2",
"I+	c #DAB785",
"J+	c #D0A679",
"K+	c #B1733C",
"L+	c #B46D39",
"M+	c #AE6D40",
"N+	c #CBAC8D",
"O+	c #C9AB93",
"P+	c #CFD3D9",
"Q+	c #E2E2E4",
"R+	c #DFDDD9",
"S+	c #D8C6AA",
"T+	c #D1B285",
"U+	c #D7B17D",
"V+	c #D9B686",
"W+	c #DABD94",
"X+	c #DFC6A6",
"Y+	c #DAB98E",
"Z+	c #CEA46C",
"`+	c #CC9658",
" @	c #C7924E",
".@	c #ECE3DE",
"+@	c #DDC29C",
"@@	c #D2B991",
"#@	c #DEDDE3",
"$@	c #CCB8A6",
"%@	c #B78461",
"&@	c #A9643E",
"*@	c #DDCCB5",
"=@	c #D8D5D3",
"-@	c #DECCB3",
";@	c #D3AF79",
">@	c #D3A76F",
",@	c #D5AE7A",
"'@	c #D8B688",
")@	c #DBBC94",
"!@	c #DCBE91",
"~@	c #CC9D5C",
"{@	c #CB9A5F",
"]@	c #C99655",
"^@	c #CA9455",
"/@	c #C78F54",
"(@	c #D8C4A6",
"_@	c #D2C4AD",
":@	c #DADBE3",
"<@	c #E0E5E9",
"[@	c #E8ECF5",
"}@	c #E5E4E3",
"|@	c #D1BFB0",
"1@	c #D6B684",
"2@	c #CFA567",
"3@	c #D2A66E",
"4@	c #D5B07C",
"5@	c #D7B585",
"6@	c #D8B684",
"7@	c #D2A66A",
"8@	c #CC9E65",
"9@	c #DBBF9D",
"0@	c #E9DACA",
"a@	c #C49456",
"b@	c #C48E51",
"c@	c #C99C6A",
"d@	c #E0CFBC",
"e@	c #EDEFF0",
"f@	c #DCDDE2",
"g@	c #DDDEE4",
"h@	c #E7E7EB",
"i@	c #F1F2F4",
"j@	c #DECBB4",
"k@	c #D0A66B",
"l@	c #D6AF7B",
"m@	c #D8AF79",
"n@	c #D2A669",
"o@	c #CB9858",
"p@	c #C8914E",
"q@	c #E1CEB4",
"r@	c #E4D8C6",
"s@	c #D6B590",
"t@	c #CEA87A",
"u@	c #E2CDBA",
"v@	c #F0ECEA",
"w@	c #F1F3F4",
"x@	c #F0F2F2",
"y@	c #D6B795",
"z@	c #DBB277",
"A@	c #7F663E",
"B@	c #BF8E53",
"C@	c #C99657",
"D@	c #C89251",
"E@	c #D0A778",
"F@	c #CDA475",
"G@	c #E6D9C9",
"H@	c #EDECEA",
"I@	c #ECECE9",
"J@	c #DDB992",
"K@	c #957343",
"L@	c #B88852",
"M@	c #C69455",
"N@	c #CA9A64",
"O@	c #DBC9B3",
"P@	c #F0F2F4",
"Q@	c #E8E0D7",
"R@	c #9E6F3F",
"S@	c #B59770",
"T@	c #DFCAB2",
"U@	c #F0EEEF",
"V@	c #E0DAD3",
"W@	c #EDEBE7",
". . . . . . . . . . . . . + @ # . . . . . . . . ",
". . . . . . . . . $ @ % & * = - ; > , ' . . . . ",
". . . . . . @ ) ! ~ { ] ^ / ( _ : < [ } ' | @ . ",
". . . . . . 1 2 3 4 5 6 7 8 9 0 a b c d e f @ . ",
". . . . . g h i j k l m n o p q r s t u v w x @ ",
". . . @ y z A B C D E F G H I J K L M N O P Q > ",
". . . R S T U V W X Y Z `  ...+.@.#.$.%.&.' *.' ",
". . . ' =.-.;.>.C ,.` '.).!.~.{.].^./.(._.. . . ",
". . . @ @ :.<.[.}.|.1.2.3.4.5.6.7.8.9.0.a.. . . ",
". . . . . b.c.d.e.f.g.h.i.j.k.l.m.n.o.p.q.@ . . ",
"r.s.t.r.' u.v.w.x.y.z.A.B.C.D.E.F.G.H.I.J.K.. @ ",
"L.M.N.O.P.Q.R.S.T.U.V.W.X.Y.Z.`. +.+++@+#+$+%+' ",
"&+*+=+-+;+>+,+'+)+!+~+{+]+^+/+q !.(+_+:+<+[+}+' ",
"|+1+2+3+4+5+6+7+8+9+6 0+a+b+c+d+e+f+g+h+i+# j+@ ",
"|+k+l+m+n+o+p+q+r+s+t+u+2.v+w+x+y+z+A+B+C+D+E+F+",
". G+H+I+J+K+L+M+N+O+P+Q+R+S+T+U+V+W+X+Y+Z+`+ @.@",
". . } +@@@#@$@%@&@*@=@-@;@>@,@'@)@!@~@{@]@^@/@(@",
". . . , _@:@<@[@}@|@1@2@3@4@5@6@7@8@9@0@a@b@c@d@",
". . . @ e@f@g@h@' i@j@k@l@m@n@o@p@q@r@s@t@u@v@w@",
". . . . . @ @ . . . x@y@z@A@B@C@D@E@F@G@H@. . . ",
". . . . . . . . . . @ I@J@K@L@M@N@O@P@@ @ . . . ",
". . . . . . . . . . . > Q@R@S@T@U@w@@ . . . . . ",
". . . . . . . . . . . . | V@W@g . . . . . . . . ",
". . . . . . . . . . . . . . . . . . . . . . . . "};
