/* XPM */
static char * file_xpm[] = {
"24 24 114 2",
"  	c None",
". 	c #DCDCDC",
"+ 	c #D5D5D5",
"@ 	c #D7D7D7",
"# 	c #D2D2D2",
"$ 	c #D3D2D3",
"% 	c #D4D4D5",
"& 	c #D0D0D0",
"* 	c #C9C9C9",
"= 	c #C3C3C3",
"- 	c #BABABA",
"; 	c #F3F3F3",
"> 	c #E3E3E3",
", 	c #E1E1E1",
"' 	c #E0E0E0",
") 	c #E2E2E2",
"! 	c #E1E0E1",
"~ 	c #DDDEDD",
"{ 	c #DDDDDD",
"] 	c #D4D4D4",
"^ 	c #B8B8B8",
"/ 	c #EBEAEB",
"( 	c #DBDADB",
"_ 	c #D9D9D9",
": 	c #E6E6E6",
"< 	c #DFDFDF",
"[ 	c #DEDDDE",
"} 	c #DBDBDB",
"| 	c #B6B6B6",
"1 	c #C7C7C7",
"2 	c #F1F1F1",
"3 	c #EAEAEA",
"4 	c #DEDEDE",
"5 	c #D3D3D3",
"6 	c #D5D4D5",
"7 	c #D8D8D8",
"8 	c #D6D6D6",
"9 	c #D1D1D1",
"0 	c #BFBFBF",
"a 	c #E9E9E9",
"b 	c #E7E7E7",
"c 	c #E4E4E4",
"d 	c #E2E1E2",
"e 	c #B7B7B7",
"f 	c #F6F6F6",
"g 	c #EEEEEE",
"h 	c #CDCDCD",
"i 	c #B0B0B0",
"j 	c #8A8A8A",
"k 	c #909090",
"l 	c #A0A0A0",
"m 	c #ADADAD",
"n 	c #F2F2F2",
"o 	c #C5C5C5",
"p 	c #C6C6C6",
"q 	c #C5C6C5",
"r 	c #B5B5B5",
"s 	c #B4B4B4",
"t 	c #AFAFAF",
"u 	c #D9D8D9",
"v 	c #DADBDA",
"w 	c #979797",
"x 	c #F5F5F5",
"y 	c #ECECEC",
"z 	c #DADADA",
"A 	c #E9E9EA",
"B 	c #A6A6A5",
"C 	c #F4F4F4",
"D 	c #CACACA",
"E 	c #E8E8E9",
"F 	c #A2A2A1",
"G 	c #F7F7F7",
"H 	c #E4E3E3",
"I 	c #A8A8A8",
"J 	c #FFFFFF",
"K 	c #CFCFCF",
"L 	c #E8E8E8",
"M 	c #B1B1B1",
"N 	c #F8F8F8",
"O 	c #E7E7E8",
"P 	c #AEAEAD",
"Q 	c #FCFCFC",
"R 	c #C8C8C8",
"S 	c #B8B8B7",
"T 	c #FAFAFA",
"U 	c #EDEDED",
"V 	c #B3B3B3",
"W 	c #FDFDFD",
"X 	c #E5E5E5",
"Y 	c #E6E6E5",
"Z 	c #F5F4F5",
"` 	c #CBCBCB",
" .	c #FCFAFA",
"..	c #EBF1EF",
"+.	c #E7E6E7",
"@.	c #EFF4F3",
"#.	c #E1E0E0",
"$.	c #E3E4E3",
"%.	c #F9FAFA",
"&.	c #F3F2F2",
"*.	c #EBEBEB",
"=.	c #E5E5E4",
"-.	c #D9DADA",
";.	c #D3D6D5",
">.	c #D0D1D1",
",.	c #CECECE",
"'.	c #EBEBEA",
").	c #B9B9B8",
"!.	c #FEFEFE",
"~.	c #EFEFEF",
"{.	c #FBFBFB",
"].	c #EBEBEC",
"^.	c #BDBDBD",
"/.	c #C1C1C1",
"        . + @ # $ % & * = -                     ",
"        ; > , ' ) > ! ~ { ] = ^                 ",
"        / ( _ @ > : < [ } _ = | 1               ",
"        2 3 4 { 5 ' 6 7 8 ] 9 ^ ; 0             ",
"        a b ' c { : d , } _ 8 e f g h           ",
"        f > } . . . . . . . { i j k l m         ",
"        n c o p o o o q p p p 1 r s t e         ",
"        n 3 ' c { : [ { . } . . . u v 9 w       ",
"        x y z } } } } . . . { > 4 , c A B       ",
"        C y ) 7 9 5 & h p D # p p p 4 E F       ",
"        G y < . ' < ' ' 4 < , _ 7 8 H E I       ",
"        J 2 c D b 8 # K D # D 4 4 D L E M       ",
"        N ; < { ' c L { < < ' . 4 < ' O P       ",
"        Q C 3 z K R D 5 } D 7 } D 9 ' L S       ",
"        T U _ 8 _ ' [ 4 z z { 4 4 4 ' O V       ",
"        W n b 4 ) , { c , 4 { X ' ) Y L -       ",
"        N Z < _ # 5 & h p * # D ` D 4 O s       ",
"         ...> . ' < ' ' 4 < ) z z _ +.O S       ",
"         .@.#.7 5 8 # K D # D ` ` D $.O S       ",
"        %.&.*.) ' c L . < < ' { 4 ' =.O V       ",
"        J n -.;.>.,.K 5 c * D D * @ '.O ).      ",
"        !.G n a ~.U y C x N {.T T x N ].^.      ",
"        p M ^ e i V | r e M M M ^ e t /.        ",
"                                                "};
