/* XPM */
static char * files_xpm[] = {
"24 24 84 1",
" 	c None",
".	c #BBBABB",
"+	c #AFAFAF",
"@	c #DCDBDC",
"#	c #DADADA",
"$	c #DEDEDE",
"%	c #DADBDA",
"&	c #D7D7D7",
"*	c #C8C8C8",
"=	c #B7B7B7",
"-	c #C3C3C3",
";	c #E0E0E0",
">	c #D5D5D5",
",	c #CFCFCF",
"'	c #C4C4C4",
")	c #DFDFDF",
"!	c #DCDCDC",
"~	c #ACACAC",
"{	c #B6B6B6",
"]	c #BBBBBB",
"^	c #E3E3E3",
"/	c #D9D9D9",
"(	c #E6E6E6",
"_	c #E5E4E4",
":	c #D8D8D8",
"<	c #DDDDDD",
"[	c #DBDBDB",
"}	c #D1D1D1",
"|	c #BABABA",
"1	c #B2B2B2",
"2	c #A8A8A8",
"3	c #E1E0E1",
"4	c #C9C9C9",
"5	c #B9B9B9",
"6	c #B5B5B5",
"7	c #E2E1E2",
"8	c #D4D4D4",
"9	c #DBDCDC",
"0	c #E4E4E4",
"a	c #E1E1E1",
"b	c #A2A2A2",
"c	c #D4D5D5",
"d	c #CED1D0",
"e	c #D0D3D2",
"f	c #D6D6D6",
"g	c #E2E2E2",
"h	c #E4E5E6",
"i	c #D8D9D9",
"j	c #DBD7D8",
"k	c #DCDADB",
"l	c #DAD9D9",
"m	c #E7E7E7",
"n	c #B1B1B1",
"o	c #D8D6D7",
"p	c #E1D5D8",
"q	c #E6D4D9",
"r	c #E3D7DA",
"s	c #E2E4E4",
"t	c #E8E9E9",
"u	c #DFE2E1",
"v	c #B4B4B4",
"w	c #BFBFBF",
"x	c #DBD9DA",
"y	c #DBDADA",
"z	c #DEDCDE",
"A	c #B6B3B4",
"B	c #E5E5E5",
"C	c #E2DFE1",
"D	c #B8B3B4",
"E	c #DCDBDB",
"F	c #DDDCDC",
"G	c #E5E8E8",
"H	c #B9B9BB",
"I	c #D3D5D5",
"J	c #D4D6D6",
"K	c #EBEBEB",
"L	c #EDEDED",
"M	c #D6DADA",
"N	c #D9DEDF",
"O	c #DBDFE0",
"P	c #EAEAEA",
"Q	c #E8E8E8",
"R	c #DCDCDB",
"S	c #BDBDBD",
"                        ",
"   ........+            ",
"   .@#$$%&*=-           ",
"   .;###&>,'>*          ",
"   .)!........~         ",
"   .)#.@#$$%&*{]        ",
"   .^/.;###&>,'>*       ",
"   .($.)!.........      ",
"   .(!.)#.@#$$%&*{]     ",
"   ._:.^/.;###&>,'>*    ",
"   .<#.($.)![[[/}||12   ",
"   .3<.(!.)#[##!&4.56   ",
"   .7#._:.^/8>90^a<!,b  ",
"   .)8.<#.($cdef#$)g:2  ",
"   .hi.3<.(!//jkl:)m;n  ",
"   .g[.7#._:&opqrsmtuv  ",
"   w5=.)8.<###x[y[[gzA  ",
"      .hi.3<<<<<<<<BCD  ",
"      .g[.7#####EF)(GH  ",
"      w5=.)8IJJf&FKL(5  ",
"         .hiMNO00gPKQ5  ",
"         .g[/R<^^gB0)S  ",
"         w5=6=55=5]5w   ",
"                        "};
