/* XPM */
static char * folderI_xpm[] = {
"24 24 221 2",
"  	c None",
". 	c #6998FF",
"+ 	c #6499FF",
"@ 	c #6498FF",
"# 	c #6A9CFF",
"$ 	c #738CE1",
"% 	c #6EA8FF",
"& 	c #6A93FF",
"* 	c #6D94FF",
"= 	c #6D9AFF",
"- 	c #6D9FFF",
"; 	c #6E7FAA",
"> 	c #687398",
", 	c #6878A3",
"' 	c #697AAE",
") 	c #6C7EB8",
"! 	c #6984C2",
"~ 	c #6A87CE",
"{ 	c #6A88D8",
"] 	c #698ADA",
"^ 	c #687DB8",
"/ 	c #79DAFF",
"( 	c #727575",
"_ 	c #716C62",
": 	c #6F6C62",
"< 	c #6F6E63",
"[ 	c #6E6D67",
"} 	c #6E6E69",
"| 	c #6D6E69",
"1 	c #6F6F6C",
"2 	c #6E6F6C",
"3 	c #6D6F6A",
"4 	c #6A6E69",
"5 	c #6C6F6C",
"6 	c #717171",
"7 	c #756F6F",
"8 	c #7EBEFF",
"9 	c #73A3FF",
"0 	c #6FA4FF",
"a 	c #699CFF",
"b 	c #6795FF",
"c 	c #6494FF",
"d 	c #6692FF",
"e 	c #6490FF",
"f 	c #6690FF",
"g 	c #668FFF",
"h 	c #678EFF",
"i 	c #668CFF",
"j 	c #668DFF",
"k 	c #678DFF",
"l 	c #688DFF",
"m 	c #678FFF",
"n 	c #6994FF",
"o 	c #6C99FF",
"p 	c #739FFF",
"q 	c #6FAAFF",
"r 	c #69A2FF",
"s 	c #669AFF",
"t 	c #6390FF",
"u 	c #618DFF",
"v 	c #5E8AFF",
"w 	c #6188FF",
"x 	c #6389FF",
"y 	c #668EFF",
"z 	c #689AFF",
"A 	c #74AFFF",
"B 	c #6EA5FF",
"C 	c #68A0FF",
"D 	c #6397FF",
"E 	c #628FFF",
"F 	c #4891C6",
"G 	c #5F87FF",
"H 	c #6288FF",
"I 	c #638DFF",
"J 	c #679CFF",
"K 	c #6FA3FF",
"L 	c #6CA3FF",
"M 	c #68A5FF",
"N 	c #6398FF",
"O 	c #6193FF",
"P 	c #5E8AFE",
"Q 	c #638CFB",
"R 	c #69CA74",
"S 	c #4894B9",
"T 	c #628CFC",
"U 	c #628AFE",
"V 	c #628DFE",
"W 	c #6392FF",
"X 	c #6EA2FF",
"Y 	c #68A9FF",
"Z 	c #649CFF",
"` 	c #6295FF",
" .	c #6293F5",
"..	c #ACE4AC",
"+.	c #489AB4",
"@.	c #618FFE",
"#.	c #618FFF",
"$.	c #628EFD",
"%.	c #618EFE",
"&.	c #628EFE",
"*.	c #618EFF",
"=.	c #6191FF",
"-.	c #6296FF",
";.	c #679FFF",
">.	c #6E9EFF",
",.	c #6A9DFF",
"'.	c #69ADFF",
").	c #66A0FF",
"!.	c #97D2B7",
"~.	c #3CBE44",
"{.	c #79D47B",
"].	c #7FC8A3",
"^.	c #7AC89A",
"/.	c #6DB6B7",
"(.	c #629AFF",
"_.	c #67A2FF",
":.	c #6C98FF",
"<.	c #6DA0FF",
"[.	c #69B0FF",
"}.	c #64A6FF",
"|.	c #97D3B7",
"1.	c #7FC9A3",
"2.	c #7AC99A",
"3.	c #6EB9B7",
"4.	c #649EFF",
"5.	c #67A3FF",
"6.	c #6C95FF",
"7.	c #6DA2FF",
"8.	c #6DB7FF",
"9.	c #64ACFF",
"0.	c #64A0FF",
"a.	c #639EF5",
"b.	c #49A0B4",
"c.	c #6196FF",
"d.	c #6095FF",
"e.	c #6093FF",
"f.	c #6195FF",
"g.	c #6299FF",
"h.	c #629CFF",
"i.	c #649DFF",
"j.	c #6A8EF4",
"k.	c #6DA5FF",
"l.	c #6DC0FF",
"m.	c #68B5FF",
"n.	c #68ADFF",
"o.	c #67AAFE",
"p.	c #66A5FF",
"q.	c #69CC75",
"r.	c #48A3BC",
"s.	c #649FFF",
"t.	c #659FFF",
"u.	c #639BFF",
"v.	c #6399FF",
"w.	c #66A2FF",
"x.	c #669FFF",
"y.	c #669CFF",
"z.	c #698CEB",
"A.	c #6FA9FF",
"B.	c #6FC8FF",
"C.	c #6AC0FF",
"D.	c #6CBAFF",
"E.	c #69B7FF",
"F.	c #69B4FF",
"G.	c #69B3FF",
"H.	c #50B0C6",
"I.	c #69B1FF",
"J.	c #69B2FF",
"K.	c #68B0FF",
"L.	c #67ADFF",
"M.	c #68B2FF",
"N.	c #67A7FF",
"O.	c #679EFF",
"P.	c #679AFF",
"Q.	c #6D8EE8",
"R.	c #72ADFF",
"S.	c #73D0FF",
"T.	c #72C9FF",
"U.	c #6FC4FF",
"V.	c #6EC2FF",
"W.	c #6EBFFF",
"X.	c #6DBAFF",
"Y.	c #6EB8FF",
"Z.	c #6CB3FF",
"`.	c #6AB0FF",
" +	c #6CAFFF",
".+	c #6AAAFF",
"++	c #6AA5FF",
"@+	c #69A3FF",
"#+	c #69A5FF",
"$+	c #6E90E5",
"%+	c #7CA7EB",
"&+	c #84D6FF",
"*+	c #8ADAFF",
"=+	c #8FDEFF",
"-+	c #94E0FF",
";+	c #9AE5FF",
">+	c #9FE5FF",
",+	c #9FE8FF",
"'+	c #A2E6FF",
")+	c #9EE0FF",
"!+	c #9DDDFF",
"~+	c #99D6FF",
"{+	c #94D0FF",
"]+	c #8EC9FF",
"^+	c #87C3FF",
"/+	c #84C5FF",
"(+	c #7C98CE",
"_+	c #787A7A",
":+	c #7D8182",
"<+	c #838587",
"[+	c #888A8C",
"}+	c #959798",
"|+	c #9A9C9D",
"1+	c #9D9FA0",
"2+	c #9D9E9F",
"3+	c #9C9C9D",
"4+	c #939394",
"5+	c #858888",
"6+	c #818484",
"7+	c #7C7F7F",
"8+	c #77797A",
"                                                ",
"                                                ",
"                                                ",
"                                                ",
"          . + @ @ + #                           ",
"        $ % & * . = - ; > , ' ) ! ~ { ] ^       ",
"        / ( _ : < [ [ } | 1 2 3 4 5 6 7 8       ",
"      9 0 a b c d e f g h i j i k l m n o p     ",
"      q r s t u v v v v v v v v w w x y z A     ",
"      B C D E v v v F v v v v v v G H I J K     ",
"      L M N O P Q R S Q Q T Q Q Q U V W J K     ",
"      X Y Z `  ...+.@.#.@.$.%.@.&.*.=.-.;.>.    ",
"      ,.'.).!.~.{.].^.^.^.^.^.^.^.^./.(._.:.    ",
"      <.[.}.|.~.{.1.2.2.^.^.^.2.2.2.3.4.5.6.    ",
"      7.8.9.0.a...b.c.d.d.e.=.f.g.h.i.4._.j.    ",
"      k.l.m.n.o.p.q.r.s.t.u.v.s.w.w.x.y.C z.    ",
"      A.B.C.D.E.F.G.H.I.J.K.L.M.N.w.O.P.r Q.    ",
"      R.S.T.U.V.W.X.Y.8.Z.`. +.+++@+;.P.#+$+    ",
"      %+&+*+=+-+;+>+,+'+'+>+)+!+~+{+]+^+/+(+    ",
"          _+:+<+[+}+|+1+1+2+3+4+5+6+7+8+        ",
"                                                ",
"                                                ",
"                                                ",
"                                                "};
