/* XPM */
static char * folder_current_xpm[] = {
"24 24 146 2",
"  	c None",
". 	c #E9E7E5",
"+ 	c #706953",
"@ 	c #C8C4C2",
"# 	c #696149",
"$ 	c #787058",
"% 	c #837C7D",
"& 	c #A2A2A1",
"* 	c #747369",
"= 	c #766F66",
"- 	c #938B83",
"; 	c #5F5C59",
"> 	c #E2E2E2",
", 	c #575350",
"' 	c #5E5B5B",
") 	c #777474",
"! 	c #848381",
"~ 	c #C5C4C2",
"{ 	c #B4B1A8",
"] 	c #EAE9E6",
"^ 	c #E1DFDD",
"/ 	c #979490",
"( 	c #8C8986",
"_ 	c #C7C5C3",
": 	c #B3B0AF",
"< 	c #AAA6A4",
"[ 	c #D1D0CC",
"} 	c #E4E2DE",
"| 	c #7B7667",
"1 	c #B9B3AF",
"2 	c #D1D0CF",
"3 	c #D2D0D0",
"4 	c #F6F5F5",
"5 	c #FCFBFB",
"6 	c #F7F6F6",
"7 	c #BEBBB3",
"8 	c #DDDBD6",
"9 	c #C9C7C3",
"0 	c #CFCDCC",
"a 	c #C9C7C7",
"b 	c #D4D3D2",
"c 	c #E8E8E7",
"d 	c #F8F8F8",
"e 	c #FDFDFD",
"f 	c #FCFCFC",
"g 	c #FAFAFA",
"h 	c #B5B2AB",
"i 	c #A29F98",
"j 	c #D1D0D1",
"k 	c #C6C5C4",
"l 	c #CBC9C8",
"m 	c #E0DFDF",
"n 	c #F4F4F4",
"o 	c #FEFEFE",
"p 	c #F0F0F0",
"q 	c #E6E5E5",
"r 	c #D0CBC1",
"s 	c #CFCDC8",
"t 	c #BEBCBC",
"u 	c #CDCDCC",
"v 	c #EAE9E9",
"w 	c #FBFBFC",
"x 	c #FDFDFE",
"y 	c #F9F9F9",
"z 	c #FAFBFB",
"A 	c #F1F1F1",
"B 	c #B2AEAA",
"C 	c #BBB5A3",
"D 	c #CCCBC9",
"E 	c #BBBAB9",
"F 	c #BAB9B8",
"G 	c #EEEEEE",
"H 	c #FBFBFB",
"I 	c #FEFEFF",
"J 	c #FFFFFF",
"K 	c #F6F6F7",
"L 	c #F3F3F4",
"M 	c #D5D3D2",
"N 	c #E0E0DE",
"O 	c #A8A28D",
"P 	c #CFCDCB",
"Q 	c #B8B5B6",
"R 	c #D5D3D3",
"S 	c #F2F2F2",
"T 	c #FBFCFC",
"U 	c #F6F7F7",
"V 	c #F5F5F6",
"W 	c #E3E1E1",
"X 	c #E9E8E7",
"Y 	c #AAA590",
"Z 	c #CAC9C7",
"` 	c #B9B6B6",
" .	c #BBB9B9",
"..	c #D8D6D6",
"+.	c #F5F4F4",
"@.	c #FCFCFD",
"#.	c #F1F0F0",
"$.	c #E9E8E8",
"%.	c #A6A090",
"&.	c #CDCCCA",
"*.	c #B9B8B7",
"=.	c #B8B6B6",
"-.	c #D0CFCF",
";.	c #FEFEFD",
">.	c #DCDBDB",
",.	c #C5C1B9",
"'.	c #B5B2AC",
").	c #BCBABA",
"!.	c #C6C5C5",
"~.	c #DFDFDF",
"{.	c #F3F2F2",
"].	c #C2C2C2",
"^.	c #EBEBE8",
"/.	c #7E7970",
"(.	c #BBB8B7",
"_.	c #B7B6B5",
":.	c #C4C3C3",
"<.	c #D4D3D3",
"[.	c #F6F6F5",
"}.	c #AFACA7",
"|.	c #9E9A94",
"1.	c #B2B1B0",
"2.	c #ADAAAA",
"3.	c #ACAAA9",
"4.	c #B5B3B2",
"5.	c #C7C5C5",
"6.	c #DAD9D9",
"7.	c #E5E4E4",
"8.	c #A9A6A5",
"9.	c #BAB8B5",
"0.	c #928E87",
"a.	c #969491",
"b.	c #939190",
"c.	c #9B9898",
"d.	c #AFAEAD",
"e.	c #C3C2C2",
"f.	c #CECCCB",
"g.	c #A8A49F",
"h.	c #E7E4E1",
"i.	c #A7A29C",
"j.	c #736B66",
"k.	c #98918F",
"l.	c #94928F",
"m.	c #9E9C9A",
"n.	c #B9B7B5",
"o.	c #E4E3E3",
"                                                ",
"                                                ",
"                . +                             ",
"                @ # $ %                         ",
"              & * = - ; >                       ",
"              ,   ' ) ! ~                       ",
"            { ] ^ / ( _ : < [                   ",
"            } | 1 2 3 > 4 5 6 7                 ",
"            8 9 0 a b c d e f g h               ",
"            i j k l m n e o e 4 p q             ",
"          r s k t u v w o x y z A B             ",
"          C D E F 2 G H I e J K L M N           ",
"          O P Q F R S e T o x U V W X           ",
"          Y Z `  ...+.e o x o @.H #.$.          ",
"          %.&.*.=.-.p e o o x ;.f >.            ",
"          ,.'.).=.!.~.{.H o e o e ].            ",
"          ^./.(._.*.:.<.q A [.y d               ",
"            }.|.1.2.3.4.5.6.7.p 8.              ",
"              9.0.a.b.c.d.e.f.g.                ",
"                h.i.j.k.l.m.n.                  ",
"                      o.                        ",
"                                                ",
"                                                ",
"                                                "};
