/* XPM */
static char * git_push_xpm[] = {
"24 24 86 1",
" 	c None",
".	c #000101",
"+	c #BF2323",
"@	c #922727",
"#	c #C62121",
"$	c #CC1818",
"%	c #BA1616",
"&	c #6C2D2D",
"*	c #BB2222",
"=	c #C41B1B",
"-	c #C61A19",
";	c #C21B1B",
">	c #501414",
",	c #942323",
"'	c #BA1D1D",
")	c #BD1C1C",
"!	c #BC1B1C",
"~	c #BC1C1C",
"{	c #AC1A1A",
"]	c #6A2424",
"^	c #AE2020",
"/	c #B21E1E",
"(	c #B21F1E",
"_	c #B31E1E",
":	c #451515",
"<	c #A92121",
"[	c #9F2222",
"}	c #A82021",
"|	c #A82121",
"1	c #A82120",
"2	c #9D1E1F",
"3	c #9E2322",
"4	c #9E2525",
"5	c #9F2323",
"6	c #9E2323",
"7	c #A02323",
"8	c #973333",
"9	c #942625",
"0	c #962627",
"a	c #942526",
"b	c #952525",
"c	c #952625",
"d	c #942525",
"e	c #962B2B",
"f	c #8B2828",
"g	c #8A2827",
"h	c #8A2828",
"i	c #8B2728",
"j	c #8C2C2B",
"k	c #832F2F",
"l	c #812A2A",
"m	c #802A2A",
"n	c #832B2B",
"o	c #772C2D",
"p	c #772C2C",
"q	c #772D2D",
"r	c #000000",
"s	c #6D2F2F",
"t	c #6C2F2E",
"u	c #643131",
"v	c #633131",
"w	c #633132",
"x	c #593333",
"y	c #593433",
"z	c #593334",
"A	c #593434",
"B	c #4F3636",
"C	c #453838",
"D	c #453938",
"E	c #463838",
"F	c #453839",
"G	c #3B3B3B",
"H	c #3C3B3B",
"I	c #3C3A3B",
"J	c #313D3D",
"K	c #323D3D",
"L	c #273F3F",
"M	c #28403F",
"N	c #274040",
"O	c #283F3F",
"P	c #1E4241",
"Q	c #1D4242",
"R	c #1E4242",
"S	c #1D4142",
"T	c #144444",
"U	c #134444",
"           ..           ",
"          .++.          ",
"          .++.          ",
"         .@#$%.         ",
"        .&*=-;>.        ",
"        .,')!~{.        ",
"       .]^///(_:.       ",
"      .<[<}|}1|22.      ",
"      .3435656678.      ",
"     .990a9bccbdee.     ",
"    .fgfhgfihhhfjff.    ",
"   .kkkklllmlmmmnnnk.   ",
"   .......opqq.......   ",
"         rstssr         ",
"         ruvvwr         ",
"         rxyzAr         ",
"         rBBBBr         ",
"         rCDEFr         ",
"         rGGHIr         ",
"         rJKKJr         ",
"         rLMNOr         ",
"         rPQRSr         ",
"         rTTUTr         ",
"         r.rr.r         "};
