/* XPM */
static char * git_repo_xpm[] = {
"24 24 236 2",
"  	c None",
". 	c #6998FF",
"+ 	c #6499FF",
"@ 	c #6498FF",
"# 	c #6A9CFF",
"$ 	c #738CE1",
"% 	c #6EA8FF",
"& 	c #6A93FF",
"* 	c #6D94FF",
"= 	c #6D9AFF",
"- 	c #6D9FFF",
"; 	c #6E7FAA",
"> 	c #62788F",
", 	c #607E96",
"' 	c #697AAE",
") 	c #6C7EB8",
"! 	c #6984C2",
"~ 	c #6A87CE",
"{ 	c #6A88D8",
"] 	c #698ADA",
"^ 	c #687DB8",
"/ 	c #79DAFF",
"( 	c #727575",
"_ 	c #716C62",
": 	c #6F6C62",
"< 	c #6F6E63",
"[ 	c #6E6D67",
"} 	c #6E6E69",
"| 	c #548B57",
"1 	c #4E925F",
"2 	c #6E6F6C",
"3 	c #6D6F6A",
"4 	c #6A6E69",
"5 	c #6C6F6C",
"6 	c #717171",
"7 	c #756F6F",
"8 	c #7EBEFF",
"9 	c #73A3FF",
"0 	c #6FA4FF",
"a 	c #699CFF",
"b 	c #6795FF",
"c 	c #6494FF",
"d 	c #6692FF",
"e 	c #638FFD",
"f 	c #5E9ECF",
"g 	c #55A2B3",
"h 	c #4AAC87",
"i 	c #427B00",
"j 	c #55A1B3",
"k 	c #5D9DC9",
"l 	c #668DFB",
"m 	c #688DFF",
"n 	c #678FFF",
"o 	c #6994FF",
"p 	c #6C99FF",
"q 	c #739FFF",
"r 	c #6FAAFF",
"s 	c #69A2FF",
"t 	c #669AFF",
"u 	c #6390FF",
"v 	c #768CE4",
"w 	c #59A6B1",
"x 	c #6292F9",
"y 	c #668EFF",
"z 	c #689AFF",
"A 	c #74AFFF",
"B 	c #6EA5FF",
"C 	c #68A0FF",
"D 	c #6397FF",
"E 	c #628FFF",
"F 	c #5E8AFF",
"G 	c #7B7FD6",
"H 	c #AD6D94",
"I 	c #6688EC",
"J 	c #5C8BF7",
"K 	c #4C9FAC",
"L 	c #5D8CF9",
"M 	c #5F87FF",
"N 	c #6288FF",
"O 	c #638FFF",
"P 	c #679EFF",
"Q 	c #6FA3FF",
"R 	c #6CA3FF",
"S 	c #68A5FF",
"T 	c #6398FF",
"U 	c #6193FF",
"V 	c #A272A3",
"W 	c #CE5E62",
"X 	c #7182E4",
"Y 	c #6981E9",
"Z 	c #678FCC",
"` 	c #6884ED",
" .	c #6188FF",
"..	c #649AFF",
"+.	c #689FFF",
"@.	c #6EA2FF",
"#.	c #68A9FF",
"$.	c #649CFF",
"%.	c #6295FF",
"&.	c #618FFF",
"*.	c #AA7199",
"=.	c #D35E5F",
"-.	c #A86995",
";.	c #BD1B35",
">.	c #668CF6",
",.	c #6293FF",
"'.	c #6197FF",
").	c #639AFF",
"!.	c #68A2FF",
"~.	c #6F9EFF",
"{.	c #6A9DFF",
"].	c #69ADFF",
"^.	c #66A0FF",
"/.	c #6297FF",
"(.	c #5F93FF",
"_.	c #9A7EB2",
":.	c #CD6569",
"<.	c #8083D0",
"[.	c #7E7AC4",
"}.	c #7E7BC7",
"|.	c #7E7BC5",
"1.	c #7984D5",
"2.	c #5E94FF",
"3.	c #5F98FF",
"4.	c #639DFF",
"5.	c #68A3FF",
"6.	c #6C98FF",
"7.	c #6DA0FF",
"8.	c #69B0FF",
"9.	c #64A7FF",
"0.	c #629DFF",
"a.	c #8694DB",
"b.	c #C27483",
"c.	c #5E6F7C",
"d.	c #465338",
"e.	c #6190D9",
"f.	c #577593",
"g.	c #629CFF",
"h.	c #649EFF",
"i.	c #67A3FF",
"j.	c #6C95FF",
"k.	c #6DA2FF",
"l.	c #6DB7FF",
"m.	c #64ADFF",
"n.	c #64A3FF",
"o.	c #62A0FF",
"p.	c #A386AD",
"q.	c #D06967",
"r.	c #6085BD",
"s.	c #6099F1",
"t.	c #6093E0",
"u.	c #639EFF",
"v.	c #629EFF",
"w.	c #67A2FF",
"x.	c #6A8EF4",
"y.	c #6DA5FF",
"z.	c #6DC0FF",
"A.	c #68B5FF",
"B.	c #68AEFF",
"C.	c #64ABFF",
"D.	c #AC7D9D",
"E.	c #CE6464",
"F.	c #6591C3",
"G.	c #67AEFF",
"H.	c #66ABFD",
"I.	c #6595D2",
"J.	c #639DEE",
"K.	c #66A2FF",
"L.	c #669FFF",
"M.	c #669CFF",
"N.	c #698CEB",
"O.	c #6FA9FF",
"P.	c #6FC8FF",
"Q.	c #6AC0FF",
"R.	c #6CBAFF",
"S.	c #69B7FF",
"T.	c #B0859B",
"U.	c #B47A8B",
"V.	c #78979C",
"W.	c #6AA0DB",
"X.	c #68A0DF",
"Y.	c #67A7FF",
"Z.	c #679AFF",
"`.	c #72ADFF",
" +	c #6D8EE8",
".+	c #73D0FF",
"++	c #72C9FF",
"@+	c #6FC4FF",
"#+	c #6EC2FF",
"$+	c #9E93B0",
"%+	c #A48AA4",
"&+	c #76BFE9",
"*+	c #5E8690",
"=+	c #4F6C6C",
"-+	c #46563F",
";+	c #728E95",
">+	c #72B1FB",
",+	c #6AA5FF",
"'+	c #69A3FF",
")+	c #679FFF",
"!+	c #69A5FF",
"~+	c #6E90E5",
"{+	c #7CA7EB",
"]+	c #84D6FF",
"^+	c #8ADAFF",
"/+	c #8FDEFF",
"(+	c #94E0FF",
"_+	c #98E1FD",
":+	c #ADB8C9",
"<+	c #9DE7FF",
"[+	c #9FE4FF",
"}+	c #8CC5D4",
"|+	c #9DE5FF",
"1+	c #9EE0FF",
"2+	c #9DDDFF",
"3+	c #98D5FE",
"4+	c #92D0FE",
"5+	c #8DCAFF",
"6+	c #87C3FF",
"7+	c #84C5FF",
"8+	c #7C98CE",
"9+	c #787A7A",
"0+	c #7D8182",
"a+	c #838587",
"b+	c #8E8586",
"c+	c #AF7F7E",
"d+	c #8D8F90",
"e+	c #909394",
"f+	c #959798",
"g+	c #959697",
"h+	c #98999A",
"i+	c #939394",
"j+	c #888A8B",
"k+	c #828585",
"l+	c #7A7D7D",
"m+	c #77797A",
"                                                ",
"                                                ",
"                                                ",
"                                                ",
"          . + @ @ + #                           ",
"        $ % & * . = - ; > , ' ) ! ~ { ] ^       ",
"        / ( _ : < [ [ } | 1 2 3 4 5 6 7 8       ",
"      9 0 a b c d e f g h i j k l m n o p q     ",
"      r s t u u u v w i i i i i x u u y z A     ",
"      B C D E F G H I J K i J L F M N O P Q     ",
"      R S T U F V W X Y Z 1 Y ` F  .E ..+.Q     ",
"      @.#.$.%.&.*.=.-.;.;.;.;.;.>.,.'.).!.~.    ",
"      {.].^./.(._.:.<.[.}.|.|.1.(.2.3.4.5.6.    ",
"      7.8.9.0.3.a.b.c.d.e.d.d.f.3.3.g.h.i.j.    ",
"      k.l.m.n.o.p.q.d.r.s.d.t.d.u.v.h.h.w.x.    ",
"      y.z.A.B.C.D.E.d.F.G.H.I.d.J.K.L.M.C N.    ",
"      O.P.Q.R.S.T.U.V.d.W.X.d.V.Y.K.P Z.`. +    ",
"      `..+++@+#+$+%+&+*+=+-+;+>+,+'+)+Z.!+~+    ",
"      {+]+^+/+(+_+:+<+[+}+|+1+2+3+4+5+6+7+8+    ",
"          9+0+a+b+c+d+e+f+g+h+i+j+k+l+m+        ",
"                                                ",
"                                                ",
"                                                ",
"                                                "};
