/* XPM */
static char * is_class_xpm[] = {
"24 24 126 2",
"  	c None",
". 	c #E0FAF2",
"+ 	c #D1B1AC",
"@ 	c #D8565F",
"# 	c #D64148",
"$ 	c #D93334",
"% 	c #DF3034",
"& 	c #D13E42",
"* 	c #C6C5C3",
"= 	c #BC6A6E",
"- 	c #D23A3B",
"; 	c #D6050A",
"> 	c #D9020A",
", 	c #DE070F",
"' 	c #DE0A12",
") 	c #D7060F",
"! 	c #DB2934",
"~ 	c #E25E5C",
"{ 	c #AA505B",
"] 	c #D40E16",
"^ 	c #DB1D22",
"/ 	c #DB5753",
"( 	c #DC5F63",
"_ 	c #E7727C",
": 	c #E3444D",
"< 	c #E01D27",
"[ 	c #DB131C",
"} 	c #D83437",
"| 	c #984C4E",
"1 	c #B81620",
"2 	c #E01117",
"3 	c #E2535C",
"4 	c #DC9197",
"5 	c #DF4149",
"6 	c #D91B24",
"7 	c #D8090D",
"8 	c #D2504E",
"9 	c #AE3F43",
"0 	c #D71416",
"a 	c #D82128",
"b 	c #E4A8AE",
"c 	c #EBFAFA",
"d 	c #C49C9F",
"e 	c #BF3F45",
"f 	c #D8171F",
"g 	c #D6030B",
"h 	c #CF404B",
"i 	c #CA5F63",
"j 	c #DF1D26",
"k 	c #DA1922",
"l 	c #DD3B46",
"m 	c #DDA29F",
"n 	c #AA9692",
"o 	c #A02225",
"p 	c #DF1720",
"q 	c #D6050D",
"r 	c #DF626C",
"s 	c #EB8088",
"t 	c #EC293A",
"u 	c #DD1721",
"v 	c #DA1515",
"w 	c #DC414A",
"x 	c #8E514F",
"y 	c #AD1319",
"z 	c #DD181F",
"A 	c #D9272D",
"B 	c #EA7D74",
"C 	c #E2888F",
"D 	c #EA4A57",
"E 	c #E40719",
"F 	c #DB0610",
"G 	c #E0444E",
"H 	c #A43B3B",
"I 	c #D81723",
"J 	c #D90D11",
"K 	c #DC6662",
"L 	c #E88E99",
"M 	c #EB8786",
"N 	c #E37F81",
"O 	c #833B36",
"P 	c #AC121A",
"Q 	c #E4101B",
"R 	c #DB2223",
"S 	c #A2494C",
"T 	c #CB1013",
"U 	c #DB1319",
"V 	c #E25053",
"W 	c #C66365",
"X 	c #DA181B",
"Y 	c #DD3F43",
"Z 	c #F49297",
"` 	c #E22E30",
" .	c #DD5557",
"..	c #F28589",
"+.	c #E53838",
"@.	c #DA4749",
"#.	c #F28792",
"$.	c #EB3743",
"%.	c #DA3237",
"&.	c #EBD6D7",
"*.	c #F1B7BE",
"=.	c #E59B9D",
"-.	c #DADDDB",
";.	c #BA9699",
">.	c #C65357",
",.	c #D73739",
"'.	c #DC7776",
").	c #AC7673",
"!.	c #B61219",
"~.	c #E5111E",
"{.	c #D9121C",
"].	c #D7181B",
"^.	c #DC8B89",
"/.	c #D07D80",
"(.	c #DB373C",
"_.	c #D41A19",
":.	c #D7191D",
"<.	c #D5080D",
"[.	c #DB6B6E",
"}.	c #EDB3B9",
"|.	c #EB7B84",
"1.	c #E83038",
"2.	c #D91B22",
"3.	c #DB4448",
"4.	c #E79CA2",
"5.	c #F06D6A",
"                                                ",
"                                                ",
"                                                ",
"                  . + @ # $ % &                 ",
"                * = - ; > , ' ) ! ~             ",
"                { ] ^ / ( _ : < [ }             ",
"              | 1 2 3       4 5 6 7 8           ",
"              9 0 a b c     d e f g h           ",
"              i j k l m     n o p q r           ",
"              s t u v w     x y z A B           ",
"              C D E F G     H I J K             ",
"                L M N     O P Q R               ",
"                          S T U V               ",
"                          W X Y                 ",
"                          Z `  .                ",
"                          ..+.@.                ",
"                          #.$.%.                ",
"                          &.*.=.                ",
"                          -.;.>.,.'.            ",
"                          ).!.~.{.].^.          ",
"                          /.(._.:.<.[.          ",
"                          }.|.1.2.3.4.          ",
"                              5.                ",
"                                                "};
