/* XPM */
static char * models_xpm[] = {
"24 24 56 1",
" 	c None",
".	c #5A5BD1",
"+	c #6455D0",
"@	c #6556D6",
"#	c #6A56D8",
"$	c #6556D7",
"%	c #6357C9",
"&	c #A7A6D7",
"*	c #9AA5CC",
"=	c #A8A6D7",
"-	c #A9A5D7",
";	c #A3A9D4",
">	c #FFFFFF",
",	c #FFFFE5",
"'	c #FFFFEF",
")	c #FFFFED",
"!	c #D1D1E0",
"~	c #FB9CEB",
"{	c #FFAEFC",
"]	c #9B9A9B",
"^	c #777869",
"/	c #959689",
"(	c #6A6B60",
"_	c #FFFFFB",
":	c #616650",
"<	c #859066",
"[	c #919188",
"}	c #A3A794",
"|	c #0E0C16",
"1	c #674FFF",
"2	c #544CDF",
"3	c #482FEE",
"4	c #A397DB",
"5	c #424074",
"6	c #D9D9DA",
"7	c #737278",
"8	c #B4B2CD",
"9	c #E9EFEF",
"0	c #DCDAFA",
"a	c #D5DCDA",
"b	c #A19DC8",
"c	c #C9C5EF",
"d	c #EFF1FE",
"e	c #F4FDF7",
"f	c #FDFCFF",
"g	c #E1E6EF",
"h	c #D6D4F1",
"i	c #F5B77A",
"j	c #554793",
"k	c #C7C6ED",
"l	c #FFFFE0",
"m	c #C9C6F1",
"n	c #F14247",
"o	c #C3C0EE",
"p	c #403994",
"q	c #4B4DA0",
"                        ",
"                        ",
"                        ",
"                        ",
"                        ",
"                        ",
"                        ",
"           ...+@#$%..   ",
"&*&===-;&  .>>,>')>>.!!!",
"&>>>>>>>&~{.>>]^/(_>.>>!",
"&>>>>>>>&  .>>>>>>>>.>>!",
"&>:<[}|>&  ..........>>!",
"&>123>4>&   5   6  5>7>!",
"&>890ab>&   5   !  5>>>c",
"&>defgh>&iijjjj !jjjj>>k",
"&>>>>>>>&  j>>j !j>lj>>m",
"&&&&&&&&&  j>>jnnj>>j!!o",
"           pjjj  jjjq   ",
"              jjjj      ",
"                        ",
"                        ",
"                        ",
"                        ",
"                        "};
