/* XPM */
static char * new_task_xpm[] = {
"24 24 310 2",
"  	c None",
". 	c #D7BB97",
"+ 	c #D1B38F",
"@ 	c #CDB490",
"# 	c #CCB28F",
"$ 	c #C9AF8C",
"% 	c #C5AA87",
"& 	c #B49B80",
"* 	c #CEC9C5",
"= 	c #BBBAB9",
"- 	c #71AF70",
"; 	c #3CAF3C",
"> 	c #5FC45F",
", 	c #41B241",
"' 	c #8FD08E",
") 	c #7D5434",
"! 	c #885B37",
"~ 	c #795232",
"{ 	c #734E32",
"] 	c #734E33",
"^ 	c #7A5336",
"/ 	c #6F4B35",
"( 	c #482D29",
"_ 	c #6D5855",
": 	c #B2A49F",
"< 	c #E3E0DD",
"[ 	c #8FCF8F",
"} 	c #36BF36",
"| 	c #78D578",
"1 	c #FFFFFF",
"2 	c #7AD578",
"3 	c #36C036",
"4 	c #90CF8F",
"5 	c #ECE2D5",
"6 	c #724D37",
"7 	c #A47852",
"8 	c #72615D",
"9 	c #675B5B",
"0 	c #7A6767",
"a 	c #A9806A",
"b 	c #71503B",
"c 	c #5D4943",
"d 	c #4A322C",
"e 	c #4D3430",
"f 	c #654D46",
"g 	c #21A621",
"h 	c #1DB61D",
"i 	c #3FB429",
"j 	c #5ABC29",
"k 	c #33BC1D",
"l 	c #21A721",
"m 	c #CEBFB6",
"n 	c #7D5639",
"o 	c #84674F",
"p 	c #979088",
"q 	c #C9B7A5",
"r 	c #726B6D",
"s 	c #A4856C",
"t 	c #59483B",
"u 	c #80736B",
"v 	c #675D59",
"w 	c #3E3131",
"x 	c #3D2C2C",
"y 	c #099509",
"z 	c #099608",
"A 	c #AF9D93",
"B 	c #81593B",
"C 	c #83685B",
"D 	c #D7CBBA",
"E 	c #837D76",
"F 	c #726E6F",
"G 	c #9D7C64",
"H 	c #5D4E43",
"I 	c #99866F",
"J 	c #7F7268",
"K 	c #574C49",
"L 	c #392F2E",
"M 	c #21B421",
"N 	c #03A000",
"O 	c #34A000",
"P 	c #64B000",
"Q 	c #32AF00",
"R 	c #21B221",
"S 	c #AE9889",
"T 	c #916740",
"U 	c #C19D78",
"V 	c #ECC99D",
"W 	c #7E706C",
"X 	c #57585F",
"Y 	c #856C54",
"Z 	c #64594C",
"` 	c #928370",
" .	c #9D8B76",
"..	c #675449",
"+.	c #574E4F",
"@.	c #95DD95",
"#.	c #02AD02",
"$.	c #1AA300",
"%.	c #36B000",
"&.	c #05AE02",
"*.	c #91D890",
"=.	c #BEA58E",
"-.	c #996A40",
";.	c #DABE88",
">.	c #FFF29F",
",.	c #FFF0A1",
"'.	c #E1C399",
").	c #846951",
"!.	c #A17E5D",
"~.	c #E0AF7A",
"{.	c #CFA078",
"].	c #644B3E",
"^.	c #837E80",
"/.	c #95DF95",
"(.	c #23C423",
"_.	c #0AAF0A",
":.	c #1BBA1A",
"<.	c #91DA90",
"[.	c #AD9178",
"}.	c #8B613B",
"|.	c #EDD0A5",
"1.	c #FFE498",
"2.	c #FFF6A2",
"3.	c #E8DAA1",
"4.	c #765D49",
"5.	c #D5A970",
"6.	c #FDC77D",
"7.	c #D5AD79",
"8.	c #604737",
"9.	c #9F9D9E",
"0.	c #AB8C6C",
"a.	c #7D5939",
"b.	c #FFF5E2",
"c.	c #FBD79D",
"d.	c #FFF29E",
"e.	c #E0D096",
"f.	c #725A43",
"g.	c #DEB176",
"h.	c #EABC7C",
"i.	c #B99872",
"j.	c #5E4331",
"k.	c #BDBCBE",
"l.	c #AB8964",
"m.	c #86684F",
"n.	c #F9E9C2",
"o.	c #FFF5A9",
"p.	c #E1CD96",
"q.	c #6F5843",
"r.	c #D1A975",
"s.	c #C9A678",
"t.	c #D1BEAB",
"u.	c #534034",
"v.	c #DDDDDD",
"w.	c #F1EBE2",
"x.	c #A7835A",
"y.	c #927F6F",
"z.	c #F3EEE5",
"A.	c #866B4E",
"B.	c #CFAC7E",
"C.	c #E2D4C0",
"D.	c #F2EBE7",
"E.	c #46382F",
"F.	c #EEE8E1",
"G.	c #A57C51",
"H.	c #A39891",
"I.	c #BFBBB3",
"J.	c #ACA28C",
"K.	c #7C5E3F",
"L.	c #E8DBCE",
"M.	c #E3D9D0",
"N.	c #473D37",
"O.	c #E9E0D7",
"P.	c #9E7347",
"Q.	c #BDB7B3",
"R.	c #9F9D9A",
"S.	c #222221",
"T.	c #3A3028",
"U.	c #493829",
"V.	c #544B49",
"W.	c #D1C4B8",
"X.	c #58524E",
"Y.	c #E4D9CD",
"Z.	c #875E37",
"`.	c #DEDBD8",
" +	c #DFDEDE",
".+	c #6C6356",
"++	c #5F4F3A",
"@+	c #4E3C2F",
"#+	c #464442",
"$+	c #BCAEA2",
"%+	c #706B69",
"&+	c #DFD2C4",
"*+	c #77502D",
"=+	c #AAA49B",
"-+	c #BF9D68",
";+	c #63523D",
">+	c #746046",
",+	c #D1CEC5",
"'+	c #A59689",
")+	c #8A8684",
"!+	c #D9C8B5",
"~+	c #815E3E",
"{+	c #E5E3DF",
"]+	c #937F59",
"^+	c #AF8E59",
"/+	c #C19D5D",
"(+	c #5F4F39",
"_+	c #97794B",
":+	c #AB8F5E",
"<+	c #A29E97",
"[+	c #948479",
"}+	c #A8A4A3",
"|+	c #CFBAA1",
"1+	c #816347",
"2+	c #A98D56",
"3+	c #D7AC61",
"4+	c #E0B364",
"5+	c #DCB16A",
"6+	c #6F573F",
"7+	c #B59054",
"8+	c #E9B764",
"9+	c #9E8458",
"0+	c #4B392E",
"a+	c #C6C4C4",
"b+	c #C0A78D",
"c+	c #76573A",
"d+	c #E7CD94",
"e+	c #F8E1AA",
"f+	c #FDDC9E",
"g+	c #FDEDCA",
"h+	c #8E6B43",
"i+	c #AC9669",
"j+	c #E5B86A",
"k+	c #BA925D",
"l+	c #473125",
"m+	c #E0DEDE",
"n+	c #A38B76",
"o+	c #846544",
"p+	c #F7EDDC",
"q+	c #FEF8EB",
"r+	c #FEFBF0",
"s+	c #FCF8E1",
"t+	c #7E5938",
"u+	c #957955",
"v+	c #B99762",
"w+	c #8E7051",
"x+	c #574033",
"y+	c #E8E7E8",
"z+	c #EBE1D9",
"A+	c #9C7045",
"B+	c #B4824C",
"C+	c #AB7A42",
"D+	c #B07C44",
"E+	c #AA773F",
"F+	c #AC7843",
"G+	c #805C3D",
"H+	c #5C4838",
"I+	c #846B4A",
"J+	c #906E4F",
"K+	c #605044",
"L+	c #DEDEDE",
"M+	c #C4AE9F",
"N+	c #6D512E",
"O+	c #806239",
"P+	c #88673A",
"Q+	c #8D6A3D",
"R+	c #937041",
"S+	c #997343",
"T+	c #7B5C3F",
"U+	c #392927",
"V+	c #362725",
"W+	c #3F2E29",
"X+	c #5A4D48",
"Y+	c #C8B9B4",
"Z+	c #251818",
"`+	c #272021",
" @	c #241F20",
".@	c #272120",
"+@	c #2D2524",
"@@	c #2D2624",
"#@	c #322928",
"$@	c #352A28",
"%@	c #362928",
"&@	c #322527",
"*@	c #322425",
"=@	c #B4A9A5",
"-@	c #E3D9D8",
";@	c #5C443E",
">@	c #453734",
",@	c #3B302C",
"'@	c #392D2A",
")@	c #372C28",
"!@	c #342828",
"~@	c #302726",
"{@	c #352A27",
"]@	c #3D2D2A",
"^@	c #42302A",
"/@	c #3E2A27",
"(@	c #594440",
"_@	c #ECE7E4",
":@	c #C4BCB5",
"<@	c #968C87",
"[@	c #746D68",
"}@	c #4D3E36",
"|@	c #352725",
"1@	c #362825",
"2@	c #372824",
"3@	c #3A2926",
"4@	c #3E2C28",
"5@	c #B4ADAD",
"            . + @ # $ % & *       = - ; > , '   ",
"            ) ! ~ { ] ^ / ( _ : < [ } | 1 2 3 4 ",
"          5 6 7 8 9 0 a b c d e f g h i 1 j k l ",
"          m n o p q r s t u v w x y 1 1 1 1 1 z ",
"          A B C D E F G H I J K L M N O 1 P Q R ",
"          S T U V W X Y Z `  ...+.@.#.$.1 %.&.*.",
"          =.-.;.>.,.'.).!.~.{.].^.  /.(._.:.<.  ",
"          [.}.|.1.2.3.4.5.6.7.8.9.              ",
"          0.a.b.c.d.e.f.g.h.i.j.k.              ",
"          l.m.  n.o.p.q.r.s.t.u.v.              ",
"        w.x.y.      z.A.B.C.D.E.                ",
"        F.G.H.    I.J.K.L.  M.N.                ",
"        O.P.Q.  R.S.T.U.V.  W.X.                ",
"        Y.Z.`.   +.+++@+#+  $+%+                ",
"        &+*+    =+-+;+>+,+  '+)+                ",
"        !+~+{+]+^+/+(+_+:+<+[+}+                ",
"        |+1+2+3+4+5+6+7+8+9+0+a+                ",
"        b+c+d+e+f+g+h+i+j+k+l+m+                ",
"        n+o+p+q+r+s+t+u+v+w+x+y+                ",
"      z+A+B+C+D+E+F+G+H+I+J+K+L+                ",
"      M+N+O+P+Q+R+S+T+U+V+W+X+                  ",
"      Y+Z+`+ @.@+@@@#@$@%@&@*@=@                ",
"      -@;@>@,@'@)@!@~@{@]@^@/@(@                ",
"          _@:@<@[@}@|@1@2@3@4@5@                "};
