/* XPM */
static char * private_method_xpm[] = {
"48 24 544 2",
"  	c None",
". 	c #FDFDFC",
"+ 	c #FCFCFB",
"@ 	c #FBFBFA",
"# 	c #FEFEFD",
"$ 	c #FAFBF9",
"% 	c #E2E4DD",
"& 	c #B3B7AB",
"* 	c #AAAFA0",
"= 	c #A8AB9F",
"- 	c #ADB2A2",
"; 	c #C2C6BC",
"> 	c #E3E4DF",
", 	c #FFFFFF",
"' 	c #A6AB9B",
") 	c #E5E6E1",
"! 	c #EEF1E8",
"~ 	c #E8ECDE",
"{ 	c #E5EADA",
"] 	c #EBEEE4",
"^ 	c #F1F2EE",
"/ 	c #DCDED6",
"( 	c #C7CAC1",
"_ 	c #FCFCFA",
": 	c #BCBFB5",
"< 	c #DDDFD7",
"[ 	c #DEE4D3",
"} 	c #AFB89D",
"| 	c #A2AB92",
"1 	c #A1A990",
"2 	c #ADB59B",
"3 	c #BFC6AF",
"4 	c #F6F7F1",
"5 	c #B3B8AB",
"6 	c #E4E6E0",
"7 	c #F1EAF9",
"8 	c #F2EAFB",
"9 	c #F9EDF9",
"0 	c #C6C5F8",
"a 	c #F7F7F4",
"b 	c #C0C4B8",
"c 	c #E8EDDF",
"d 	c #828A74",
"e 	c #FBFBF9",
"f 	c #F7F8F6",
"g 	c #CDD1C5",
"h 	c #A5AE94",
"i 	c #FCFEF9",
"j 	c #AAAFA1",
"k 	c #FFFEFF",
"l 	c #E6C7ED",
"m 	c #895FC1",
"n 	c #BFC3F9",
"o 	c #B274D1",
"p 	c #B099F1",
"q 	c #FFFFFD",
"r 	c #D5C3EB",
"s 	c #F6F3FD",
"t 	c #FCFBFB",
"u 	c #F3F4F0",
"v 	c #D5D8CE",
"w 	c #BCC5AB",
"x 	c #E6E9E1",
"y 	c #999F8C",
"z 	c #E0E6D5",
"A 	c #C6CBBF",
"B 	c #F8F9F7",
"C 	c #B2A7E6",
"D 	c #B5ACF1",
"E 	c #AC95ED",
"F 	c #ACA2F3",
"G 	c #AC96EE",
"H 	c #AF92F0",
"I 	c #B486EA",
"J 	c #B483E6",
"K 	c #F4F3FB",
"L 	c #F0F1EC",
"M 	c #CACFBF",
"N 	c #B3BD9E",
"O 	c #EBECE9",
"P 	c #FEFEFE",
"Q 	c #D6DACD",
"R 	c #BDC6AC",
"S 	c #D6D9CF",
"T 	c #F4F5F2",
"U 	c #C6A2E8",
"V 	c #935FC4",
"W 	c #AF85E0",
"X 	c #BAB4F4",
"Y 	c #ADA4F0",
"Z 	c #AC96EB",
"` 	c #B189E5",
" .	c #B28EEC",
"..	c #B484E5",
"+.	c #D5C7F2",
"@.	c #D8CDEE",
"#.	c #FDFCFC",
"$.	c #DBDFD2",
"%.	c #CBD1C0",
"&.	c #A7B290",
"*.	c #F1F2EF",
"=.	c #E6E8E1",
"-.	c #B2BD9D",
";.	c #D1D5C8",
">.	c #F5F6F3",
",.	c #FFFEFE",
"'.	c #FDF7FB",
").	c #F5EDF8",
"!.	c #9B64C3",
"~.	c #C3B2EC",
"{.	c #BAB2F0",
"].	c #BDB0F3",
"^.	c #AC8BE6",
"/.	c #904FB4",
"(.	c #9B61C4",
"_.	c #AB74D4",
":.	c #B489E9",
"<.	c #B282E0",
"[.	c #AB72CC",
"}.	c #FBF7FB",
"|.	c #C5C8C0",
"1.	c #D5DCC9",
"2.	c #A6B190",
"3.	c #F3F3F1",
"4.	c #E7E9E2",
"5.	c #AEB998",
"6.	c #CDD2C3",
"7.	c #F4F6F2",
"8.	c #D58BBF",
"9.	c #E4ABD5",
"0.	c #C179AA",
"a.	c #B24763",
"b.	c #B33347",
"c.	c #F1EAFB",
"d.	c #A15CC2",
"e.	c #A950B4",
"f.	c #C8B0EF",
"g.	c #C7B9F5",
"h.	c #AF83DB",
"i.	c #A466CA",
"j.	c #9770CF",
"k.	c #A079E0",
"l.	c #B38AED",
"m.	c #B487E9",
"n.	c #DFD1F2",
"o.	c #C0C2BA",
"p.	c #E4E9DA",
"q.	c #B0BA9B",
"r.	c #F8F7F7",
"s.	c #ECEEE9",
"t.	c #B5C0A1",
"u.	c #D7DBCE",
"v.	c #FAFAF7",
"w.	c #F4D9ED",
"x.	c #BA75A3",
"y.	c #B43E57",
"z.	c #B3354B",
"A.	c #B43F58",
"B.	c #B23347",
"C.	c #8B4DB1",
"D.	c #AE3A6F",
"E.	c #8B58B4",
"F.	c #B09BE7",
"G.	c #CDBFF7",
"H.	c #C5BDF4",
"I.	c #AD9EE4",
"J.	c #9B77E4",
"K.	c #807ADF",
"L.	c #B38DF0",
"M.	c #B488E9",
"N.	c #AD9CE9",
"O.	c #E0E3DB",
"P.	c #97A086",
"Q.	c #A5AF92",
"R.	c #9AA485",
"S.	c #A2AB8D",
"T.	c #A3AD8D",
"U.	c #A1AB8B",
"V.	c #9DA787",
"W.	c #99A481",
"X.	c #97A381",
"Y.	c #949F7E",
"Z.	c #869171",
"`.	c #878F77",
" +	c #A7A9A0",
".+	c #F6F7F4",
"++	c #D891C5",
"@+	c #B23448",
"#+	c #B34560",
"$+	c #B3364C",
"%+	c #B3344A",
"&+	c #B23348",
"*+	c #B13145",
"=+	c #B12D3E",
"-+	c #AF2A3C",
";+	c #C4ACE7",
">+	c #C4B2EC",
",+	c #D5CFFD",
"'+	c #C2BDF8",
")+	c #BEB7F3",
"!+	c #B487E8",
"~+	c #B290EF",
"{+	c #B095F1",
"]+	c #B48BEA",
"^+	c #9B409D",
"/+	c #EED9F5",
"(+	c #CAD1BB",
"_+	c #F2F4EC",
":+	c #F4F7F0",
"<+	c #F1F4EC",
"[+	c #E2E7D7",
"}+	c #D0D8C1",
"|+	c #C5CEB1",
"1+	c #BFCAA9",
"2+	c #BCC8A4",
"3+	c #B8C4A0",
"4+	c #B5C39C",
"5+	c #B4C099",
"6+	c #B1BE94",
"7+	c #8A976E",
"8+	c #DDDFDA",
"9+	c #F7E4F1",
"0+	c #BC77A6",
"a+	c #AC658A",
"b+	c #B4374E",
"c+	c #B4374D",
"d+	c #B13044",
"e+	c #AF2F42",
"f+	c #AF2D40",
"g+	c #AF2E42",
"h+	c #AF2C43",
"i+	c #A83864",
"j+	c #9F263A",
"k+	c #B471C9",
"l+	c #CDC3FC",
"m+	c #B9B4F5",
"n+	c #AFAEF6",
"o+	c #AB9EF1",
"p+	c #AE96F2",
"q+	c #B28DEE",
"r+	c #ACA1F2",
"s+	c #F9F3FB",
"t+	c #CDD5BF",
"u+	c #D0D8BF",
"v+	c #B5C19A",
"w+	c #B3C099",
"x+	c #B2BF98",
"y+	c #B0BE95",
"z+	c #AEBB92",
"A+	c #ACBA8F",
"B+	c #8D9B72",
"C+	c #BE78A8",
"D+	c #B43A53",
"E+	c #B43A51",
"F+	c #B43A52",
"G+	c #AB628A",
"H+	c #B2709B",
"I+	c #AD6A92",
"J+	c #B02F42",
"K+	c #AE2C3C",
"L+	c #AC2A3C",
"M+	c #AB4B91",
"N+	c #C4BFF6",
"O+	c #AC7ED9",
"P+	c #AB81DB",
"Q+	c #B5B2F4",
"R+	c #ACACF7",
"S+	c #AC9BF2",
"T+	c #9B3FA9",
"U+	c #B476D0",
"V+	c #CBD2BC",
"W+	c #EDF1E7",
"X+	c #D3DAC4",
"Y+	c #B6C29D",
"Z+	c #B4C19A",
"`+	c #B5C29B",
" @	c #B5C49A",
".@	c #ADBB90",
"+@	c #ABB98E",
"@@	c #AAB98E",
"#@	c #AAB88C",
"$@	c #88966B",
"%@	c #DEDFDA",
"&@	c #F3D7EB",
"*@	c #AC668E",
"=@	c #B4729E",
"-@	c #B43F59",
";@	c #B43D56",
">@	c #AD567A",
",@	c #AD6B96",
"'@	c #B874A3",
")@	c #BF79AA",
"!@	c #CD82B7",
"~@	c #B23146",
"{@	c #B12F42",
"]@	c #B0344F",
"^@	c #B13665",
"/@	c #9D48AE",
"(@	c #AE68C8",
"_@	c #B9A7EF",
":@	c #8E359D",
"<@	c #B17CE0",
"[@	c #B08AD5",
"}@	c #CBD2BD",
"|@	c #E8ECE0",
"1@	c #AFBD94",
"2@	c #65724B",
"3@	c #424D2D",
"4@	c #849268",
"5@	c #A9B88C",
"6@	c #A7B789",
"7@	c #819163",
"8@	c #DEDFDB",
"9@	c #CA7FB2",
"0@	c #B16F99",
"a@	c #AD5678",
"b@	c #B43C54",
"c@	c #B4384F",
"d@	c #E1A4D2",
"e@	c #E4AED7",
"f@	c #BD77A8",
"g@	c #C87FB3",
"h@	c #D58CC2",
"i@	c #AC293A",
"j@	c #A7283B",
"k@	c #AD5F87",
"l@	c #9373D3",
"m@	c #9354BC",
"n@	c #B259B8",
"o@	c #8648A8",
"p@	c #B782CD",
"q@	c #C9D0BB",
"r@	c #DFE5D4",
"s@	c #B5C29C",
"t@	c #9FAD84",
"u@	c #444E31",
"v@	c #363E26",
"w@	c #3B432A",
"x@	c #ACBB8D",
"y@	c #A6B588",
"z@	c #A4B385",
"A@	c #A4B485",
"B@	c #7B8C5A",
"C@	c #DFE0DB",
"D@	c #BB76A6",
"E@	c #AE5373",
"F@	c #AE5475",
"G@	c #B43950",
"H@	c #AE5371",
"I@	c #EFC7E7",
"J@	c #D289BF",
"K@	c #E0A1D1",
"L@	c #B12F43",
"M@	c #B12F41",
"N@	c #971F33",
"O@	c #C08BC6",
"P@	c #9B43A3",
"Q@	c #EACFEE",
"R@	c #AC6EBB",
"S@	c #FDFAFD",
"T@	c #CAD1BC",
"U@	c #D7DEC9",
"V@	c #B1BE96",
"W@	c #AEBC93",
"X@	c #ACBA8E",
"Y@	c #5E6A48",
"Z@	c #222718",
"`@	c #818E66",
" #	c #A7B689",
".#	c #A3B284",
"+#	c #A3B283",
"@#	c #A2B180",
"##	c #758652",
"$#	c #DFE0DC",
"%#	c #CB80B3",
"&#	c #AE5476",
"*#	c #B975A4",
"=#	c #AC678E",
"-#	c #B43D55",
";#	c #AF516F",
">#	c #F1CFE9",
",#	c #D890C5",
"'#	c #AC597B",
")#	c #AF2C3D",
"!#	c #AB2937",
"~#	c #B43A4E",
"{#	c #E9BBDB",
"]#	c #FCF7FB",
"^#	c #C9CFBB",
"/#	c #D0D8C0",
"(#	c #AEBC92",
"_#	c #ACBA90",
":#	c #AAB88E",
"<#	c #ACBA8D",
"[#	c #74805B",
"}#	c #0A0D06",
"|#	c #A6B685",
"1#	c #A1B181",
"2#	c #A0B07F",
"3#	c #9DAE7B",
"4#	c #70804D",
"5#	c #E9B7DC",
"6#	c #ECBFE1",
"7#	c #AF506F",
"8#	c #B02F43",
"9#	c #AF2E41",
"0#	c #AE2C3E",
"a#	c #AE2A3B",
"b#	c #B33448",
"c#	c #FEFCFD",
"d#	c #CBD4B9",
"e#	c #A8B78A",
"f#	c #2F3524",
"g#	c #000000",
"h#	c #78845E",
"i#	c #A3B382",
"j#	c #9FAF7E",
"k#	c #9EAE7D",
"l#	c #99AB77",
"m#	c #687847",
"n#	c #E0E1DC",
"o#	c #E4ACD6",
"p#	c #C079AA",
"q#	c #AD6B93",
"r#	c #B16F9A",
"s#	c #B3435E",
"t#	c #AF2C3E",
"u#	c #AD293A",
"v#	c #B14B67",
"w#	c #AC5E80",
"x#	c #C8CFBA",
"y#	c #C7D1B3",
"z#	c #A9B78B",
"A#	c #A6B586",
"B#	c #6A7553",
"C#	c #667150",
"D#	c #828F65",
"E#	c #9BAC79",
"F#	c #90A26C",
"G#	c #637243",
"H#	c #DFE1DC",
"I#	c #F1D1E9",
"J#	c #AC668D",
"K#	c #AE6B94",
"L#	c #AC5D81",
"M#	c #B43B53",
"N#	c #B3425D",
"O#	c #DA95C7",
"P#	c #C2CDAD",
"Q#	c #A2B181",
"R#	c #A4B483",
"S#	c #A2B381",
"T#	c #9FAF7D",
"U#	c #9CAD7B",
"V#	c #9AAB77",
"W#	c #98AA75",
"X#	c #7F915B",
"Y#	c #5E6D40",
"Z#	c #FCFDFB",
"`#	c #B06E98",
" $	c #AC5A7D",
".$	c #B3445F",
"+$	c #B24B68",
"@$	c #AD5779",
"#$	c #AB5F83",
"$$	c #AC597A",
"%$	c #F6F8F4",
"&$	c #F2F5EE",
"*$	c #BFC6AD",
"=$	c #C0CBA9",
"-$	c #A3B282",
";$	c #A1B180",
">$	c #9DAE7C",
",$	c #92A56F",
"'$	c #718250",
")$	c #5C6A40",
"!$	c #D2D5CA",
"~$	c #F0F3EC",
"{$	c #F6F7F2",
"]$	c #C97FB4",
"^$	c #D891C6",
"/$	c #AC5B7E",
"($	c #C17AAC",
"_$	c #AC658B",
":$	c #EBBFE0",
"<$	c #DBE1CF",
"[$	c #D2DAC3",
"}$	c #CDD5BB",
"|$	c #A0AA89",
"1$	c #879171",
"2$	c #7C8A60",
"3$	c #8A986B",
"4$	c #92A471",
"5$	c #95A871",
"6$	c #93A76D",
"7$	c #8EA267",
"8$	c #889B61",
"9$	c #80935A",
"0$	c #758651",
"a$	c #647445",
"b$	c #55623A",
"c$	c #3E4827",
"d$	c #B7BFA4",
"e$	c #D7DDC9",
"f$	c #E5EADD",
"g$	c #F8F9F5",
"h$	c #D992C5",
"i$	c #D389BD",
"j$	c #F9EAF4",
"k$	c #C47BAC",
"l$	c #EDC3E2",
"m$	c #EEF0E8",
"n$	c #DAE0CE",
"o$	c #D1D9C1",
"p$	c #CCD5BA",
"q$	c #CBD5B8",
"r$	c #B8C3A4",
"s$	c #A2AC90",
"t$	c #919A7E",
"u$	c #878F76",
"v$	c #7E8771",
"w$	c #7C836E",
"x$	c #7D856E",
"y$	c #858D76",
"z$	c #8E977E",
"A$	c #A1AA8E",
"B$	c #BAC3A5",
"C$	c #CFD9BD",
"D$	c #CFD6BE",
"E$	c #D6DDC8",
"F$	c #E5E9DD",
"G$	c #F9FAF8",
"H$	c #F7F8F4",
"I$	c #F2F4EE",
"J$	c #EFF2E9",
"K$	c #E6EADD",
"L$	c #E5EADC",
"M$	c #E4E9DB",
"N$	c #E5E9DB",
"O$	c #E8ECDF",
"P$	c #EAEDE2",
"Q$	c #EEF0E7",
"R$	c #F1F3EC",
"S$	c #F5F7F2",
". + @ @ @ @ # $ % & * = - ; > . . . . . . . . , , , , , , , , , , , , , , , , , , , , , , , , , ",
". @ @ @ @ @ , ' ) ! ~ { ] ^ / ( # # . . # # . , , , , , , , , , , , , , , , , , , , , , , , , , ",
". + @ @ @ _ : < [ } | 1 2 3 4 5 6 # . . # # # , , , , , , , , , , , , , , , , 7 8 9 0 , , , , , ",
". . @ @ @ a b c d @ @ e f g h i j . . . . . . , , , , , , , , , , , , , , k l m n o p q r s , , ",
". . @ @ t u v w x # # # . , y z A B . . # . . , , , , , , , , , , , , , , C D E F G H I J K , , ",
". + + + + L M N O . # . # P Q R S T . . # . . , , , , , , , , , , , , , U V W X Y Z `  ...+.@., ",
". @ @ @ #.$.%.&.*.. # . # # =.-.;.>.. # # # # , , , , , , , , ,.'., , ).!.~.{.].^./.(._.:.<.[.}.",
"+ @ @ @ P |.1.2.3.# # # # . 4.5.6.7.. . . . . , , , , , ,.8.9.0.a., b.c.d.e.f.g.h.i.j.k.l.m.n.k ",
"@ @ @ @ , o.p.q.r., , , , , s.t.u.v.. . . . . , , , , ,.w.x.y.y.z.A.B.C.D.E.F.G.H.I.J.K.L.M.I N.",
"@ @ @ @ O.P.Q.R.S.T.U.V.W.X.Y.Z.`. +.+. . . . , , , , ++@+#+z.$+%+&+*+=+-+;+>+,+'+)+!+~+{+]+^+/+",
". @ @ @ (+_+:+<+[+}+|+1+2+3+4+5+6+7+8+. . . . , , , 9+0+a+b+c+z.d+e+f+g+h+i+j+k+l+m+n+o+p+q+r+s+",
"+ @ @ @ t+_+! u+3+v+w+x+y+y+z+A+A+B+8+. . . . , , , C+D+E+c+c+F+G+H+I+J+K+L+M+N+O+P+Q+R+S+T+U+, ",
"+ @ @ @ V+W+X+Y+Z+x+`+ @y+.@+@@@#@$@%@. . . . , , &@*@=@-@;@F+>@,@'@)@!@~@{@]@^@/@(@_@:@<@[@, k ",
". @ @ @ }@|@1+w+x+1@2@3@4@A+5@6@6@7@8@. . . . , , 9@0@a@b@c@$+d@e@f@g@h@~@i@j@k@l@m@n@o@p@, , , ",
"+ @ @ @ q@r@s@y+y+t@u@v@w@x@y@z@A@B@C@. . . . , ,., D@E@F@G@F+H@, I@J@K@L@M@N@O@P@Q@R@, S@, , , ",
"@ @ @ @ T@U@V@W@.@X@Y@Z@`@ #.#+#@###$#. . . . , , %#&#*#=#c@-#c+;#>#,#'#B.)#!#~#{#]#S@, , , , , ",
". @ @ @ ^#/#(#_#:#<#[#}#|#+#1#2#3#4#$#. # # # , , 5#6#'@E+7#E+z.%+c@8#9#0#a#b#w.c#, , , , , , , ",
". + @ @ ^#d#+@#@e#x@f#g#h#i#j#k#l#m#n## # # # , , , o#p#q#r#s#$+%+~@*+J+t#u#v#w#, , , , , , , , ",
". @ @ @ x#y#z# #y@A#B#C#D#j#3#E#F#G#H#. . . . , , , 0+I#J#K#e+L#M#*+J+9#N#$+O#, , , , , , , , , ",
". + @ @ q@P#y@A@+#Q#R#S#T#U#V#W#X#Y#H#+ Z#. . , , , , , `# $r#r#.$+$@$*+#$$$, ,., , , , , , , , ",
"$ %$&$! *$=$+#-$;$j#>$U#l#W#,$X#'$)$!$~${$v.Z#, , , , ,.]$, ^$`#/$($_$E@:$, ,., , , , , , , , , ",
"! <$[$}$|$1$2$3$4$5$6$7$8$9$0$a$b$c$d$/#e$f$g$, , , , , , , h$i$j$k$l$, c#, , , , , , , , , , , ",
"m$n$o$}$p$q$r$s$t$u$v$w$x$y$z$A$B$C$}$D$E$F$g$, , , , , , , , , , , , , , , , , , , , , , , , , ",
"G$H$I$J$] |@K$L$M$p.N$M$N$M$N$K$O$P$Q$R$S$v._ , , , , , , , , , , , , , , , , , , , , , , , , , "};
