/* XPM */
static char * private_destructor_xpm[] = {
"48 24 428 2",
"  	c None",
". 	c #FDFDFC",
"+ 	c #FCFCFB",
"@ 	c #FBFBFA",
"# 	c #FEFEFD",
"$ 	c #FAFBF9",
"% 	c #E2E4DD",
"& 	c #B3B7AB",
"* 	c #AAAFA0",
"= 	c #A8AB9F",
"- 	c #ADB2A2",
"; 	c #C2C6BC",
"> 	c #E3E4DF",
", 	c #FFFFFF",
"' 	c #FDFDFD",
") 	c #FCFCFC",
"! 	c #FAFAFA",
"~ 	c #F7F7F7",
"{ 	c #F0F0F0",
"] 	c #EEEEEE",
"^ 	c #F2F2F2",
"/ 	c #F4F4F4",
"( 	c #F6F6F6",
"_ 	c #F1F1F1",
": 	c #F3F3F3",
"< 	c #F5F5F5",
"[ 	c #ECECEC",
"} 	c #A6AB9B",
"| 	c #E5E6E1",
"1 	c #EEF1E8",
"2 	c #E8ECDE",
"3 	c #E5EADA",
"4 	c #EBEEE4",
"5 	c #F1F2EE",
"6 	c #DCDED6",
"7 	c #C7CAC1",
"8 	c #EBEBEB",
"9 	c #EAEAEA",
"0 	c #E3E3E3",
"a 	c #D9D9D9",
"b 	c #D5D5D5",
"c 	c #D7D7D7",
"d 	c #E0E0E0",
"e 	c #F8F8F8",
"f 	c #FCFCFA",
"g 	c #BCBFB5",
"h 	c #DDDFD7",
"i 	c #DEE4D3",
"j 	c #AFB89D",
"k 	c #A2AB92",
"l 	c #A1A990",
"m 	c #ADB59B",
"n 	c #BFC6AF",
"o 	c #F6F7F1",
"p 	c #B3B8AB",
"q 	c #E4E6E0",
"r 	c #E7E7E7",
"s 	c #DBDBDB",
"t 	c #DEDEDE",
"u 	c #EDEDED",
"v 	c #E2E2E2",
"w 	c #D8D8D8",
"x 	c #E8E8E8",
"y 	c #F9F9F9",
"z 	c #F7F7F4",
"A 	c #C0C4B8",
"B 	c #E8EDDF",
"C 	c #828A74",
"D 	c #FBFBF9",
"E 	c #F7F8F6",
"F 	c #CDD1C5",
"G 	c #A5AE94",
"H 	c #FCFEF9",
"I 	c #AAAFA1",
"J 	c #E1E1E1",
"K 	c #DFDFDF",
"L 	c #D2D2D2",
"M 	c #D4D4D4",
"N 	c #DDDDDD",
"O 	c #E4E4E4",
"P 	c #CECECE",
"Q 	c #FCFBFB",
"R 	c #F3F4F0",
"S 	c #D5D8CE",
"T 	c #BCC5AB",
"U 	c #E6E9E1",
"V 	c #999F8C",
"W 	c #E0E6D5",
"X 	c #C6CBBF",
"Y 	c #F8F9F7",
"Z 	c #E9E9E9",
"` 	c #C2C2C2",
" .	c #CDCDCD",
"..	c #C9C9C9",
"+.	c #BBBBBB",
"@.	c #B0B0B0",
"#.	c #505050",
"$.	c #B8B8B8",
"%.	c #BEBEBE",
"&.	c #C6C6C6",
"*.	c #CCCCCC",
"=.	c #C1C1C1",
"-.	c #F0F1EC",
";.	c #CACFBF",
">.	c #B3BD9E",
",.	c #EBECE9",
"'.	c #FEFEFE",
").	c #D6DACD",
"!.	c #BDC6AC",
"~.	c #D6D9CF",
"{.	c #F4F5F2",
"].	c #FBFBFB",
"^.	c #BABABA",
"/.	c #B6B6B6",
"(.	c #B5B5B5",
"_.	c #A5A5A5",
":.	c #535353",
"<.	c #ADADAD",
"[.	c #B7B7B7",
"}.	c #B4B4B4",
"|.	c #B9B9B9",
"1.	c #FDFCFC",
"2.	c #DBDFD2",
"3.	c #CBD1C0",
"4.	c #A7B290",
"5.	c #F1F2EF",
"6.	c #E6E8E1",
"7.	c #B2BD9D",
"8.	c #D1D5C8",
"9.	c #F5F6F3",
"0.	c #CFCFCF",
"a.	c #B2B2B2",
"b.	c #8C8C8C",
"c.	c #8F8F8F",
"d.	c #A7A7A7",
"e.	c #595959",
"f.	c #AFAFAF",
"g.	c #888888",
"h.	c #B1B1B1",
"i.	c #B3B3B3",
"j.	c #DCDCDC",
"k.	c #E5E5E5",
"l.	c #C5C8C0",
"m.	c #D5DCC9",
"n.	c #A6B190",
"o.	c #F3F3F1",
"p.	c #E7E9E2",
"q.	c #AEB998",
"r.	c #CDD2C3",
"s.	c #F4F6F2",
"t.	c #C0C0C0",
"u.	c #9D9D9D",
"v.	c #626262",
"w.	c #999999",
"x.	c #A4A4A4",
"y.	c #656565",
"z.	c #989898",
"A.	c #616161",
"B.	c #939393",
"C.	c #D6D6D6",
"D.	c #C0C2BA",
"E.	c #E4E9DA",
"F.	c #B0BA9B",
"G.	c #F8F7F7",
"H.	c #ECEEE9",
"I.	c #B5C0A1",
"J.	c #D7DBCE",
"K.	c #FAFAF7",
"L.	c #ACACAC",
"M.	c #797979",
"N.	c #7C7C7C",
"O.	c #A1A1A1",
"P.	c #6D6D6D",
"Q.	c #ABABAB",
"R.	c #828282",
"S.	c #AEAEAE",
"T.	c #E0E3DB",
"U.	c #97A086",
"V.	c #A5AF92",
"W.	c #9AA485",
"X.	c #A2AB8D",
"Y.	c #A3AD8D",
"Z.	c #A1AB8B",
"`.	c #9DA787",
" +	c #99A481",
".+	c #97A381",
"++	c #949F7E",
"@+	c #869171",
"#+	c #878F77",
"$+	c #A7A9A0",
"%+	c #F6F7F4",
"&+	c #A8A8A8",
"*+	c #686868",
"=+	c #A0A0A0",
"-+	c #666666",
";+	c #AAAAAA",
">+	c #6C6C6C",
",+	c #A9A9A9",
"'+	c #CAD1BB",
")+	c #F2F4EC",
"!+	c #F4F7F0",
"~+	c #F1F4EC",
"{+	c #E2E7D7",
"]+	c #D0D8C1",
"^+	c #C5CEB1",
"/+	c #BFCAA9",
"(+	c #BCC8A4",
"_+	c #B8C4A0",
":+	c #B5C39C",
"<+	c #B4C099",
"[+	c #B1BE94",
"}+	c #8A976E",
"|+	c #DDDFDA",
"1+	c #DADADA",
"2+	c #A3A3A3",
"3+	c #A6A6A6",
"4+	c #696969",
"5+	c #7E7E7E",
"6+	c #A2A2A2",
"7+	c #9A9A9A",
"8+	c #858585",
"9+	c #707070",
"0+	c #CACACA",
"a+	c #CDD5BF",
"b+	c #D0D8BF",
"c+	c #B5C19A",
"d+	c #B3C099",
"e+	c #B2BF98",
"f+	c #B0BE95",
"g+	c #AEBB92",
"h+	c #ACBA8F",
"i+	c #8D9B72",
"j+	c #9E9E9E",
"k+	c #808080",
"l+	c #5F5F5F",
"m+	c #979797",
"n+	c #9B9B9B",
"o+	c #6F6F6F",
"p+	c #D0D0D0",
"q+	c #CBD2BC",
"r+	c #EDF1E7",
"s+	c #D3DAC4",
"t+	c #B6C29D",
"u+	c #B4C19A",
"v+	c #B5C29B",
"w+	c #B5C49A",
"x+	c #ADBB90",
"y+	c #ABB98E",
"z+	c #AAB98E",
"A+	c #AAB88C",
"B+	c #88966B",
"C+	c #DEDFDA",
"D+	c #BDBDBD",
"E+	c #959595",
"F+	c #949494",
"G+	c #606060",
"H+	c #8D8D8D",
"I+	c #9C9C9C",
"J+	c #CBD2BD",
"K+	c #E8ECE0",
"L+	c #AFBD94",
"M+	c #65724B",
"N+	c #424D2D",
"O+	c #849268",
"P+	c #A9B88C",
"Q+	c #A7B789",
"R+	c #819163",
"S+	c #DEDFDB",
"T+	c #717171",
"U+	c #6B6B6B",
"V+	c #929292",
"W+	c #969696",
"X+	c #C9D0BB",
"Y+	c #DFE5D4",
"Z+	c #B5C29C",
"`+	c #9FAD84",
" @	c #444E31",
".@	c #363E26",
"+@	c #3B432A",
"@@	c #ACBB8D",
"#@	c #A6B588",
"$@	c #A4B385",
"%@	c #A4B485",
"&@	c #7B8C5A",
"*@	c #DFE0DB",
"=@	c #E6E6E6",
"-@	c #BFBFBF",
";@	c #8E8E8E",
">@	c #868686",
",@	c #EFEFEF",
"'@	c #CAD1BC",
")@	c #D7DEC9",
"!@	c #B1BE96",
"~@	c #AEBC93",
"{@	c #ACBA8E",
"]@	c #5E6A48",
"^@	c #222718",
"/@	c #818E66",
"(@	c #A7B689",
"_@	c #A3B284",
":@	c #A3B283",
"<@	c #A2B180",
"[@	c #758652",
"}@	c #DFE0DC",
"|@	c #7F7F7F",
"1@	c #8A8A8A",
"2@	c #848484",
"3@	c #878787",
"4@	c #838383",
"5@	c #818181",
"6@	c #C9CFBB",
"7@	c #D0D8C0",
"8@	c #AEBC92",
"9@	c #ACBA90",
"0@	c #AAB88E",
"a@	c #ACBA8D",
"b@	c #74805B",
"c@	c #0A0D06",
"d@	c #A6B685",
"e@	c #A1B181",
"f@	c #A0B07F",
"g@	c #9DAE7B",
"h@	c #70804D",
"i@	c #7B7B7B",
"j@	c #7D7D7D",
"k@	c #9F9F9F",
"l@	c #CBD4B9",
"m@	c #A8B78A",
"n@	c #2F3524",
"o@	c #000000",
"p@	c #78845E",
"q@	c #A3B382",
"r@	c #9FAF7E",
"s@	c #9EAE7D",
"t@	c #99AB77",
"u@	c #687847",
"v@	c #E0E1DC",
"w@	c #898989",
"x@	c #CBCBCB",
"y@	c #C8CFBA",
"z@	c #C7D1B3",
"A@	c #A9B78B",
"B@	c #A6B586",
"C@	c #6A7553",
"D@	c #667150",
"E@	c #828F65",
"F@	c #9BAC79",
"G@	c #90A26C",
"H@	c #637243",
"I@	c #DFE1DC",
"J@	c #C2CDAD",
"K@	c #A2B181",
"L@	c #A4B483",
"M@	c #A2B381",
"N@	c #9FAF7D",
"O@	c #9CAD7B",
"P@	c #9AAB77",
"Q@	c #98AA75",
"R@	c #7F915B",
"S@	c #5E6D40",
"T@	c #FCFDFB",
"U@	c #F6F8F4",
"V@	c #F2F5EE",
"W@	c #BFC6AD",
"X@	c #C0CBA9",
"Y@	c #A3B282",
"Z@	c #A1B180",
"`@	c #9DAE7C",
" #	c #92A56F",
".#	c #718250",
"+#	c #5C6A40",
"@#	c #D2D5CA",
"##	c #F0F3EC",
"$#	c #F6F7F2",
"%#	c #DBE1CF",
"&#	c #D2DAC3",
"*#	c #CDD5BB",
"=#	c #A0AA89",
"-#	c #879171",
";#	c #7C8A60",
">#	c #8A986B",
",#	c #92A471",
"'#	c #95A871",
")#	c #93A76D",
"!#	c #8EA267",
"~#	c #889B61",
"{#	c #80935A",
"]#	c #758651",
"^#	c #647445",
"/#	c #55623A",
"(#	c #3E4827",
"_#	c #B7BFA4",
":#	c #D7DDC9",
"<#	c #E5EADD",
"[#	c #F8F9F5",
"}#	c #EEF0E8",
"|#	c #DAE0CE",
"1#	c #D1D9C1",
"2#	c #CCD5BA",
"3#	c #CBD5B8",
"4#	c #B8C3A4",
"5#	c #A2AC90",
"6#	c #919A7E",
"7#	c #878F76",
"8#	c #7E8771",
"9#	c #7C836E",
"0#	c #7D856E",
"a#	c #858D76",
"b#	c #8E977E",
"c#	c #A1AA8E",
"d#	c #BAC3A5",
"e#	c #CFD9BD",
"f#	c #CFD6BE",
"g#	c #D6DDC8",
"h#	c #E5E9DD",
"i#	c #F9FAF8",
"j#	c #F7F8F4",
"k#	c #F2F4EE",
"l#	c #EFF2E9",
"m#	c #E6EADD",
"n#	c #E5EADC",
"o#	c #E4E9DB",
"p#	c #E5E9DB",
"q#	c #E8ECDF",
"r#	c #EAEDE2",
"s#	c #EEF0E7",
"t#	c #F1F3EC",
"u#	c #F5F7F2",
". + @ @ @ @ # $ % & * = - ; > . . . . . . . . , ' ) ! ) ) ~ { ] ^ / ( _ ( : < _ [ { ) ) ) ) ' ' ",
". @ @ @ @ @ , } | 1 2 3 4 5 6 7 # # . . # # . , ' ) ! ) : 8 / 9 0 a b c b c d 8 { ] _ e ) ! ' ' ",
". + @ @ @ f g h i j k l m n o p q # . . # # # , ' ) ! _ r 8 s b t u { ~ / ] v a w x 8 9 y ! ) ' ",
". . @ @ @ z A B C @ @ D E F G H I . . . . . . , ' ) ^ J K L M r r J J b N d x O s P K J 9 ! ! ) ",
". . @ @ Q R S T U # # # . , V W X Y . . # . . , ' ! Z t b `  ...+.+.@.#.$.+.%.&.*...=.J v ^ ! ! ",
". + + + + -.;.>.,.. # . # '.).!.~.{.. . # . . , ].: t s ^./.+.$.(.^._.:.<.+.[.}.|.+./.M t 8 y ) ",
". @ @ @ 1.2.3.4.5.. # . # # 6.7.8.9.. # # # # , ].u t 0.[.}.}.a.b.c.d.e.f.b.g.}.h.i.(.=.j.k.( ) ",
"+ @ @ @ '.l.m.n.o.# # # # . p.q.r.s.. . . . . , ! v j.t.a.i.f.u.v.w.x.y.f.z.A.B.i.<.i.}.C.N ^ ].",
"@ @ @ @ , D.E.F.G., , , , , H.I.J.K.. . . . . , ! d a [.L.L.L.M.N.a.O.P.Q.f.R.M.L.L.S.<.*.t { ! ",
"@ @ @ @ T.U.V.W.X.Y.Z.`. +.+++@+#+$+%+. . . . , ! v w }.&+d.&+*+c.Q.=+-+;+S.b.>+x.,+d.L...v { ! ",
". @ @ @ '+)+!+~+{+]+^+/+(+_+:+<+[+}+|+. . . . , ].J 1+i.2+x.3+4+5+&+6+7+&+2+8+9+O.6+2+&+0+v ^ ! ",
"+ @ @ @ a+)+1 b+_+c+d+e+f+f+g+h+h+i+|+. . . . , ! J s a.O.j+u.k+l+m+_.6+n+u.o+k+=+u.6+6+p+K ^ ! ",
"+ @ @ @ q+r+s+t+u+e+v+w+f+x+y+z+A+B+C+. . . . , ) Z 0 D+7+n+E+F+-+G+k+H+8+4+P.m+I+w.w.d.d O < ! ",
". @ @ @ J+K+/+d+e+L+M+N+O+h+P+Q+Q+R+S+. . . . , ) ^ k.w n+F+E+B.H+T+y.l+U+M.V+W+F+V+V+D+x Z y ) ",
"+ @ @ @ X+Y+Z+f+f+`+ @.@+@@@#@$@%@&@*@. . . . , ! e =@8 -@g.b.g.b.;@>@8+H+c.H+H+b.g.u.8 k.,@! ) ",
"@ @ @ @ '@)@!@~@x+{@]@^@/@(@_@:@<@[@}@. . . . , ' ) ^ O 8 a.|@1@2@2@8+>@|@8+3@4@5@F+x x u ! ' ' ",
". @ @ @ 6@7@8@9@0@a@b@c@d@:@e@f@g@h@}@. # # # , ' ) y { 9 ] t.i@|@j@N.N.i@j@N.5+k@k.x x < ) ' ' ",
". + @ @ 6@l@y+A+m@@@n@o@p@q@r@s@t@u@v@# # # # , ' ) ].y u [ ] O d.w@5@k+4@>@m+x@_ [ ,@( ) ! ' ' ",
". @ @ @ y@z@A@(@#@B@C@D@E@r@g@F@G@H@I@. . . . , ' ' ) ) ) { ] ] ~ u K C.j.r < : ] ,@~ ! ) ' ' ' ",
". + @ @ X+J@#@%@:@K@L@M@N@O@P@Q@R@S@I@+ T@. . , ' ' ) ! ! ) e : { _ { ^ < ^ { ^ ( ].) ].! ! ' ' ",
"$ U@V@1 W@X@:@Y@Z@r@`@O@t@Q@ #R@.#+#@###$#K.T@, ' ) ! ! ! ( ^ u 8 =@=@Z O =@Z u ] / e ! ' ' ' ' ",
"1 %#&#*#=#-#;#>#,#'#)#!#~#{#]#^#/#(#_#7@:#<#[#, ].y ~ ^ [ k.0 t s w c c c w w s J k.9 ,@< ~ ) ) ",
"}#|#1#*#2#3#4#5#6#7#8#9#0#a#b#c#d#e#*#f#g#h#[#, ) y ^ [ r K s C.b C.b M b b b b a N k.8 ,@( ' ' ",
"i#j#k#l#4 K+m#n#o#E.p#o#p#o#p#m#q#r#s#t#u#K.f , ) y : ] r O J s a a w w w a a a t 0 =@8 { ~ ) ' "};
