/* XPM */
static char * protected_method_xpm[] = {
"48 24 396 2",
"  	c None",
". 	c #FFFFFF",
"+ 	c #FFFEFE",
"@ 	c #FCFAFA",
"# 	c #D9C8C8",
"$ 	c #AC8C8A",
"% 	c #F7EAEA",
"& 	c #9D5B5E",
"* 	c #7C4846",
"= 	c #F1EAF9",
"- 	c #F2EAFB",
"; 	c #F9EDF9",
"> 	c #C6C5F8",
", 	c #F2E8E7",
"' 	c #B47275",
") 	c #D29FA3",
"! 	c #F6E8E8",
"~ 	c #FFFEFF",
"{ 	c #E6C7ED",
"] 	c #895FC1",
"^ 	c #BFC3F9",
"/ 	c #B274D1",
"( 	c #B099F1",
"_ 	c #FFFFFD",
": 	c #D5C3EB",
"< 	c #F6F3FD",
"[ 	c #EED2D5",
"} 	c #8F5858",
"| 	c #D6B7B5",
"1 	c #F0DBDB",
"2 	c #F4DCDF",
"3 	c #D2A8AD",
"4 	c #A45F62",
"5 	c #CB9D9F",
"6 	c #FCF7F8",
"7 	c #B2A7E6",
"8 	c #B5ACF1",
"9 	c #AC95ED",
"0 	c #ACA2F3",
"a 	c #AC96EE",
"b 	c #AF92F0",
"c 	c #B486EA",
"d 	c #B483E6",
"e 	c #F4F3FB",
"f 	c #F0CED1",
"g 	c #A6393F",
"h 	c #BF8280",
"i 	c #925551",
"j 	c #A04E52",
"k 	c #B2686C",
"l 	c #E1C2C4",
"m 	c #FDFCFC",
"n 	c #FEFAFA",
"o 	c #FBF0F0",
"p 	c #C6A2E8",
"q 	c #935FC4",
"r 	c #AF85E0",
"s 	c #BAB4F4",
"t 	c #ADA4F0",
"u 	c #AC96EB",
"v 	c #B189E5",
"w 	c #B28EEC",
"x 	c #B484E5",
"y 	c #D5C7F2",
"z 	c #D8CDEE",
"A 	c #F5DEE0",
"B 	c #D17F86",
"C 	c #FDFBFC",
"D 	c #FDFDFD",
"E 	c #FEFDFD",
"F 	c #9B7573",
"G 	c #6B1D1D",
"H 	c #FDF7FB",
"I 	c #F5EDF8",
"J 	c #9B64C3",
"K 	c #C3B2EC",
"L 	c #BAB2F0",
"M 	c #BDB0F3",
"N 	c #AC8BE6",
"O 	c #904FB4",
"P 	c #9B61C4",
"Q 	c #AB74D4",
"R 	c #B489E9",
"S 	c #B282E0",
"T 	c #AB72CC",
"U 	c #FBF7FB",
"V 	c #F7E7E7",
"W 	c #B96D6F",
"X 	c #905857",
"Y 	c #A75659",
"Z 	c #D58BBF",
"` 	c #E4ABD5",
" .	c #C179AA",
"..	c #B24763",
"+.	c #B33347",
"@.	c #F1EAFB",
"#.	c #A15CC2",
"$.	c #A950B4",
"%.	c #C8B0EF",
"&.	c #C7B9F5",
"*.	c #AF83DB",
"=.	c #A466CA",
"-.	c #9770CF",
";.	c #A079E0",
">.	c #B38AED",
",.	c #B487E9",
"'.	c #DFD1F2",
").	c #FFFAFA",
"!.	c #A9575A",
"~.	c #FEF9FA",
"{.	c #985F5C",
"].	c #A65052",
"^.	c #851D21",
"/.	c #FFFCFD",
"(.	c #8E4446",
"_.	c #EFE1E1",
":.	c #F4D9ED",
"<.	c #BA75A3",
"[.	c #B43E57",
"}.	c #B3354B",
"|.	c #B43F58",
"1.	c #B23347",
"2.	c #8B4DB1",
"3.	c #AE3A6F",
"4.	c #8B58B4",
"5.	c #B09BE7",
"6.	c #CDBFF7",
"7.	c #C5BDF4",
"8.	c #AD9EE4",
"9.	c #9B77E4",
"0.	c #807ADF",
"a.	c #B38DF0",
"b.	c #B488E9",
"c.	c #AD9CE9",
"d.	c #AF6D6F",
"e.	c #F9EDED",
"f.	c #B78382",
"g.	c #933E3D",
"h.	c #822A2C",
"i.	c #864344",
"j.	c #FBF8F8",
"k.	c #D891C5",
"l.	c #B23448",
"m.	c #B34560",
"n.	c #B3364C",
"o.	c #B3344A",
"p.	c #B23348",
"q.	c #B13145",
"r.	c #B12D3E",
"s.	c #AF2A3C",
"t.	c #C4ACE7",
"u.	c #C4B2EC",
"v.	c #D5CFFD",
"w.	c #C2BDF8",
"x.	c #BEB7F3",
"y.	c #B487E8",
"z.	c #B290EF",
"A.	c #B095F1",
"B.	c #B48BEA",
"C.	c #9B409D",
"D.	c #EED9F5",
"E.	c #C89394",
"F.	c #DBC0C0",
"G.	c #CE9C9D",
"H.	c #8E3E3D",
"I.	c #924E4D",
"J.	c #FCF0F0",
"K.	c #874D4D",
"L.	c #F7E4F1",
"M.	c #BC77A6",
"N.	c #AC658A",
"O.	c #B4374E",
"P.	c #B4374D",
"Q.	c #B13044",
"R.	c #AF2F42",
"S.	c #AF2D40",
"T.	c #AF2E42",
"U.	c #AF2C43",
"V.	c #A83864",
"W.	c #9F263A",
"X.	c #B471C9",
"Y.	c #CDC3FC",
"Z.	c #B9B4F5",
"`.	c #AFAEF6",
" +	c #AB9EF1",
".+	c #AE96F2",
"++	c #B28DEE",
"@+	c #ACA1F2",
"#+	c #F9F3FB",
"$+	c #E6C9CA",
"%+	c #9F6D6D",
"&+	c #DCC0BE",
"*+	c #833634",
"=+	c #AA7675",
"-+	c #DBC5C4",
";+	c #976666",
">+	c #BE78A8",
",+	c #B43A53",
"'+	c #B43A51",
")+	c #B43A52",
"!+	c #AB628A",
"~+	c #B2709B",
"{+	c #AD6A92",
"]+	c #B02F42",
"^+	c #AE2C3C",
"/+	c #AC2A3C",
"(+	c #AB4B91",
"_+	c #C4BFF6",
":+	c #AC7ED9",
"<+	c #AB81DB",
"[+	c #B5B2F4",
"}+	c #ACACF7",
"|+	c #AC9BF2",
"1+	c #9B3FA9",
"2+	c #B476D0",
"3+	c #8C5051",
"4+	c #F4E6E7",
"5+	c #F5DFE0",
"6+	c #6E1516",
"7+	c #AA7272",
"8+	c #A87B79",
"9+	c #BC9B9B",
"0+	c #F3D7EB",
"a+	c #AC668E",
"b+	c #B4729E",
"c+	c #B43F59",
"d+	c #B43D56",
"e+	c #AD567A",
"f+	c #AD6B96",
"g+	c #B874A3",
"h+	c #BF79AA",
"i+	c #CD82B7",
"j+	c #B23146",
"k+	c #B12F42",
"l+	c #B0344F",
"m+	c #B13665",
"n+	c #9D48AE",
"o+	c #AE68C8",
"p+	c #B9A7EF",
"q+	c #8E359D",
"r+	c #B17CE0",
"s+	c #B08AD5",
"t+	c #C9A6A5",
"u+	c #B88D8B",
"v+	c #FFF7F7",
"w+	c #7B2B29",
"x+	c #CB9D9B",
"y+	c #F9EDEE",
"z+	c #9F6666",
"A+	c #EDE3E3",
"B+	c #CA7FB2",
"C+	c #B16F99",
"D+	c #AD5678",
"E+	c #B43C54",
"F+	c #B4384F",
"G+	c #E1A4D2",
"H+	c #E4AED7",
"I+	c #BD77A8",
"J+	c #C87FB3",
"K+	c #D58CC2",
"L+	c #AC293A",
"M+	c #A7283B",
"N+	c #AD5F87",
"O+	c #9373D3",
"P+	c #9354BC",
"Q+	c #B259B8",
"R+	c #8648A8",
"S+	c #B782CD",
"T+	c #FAECEB",
"U+	c #894442",
"V+	c #F7F0EF",
"W+	c #F1D9D5",
"X+	c #FDF8F6",
"Y+	c #C09898",
"Z+	c #CBAFAF",
"`+	c #BB76A6",
" @	c #AE5373",
".@	c #AE5475",
"+@	c #B43950",
"@@	c #AE5371",
"#@	c #EFC7E7",
"$@	c #D289BF",
"%@	c #E0A1D1",
"&@	c #B12F43",
"*@	c #B12F41",
"=@	c #971F33",
"-@	c #C08BC6",
";@	c #9B43A3",
">@	c #EACFEE",
",@	c #AC6EBB",
"'@	c #FDFAFD",
")@	c #B37E80",
"!@	c #F7D6D6",
"~@	c #611F1B",
"{@	c #9F7C77",
"]@	c #E8CECF",
"^@	c #AB7778",
"/@	c #EEE6E6",
"(@	c #CB80B3",
"_@	c #AE5476",
":@	c #B975A4",
"<@	c #AC678E",
"[@	c #B43D55",
"}@	c #AF516F",
"|@	c #F1CFE9",
"1@	c #D890C5",
"2@	c #AC597B",
"3@	c #AF2C3D",
"4@	c #AB2937",
"5@	c #B43A4E",
"6@	c #E9BBDB",
"7@	c #FCF7FB",
"8@	c #FCF6F7",
"9@	c #AC7775",
"0@	c #D7BDBC",
"a@	c #EDC7C7",
"b@	c #A03D41",
"c@	c #CDA3A4",
"d@	c #EADADC",
"e@	c #97615F",
"f@	c #D3BCBA",
"g@	c #E9B7DC",
"h@	c #ECBFE1",
"i@	c #AF506F",
"j@	c #B02F43",
"k@	c #AF2E41",
"l@	c #AE2C3E",
"m@	c #AE2A3B",
"n@	c #B33448",
"o@	c #FEFCFD",
"p@	c #E1D1D0",
"q@	c #916561",
"r@	c #D7C5C4",
"s@	c #FFF0F2",
"t@	c #F3E9EA",
"u@	c #835A5D",
"v@	c #886867",
"w@	c #F6F4F2",
"x@	c #E4ACD6",
"y@	c #C079AA",
"z@	c #AD6B93",
"A@	c #B16F9A",
"B@	c #B3435E",
"C@	c #AF2C3E",
"D@	c #AD293A",
"E@	c #B14B67",
"F@	c #AC5E80",
"G@	c #FEFFFF",
"H@	c #CBB8B6",
"I@	c #8E5956",
"J@	c #D1B7B5",
"K@	c #ECDEDD",
"L@	c #905C5C",
"M@	c #966466",
"N@	c #E6DEDF",
"O@	c #F1D1E9",
"P@	c #AC668D",
"Q@	c #AE6B94",
"R@	c #AC5D81",
"S@	c #B43B53",
"T@	c #B3425D",
"U@	c #DA95C7",
"V@	c #D6BDBB",
"W@	c #965E5D",
"X@	c #986667",
"Y@	c #E3C9CA",
"Z@	c #D4B6B7",
"`@	c #704240",
" #	c #A47D7B",
".#	c #B06E98",
"+#	c #AC5A7D",
"@#	c #B3445F",
"##	c #B24B68",
"$#	c #AD5779",
"%#	c #AB5F83",
"&#	c #AC597A",
"*#	c #EEE1E1",
"=#	c #B89393",
"-#	c #83413F",
";#	c #9A5B5D",
">#	c #D1BBBA",
",#	c #FAF8F8",
"'#	c #C97FB4",
")#	c #D891C6",
"!#	c #AC5B7E",
"~#	c #C17AAC",
"{#	c #AC658B",
"]#	c #EBBFE0",
"^#	c #F9F2F1",
"/#	c #FAF7F7",
"(#	c #FEFEFE",
"_#	c #D992C5",
":#	c #D389BD",
"<#	c #F9EAF4",
"[#	c #C47BAC",
"}#	c #EDC3E2",
". . . . . . . . . . . + @ + . . . . . . . . . . . . . . . . . . . . . . . . . . . . . . . . . . ",
". . . . . . . . . . . # $ # . . . . . . . . . . . . . . . . . . . . . . . . . . . . . . . . . . ",
". . . . . . . . . . % & * & % . . . . . . . . . . . . . . . . . . . . . . . . = - ; > . . . . . ",
". . . . . . . . . , ' ) ! ) ' , . . . . . . . . . . . . . . . . . . . . . ~ { ] ^ / ( _ : < . . ",
". . . [ } | 1 2 3 4 5 6 . 6 5 4 3 2 1 | } [ . . . . . . . . . . . . . . . 7 8 9 0 a b c d e . . ",
". . . f g h i j k l m n o n m l k j i h g f . . . . . . . . . . . . . . p q r s t u v w x y z . ",
". . . A B C D E E + . F G F . + E E D C B A . . . . . . . . . + H . . I J K L M N O P Q R S T U ",
". . . V W E . . . . . X Y X . . . . . E W V . . . . . . + Z `  .... +.@.#.$.%.&.*.=.-.;.>.,.'.~ ",
". . . ).!.~.. . . . . {.].^./.. . . . . (._.. . . . . + :.<.[.[.}.|.1.2.3.4.5.6.7.8.9.0.a.b.c c.",
". . . . d.e.. . . . . f.g.h.. . . . . . i.j.. . . . . k.l.m.}.n.o.p.q.r.s.t.u.v.w.x.y.z.A.B.C.D.",
". . . . E.F.. . . . . G.H.I.. . . . . J.K.@ . . . . L.M.N.O.P.}.Q.R.S.T.U.V.W.X.Y.Z.`. +.+++@+#+",
". . . . $+%+. . . . . &+*+=+. . . . . -+;+E . . . . >+,+'+P.P.)+!+~+{+]+^+/+(+_+:+<+[+}+|+1+2+. ",
". . . . . 3+4+. . . . 5+6+7+. . . . . 8+9+. . . . 0+a+b+c+d+)+e+f+g+h+i+j+k+l+m+n+o+p+q+r+s+. ~ ",
". . . . . t+u+. . . . v+w+x+. . . . y+z+A+. . . . B+C+D+E+F+n.G+H+I+J+K+j+L+M+N+O+P+Q+R+S+. . . ",
". . . . . T+U+V+. . . . W+X+. . . . Y+Z+m . . . + . `+ @.@+@)+@@. #@$@%@&@*@=@-@;@>@,@. '@. . . ",
". . . . . . 5 )@. . . !@~@{@. . . ]@^@/@. . . . . (@_@:@<@F+[@P.}@|@1@2@1.3@4@5@6@7@'@. . . . . ",
". . . . . . 8@9@0@. . a@b@c@. . d@e@f@. . . . . . g@h@g+'+i@'+}.o.F+j@k@l@m@n@:.o@. . . . . . . ",
". . . . . . . p@q@r@. . s@. . t@u@v@w@. . . . . . . x@y@z@A@B@n.o.j+q.]+C@D@E@F@. . . . . . . . ",
". . . . . . . G@H@I@J@. . . K@L@M@N@. . . . . . . . M.O@P@Q@R.R@S@q.]+k@T@n.U@. . . . . . . . . ",
". . . . . . . . E V@W@X@Y@Z@`@ #y+. . . . . . . . . . . .#+#A@A@@###$#q.%#&#. + . . . . . . . . ",
". . . . . . . . . . *#=#-#;#>#,#. . . . . . . . . . . + '#. )#.#!#~#{# @]#. + . . . . . . . . . ",
". . . . . . . . . . . m ^#/#(#. . . . . . . . . . . . . . . _#:#<#[#}#. o@. . . . . . . . . . . ",
". . . . . . . . . . . . . . . . . . . . . . . . . . . . . . . . . . . . . . . . . . . . . . . . ",
". . . . . . . . . . . . . . . . . . . . . . . . . . . . . . . . . . . . . . . . . . . . . . . . "};
