/* XPM */
static char * py_kwargs_xpm[] = {
"24 24 8 1",
" 	c None",
".	c #000000",
"+	c #FFFFFF",
"@	c #403DC3",
"#	c #C33D3D",
"$	c #3DC366",
"%	c #F9F9F9",
"&	c #F7F7F7",
"                        ",
"                        ",
"                        ",
"                        ",
"                        ",
"                        ",
"                        ",
" .........   .........  ",
" .+++++++.  @.+++++++.  ",
" .+#####+@@@@@+$$$$$+.  ",
" .%%&&&&&.  @.%%&&&&&.  ",
" .........   .........  ",
" .+++++++.  @.+++++++.  ",
" .+#####+@@@@@+$$$$$+.  ",
" .+++++++.  @.+++++++.  ",
" .........   .........  ",
" .+++++++.  @.+++++++.  ",
" .+#####+@@@@@+$$$$$+.  ",
" .+++++++.  @.+++++++.  ",
" .........   .........  ",
"                        ",
"                        ",
"                        ",
"                        "};
