/* XPM */
static char * py_variable_xpm[] = {
"24 24 56 1",
" 	c None",
".	c #F72DFE",
"+	c #F96EFF",
"@	c #FF93FF",
"#	c #FF8EFF",
"$	c #FF82FF",
"%	c #F730FE",
"&	c #F869FF",
"*	c #FF8FFF",
"=	c #FF8CFF",
"-	c #FF8BFF",
";	c #FF90FF",
">	c #FE85FE",
",	c #E709FF",
"'	c #FF92FF",
")	c #ED4FFF",
"!	c #F361FF",
"~	c #FF83FF",
"{	c #FF91FF",
"]	c #EE2AFF",
"^	c #F15BFF",
"/	c #8100FD",
"(	c #3D00FC",
"_	c #3900FA",
":	c #7000FD",
"<	c #FF7FFF",
"[	c #FF75FF",
"}	c #FF94FF",
"|	c #3900FE",
"1	c #E90CFF",
"2	c #DD0BFF",
"3	c #3500FB",
"4	c #5900FF",
"5	c #5F00FF",
"6	c #5A00FE",
"7	c #F736FF",
"8	c #FF6FFF",
"9	c #5E00FF",
"0	c #4500FC",
"a	c #E403FF",
"b	c #3900FF",
"c	c #5C00FF",
"d	c #6000FF",
"e	c #FF69FF",
"f	c #3E00F9",
"g	c #5600FF",
"h	c #5D00FE",
"i	c #5000FD",
"j	c #2C00FB",
"k	c #3400FB",
"l	c #5A00FF",
"m	c #5800FF",
"n	c #5400FF",
"o	c #2C00F8",
"p	c #3200F9",
"q	c #4600FC",
"                        ",
"                        ",
"                        ",
"                        ",
"                        ",
"                        ",
"                        ",
"          .+@@#$        ",
"         %&*=#=-;>      ",
"         ,'@)! ~~={     ",
"        =]^/(_: <[}     ",
"      | =123456  78     ",
"      90  a bcd   e     ",
"      fg     cd         ",
"       h9ijkl9m    #    ",
"        n59994          ",
"         opq      =     ",
"                  =     ",
"                        ",
"                        ",
"                        ",
"                        ",
"                        ",
"                        "};
