/* XPM */
static char * python_xpm[] = {
"24 24 274 2",
"  	c None",
". 	c #6093BB",
"+ 	c #5289B5",
"@ 	c #4782B2",
"# 	c #3977A9",
"$ 	c #3B77AA",
"% 	c #4881AD",
"& 	c #588BB3",
"* 	c #3F7BB0",
"= 	c #3E81B4",
"- 	c #3879AF",
"; 	c #3777AE",
"> 	c #3877AC",
", 	c #3776AA",
"' 	c #3474A8",
") 	c #3673A8",
"! 	c #3771A3",
"~ 	c #4079A9",
"{ 	c #568FBD",
"] 	c #4B81B0",
"^ 	c #EE2C2B",
"/ 	c #B090A2",
"( 	c #3476AC",
"_ 	c #3674A7",
": 	c #3673A6",
"< 	c #3672A5",
"[ 	c #3772A4",
"} 	c #3670A1",
"| 	c #5484AD",
"1 	c #518AB8",
"2 	c #4D7FAE",
"3 	c #EE2624",
"4 	c #BC818F",
"5 	c #3275AA",
"6 	c #3673A5",
"7 	c #3671A3",
"8 	c #3770A2",
"9 	c #396E9F",
"0 	c #477BA5",
"a 	c #5089B7",
"b 	c #3577AB",
"c 	c #4383B3",
"d 	c #3878AA",
"e 	c #3674A6",
"f 	c #3770A1",
"g 	c #376FA0",
"h 	c #386E9E",
"i 	c #4479A4",
"j 	c #6DA1C1",
"k 	c #3679AE",
"l 	c #3879AB",
"m 	c #3879AC",
"n 	c #3B7CAE",
"o 	c #3B74A4",
"p 	c #3770A0",
"q 	c #386F9F",
"r 	c #396E9C",
"s 	c #3C719F",
"t 	c #5A8EBB",
"u 	c #558CB7",
"v 	c #568BB7",
"w 	c #5388B4",
"x 	c #5589B2",
"y 	c #5688B1",
"z 	c #5687B0",
"A 	c #598AB0",
"B 	c #3971A2",
"C 	c #366E9F",
"D 	c #386F9D",
"E 	c #396D9B",
"F 	c #3B709E",
"G 	c #FBD952",
"H 	c #FBD954",
"I 	c #FAD961",
"J 	c #5A8FB9",
"K 	c #3879AD",
"L 	c #3679B0",
"M 	c #3777AD",
"N 	c #3776AE",
"O 	c #3776A9",
"P 	c #3575A7",
"Q 	c #3772A3",
"R 	c #3771A1",
"S 	c #376EA0",
"T 	c #376E9D",
"U 	c #376D9C",
"V 	c #386C9A",
"W 	c #3C729E",
"X 	c #FED644",
"Y 	c #FED546",
"Z 	c #FDD345",
"` 	c #FED54F",
" .	c #3478AD",
"..	c #3678AE",
"+.	c #3877AD",
"@.	c #376F9F",
"#.	c #366C9B",
"$.	c #376C99",
"%.	c #43769F",
"&.	c #FED544",
"*.	c #FFD444",
"=.	c #FFD343",
"-.	c #FED142",
";.	c #F9DB6E",
">.	c #588CBA",
",.	c #3778AF",
"'.	c #3776AB",
").	c #386F9E",
"!.	c #386E9D",
"~.	c #366C99",
"{.	c #356B97",
"].	c #527EA5",
"^.	c #FED443",
"/.	c #FFD242",
"(.	c #FDD13F",
"_.	c #FBD450",
":.	c #4984B5",
"<.	c #3977AC",
"[.	c #3672A3",
"}.	c #376F9E",
"|.	c #356B99",
"1.	c #366B96",
"2.	c #326894",
"3.	c #FCDD68",
"4.	c #FED241",
"5.	c #FED140",
"6.	c #FFD040",
"7.	c #FDCF42",
"8.	c #3B7AAD",
"9.	c #3775AA",
"0.	c #3471A3",
"a.	c #4177A7",
"b.	c #4F80AD",
"c.	c #4E80AC",
"d.	c #4F7FAA",
"e.	c #4E7FA9",
"f.	c #4F7DA9",
"g.	c #4E7EA6",
"h.	c #4E7DA6",
"i.	c #4C7DA4",
"j.	c #FCD446",
"k.	c #FFD140",
"l.	c #FFCF3F",
"m.	c #3A77AB",
"n.	c #3773A5",
"o.	c #5B8AB2",
"p.	c #FFF08E",
"q.	c #FFE75F",
"r.	c #FFE65C",
"s.	c #FFE65A",
"t.	c #FFE55A",
"u.	c #FFE55B",
"v.	c #FFE359",
"w.	c #FFDF5C",
"x.	c #FDDB60",
"y.	c #FFD344",
"z.	c #FFCF40",
"A.	c #FFCE3E",
"B.	c #FFCC3B",
"C.	c #457FAF",
"D.	c #3672A4",
"E.	c #3572A4",
"F.	c #4478A8",
"G.	c #FDE05C",
"H.	c #FEDD50",
"I.	c #FEDB4E",
"J.	c #FEDA4E",
"K.	c #FED94B",
"L.	c #FED74A",
"M.	c #FED747",
"N.	c #FED545",
"O.	c #FED342",
"P.	c #FFCC3C",
"Q.	c #FCCB3C",
"R.	c #4981AF",
"S.	c #467EAB",
"T.	c #FFE574",
"U.	c #FEDD4F",
"V.	c #FFDC4E",
"W.	c #FFDB4D",
"X.	c #FFD94C",
"Y.	c #FED74B",
"Z.	c #FED649",
"`.	c #FFCD3C",
" +	c #FECB38",
".+	c #FACE49",
"++	c #598CB3",
"@+	c #3671A2",
"#+	c #558CBC",
"$+	c #FFE165",
"%+	c #FED64A",
"&+	c #FFD545",
"*+	c #FFCF3E",
"=+	c #FFCB3A",
"-+	c #FCCA39",
";+	c #FAD260",
">+	c #3B75A6",
",+	c #366FA0",
"'+	c #5888BC",
")+	c #FEE165",
"!+	c #FEDA4D",
"~+	c #FED94C",
"{+	c #FED84B",
"]+	c #FFD543",
"^+	c #FFD342",
"/+	c #FFD240",
"(+	c #FFD13F",
"_+	c #FFCE3D",
":+	c #FFCD3A",
"<+	c #FFCA3A",
"[+	c #FDCA3B",
"}+	c #FDCB46",
"|+	c #4B7FAA",
"1+	c #3D729F",
"2+	c #39719D",
"3+	c #5D8DB9",
"4+	c #FEE060",
"5+	c #FDD94B",
"6+	c #FFD646",
"7+	c #FED444",
"8+	c #FCD654",
"9+	c #FDD753",
"0+	c #FDD552",
"a+	c #FDD451",
"b+	c #FED350",
"c+	c #FDD251",
"d+	c #FCD14D",
"e+	c #FCCF4D",
"f+	c #FBD461",
"g+	c #FDDE62",
"h+	c #FDD74A",
"i+	c #FED648",
"j+	c #FFD546",
"k+	c #FFD341",
"l+	c #FCDD62",
"m+	c #FED748",
"n+	c #FED03F",
"o+	c #FED13D",
"p+	c #FDCF3A",
"q+	c #FDCB3B",
"r+	c #FBCA37",
"s+	c #FCDC63",
"t+	c #FFD645",
"u+	c #FFD241",
"v+	c #FECE3F",
"w+	c #F2DD71",
"x+	c #61EC61",
"y+	c #FACE4D",
"z+	c #FCCB3B",
"A+	c #FDDD6C",
"B+	c #FED543",
"C+	c #FFD243",
"D+	c #FFD03F",
"E+	c #FECD3A",
"F+	c #B7E67B",
"G+	c #19E82B",
"H+	c #E5D450",
"I+	c #FBCB40",
"J+	c #FED446",
"K+	c #FED344",
"L+	c #FFCE3F",
"M+	c #FDCD3B",
"N+	c #FCCD3E",
"O+	c #EBD144",
"P+	c #FDC935",
"Q+	c #FBD567",
"R+	c #FAD861",
"S+	c #FCD75A",
"T+	c #FAD13F",
"U+	c #FCCE3E",
"V+	c #FCCD3B",
"W+	c #FCCC3B",
"X+	c #FBCD49",
"Y+	c #FACF53",
"                . + @ # $ % &                   ",
"              * = - ; > , ' ) ! ~               ",
"            { ] ^ / ( , _ : < [ } |             ",
"            1 2 3 4 5 _ : 6 7 8 9 0             ",
"            a b c d _ e 6 7 f g h i             ",
"            j k l m l n o p g q r s             ",
"      t u v w x x y z A B C q D E F   G H I     ",
"  J K L M N O P e < Q R S q T U V W   X Y Z `   ",
"   ...+.> , _ : < 7 8 g @.D U #.$.%.  &.*.=.-.;.",
">.,.+.+.'._ : 6 7 8 g @.).!.#.~.{.].  ^.=./.(._.",
":.<.+.'._ : 6 [.} @.}.D U #.|.1.2.  3.4./.5.6.7.",
"8.+.9._ : 6 0.a.b.c.d.e.f.g.h.i.    j./.k.k.l.l.",
"m.O _ : n.0.o.  p.q.r.s.t.u.v.w.x.y.-.5.6.z.A.B.",
"C.e : D.E.F.  G.H.I.J.K.L.M.N.^.O.4.5.6.l.A.P.Q.",
"R.n.< 7 f S.T.U.V.W.X.Y.Z.Y *.=./.5.k.6.A.`. +.+",
"++@+7 8 S #+$+W.W.X.Y.%+&+&+=./.k.k.k.*+P.=+-+;+",
"  >+f ,+,+'+)+!+~+{+%+&+]+^+/+(+(+(+_+:+<+[+}+  ",
"    |+1+2+3+4+5+Y.Z.6+7+8+9+0+a+a+b+c+d+e+f+    ",
"            g+h+i+j+&+k+                        ",
"            l+m+j+*.*.k+n+o+p+`.q+r+            ",
"            s+t+*.y.=.u+k.v+w+x+y+z+            ",
"            A+B+y.y.C+k.D+E+F+G+H+I+            ",
"              J+K+/.(+6.L+M+N+O+P+Q+            ",
"                R+S+T+U+V+W+X+Y+                "};
