/* XPM */
static char * relation_xpm[] = {
"24 24 346 2",
"  	c None",
". 	c #F5E7E6",
"+ 	c #EC1B1B",
"@ 	c #EB2F2F",
"# 	c #8046D5",
"$ 	c #651DD2",
"% 	c #E5DEED",
"& 	c #CA9394",
"* 	c #A20F13",
"= 	c #A11211",
"- 	c #EBDEDE",
"; 	c #F0E0B8",
"> 	c #EDAA19",
", 	c #EEC977",
"' 	c #D9D3E3",
") 	c #4A129A",
"! 	c #4C179C",
"~ 	c #653E8F",
"{ 	c #E7C8C9",
"] 	c #471314",
"^ 	c #5C2A29",
"/ 	c #F3DBDC",
"( 	c #AF8842",
"_ 	c #B88518",
": 	c #B68624",
"< 	c #61507C",
"[ 	c #1F0C3F",
"} 	c #674695",
"| 	c #D29A9B",
"1 	c #7D0707",
"2 	c #7C1413",
"3 	c #7B1211",
"4 	c #860D07",
"5 	c #7E612A",
"6 	c #4E3808",
"7 	c #8E7E5B",
"8 	c #E1C3EB",
"9 	c #A928D5",
"0 	c #AE39D2",
"a 	c #633893",
"b 	c #300D60",
"c 	c #2F0C57",
"d 	c #A899AE",
"e 	c #5F060A",
"f 	c #AA8283",
"g 	c #610E0E",
"h 	c #6C2123",
"i 	c #AC8B89",
"j 	c #893735",
"k 	c #8B714B",
"l 	c #6F4E10",
"m 	c #68490F",
"n 	c #BEA856",
"o 	c #F4E53B",
"p 	c #F6EA4D",
"q 	c #F5F5E5",
"r 	c #903CAD",
"s 	c #8818AB",
"t 	c #7D17A2",
"u 	c #4D146B",
"v 	c #210445",
"w 	c #2D1249",
"x 	c #1E0A31",
"y 	c #876465",
"z 	c #C8B7B7",
"A 	c #4F0807",
"B 	c #5C1B1B",
"C 	c #F1F4F4",
"D 	c #4D1410",
"E 	c #41372A",
"F 	c #51370C",
"G 	c #543809",
"H 	c #9C8A16",
"I 	c #C7BA16",
"J 	c #CEBF19",
"K 	c #E3E0A8",
"L 	c #BEA7C6",
"M 	c #5B1C70",
"N 	c #3F0D53",
"O 	c #2E1940",
"P 	c #1D043B",
"Q 	c #35295A",
"R 	c #B0B4BB",
"S 	c #E3E2E3",
"T 	c #BCACAC",
"U 	c #470E0E",
"V 	c #541C1B",
"W 	c #E9EBEB",
"X 	c #D0CECB",
"Y 	c #D7E2D3",
"Z 	c #3F2C01",
"` 	c #3F2E0E",
" .	c #5D4F14",
"..	c #6F6B0A",
"+.	c #8B811F",
"@.	c #E0DFCD",
"#.	c #733287",
"$.	c #470C5E",
"%.	c #2A1C3D",
"&.	c #263D75",
"*.	c #228EDA",
"=.	c #2088D0",
"-.	c #C4CBD3",
";.	c #B2A5A6",
">.	c #613839",
",.	c #4A1313",
"'.	c #DCDDDD",
").	c #78C672",
"!.	c #2BD61E",
"~.	c #33D526",
"{.	c #413B15",
"].	c #534216",
"^.	c #464005",
"/.	c #BAB368",
"(.	c #8E30AC",
"_.	c #781698",
":.	c #3A1F4D",
"<.	c #2773A9",
"[.	c #1875B6",
"}.	c #1A71B2",
"|.	c #4B7894",
"1.	c #A69999",
"2.	c #593031",
"3.	c #4A1516",
"4.	c #BEC5BF",
"5.	c #1E9E1A",
"6.	c #23B717",
"7.	c #24B719",
"8.	c #3B7F28",
"9.	c #73612A",
"0.	c #BEB114",
"a.	c #CBC586",
"b.	c #893DA7",
"c.	c #650E83",
"d.	c #3F1A57",
"e.	c #294D79",
"f.	c #1C5B87",
"g.	c #1E5881",
"h.	c #71808A",
"i.	c #7B7576",
"j.	c #2A1816",
"k.	c #301A19",
"l.	c #979897",
"m.	c #166617",
"n.	c #24891B",
"o.	c #248A1E",
"p.	c #486020",
"q.	c #72611E",
"r.	c #ACA014",
"s.	c #CDCBAB",
"t.	c #9961AC",
"u.	c #610E81",
"v.	c #344380",
"w.	c #196499",
"x.	c #12405F",
"y.	c #072E4C",
"z.	c #59788E",
"A.	c #848687",
"B.	c #6C6B6A",
"C.	c #6E6D6D",
"D.	c #828E82",
"E.	c #487743",
"F.	c #0C4908",
"G.	c #1D6E16",
"H.	c #24A51C",
"I.	c #656416",
"J.	c #ACA019",
"K.	c #CFCEC2",
"L.	c #A482B1",
"M.	c #57147D",
"N.	c #24618B",
"O.	c #255A80",
"P.	c #1D608F",
"Q.	c #196395",
"R.	c #166DAC",
"S.	c #416C88",
"T.	c #85807E",
"U.	c #7C7A78",
"V.	c #1A9611",
"W.	c #199911",
"X.	c #229419",
"Y.	c #238E1E",
"Z.	c #2A7D21",
"`.	c #389421",
" +	c #AB9C1A",
".+	c #CCCBC3",
"++	c #CACACA",
"@+	c #AC9AB2",
"#+	c #355697",
"$+	c #495B6C",
"%+	c #3D6584",
"&+	c #20587F",
"*+	c #1F587F",
"=+	c #1C5987",
"-+	c #0E5F91",
";+	c #74797C",
">+	c #577E53",
",+	c #219D17",
"'+	c #1F6D1A",
")+	c #257F1F",
"!+	c #24801D",
"~+	c #557B51",
"{+	c #287720",
"]+	c #879920",
"^+	c #C6C6C1",
"/+	c #CDCDCD",
"(+	c #C5C5C5",
"_+	c #C3C3C3",
":+	c #AEABAE",
"<+	c #33255A",
"[+	c #57395B",
"}+	c #41647B",
"|+	c #20577E",
"1+	c #193A4F",
"2+	c #1D6699",
"3+	c #26586E",
"4+	c #138810",
"5+	c #238D1A",
"6+	c #1A3218",
"7+	c #268120",
"8+	c #237E1C",
"9+	c #617A5D",
"0+	c #4B4F11",
"a+	c #5F611C",
"b+	c #B8B8B7",
"c+	c #C9C9C9",
"d+	c #B7B7B7",
"e+	c #C6C6C6",
"f+	c #B5B5B5",
"g+	c #A1A3A0",
"h+	c #451355",
"i+	c #44254D",
"j+	c #3E5B71",
"k+	c #1F567B",
"l+	c #20557D",
"m+	c #15242C",
"n+	c #306489",
"o+	c #17647B",
"p+	c #229816",
"q+	c #4C7A46",
"r+	c #1A3D17",
"s+	c #267E20",
"t+	c #247D1A",
"u+	c #4F614B",
"v+	c #5B550D",
"w+	c #68631A",
"x+	c #A7A7A7",
"y+	c #BDBDBD",
"z+	c #CCCCCC",
"A+	c #A4A4A4",
"B+	c #C7C7C7",
"C+	c #BCBCBC",
"D+	c #ACADAB",
"E+	c #776C7A",
"F+	c #756F77",
"G+	c #566B7D",
"H+	c #184464",
"I+	c #1E547A",
"J+	c #112D40",
"K+	c #747F85",
"L+	c #315B69",
"M+	c #387733",
"N+	c #808380",
"O+	c #1C4C19",
"P+	c #1F6819",
"Q+	c #1B6F16",
"R+	c #737A73",
"S+	c #6E6C5A",
"T+	c #89897A",
"U+	c #B0B0B0",
"V+	c #BFBFBF",
"W+	c #B3B3B3",
"X+	c #C0C0C0",
"Y+	c #A9A7AC",
"Z+	c #979498",
"`+	c #677885",
" @	c #1A486A",
".@	c #1C5176",
"+@	c #14364D",
"@@	c #838282",
"#@	c #807B7C",
"$@	c #827C80",
"%@	c #727A72",
"&@	c #205D1B",
"*@	c #195715",
"=@	c #1C7215",
"-@	c #918D8D",
";@	c #9D9C98",
">@	c #B3B3B0",
",@	c #C2C2C2",
"'@	c #C8C8C8",
")@	c #B7B5B7",
"!@	c #A4A3A6",
"~@	c #767E89",
"{@	c #164466",
"]@	c #1A4F74",
"^@	c #153952",
"/@	c #848484",
"(@	c #8C8B8B",
"_@	c #8B8A8B",
":@	c #707870",
"<@	c #20631A",
"[@	c #124A0F",
"}@	c #23701E",
"|@	c #9E989A",
"1@	c #ABABA7",
"2@	c #C1C1C1",
"3@	c #CBCBCB",
"4@	c #BEBDBF",
"5@	c #ADACAE",
"6@	c #A4A2A5",
"7@	c #6D6B6D",
"8@	c #344958",
"9@	c #3C4F5C",
"0@	c #929191",
"a@	c #9B9B9B",
"b@	c #999999",
"c@	c #7F7F80",
"d@	c #286024",
"e@	c #435742",
"f@	c #807D7E",
"g@	c #ACACA9",
"h@	c #C9C9C8",
"i@	c #C5C4C5",
"j@	c #9EA1A5",
"k@	c #9D9E9F",
"l@	c #A4A5A6",
"m@	c #B1B1B1",
"n@	c #B4B4B4",
"o@	c #ADADAD",
"p@	c #A2A2A1",
"q@	c #999A98",
"r@	c #A5A7A3",
"s@	c #BBBBB9",
"t@	c #CECECE",
"u@	c #CACACC",
"v@	c #BBBBBC",
"w@	c #B4B7BC",
"x@	c #B6BABB",
"y@	c #B9BABB",
"z@	c #BABCB9",
"A@	c #B4B7B3",
"B@	c #B8BBB7",
"C@	c #BAB9BA",
"D@	c #C3C3C1",
"E@	c #A9A9A9",
"                                                ",
"                                                ",
"                    . + @                       ",
"          # $ %     & * = -     ; > ,           ",
"        ' ) ! ~     { ] ^ /     ( _ :           ",
"          < [ }   | 1 2 3 4     5 6 7           ",
"    8 9 0 a b c d e f g h i j k l m n o p q     ",
"    r s t u v w x y z A B C D E F G H I J K     ",
"    L M N O P Q R S T U V W X Y Z `  ...+.@.    ",
"      #.$.%.&.*.=.-.;.>.,.'.).!.~.{.].^./.      ",
"      (._.:.<.[.}.|.1.2.3.4.5.6.7.8.9.0.a.      ",
"      b.c.d.e.f.g.h.i.j.k.l.m.n.o.p.q.r.s.      ",
"      t.u.v.w.x.y.z.A.B.C.D.E.F.G.H.I.J.K.      ",
"      L.M.N.O.P.Q.R.S.T.U.V.W.X.Y.Z.`. +.+      ",
"    ++@+#+$+%+&+*+=+-+;+>+,+'+)+!+~+{+]+^+/+    ",
"  (+_+:+<+[+}+|+|+1+2+3+4+5+6+7+8+9+0+a+b+c+d+  ",
"  e+f+g+h+i+j+k+l+m+n+o+p+q+r+s+t+u+v+w+x+y+z+  ",
"A+B+C+D+E+F+G+H+I+J+K+L+M+N+O+P+Q+R+S+T+U+V+++  ",
"  W+c+X+Y+Z+`+ @.@+@@@#@$@%@&@*@=@-@;@>@,@++'@  ",
"    W+c+)@!@~@{@]@^@/@(@_@:@<@[@}@|@1@2@3@2@    ",
"      W+4@5@6@7@8@9@0@a@b@c@d@e@f@g@>@h@'@      ",
"        i@W+W+j@k@l@m@f+n@o@p@q@r@f+s@t@        ",
"        u@V+v@w@x@y@(+B+B+X+z@A@B@C@D@E@        ",
"                                                "};
