/* XPM */
static char * reload_xpm[] = {
"24 24 233 2",
"  	c None",
". 	c #FFE8F5",
"+ 	c #FF7777",
"@ 	c #FF0A0A",
"# 	c #FF0000",
"$ 	c #FF1313",
"% 	c #FF8D8D",
"& 	c #FF4647",
"* 	c #FF1813",
"= 	c #FF9C85",
"- 	c #FFDDC0",
"; 	c #FFFEDC",
"> 	c #FFFFEB",
", 	c #FFFFED",
"' 	c #FFFAD7",
") 	c #FFD5B8",
"! 	c #FF8A77",
"~ 	c #FF0C0A",
"{ 	c #FF6161",
"] 	c #FFD5D5",
"^ 	c #FF0A08",
"/ 	c #FFA38E",
"( 	c #FFFFE6",
"_ 	c #FFEECE",
": 	c #FFFADA",
"< 	c #FFFFE4",
"[ 	c #FFFBDA",
"} 	c #FFFCDE",
"| 	c #FFFFEE",
"1 	c #FFFCE0",
"2 	c #FFF0D3",
"3 	c #FFFFE7",
"4 	c #FF7D6E",
"5 	c #FF0F0F",
"6 	c #FFE8EC",
"7 	c #E6BEBE",
"8 	c #B84545",
"9 	c #B84141",
"0 	c #B90000",
"a 	c #B32723",
"b 	c #D08774",
"c 	c #FDF6D6",
"d 	c #FF8674",
"e 	c #FF1613",
"f 	c #FF0303",
"g 	c #FF0403",
"h 	c #FF1511",
"i 	c #FF8574",
"j 	c #FFFAD9",
"k 	c #FFF5DB",
"l 	c #FFF7D8",
"m 	c #FFCCB1",
"n 	c #FF0001",
"o 	c #FFE8E8",
"p 	c #A12525",
"q 	c #930404",
"r 	c #920202",
"s 	c #920000",
"t 	c #900000",
"u 	c #D96155",
"v 	c #FD0202",
"w 	c #FF8573",
"x 	c #FFD3B7",
"y 	c #FFD4B7",
"z 	c #FF0606",
"A 	c #FF8B78",
"B 	c #FFFFE5",
"C 	c #FFF7D9",
"D 	c #FFCBB0",
"E 	c #E13132",
"F 	c #E28372",
"G 	c #D4A08C",
"H 	c #B0443C",
"I 	c #C1201C",
"J 	c #FF3730",
"K 	c #FF6A5C",
"L 	c #FFFFE8",
"M 	c #FFF7D6",
"N 	c #FF7768",
"O 	c #FF5F60",
"P 	c #FBE1E1",
"Q 	c #FD261D",
"R 	c #FDFCDA",
"S 	c #FAEACA",
"T 	c #E58876",
"U 	c #AF4239",
"V 	c #FF332C",
"W 	c #FF937E",
"X 	c #FFF6E1",
"Y 	c #FF0B0A",
"Z 	c #FF4949",
"` 	c #FFA891",
" .	c #FFF0D0",
"..	c #FFFFE1",
"+.	c #FA1915",
"@.	c #970302",
"#.	c #970B09",
"$.	c #FF0707",
"%.	c #FFFFDD",
"&.	c #FFF1D4",
"*.	c #FF8571",
"=.	c #FF9B9B",
"-.	c #FF0203",
";.	c #FFEFD0",
">.	c #FFF9D8",
",.	c #FF9580",
"'.	c #FC6557",
").	c #B04038",
"!.	c #FF695B",
"~.	c #FF9E89",
"{.	c #FFFADE",
"].	c #FFE0C4",
"^.	c #FF1414",
"/.	c #FFFFEC",
"(.	c #FF2924",
"_.	c #FFC1A7",
":.	c #960C0B",
"<.	c #FFBAA2",
"[.	c #FF342D",
"}.	c #FF0705",
"|.	c #FFF9D7",
"1.	c #FF110F",
"2.	c #FFDFC1",
"3.	c #FF0807",
"4.	c #FFFFE2",
"5.	c #FF2420",
"6.	c #FF342E",
"7.	c #FF231E",
"8.	c #FF2B25",
"9.	c #FFC0A7",
"0.	c #940807",
"a.	c #FEBCA3",
"b.	c #FF2C26",
"c.	c #FFFFE3",
"d.	c #FF0706",
"e.	c #FFF9D9",
"f.	c #FFFAD8",
"g.	c #FF9581",
"h.	c #FF6054",
"i.	c #8F0000",
"j.	c #C5685B",
"k.	c #FD7565",
"l.	c #FF9681",
"m.	c #FFEBCC",
"n.	c #FF3636",
"o.	c #FFB59D",
"p.	c #FFF1D1",
"q.	c #FF0504",
"r.	c #9A0C0B",
"s.	c #970A09",
"t.	c #F91A17",
"u.	c #FFB79D",
"v.	c #FF4C4C",
"w.	c #FFD9D9",
"x.	c #FF392F",
"y.	c #FFF6D5",
"z.	c #FF9682",
"A.	c #FF3A33",
"B.	c #B04139",
"C.	c #910000",
"D.	c #EF7E6E",
"E.	c #FFF3D3",
"F.	c #FFFFDF",
"G.	c #FF3129",
"H.	c #FFE2E3",
"I.	c #FF2022",
"J.	c #FFD6BA",
"K.	c #FF6053",
"L.	c #FF423A",
"M.	c #D7483F",
"N.	c #CC7E6C",
"O.	c #F7EFD8",
"P.	c #F7B29B",
"Q.	c #F73335",
"R.	c #FFDCDC",
"S.	c #FF0604",
"T.	c #FFEFCF",
"U.	c #FF8F7C",
"V.	c #FF8C7A",
"W.	c #FFAD96",
"X.	c #FE0605",
"Y.	c #E65449",
"Z.	c #910100",
"`.	c #930302",
" +	c #940000",
".+	c #940303",
"++	c #950505",
"@+	c #B14444",
"#+	c #FFAEAF",
"$+	c #FF1915",
"%+	c #FFFFDE",
"&+	c #FFFFDC",
"*+	c #FFE8C8",
"=+	c #FF312A",
"-+	c #FF1E1C",
";+	c #FF1312",
">+	c #FF201B",
",+	c #FF7164",
"'+	c #FFDEC5",
")+	c #F7F0D7",
"!+	c #A32520",
"~+	c #9F1916",
"{+	c #A30000",
"]+	c #A42121",
"^+	c #A42222",
"/+	c #A42323",
"(+	c #FFA4A2",
"_+	c #FFC9AE",
":+	c #FFF2D1",
"<+	c #FFFFF0",
"[+	c #FFFFEA",
"}+	c #FFF6D7",
"|+	c #FFF1D0",
"1+	c #F7B09A",
"2+	c #F80907",
"3+	c #F9ABAB",
"4+	c #FF3830",
"5+	c #FFDCBF",
"6+	c #FFF6D6",
"7+	c #FFF7D7",
"8+	c #FFC5AB",
"9+	c #FF1D1A",
"0+	c #FF2929",
"a+	c #FFBEBF",
"b+	c #FF484A",
"c+	c #FF0E0B",
"d+	c #FF1B14",
"e+	c #FF261F",
"f+	c #FF0B06",
"g+	c #FF1C1C",
"h+	c #FF6163",
"i+	c #FFCFCF",
"j+	c #FFDDDC",
"                      .                         ",
"                + @ # # # # $ %                 ",
"            & * = - ; > , ' ) ! ~ {             ",
"        ] ^ / ( _ : < [ } | 1 2 3 4 5 6         ",
"7 8 8 9 0 a b c } d e f g h i j k l m n o       ",
"p q r s q t t u v w x     y w z A B C D 5       ",
"    E F G H t I                 J K L M N O     ",
"  P Q R S T t U                   V W X L Y     ",
"  Z `  ...+.@.#.                    $.%.&.*.=.  ",
"  -.;.>.,.'.).t                     !.~.{.].^.  ",
"  Y /.%.(._.  :.                    <.[.L L }.  ",
"  V B |.1.                          2.3.4.< 5.  ",
"  6.B >.1.                            3.4.B 7.  ",
"  1.> %.8.9.                    0.  a.b.c.c.d.  ",
"  # e.f.g.h.                    i.j.k.l.j m.#   ",
"  n.o.p.c.q.                    r.s.t.%._ u.v.  ",
"  w.x.y.p.z.A.                  B.C.D.E.F.G.H.  ",
"    I.J.|.F.K.L.                M.t N.O.P.Q.    ",
"    R.S.T.E.y.U.# V.        W.X.Y.t Z.`. +.+++@+",
"      #+$+%+ .&+*+A =+-+;+>+,+'+)+!+~+{+]+^+/+ +",
"        (+^ _+4.p.:+.., <+[+}+|+c.1+2+3+        ",
"          o ^.4+5+M y.6+7+y.y.8+9+0+            ",
"              a+b+c+d+G.e+f+g+h+i+              ",
"                      j+                        "};
