/* XPM */
static char * step_out_xpm[] = {
"24 24 2 1",
" 	c None",
".	c #1323BA",
"                        ",
"                        ",
"                        ",
"                        ",
"                        ",
"              ..        ",
"             ...        ",
"             ....       ",
"           ......       ",
"           .......      ",
"          ..  .. ..     ",
"              ..  .     ",
"             ...        ",
"             ..         ",
"             ...        ",
"             ..         ",
"            ..          ",
"           ...          ",
"          ...           ",
"    ........            ",
"    ......              ",
"                        ",
"                        ",
"                        "};
