/* XPM */
static char * tres_xpm[] = {
"24 24 4 1",
" 	c None",
".	c #C83737",
"+	c #C93636",
"@	c #C73838",
"                        ",
"                        ",
"                        ",
"         ..+.....       ",
"       +..+  @....      ",
"       ..     .....     ",
"       .+      ....     ",
"              +....     ",
"              .....     ",
"             ....@      ",
"           @...+.       ",
"          ......        ",
"            .....       ",
"             .....      ",
"             @....      ",
"             .....      ",
"     .       .....      ",
"    ..       .....      ",
"    ..      .....       ",
"    +...  @.....        ",
"     +........          ",
"                        ",
"                        ",
"                        "};
