/* XPM */
static char * add_xpm[] = {
"16 16 4 1",
" 	c None",
".	c #58A64B",
"+	c #7C7C7C",
"@	c #FFFFFF",
"                ",
"   ..........   ",
"  +..........+  ",
" .............. ",
" ......@....... ",
" ......@....... ",
" ......@....... ",
" ...@@@@@@@.... ",
" ......@....... ",
" ......@....... ",
" ......@....... ",
" .............. ",
" .............. ",
"  +..........+  ",
"   ..........   ",
"                "};
