/* XPM */
static char * binop_xpm[] = {
"16 16 6 1",
" 	c None",
".	c #EDC56E",
"+	c #A6A6A6",
"@	c #4A4A4A",
"#	c #7C7C7C",
"$	c #AE20D7",
"    .+@..@+.    ",
"   +........+   ",
"  #..........#  ",
" +.....$......+ ",
".......$........",
"+......$.......+",
"@..$...$...$...@",
"...$...$...$....",
".......$........",
"@......$.......@",
"+......$.......+",
".......$........",
" +.....$......+ ",
"  #....$.....#  ",
"   +........+   ",
"    .+@..@+.    "};
