/* XPM */
static char * except_xpm[] = {
"16 16 29 1",
" 	c None",
".	c #68BD68",
"+	c #7C7C7C",
"@	c #486A48",
"#	c #569156",
"$	c #5EA55E",
"%	c #3D4F3D",
"&	c #333533",
"*	c #323232",
"=	c #66BA66",
"-	c #405940",
";	c #579157",
">	c #3D4E3D",
",	c #508050",
"'	c #66B866",
")	c #599759",
"!	c #5B9C5B",
"~	c #323532",
"{	c #65B765",
"]	c #65B665",
"^	c #3F543F",
"/	c #3E543E",
"(	c #3C4E3C",
"_	c #476A47",
":	c #5CA05C",
"<	c #589458",
"[	c #466746",
"}	c #5EA45E",
"|	c #313331",
"                ",
"   ..........   ",
"  +..........+  ",
" .............. ",
" .............. ",
" ..@#.#@.$%&*.. ",
" ..=-;-=.>,'... ",
" ...)*!..~{.... ",
" ..]^)/'.(,'... ",
" .._:.<[.}(|*.. ",
" .............. ",
" .............. ",
" .............. ",
"  +..........+  ",
"   ..........   ",
"                "};
