/* XPM */
static char * load_xpm[] = {
"16 16 4 1",
" 	c None",
".	c #1E7E87",
"+	c #7C7C7C",
"@	c #FFFFFF",
"                ",
"   ..........   ",
"  +..........+  ",
" ....@......... ",
" ....@......... ",
" ....@......... ",
" ....@......... ",
" ....@......... ",
" ....@......... ",
" ....@......... ",
" ....@......... ",
" ....@......... ",
" ....@@@@@@.... ",
"  +..........+  ",
"   ..........   ",
"                "};
