/* XPM */
static char * lt_xpm[] = {
"16 16 20 1",
" 	c None",
".	c #68BD68",
"+	c #7C7C7C",
"@	c #5DA15D",
"#	c #4B734B",
"$	c #394639",
"%	c #67BB67",
"&	c #5A9A5A",
"*	c #486D48",
"=	c #374137",
"-	c #4A724A",
";	c #5C9F5C",
">	c #466746",
",	c #363D36",
"'	c #3C4C3C",
")	c #4D784D",
"!	c #5EA45E",
"~	c #3B4B3B",
"{	c #5EA55E",
"]	c #5CA05C",
"                ",
"   ..........   ",
"  +..........+  ",
" .............. ",
" .............. ",
" ........@#$... ",
" ....%&*=$-;... ",
" ...>,')!...... ",
" ...>,~){...... ",
" ....%&*=$#]... ",
" ........]#$... ",
" .............. ",
" .............. ",
"  +..........+  ",
"   ..........   ",
"                "};
