/* XPM */
static char * not_in_xpm[] = {
"16 16 29 1",
" 	c None",
".	c #68BD68",
"+	c #7C7C7C",
"@	c #333533",
"#	c #5EA35E",
"$	c #435F43",
"%	c #374037",
"&	c #3C4D3C",
"*	c #558E55",
"=	c #5CA05C",
"-	c #538853",
";	c #63B163",
">	c #415941",
",	c #548B54",
"'	c #323232",
")	c #3B4B3B",
"!	c #3C4E3C",
"~	c #5C9F5C",
"{	c #4A724A",
"]	c #4F7E4F",
"^	c #62AE62",
"/	c #384338",
"(	c #579457",
"_	c #64B364",
":	c #5A995A",
"<	c #3F543F",
"[	c #333833",
"}	c #3D4E3D",
"|	c #558F55",
"                ",
"   ..........   ",
"  +.....@....+  ",
" ....#$%@&*.... ",
" ...=%-;@...... ",
" ...>,..@...... ",
" ...''..@...... ",
" ...''''@)*.... ",
" ...''..@...... ",
" ...!~..@...... ",
" ...{]..@...... ",
" ...^/(_@...... ",
" ....:<[@}|.... ",
"  +.....@....+  ",
"   ..........   ",
"                "};
