/* XPM */
static char * or_xpm[] = {
"16 16 21 1",
" 	c None",
".	c #68BD68",
"+	c #7C7C7C",
"@	c #5DA35D",
"#	c #3D4E3D",
"$	c #333633",
"%	c #3C4E3C",
"&	c #5EA55E",
"*	c #323232",
"=	c #496D49",
"-	c #323332",
";	c #508050",
">	c #65B665",
",	c #538953",
"'	c #67BB67",
")	c #323532",
"!	c #66B866",
"~	c #67BA67",
"{	c #518351",
"]	c #65B765",
"^	c #5DA25D",
"                ",
"   ..........   ",
"  +..........+  ",
" .............. ",
" .............. ",
" .............. ",
" ..@#$%&.*=-... ",
" ..#;>;%.*,'... ",
" ..)!.>$.*~.... ",
" ..#{];#.*..... ",
" ..^#)#@.*..... ",
" .............. ",
" .............. ",
"  +..........+  ",
"   ..........   ",
"                "};
