/* XPM */
static char * tuple_xpm[] = {
"16 16 18 1",
" 	c None",
".	c #FFA3E5",
"+	c #7C7C7C",
"@	c #FEA3E4",
"#	c #FEDFF5",
"$	c #FEA2E4",
"%	c #FEBDEB",
"&	c #FED1F1",
"*	c #FEBCEB",
"=	c #FEDCF4",
"-	c #FEBAEB",
";	c #FEF1FA",
">	c #FEABE6",
",	c #FEF0FA",
"'	c #FEFBFD",
")	c #FEA4E4",
"!	c #FEBAEA",
"~	c #FED0F1",
"                ",
"   ..........   ",
"  +..........+  ",
" ....@#..#$.... ",
" ....%&..&*.... ",
" ....=-..-=.... ",
" ....;>..>,.... ",
" ....')..)'.... ",
" ....')..)'.... ",
" ....,>..>,.... ",
" ....=!..!=.... ",
" ....%~..~%.... ",
" ....@#..#@.... ",
"  +..........+  ",
"   ..........   ",
"                "};
