/* XPM */
static char * alias_xpm[] = {
"16 16 28 1",
" 	c None",
".	c #C1CD3A",
"+	c #A6A6A6",
"@	c #4A4A4A",
"#	c #7C7C7C",
"$	c #CB8B39",
"%	c #D93D39",
"&	c #D65439",
"*	c #C9953A",
"=	c #C4B139",
"-	c #D45B39",
";	c #CF793A",
">	c #C99839",
",	c #CB8E3A",
"'	c #C0C939",
")	c #D55239",
"!	c #C2C339",
"~	c #D74939",
"{	c #C89E39",
"]	c #CD7F39",
"^	c #D16D3A",
"/	c #D26639",
"(	c #DB3A3A",
"_	c #C2C03A",
":	c #D8423A",
"<	c #C1C439",
"[	c #D16D39",
"}	c #C6A539",
"    .+@..@+.    ",
"   +........+   ",
"  #..........#  ",
" +....$%$.....+ ",
"......&*&.......",
"+....=-.&=.....+",
"@....;>.,;.....@",
"....')'.!~'.....",
"....{]...^{.....",
"@.../(((((/....@",
"+.._:<...<:_...+",
"...$[.....[$....",
" +.&}.....}&..+ ",
"  #..........#  ",
"   +........+   ",
"    .+@..@+.    "};
