/* XPM */
static char * arguments_xpm[] = {
"16 16 28 1",
" 	c None",
".	c #219D95",
"+	c #7C7C7C",
"@	c #81C7C2",
"#	c #F7FAFA",
"$	c #D4EBEA",
"%	c #73C1BC",
"&	c #D5ECEA",
"*	c #49AEA8",
"=	c #CAE7E5",
"-	c #9DD3D0",
";	c #6DBEB9",
">	c #7EC5C1",
",	c #249E96",
"'	c #D7EDEB",
")	c #259E96",
"!	c #2EA29B",
"~	c #E4F2F2",
"{	c #65BAB5",
"]	c #94CFCB",
"^	c #B0DCD9",
"/	c #B9DFDD",
"(	c #FFFFFF",
"_	c #32A49C",
":	c #F1F8F7",
"<	c #2CA199",
"[	c #AFDBD8",
"}	c #5BB6B0",
"                ",
"   ..........   ",
"  +..........+  ",
" ......@#@..... ",
" ......$%&..... ",
" .....*=.$*.... ",
" .....-;.>-.... ",
" ....,').!~,... ",
" ....{]...^{... ",
" ..../(((((/... ",
" ..._:<...<:_.. ",
" ...@[.....[@.. ",
" ...&}.....}&.. ",
"  +..........+  ",
"   ..........   ",
"                "};
