/* XPM */
static char * assing_xpm[] = {
"16 16 6 1",
" 	c None",
".	c #217C27",
"+	c #A6A6A6",
"@	c #4A4A4A",
"#	c #7C7C7C",
"$	c #FFFFFF",
"    .+@..@+.    ",
"   +........+   ",
"  #..........#  ",
" +............+ ",
"................",
"+..............+",
"@...$$$$$$$$$..@",
"................",
"................",
"@...$$$$$$$$$..@",
"+..............+",
"................",
" +............+ ",
"  #..........#  ",
"   +........+   ",
"    .+@..@+.    "};
