/* XPM */
static char * bool_xpm[] = {
"16 16 26 1",
" 	c None",
".	c #68BD68",
"+	c #7C7C7C",
"@	c #323232",
"#	c #518451",
"$	c #394539",
"%	c #323332",
"&	c #384338",
"*	c #538853",
"=	c #384238",
"-	c #5A9A5A",
";	c #64B564",
">	c #374137",
",	c #599659",
"'	c #579257",
")	c #579157",
"!	c #3F543F",
"~	c #64B364",
"{	c #63B363",
"]	c #343A34",
"^	c #3F533F",
"/	c #589558",
"(	c #518351",
"_	c #384438",
":	c #313331",
"<	c #528752",
"                ",
"   ..........   ",
"  +..@.......+  ",
" ....@......... ",
" ....@......... ",
" ....@#$%&*.... ",
" ....@=-;->,... ",
" ....@'...)!... ",
" ....@~...{]... ",
" ....@~...{]... ",
" ....@'...)^... ",
" ....@=-;->/... ",
" ....@(_:&<.... ",
"  +..........+  ",
"   ..........   ",
"                "};
