/* XPM */
static char * call_xpm[] = {
"16 16 35 1",
" 	c None",
".	c #C1829C",
"+	c #7C7C7C",
"@	c #BB7E98",
"#	c #6B4E71",
"$	c #2F2A53",
"%	c #161A47",
"&	c #1C1E49",
"*	c #41345C",
"=	c #8D6282",
"-	c #BC7F99",
";	c #3A3058",
">	c #554066",
",	c #A4708E",
"'	c #BC7F9A",
")	c #B57B95",
"!	c #8E6383",
"~	c #44375D",
"{	c #6D5072",
"]	c #483960",
"^	c #312B55",
"/	c #996A88",
"(	c #171B48",
"_	c #B57B96",
":	c #6D4F71",
"<	c #382F58",
"[	c #564167",
"}	c #BD7F99",
"|	c #8F6483",
"1	c #694D71",
"2	c #2D2852",
"3	c #171A47",
"4	c #1A1E49",
"5	c #42345C",
"6	c #8E6282",
"                ",
"   ..........   ",
"  +..........+  ",
" ....@#$%&*=... ",
" ...-;>,')!~... ",
" ...{]......... ",
" ...^/......... ",
" ...(_......... ",
" ...(_......... ",
" ...^/......... ",
" ...:]......... ",
" ...@<[,})|~... ",
" ....@123456... ",
"  +..........+  ",
"   ..........   ",
"                "};
