/* XPM */
static char * del_xpm[] = {
"16 16 28 1",
" 	c None",
".	c #68BD68",
"+	c #7C7C7C",
"@	c #B9563F",
"#	c #869658",
"$	c #839A5A",
"%	c #B55A41",
"&	c #7CA25D",
"*	c #C4483A",
"=	c #69BA66",
"-	c #68BA67",
";	c #C14B3B",
">	c #77A85F",
",	c #AE6344",
"'	c #997E4F",
")	c #A4714A",
"!	c #8A9156",
"~	c #C5483A",
"{	c #CA4137",
"]	c #78A75F",
"^	c #D83232",
"/	c #C64639",
"(	c #69BB67",
"_	c #C24B3B",
":	c #7AA45E",
"<	c #BC543F",
"[	c #8B8E55",
"}	c #B85740",
"                ",
"   ..........   ",
"  +..........+  ",
" .............. ",
" .............. ",
" ....@#..$%.... ",
" ....&*=-;>.... ",
" .....,'')..... ",
" .....!~{]..... ",
" ....^^^^^^.... ",
" ....$/(-_:.... ",
" ....<[..$}.... ",
" .............. ",
"  +..........+  ",
"   ..........   ",
"                "};
