/* XPM */
static char * delete_xpm[] = {
"16 16 30 1",
" 	c None",
".	c #68BD68",
"+	c #7C7C7C",
"@	c #AA6A47",
"#	c #B06144",
"$	c #B16043",
"%	c #69BA66",
"&	c #BC513D",
"*	c #968351",
"=	c #968250",
"-	c #BC523E",
";	c #71B062",
">	c #C84539",
",	c #7DA15D",
"'	c #C54639",
")	c #7CA15D",
"!	c #D83232",
"~	c #7CA35D",
"{	c #CD3D36",
"]	c #76A960",
"^	c #7E9F5C",
"/	c #6BB665",
"(	c #C64639",
"_	c #8E8B54",
":	c #C24C3C",
"<	c #6AB866",
"[	c #AD6545",
"}	c #AC6645",
"|	c #B06244",
"1	c #AC6746",
"                ",
"   ..........   ",
"  +..........+  ",
" .............. ",
" .............. ",
" ...@#....$@... ",
" ...%&*..=-%... ",
" ....;>,,>;.... ",
" .....,>')..... ",
" ..!!!!!!!!!!.. ",
" ....~{]^{].... ",
" .../(_..*:<... ",
" ...[}....|1... ",
"  +..........+  ",
"   ..........   ",
"                "};
