/* XPM */
static char * floor_div_xpm[] = {
"16 16 18 1",
" 	c None",
".	c #68BD68",
"+	c #7C7C7C",
"@	c #5DA15D",
"#	c #394639",
"$	c #4D784D",
"%	c #496F49",
"&	c #3C4E3C",
"*	c #599859",
"=	c #62B062",
"-	c #353A35",
";	c #66BA66",
">	c #538853",
",	c #435F43",
"'	c #599759",
")	c #3C4F3C",
"!	c #496E49",
"~	c #5DA25D",
"                ",
"   ..........   ",
"  +..........+  ",
" .....@#..@#... ",
" .....$%..$%... ",
" .....&*..&*... ",
" ....=-;.=-;... ",
" ....>,..>,.... ",
" ....,>..,>.... ",
" ...;-=.;-=.... ",
" ...')..')..... ",
" ...!$..!$..... ",
" ...#~..#~..... ",
"  +..........+  ",
"   ..........   ",
"                "};
