/* XPM */
static char * for_xpm[] = {
"16 16 4 1",
" 	c None",
".	c #68BD68",
"+	c #7C7C7C",
"@	c #171515",
"                ",
"   ..........   ",
"  +..........+  ",
" ....@@@@@@.... ",
" ....@......... ",
" ....@......... ",
" ....@......... ",
" ....@@@@@@.... ",
" ....@......... ",
" ....@......... ",
" ....@......... ",
" ....@......... ",
" ....@......... ",
"  +..........+  ",
"   ..........   ",
"                "};
