/* XPM */
static char * gte_xpm[] = {
"16 16 20 1",
" 	c None",
".	c #68BD68",
"+	c #7C7C7C",
"@	c #394639",
"#	c #4B734B",
"$	c #5DA15D",
"%	c #5C9F5C",
"&	c #4A724A",
"*	c #374137",
"=	c #486D48",
"-	c #5A9A5A",
";	c #67BB67",
">	c #5EA45E",
",	c #4D784D",
"'	c #3C4C3C",
")	c #363D36",
"!	c #466746",
"~	c #5EA55E",
"{	c #3B4B3B",
"]	c #5CA05C",
"                ",
"   ..........   ",
"  +..........+  ",
" .............. ",
" ...@#$........ ",
" ...%&@*=-;.... ",
" ......>,')!... ",
" ......~,{)!... ",
" ...]#@*=-;.... ",
" ...@#]...))... ",
" .....))))..... ",
" ...))......... ",
" .............. ",
"  +..........+  ",
"   ..........   ",
"                "};
