/* XPM */
static char * if_xpm[] = {
"16 16 10 1",
" 	c None",
".	c #68BD68",
"+	c #7C7C7C",
"@	c #579157",
"#	c #374137",
"$	c #323232",
"%	c #384338",
"&	c #5B9C5B",
"*	c #323332",
"=	c #67BC67",
"                ",
"   ..........   ",
"  +.....@#$..+  ",
" ....$..%&..... ",
" ....$..*=..... ",
" ....$.$$$$.... ",
" ....$..$...... ",
" ....$..$...... ",
" ....$..$...... ",
" ....$..$...... ",
" ....$..$...... ",
" ....$..$...... ",
" ....$..$...... ",
"  +..........+  ",
"   ..........   ",
"                "};
