/* XPM */
static char * in_xpm[] = {
"16 16 32 1",
" 	c None",
".	c #68BD68",
"+	c #7C7C7C",
"@	c #5EA35E",
"#	c #435F43",
"$	c #374037",
"%	c #333533",
"&	c #3C4D3C",
"*	c #558E55",
"=	c #5CA05C",
"-	c #538853",
";	c #63B163",
">	c #64B464",
",	c #415941",
"'	c #548B54",
")	c #323232",
"!	c #3B4B3B",
"~	c #3C4E3C",
"{	c #5C9F5C",
"]	c #4A724A",
"^	c #4F7E4F",
"/	c #62AE62",
"(	c #384338",
"_	c #579457",
":	c #64B364",
"<	c #65B565",
"[	c #5A995A",
"}	c #3F543F",
"|	c #333833",
"1	c #323332",
"2	c #3D4E3D",
"3	c #558F55",
"                ",
"   ..........   ",
"  +..........+  ",
" ....@#$%&*.... ",
" ...=$-;>...... ",
" ...,'......... ",
" ...))......... ",
" ...)))))!*.... ",
" ...))......... ",
" ...~{......... ",
" ...]^......... ",
" .../(_:<...... ",
" ....[}|123.... ",
"  +..........+  ",
"   ..........   ",
"                "};
