/* XPM */
static char * index_xpm[] = {
"16 16 21 1",
" 	c None",
".	c #68BD68",
"+	c #7C7C7C",
"@	c #323232",
"#	c #528552",
"$	c #343834",
"%	c #456545",
"&	c #476A47",
"*	c #425D42",
"=	c #353B35",
"-	c #5CA05C",
";	c #66BA66",
">	c #3D513D",
",	c #65B665",
"'	c #394639",
")	c #3B4B3B",
"!	c #66B866",
"~	c #518451",
"{	c #333833",
"]	c #446244",
"^	c #466746",
"                ",
"   ..........   ",
"  +..........+  ",
" .......@...... ",
" ..@....@...... ",
" ..@....@...... ",
" ..@.#$%@&**&.. ",
" ..@.=--@;>>;.. ",
" ..@.=--@,')!.. ",
" ..@.~{%@%%]^.. ",
" .............. ",
" .............. ",
" .............. ",
"  +..........+  ",
"   ..........   ",
"                "};
