/* XPM */
static char * listcomp_xpm[] = {
"16 16 4 1",
" 	c None",
".	c #FFA3E5",
"+	c #7C7C7C",
"@	c #093030",
"                ",
"   ..........   ",
"  +..........+  ",
" ....@@..@@.... ",
" ....@....@.... ",
" ....@....@.... ",
" ....@....@.... ",
" ....@....@.... ",
" ....@....@.... ",
" ....@....@.... ",
" ....@....@.... ",
" ....@....@.... ",
" ....@@..@@.... ",
"  +..........+  ",
"   ..........   ",
"                "};
