/* XPM */
static char * not_eq_xpm[] = {
"16 16 6 1",
" 	c None",
".	c #68BD68",
"+	c #7C7C7C",
"@	c #323232",
"#	c #323532",
"$	c #394639",
"                ",
"   ..........   ",
"  +..........+  ",
" .............. ",
" ...@.......... ",
" ...@.......... ",
" ...@.......... ",
" ...#..@@@@@@.. ",
" ...$.......... ",
" ......@@@@@@.. ",
" ...@.......... ",
" .............. ",
" .............. ",
"  +..........+  ",
"   ..........   ",
"                "};
