/* XPM */
static char * param_xpm[] = {
"16 16 23 1",
" 	c None",
".	c #61C114",
"+	c #7C7C7C",
"@	c #CD2414",
"#	c #C92713",
"$	c #BC3A13",
"%	c #986F13",
"&	c #63BB14",
"*	c #63BC14",
"=	c #74A214",
"-	c #B14B14",
";	c #9F6414",
">	c #6CAF13",
",	c #C33213",
"'	c #C23113",
")	c #63BD13",
"!	c #74A414",
"~	c #B04C14",
"{	c #9F6314",
"]	c #C92614",
"^	c #BE3813",
"/	c #9A6D14",
"(	c #64BA14",
"                ",
"   ..........   ",
"  +..........+  ",
" ....@@@#$%&... ",
" ....@..*=-;... ",
" ....@....>,... ",
" ....@....>'... ",
" ....@..)!~{... ",
" ....@@@]^/(... ",
" ....@......... ",
" ....@......... ",
" ....@......... ",
" ....@......... ",
"  +..........+  ",
"   ..........   ",
"                "};
