/* XPM */
static char * return_xpm[] = {
"16 16 28 1",
" 	c None",
".	c #2D40B3",
"+	c #7C7C7C",
"@	c #9BDADB",
"#	c #97D4D8",
"$	c #8BC4D4",
"%	c #6791C7",
"&	c #3145B3",
"*	c #2F42B3",
"=	c #3F5AB9",
"-	c #7BAECF",
";	c #6E9BC9",
">	c #374EB5",
",	c #90CBD6",
"'	c #95D2D9",
")	c #76A7CE",
"!	c #354CB5",
"~	c #3044B3",
"{	c #435EBB",
"]	c #87BED3",
"^	c #628BC5",
"/	c #3B53B7",
"(	c #91CED8",
"_	c #3246B4",
":	c #76A6CD",
"<	c #597DC1",
"[	c #4B69BD",
"}	c #85BBD2",
"                ",
"   ..........   ",
"  +..........+  ",
" ...@@@#$%&.... ",
" ...@..*=-;.... ",
" ...@....>,.... ",
" ...@....>'.... ",
" ...@..*=-).... ",
" ...@@@@@,!.... ",
" ...@..~{]^.... ",
" ...@..../(_... ",
" ...@.....:<... ",
" ...@.....[}... ",
"  +..........+  ",
"   ..........   ",
"                "};
