/* XPM */
static char * store_xpm[] = {
"16 16 43 1",
" 	c None",
".	c #ED686E",
"+	c #7C7C7C",
"@	c #EC6B71",
"#	c #F4AEB1",
"$	c #FBE5E6",
"%	c #FDF8F8",
"&	c #FCF4F4",
"*	c #F8CFD1",
"=	c #F08E93",
"-	c #F7C7C9",
";	c #F8CACC",
">	c #EE7F84",
",	c #ED7379",
"'	c #F29A9E",
")	c #F9D8DA",
"!	c #ED7076",
"~	c #FBEAEB",
"{	c #F0898E",
"]	c #F1969A",
"^	c #FCF2F2",
"/	c #F8CCCE",
"(	c #F3A8AB",
"_	c #F0888D",
":	c #EC696E",
"<	c #ED7277",
"[	c #F29EA2",
"}	c #F6BEC1",
"|	c #FAE1E2",
"1	c #F0878C",
"2	c #F29C9F",
"3	c #FBE4E5",
"4	c #ED7176",
"5	c #ED747A",
"6	c #EC6A70",
"7	c #EE7D82",
"8	c #F8C9CB",
"9	c #F7C6C8",
"0	c #F08E92",
"a	c #F8CED0",
"b	c #FBE8E9",
"c	c #F5B6B9",
"d	c #EC6D72",
"                ",
"   ..........   ",
"  +..........+  ",
" ...@#$%&*=.... ",
" ...-;>@,').... ",
" ...%!......... ",
" ...~{......... ",
" ...]^/(_:..... ",
" ....<[}|~1.... ",
" ........23.... ",
" ........4&.... ",
" ...)'56789.... ",
" ...0a&%bcd.... ",
"  +..........+  ",
"   ..........   ",
"                "};
