/* XPM */
static char * subscript_xpm[] = {
"16 16 16 1",
" 	c None",
".	c #68BD68",
"+	c #7C7C7C",
"@	c #4D794D",
"#	c #353B35",
"$	c #323232",
"%	c #333833",
"&	c #538953",
"*	c #67BB67",
"=	c #548B54",
"-	c #3C4F3C",
";	c #64B264",
">	c #3E513E",
",	c #568E56",
"'	c #3D513D",
")	c #64B364",
"                ",
"   ..........   ",
"  +..........+  ",
" .............. ",
" .............. ",
" ........@#$... ",
" ........%&*... ",
" ........=--;.. ",
" .........*>,.. ",
" ........$$').. ",
" .............. ",
" ..$$$$$....... ",
" .............. ",
"  +..........+  ",
"   ..........   ",
"                "};
