/* XPM */
static char * try_xpm[] = {
"16 16 25 1",
" 	c None",
".	c #68BD68",
"+	c #7C7C7C",
"@	c #323232",
"#	c #496D49",
"$	c #323332",
"%	c #3A493A",
"&	c #5A9B5A",
"*	c #568F56",
"=	c #3E513E",
"-	c #589458",
";	c #67BB67",
">	c #4E7B4E",
",	c #476A47",
"'	c #313231",
")	c #64B564",
"!	c #61AD61",
"~	c #333633",
"{	c #394539",
"]	c #425D42",
"^	c #3A4A3A",
"/	c #518351",
"(	c #66BA66",
"_	c #374037",
":	c #65B765",
"                ",
"   ..........   ",
"  +..........+  ",
" .............. ",
" .............. ",
" ..@........... ",
" .@@@.@#$%&*=.. ",
" ..@..@-;>,=*.. ",
" ..').@..!~{;.. ",
" ..]'.@...^/... ",
" ........(_:... ",
" ........'>.... ",
" .............. ",
"  +..........+  ",
"   ..........   ",
"                "};
