/* XPM */
static char * boostpy_xpm[] = {
"24 24 199 2",
"  	c None",
". 	c #777777",
"+ 	c #A76464",
"@ 	c #9D5858",
"# 	c #CECECE",
"$ 	c #6A7B84",
"% 	c #A5B5BF",
"& 	c #E9E9EA",
"* 	c #888888",
"= 	c #B52121",
"- 	c #AC0000",
"; 	c #994D4D",
"> 	c #B10505",
", 	c #9E2424",
"' 	c #899090",
") 	c #B1B0B1",
"! 	c #E2E3E3",
"~ 	c #002640",
"{ 	c #1D5F84",
"] 	c #FFFFFF",
"^ 	c #A4A4A5",
"/ 	c #B11111",
"( 	c #AE0000",
"_ 	c #A81313",
": 	c #918585",
"< 	c #727B6A",
"[ 	c #9AA290",
"} 	c #57851E",
"| 	c #475B38",
"1 	c #738261",
"2 	c #59654C",
"3 	c #B11212",
"4 	c #A71212",
"5 	c #8E8282",
"6 	c #475438",
"7 	c #619E19",
"8 	c #5C9618",
"9 	c #6FAF24",
"0 	c #67A31F",
"a 	c #66A41D",
"b 	c #5E7F38",
"c 	c #B62323",
"d 	c #AB0202",
"e 	c #984646",
"f 	c #B00202",
"g 	c #9D2727",
"h 	c #8A9292",
"i 	c #5C8B24",
"j 	c #6EAD24",
"k 	c #6DAB23",
"l 	c #6DAC24",
"m 	c #6DAB24",
"n 	c #649031",
"o 	c #A06A6A",
"p 	c #A16B6B",
"q 	c #588229",
"r 	c #6DAC23",
"s 	c #406414",
"t 	c #55861B",
"u 	c #56871C",
"v 	c #658F3A",
"w 	c #BE3535",
"x 	c #A16969",
"y 	c #629C20",
"z 	c #6BA823",
"A 	c #6BA723",
"B 	c #6AA723",
"C 	c #5D9519",
"D 	c #882923",
"E 	c #AF0101",
"F 	c #924A4A",
"G 	c #868B8B",
"H 	c #797C7D",
"I 	c #5B4535",
"J 	c #5C8A26",
"K 	c #609820",
"L 	c #55871B",
"M 	c #5D574B",
"N 	c #AF0000",
"O 	c #A41D1D",
"P 	c #838484",
"Q 	c #887774",
"R 	c #4F721E",
"S 	c #55891D",
"T 	c #62170C",
"U 	c #AD0000",
"V 	c #A31F1F",
"W 	c #837C7C",
"X 	c #9A554D",
"Y 	c #649123",
"Z 	c #134C1B",
"` 	c #672016",
" .	c #985253",
"..	c #9B3434",
"+.	c #888F8F",
"@.	c #B31717",
"#.	c #760F0C",
"$.	c #834343",
"%.	c #91908A",
"&.	c #70A420",
"*.	c #215A1D",
"=.	c #59675F",
"-.	c #B62424",
";.	c #976F6F",
">.	c #B21616",
",.	c #AC0303",
"'.	c #964848",
").	c #AC2E2E",
"!.	c #9B9196",
"~.	c #717537",
"{.	c #6EAE22",
"].	c #46711D",
"^.	c #8F5353",
"/.	c #728F21",
"(.	c #52871E",
"_.	c #054E2B",
":.	c #818181",
"<.	c #B00000",
"[.	c #887979",
"}.	c #75A824",
"|.	c #5A9221",
"1.	c #1E502B",
"2.	c #466928",
"3.	c #186034",
"4.	c #1E3F23",
"5.	c #404141",
"6.	c #8A6767",
"7.	c #6CA623",
"8.	c #6EAC24",
"9.	c #5F8D27",
"0.	c #979697",
"a.	c #365642",
"b.	c #054D22",
"c.	c #649B1F",
"d.	c #154C1C",
"e.	c #518B1F",
"f.	c #26421D",
"g.	c #353E2B",
"h.	c #AE0101",
"i.	c #9F2828",
"j.	c #8A8989",
"k.	c #75A724",
"l.	c #72B325",
"m.	c #174918",
"n.	c #26563C",
"o.	c #446223",
"p.	c #145B1E",
"q.	c #366E1D",
"r.	c #75B124",
"s.	c #77AC23",
"t.	c #71AD23",
"u.	c #0B4A1D",
"v.	c #2A4E32",
"w.	c #547032",
"x.	c #454B3F",
"y.	c #B52323",
"z.	c #9D2C2C",
"A.	c #8D9191",
"B.	c #879728",
"C.	c #4D8720",
"D.	c #144D1A",
"E.	c #65A021",
"F.	c #6AA623",
"G.	c #71A321",
"H.	c #747D2F",
"I.	c #787F4D",
"J.	c #6A7F26",
"K.	c #5A9420",
"L.	c #5A9320",
"M.	c #2D5E29",
"N.	c #195333",
"O.	c #47601C",
"P.	c #AF0C0C",
"Q.	c #A61212",
"R.	c #AE2828",
"S.	c #741005",
"T.	c #789D24",
"U.	c #6FAC24",
"V.	c #72B125",
"W.	c #6EAB24",
"X.	c #699A21",
"Y.	c #696A2F",
"Z.	c #74822B",
"`.	c #6DAA23",
" +	c #467D1D",
".+	c #234D16",
"++	c #5F6839",
"@+	c #B31616",
"#+	c #B10B0B",
"$+	c #AF0808",
"%+	c #A62829",
"&+	c #5D523C",
"*+	c #525D1B",
"=+	c #596E1E",
"-+	c #586923",
";+	c #777452",
">+	c #495825",
",+	c #426218",
"'+	c #414C26",
"                                                ",
"                                                ",
"                  .         +     @             ",
"            # $ % & *     = - ; > , '           ",
"          ) ! ~ { ] ^       / ( _ :             ",
"          < [ } | 1 2       3 ( 4 5             ",
"        6 7 8 9 0 a b     c d e f g h           ",
"        i j k l m m n       o     p             ",
"        q r s t u 9 v w x                       ",
"          y z A B C D E F G                     ",
"        H I J K L M N O P                       ",
"        Q     R S T U V W                       ",
"        X     Y Z `  .U ..+.                    ",
"    @.- #.$.%.&.*.=.  -.;.                      ",
"  >.,.'.).!.~.{.].                              ",
"  N ^.      /.(._.                        :.    ",
"  <.[.      }.|.1.        2.3.4.          5.    ",
"  N 6.      7.8.9.0.  a.b.c.d.e.f.        g.    ",
"  h.i.j.    k.l.m.n.o.p.q.r.s.t.u.v.    w.x.    ",
"  y.( z.A.  B.9 C.D.E.F.G.H.I.J.K.L.M.N.O.      ",
"    P.( Q.R.S.T.U.V.W.X.Y.      Z.`. +.+++      ",
"      @+#+$+%+&+*+=+-+;+          >+,+'+        ",
"                                                ",
"                                                "};
