/* XPM */
static char * breakpoint_xpm[] = {
"24 24 175 2",
"  	c None",
". 	c #DD2121",
"+ 	c #E22323",
"@ 	c #E72424",
"# 	c #EB2525",
"$ 	c #EC2626",
"% 	c #ED2828",
"& 	c #D82020",
"* 	c #E12222",
"= 	c #E52323",
"- 	c #EA2525",
"; 	c #EF2929",
"> 	c #F52C2C",
", 	c #FB3030",
"' 	c #FF3333",
") 	c #F63030",
"! 	c #D52020",
"~ 	c #DA2020",
"{ 	c #E12323",
"] 	c #E62525",
"^ 	c #EC2929",
"/ 	c #F52E2E",
"( 	c #FE3636",
"_ 	c #FF3D3D",
": 	c #FF4141",
"< 	c #FF4242",
"[ 	c #FB3B3B",
"} 	c #D21F1F",
"| 	c #D62020",
"1 	c #D92020",
"2 	c #E82727",
"3 	c #F22F2F",
"4 	c #FF3A3A",
"5 	c #FF4747",
"6 	c #FF5353",
"7 	c #FF5959",
"8 	c #FF5757",
"9 	c #FF4F4F",
"0 	c #FA4040",
"a 	c #CE1F1F",
"b 	c #DD2222",
"c 	c #E22525",
"d 	c #EC2C2C",
"e 	c #FB3939",
"f 	c #FF4D4D",
"g 	c #FF6666",
"h 	c #FF7979",
"i 	c #FF7F7F",
"j 	c #FF7676",
"k 	c #FF6464",
"l 	c #FF5151",
"m 	c #F63A3A",
"n 	c #CE1E1E",
"o 	c #D11F1F",
"p 	c #D42020",
"q 	c #DC2222",
"r 	c #E32727",
"s 	c #F13232",
"t 	c #FF4848",
"u 	c #FF6B6B",
"v 	c #FF9494",
"w 	c #FFAFAF",
"x 	c #FFB0B0",
"y 	c #FF9A9A",
"z 	c #FF7A7A",
"A 	c #FF5D5D",
"B 	c #FF4646",
"C 	c #CB1E1E",
"D 	c #CD1E1E",
"E 	c #D01F1F",
"F 	c #D31F1F",
"G 	c #D72020",
"H 	c #DC2323",
"I 	c #E42929",
"J 	c #F63838",
"K 	c #FF5A5A",
"L 	c #FF9090",
"M 	c #FFCACA",
"N 	c #FFE9E9",
"O 	c #FFDFDF",
"P 	c #FFB7B7",
"Q 	c #FF8989",
"R 	c #FF6262",
"S 	c #F53232",
"T 	c #CA1E1E",
"U 	c #CC1E1E",
"V 	c #CF1F1F",
"W 	c #DB2323",
"X 	c #E42A2A",
"Y 	c #F93D3D",
"Z 	c #FF6767",
"` 	c #FFAAAA",
" .	c #FFEFEF",
"..	c #FFFFFF",
"+.	c #FFF3F3",
"@.	c #FFBEBE",
"#.	c #FF8787",
"$.	c #FF5E5E",
"%.	c #FF4444",
"&.	c #F83131",
"*.	c #C71D1D",
"=.	c #D92222",
"-.	c #E22929",
";.	c #F73B3B",
">.	c #FF6565",
",.	c #FFA6A6",
"'.	c #FFE5E5",
").	c #FFF8F8",
"!.	c #FFDADA",
"~.	c #FFA5A5",
"{.	c #FF7474",
"].	c #FF3C3C",
"^.	c #F82F2F",
"/.	c #C61D1D",
"(.	c #C91E1E",
"_.	c #D22020",
":.	c #D62121",
"<.	c #DE2626",
"[.	c #EE3434",
"}.	c #FF5252",
"|.	c #FF8181",
"1.	c #FFACAC",
"2.	c #FFA0A0",
"3.	c #FB3333",
"4.	c #F32B2B",
"5.	c #D92323",
"6.	c #E32B2B",
"7.	c #F63C3C",
"8.	c #FF5555",
"9.	c #FF7070",
"0.	c #FF4040",
"a.	c #F83333",
"b.	c #F12C2C",
"c.	c #EB2727",
"d.	c #C51D1D",
"e.	c #D52121",
"f.	c #DB2525",
"g.	c #E42C2C",
"h.	c #F03636",
"i.	c #FA3F3F",
"j.	c #FD3E3E",
"k.	c #F73636",
"l.	c #F12F2F",
"m.	c #EC2A2A",
"n.	c #E92626",
"o.	c #E42323",
"p.	c #C41D1D",
"q.	c #DA2424",
"r.	c #DF2727",
"s.	c #E72C2C",
"t.	c #E82B2B",
"u.	c #E72929",
"v.	c #E52727",
"w.	c #E42525",
"x.	c #E02222",
"y.	c #C21D1D",
"z.	c #D42121",
"A.	c #D72222",
"B.	c #DA2323",
"C.	c #DC2424",
"D.	c #DE2424",
"E.	c #DF2323",
"F.	c #DF2222",
"G.	c #C31D1D",
"H.	c #C81D1D",
"I.	c #D32020",
"J.	c #D72121",
"K.	c #D82121",
"L.	c #DA2121",
"M.	c #DB2121",
"N.	c #D92121",
"O.	c #C31C1C",
"P.	c #C21C1C",
"Q.	c #D41F1F",
"R.	c #C81E1E",
"                                                ",
"                                                ",
"                                                ",
"                  . + @ # $ %                   ",
"              & . * = - ; > , ' )               ",
"            ! ~ . { ] ^ / ( _ : < [             ",
"          } | 1 . + 2 3 4 5 6 7 8 9 0           ",
"        a } ! 1 b c d e f g h i j k l m         ",
"        n o p & q r s t u v w x y z A B         ",
"      C D E F G H I J K L M N O P Q R 5 S       ",
"      T U V } | W X Y Z `  ...+.@.#.$.%.&.      ",
"      *.T D o p =.-.;.>.,.'.).!.~.{.l ].^.      ",
"      /.(.U V _.:.<.[.}.|.1.P 2.z 7 : 3.4.      ",
"      /.*.T D E p 5.6.7.8.u 9.>.l 0.a.b.c.      ",
"      d./.(.C a o e.f.g.h.i.< j.k.l.m.n.o.      ",
"      p.p.*.(.U V _.e.q.r.X s.t.u.v.w.o.x.      ",
"        y.d.*.T U V _.z.A.B.C.D.E.E.F.x.        ",
"        G.G.d.H.T U V o I.! J.K.L.M.M.N.        ",
"          O.G.d.H.T U a E } F ! | G G           ",
"            P.G.d.*.(.C D V E o F Q.            ",
"              p.G.d.*.R.T U D a V               ",
"                  d.d./.*.T C                   ",
"                                                ",
"                                                "};
