/* XPM */
static char * class_small_xpm[] = {
"18 18 158 2",
"  	c None",
". 	c #B0B3B2",
"+ 	c #AFAAAC",
"@ 	c #B0BBB7",
"# 	c #DAD8D9",
"$ 	c #95707C",
"% 	c #EDAAC0",
"& 	c #F0AAC2",
"* 	c #D1849E",
"= 	c #695A5F",
"- 	c #E8E7E8",
"; 	c #9C888F",
"> 	c #FDEDF4",
", 	c #FEF9FB",
"' 	c #FAF5F7",
") 	c #F9E9EE",
"! 	c #F3ACC6",
"~ 	c #A8969E",
"{ 	c #C0BEC0",
"] 	c #F1DBE3",
"^ 	c #FDFDFE",
"/ 	c #FEFEFF",
"( 	c #FCF8F9",
"_ 	c #F9EFF2",
": 	c #F7DEE7",
"< 	c #BF8FA3",
"[ 	c #C7C4C7",
"} 	c #B6A89F",
"| 	c #B3A59D",
"1 	c #BCB7BA",
"2 	c #878387",
"3 	c #FFF7FB",
"4 	c #FFFEFF",
"5 	c #FFFFFF",
"6 	c #FEFEFE",
"7 	c #FDF9FB",
"8 	c #F8EDF0",
"9 	c #988486",
"0 	c #E0B894",
"a 	c #E4D0B4",
"b 	c #E4C297",
"c 	c #F7CF8F",
"d 	c #715C57",
"e 	c #9A9599",
"f 	c #FEE7F1",
"g 	c #FEFFFF",
"h 	c #FDFFFF",
"i 	c #E1E0E0",
"j 	c #BFAA9F",
"k 	c #FEFAEE",
"l 	c #FDFDF5",
"m 	c #FEF8EB",
"n 	c #FAEED2",
"o 	c #F9D59D",
"p 	c #B7ADA0",
"q 	c #E2D7DD",
"r 	c #DFB1C3",
"s 	c #F6EBF0",
"t 	c #FEF7FA",
"u 	c #696562",
"v 	c #FDDCC1",
"w 	c #FEFAF5",
"x 	c #FFFBF4",
"y 	c #FEF3E6",
"z 	c #FEE8C1",
"A 	c #B09F7F",
"B 	c #9E9D9F",
"C 	c #297A5B",
"D 	c #948C8B",
"E 	c #FAC2D4",
"F 	c #F5ECEF",
"G 	c #F4DBE4",
"H 	c #FFE9F3",
"I 	c #876B5F",
"J 	c #FFF5E2",
"K 	c #FFFDFC",
"L 	c #FEFDF6",
"M 	c #FDF0D8",
"N 	c #B09C77",
"O 	c #E7E8E8",
"P 	c #BABABC",
"Q 	c #297754",
"R 	c #B1D1B5",
"S 	c #ACD8C7",
"T 	c #9C9FA2",
"U 	c #C29BA8",
"V 	c #C6AAB5",
"W 	c #B297A2",
"X 	c #736B5B",
"Y 	c #FFFBEB",
"Z 	c #FFF8EB",
"` 	c #AB9C76",
" .	c #729D8D",
"..	c #94C0A7",
"+.	c #BADFD3",
"@.	c #D6EEED",
"#.	c #E5F9F6",
"$.	c #DEF7F2",
"%.	c #C2E4DE",
"&.	c #697B77",
"*.	c #C0C2C2",
"=.	c #E7CAA8",
"-.	c #FEFDF8",
";.	c #FEFDF5",
">.	c #FEFCFA",
",.	c #FCFDF9",
"'.	c #FEECCB",
").	c #C9BCA3",
"!.	c #658276",
"~.	c #A5CDBC",
"{.	c #CFEAE6",
"].	c #E2F3F0",
"^.	c #F5FAF9",
"/.	c #F9FDFD",
"(.	c #E3F5F2",
"_.	c #93A9AD",
":.	c #ABA090",
"<.	c #FDE4BE",
"[.	c #FFF2D9",
"}.	c #FFEFD3",
"|.	c #FFF6C9",
"1.	c #B6AA8D",
"2.	c #D2D6D9",
"3.	c #718B82",
"4.	c #A5CCC2",
"5.	c #D2EBE7",
"6.	c #E5F4F2",
"7.	c #FCFEFD",
"8.	c #FDFFFD",
"9.	c #E7F0F3",
"0.	c #91A1A6",
"a.	c #808A8C",
"b.	c #CBBBA3",
"c.	c #DACBAE",
"d.	c #7C8381",
"e.	c #85A69C",
"f.	c #96BFB7",
"g.	c #C7DEDC",
"h.	c #DDF1EF",
"i.	c #E8FAF6",
"j.	c #EEFBF7",
"k.	c #C9C9D8",
"l.	c #828A8D",
"m.	c #E9E5E8",
"n.	c #457769",
"o.	c #A9C4C9",
"p.	c #C4BFD3",
"q.	c #D3CCDA",
"r.	c #C8B2D0",
"s.	c #8E91A0",
"t.	c #E7E9E9",
"u.	c #677576",
"v.	c #7B9899",
"w.	c #949FAD",
"x.	c #758789",
"y.	c #E6E7E6",
"z.	c #DBE3E2",
"A.	c #D9E1DF",
"                                    ",
"            . + @                   ",
"        # $ % & * =                 ",
"      - ; > , ' ) ! ~               ",
"      { ] ^ / ( _ : < [ } | 1       ",
"      2 3 4 5 6 7 8 9 0 a b c d     ",
"      e f g h 5 5 i j k l m n o p   ",
"      q r s t 6 5 u v w 6 x y z A   ",
"    B C D E F G H I J 5 5 K L M N O ",
"  P Q R S T U V W X Y 5 5 5 5 Z `   ",
"   ...+.@.#.$.%.&.*.=.-.;.>.,.'.).  ",
"  !.~.{.].^./.(._.  :.<.[.}.|.1.2.  ",
"  3.4.5.6.7.8.9.0.    a.b.c.d.      ",
"  e.f.g.h.i.j.k.l.                  ",
"  m.n.o.p.q.r.s.t.                  ",
"      u.v.w.x.y.                    ",
"        z.A.                        ",
"                                    "};
