/* XPM */
static char * context_xpm[] = {
"24 24 301 2",
"  	c None",
". 	c #413F9F",
"+ 	c #404696",
"@ 	c #7943DB",
"# 	c #9648EE",
"$ 	c #C23CA4",
"% 	c #CF2A1D",
"& 	c #C32919",
"* 	c #90451C",
"= 	c #844C2A",
"- 	c #42408C",
"; 	c #9748F0",
"> 	c #B651FD",
", 	c #B54DFD",
"' 	c #AA48F6",
") 	c #AB4CFC",
"! 	c #CD3DA9",
"~ 	c #DA2916",
"{ 	c #DC281A",
"] 	c #E32517",
"^ 	c #E5241B",
"/ 	c #D12A1D",
"( 	c #595152",
"_ 	c #533ED0",
": 	c #B64DFF",
"< 	c #A94AFA",
"[ 	c #A94DF7",
"} 	c #B04EDE",
"| 	c #BE3C7F",
"1 	c #B645D7",
"2 	c #DA4A65",
"3 	c #DC2618",
"4 	c #DE2618",
"5 	c #DD2719",
"6 	c #DE281A",
"7 	c #E9241B",
"8 	c #A03434",
"9 	c #575156",
"0 	c #393B43",
"a 	c #523DCF",
"b 	c #A24BFB",
"c 	c #A549F3",
"d 	c #A54CF8",
"e 	c #994AF2",
"f 	c #D5454F",
"g 	c #E02804",
"h 	c #D1281B",
"i 	c #DF2815",
"j 	c #DD2815",
"k 	c #E22416",
"l 	c #E2281A",
"m 	c #E3272B",
"n 	c #CD272B",
"o 	c #3F41A5",
"p 	c #AE4FFF",
"q 	c #A74DFB",
"r 	c #A449F9",
"s 	c #9646F0",
"t 	c #C13B42",
"u 	c #D8303C",
"v 	c #D7474E",
"w 	c #D12929",
"x 	c #DC2916",
"y 	c #DC231A",
"z 	c #E72617",
"A 	c #C7272B",
"B 	c #CB291D",
"C 	c #DF2719",
"D 	c #E32525",
"E 	c #B52F1D",
"F 	c #502C4D",
"G 	c #A448F2",
"H 	c #A950FC",
"I 	c #A54AFA",
"J 	c #A44AF8",
"K 	c #A849F9",
"L 	c #AF4DFB",
"M 	c #A748DE",
"N 	c #B542D2",
"O 	c #A54CF0",
"P 	c #BE3C4B",
"Q 	c #D72917",
"R 	c #E1241B",
"S 	c #ACB466",
"T 	c #55D3B7",
"U 	c #58CCA2",
"V 	c #A13131",
"W 	c #E2271E",
"X 	c #E5271D",
"Y 	c #755B29",
"Z 	c #403593",
"` 	c #AC4CFE",
" .	c #9F48F8",
"..	c #A84AF8",
"+.	c #AA4BFB",
"@.	c #B54BFF",
"#.	c #BB4FFF",
"$.	c #C73B9E",
"%.	c #E0281A",
"&.	c #E42718",
"*.	c #5AD0A8",
"=.	c #32F2F4",
"-.	c #43FCFF",
";.	c #B1374E",
">.	c #CC271A",
",.	c #8740DE",
"'.	c #9643EB",
").	c #9A41ED",
"!.	c #B048F8",
"~.	c #A045F5",
"{.	c #C14EFC",
"].	c #6D39CD",
"^.	c #6036CA",
"/.	c #6538CA",
"(.	c #A9415C",
"_.	c #AF3813",
":.	c #B53509",
"<.	c #C43104",
"[.	c #C06E4E",
"}.	c #34FAF7",
"|.	c #3FF1EF",
"1.	c #BE2828",
"2.	c #C63108",
"3.	c #D12D07",
"4.	c #D92D0B",
"5.	c #343E52",
"6.	c #262AD2",
"7.	c #2525DF",
"8.	c #2126E5",
"9.	c #5B54E6",
"0.	c #502FB9",
"a.	c #BB51FF",
"b.	c #6856EE",
"c.	c #2029E0",
"d.	c #2828DE",
"e.	c #2727DD",
"f.	c #3931CF",
"g.	c #51D3B9",
"h.	c #53D5BE",
"i.	c #55D5BB",
"j.	c #4DE9E0",
"k.	c #3FFFFC",
"l.	c #41FBF9",
"m.	c #4EDED6",
"n.	c #51CFB0",
"o.	c #51CFAA",
"p.	c #52D0AB",
"q.	c #5D5D6F",
"r.	c #1E597E",
"s.	c #0528D9",
"t.	c #0429E2",
"u.	c #0122ED",
"v.	c #3930E2",
"w.	c #923EE8",
"x.	c #A745F3",
"y.	c #4135D7",
"z.	c #022AD4",
"A.	c #0425F0",
"B.	c #0526EB",
"C.	c #1B3DCF",
"D.	c #3DEFE9",
"E.	c #3FFBF9",
"F.	c #45FBFD",
"G.	c #3FFFF8",
"H.	c #41FDF7",
"I.	c #3DFBF9",
"J.	c #4CFAF4",
"K.	c #4096B6",
"L.	c #355350",
"M.	c #0524DF",
"N.	c #0026E6",
"O.	c #0125DD",
"P.	c #4938CA",
"Q.	c #B04AFE",
"R.	c #B64AFA",
"S.	c #8E60F6",
"T.	c #002BCC",
"U.	c #0223EE",
"V.	c #0425EE",
"W.	c #193BCD",
"X.	c #3FEFE8",
"Y.	c #41F9FB",
"Z.	c #41FFFC",
"`.	c #43FDFB",
" +	c #41FDFB",
".+	c #41FFF8",
"++	c #4A36C4",
"@+	c #374949",
"#+	c #0528DB",
"$+	c #0227E6",
"%+	c #0024DC",
"&+	c #5449E5",
"*+	c #684CE4",
"=+	c #4C48DA",
"-+	c #2429E0",
";+	c #0027EC",
">+	c #0122EB",
",+	c #0223EC",
"'+	c #2153D3",
")+	c #3CF2F0",
"!+	c #43EDEF",
"~+	c #37B6CD",
"{+	c #39FBF9",
"]+	c #3DFFF8",
"^+	c #42FEF7",
"/+	c #5334AC",
"(+	c #1429C6",
"_+	c #0026E8",
":+	c #0828E8",
"<+	c #0026E4",
"[+	c #0027EA",
"}+	c #0123F1",
"|+	c #0022EE",
"1+	c #0A24E4",
"2+	c #262ED2",
"3+	c #0A23DE",
"4+	c #2AC6D0",
"5+	c #3CF4EE",
"6+	c #56439D",
"7+	c #3330AC",
"8+	c #0228E8",
"9+	c #0324E9",
"0+	c #0222E8",
"a+	c #0324EF",
"b+	c #0123EF",
"c+	c #0425EC",
"d+	c #0325F1",
"e+	c #0027EE",
"f+	c #2978D9",
"g+	c #38DCD6",
"h+	c #48E8F2",
"i+	c #595156",
"j+	c #0827E6",
"k+	c #0127E7",
"l+	c #0723F3",
"m+	c #182ED2",
"n+	c #0F24ED",
"o+	c #0B25E7",
"p+	c #29C4EB",
"q+	c #3FFDF6",
"r+	c #3DFDF7",
"s+	c #3CB3C8",
"t+	c #2C29BD",
"u+	c #1A3ED8",
"v+	c #3FF7F1",
"w+	c #34D4E2",
"x+	c #29B6DF",
"y+	c #3CF6F8",
"z+	c #3DFFFC",
"A+	c #51EFF5",
"B+	c #4B4B5D",
"C+	c #1423EC",
"D+	c #234DC5",
"E+	c #3CECE6",
"F+	c #44FEFB",
"G+	c #51FFFD",
"H+	c #54B0D6",
"I+	c #2626BA",
"J+	c #1322E3",
"K+	c #0224F6",
"L+	c #0224F0",
"M+	c #0224F2",
"N+	c #0325F7",
"O+	c #0421F8",
"P+	c #2159CB",
"Q+	c #3DF3EC",
"R+	c #41FCFF",
"S+	c #3BFDFA",
"T+	c #43FFFC",
"U+	c #55FDFF",
"V+	c #4C87CA",
"W+	c #4530B0",
"X+	c #3627CD",
"Y+	c #0A20F6",
"Z+	c #0629DC",
"`+	c #042EC8",
" @	c #0A33B8",
".@	c #2747BD",
"+@	c #32AEAD",
"@@	c #2DC9C3",
"#@	c #34E4E2",
"$@	c #3DFDF6",
"%@	c #4EFEFC",
"&@	c #4FE9E3",
"*@	c #5D97D9",
"=@	c #1E4190",
"-@	c #1529BD",
";@	c #1221E4",
">@	c #0E23EC",
",@	c #0E22E4",
"'@	c #319AEB",
")@	c #47EFED",
"!@	c #4AF0F2",
"~@	c #4BF1EF",
"{@	c #3EC5C6",
"]@	c #48CED0",
"^@	c #2B5B6B",
"/@	c #214189",
"(@	c #393092",
"_@	c #467E98",
":@	c #574969",
"                                                ",
"                . + @ # $ % & * =               ",
"            - ; > , ' ) ! ~ { ] ^ / (           ",
"          _ : < [ } | 1 2 { 3 4 5 6 7 8 9       ",
"      0 a b c d e f g h i j 3 5 { k l m n       ",
"      o p q r < s t u v w x { y z A B C D E     ",
"    F G H I J K L M N O P Q 3 R S T U V W X Y   ",
"    Z ` I  .I ..+.: @.#.$.%.&.] *.=.-.;.&.R >.  ",
"    ,.'.).!.~.< {.].^./.(._.:.<.[.}.|.1.2.3.4.  ",
"  5.6.7.8.9.0.a.b.c.d.e.f.g.h.i.j.k.l.m.n.o.p.q.",
"  r.s.t.u.v.w.x.y.z.A.B.C.D.E.l.F.G.H.H.I.l.J.K.",
"  L.M.N.O.P.Q.R.S.T.U.V.W.X.Y.Z.G.G.H.H.`. +.+++",
"  @+#+$+%+&+*+=+-+;+>+,+'+)+!+~+{+G.]+H.H.^+.+/+",
"    (+_+:+_+<+[+}+V.|+U.1+2+3+3+4+5+G.H.G.H..+6+",
"    7+[+8+9+0+,+a+u.u.b+}+c+d+e+f+g+k.]+]+.+h+  ",
"    i+j+$+k+_+[+;+|+b+b+l+m+n+o+p+q+G.r+ +-.s+  ",
"      t+a+0+;+;+;+|+}+a+u+v+w+x+y+]+G.z+Z.A+    ",
"      B+C+b+b+u.u.|+b+d+D+E+G.G.z+z+G.F+G+H+    ",
"        I+J+K+L+A.M+N+O+P+Q+R+Z.S+ +T+U+V+      ",
"          W+X+Y+d+Z+`+ @.@+@@@#@$@%@&@*@        ",
"              =@-@;@>@,@'@)@!@~@{@]@            ",
"                    ^@/@(@_@:@                  ",
"                                                ",
"                                                "};
