/* XPM */
static char * run_file_xpm[] = {
"24 24 39 1",
" 	c None",
".	c #8C8C8C",
"+	c #FFFFFF",
"@	c #BC7171",
"#	c #A39A9A",
"$	c #7E0000",
"%	c #8D8181",
"&	c #2424E9",
"*	c #7B0000",
"=	c #E8F2F2",
"-	c #DE0303",
";	c #E60404",
">	c #730000",
",	c #CED6D6",
"'	c #DF0303",
")	c #D50303",
"!	c #D40303",
"~	c #C10000",
"{	c #4B2020",
"]	c #DA0303",
"^	c #B20000",
"/	c #837B7B",
"(	c #D1CECE",
"_	c #09EA43",
":	c #E50404",
"<	c #6D2323",
"[	c #817373",
"}	c #D1CCCC",
"|	c #5F4F4F",
"1	c #BEBABA",
"2	c #EFEEEE",
"3	c #870000",
"4	c #807878",
"5	c #C0BCBC",
"6	c #EA0929",
"7	c #906F57",
"8	c #CAD1CD",
"9	c #FBFAFA",
"0	c #EBE9E9",
"                        ",
"                        ",
"     .............      ",
"     .+++++++++++.      ",
"     .++++++@++++.##    ",
"    $%+&&&&+*=&++.##    ",
"    -;>%++++$,+++.##    ",
"    ')!;>%&&$,&++.##    ",
"    ')))!~{+$,+++.##    ",
"    '))]^/(_$,_++.##    ",
"    '!:<[}++$,+++.##    ",
"    -^|12___$,_++.##    ",
"    34}+++++$,+++.##    ",
"    5.+6+_+_78_++.##    ",
"     .++++++90+++.##    ",
"     .+&&+&&+&&++.##    ",
"     .+++++++++++.##    ",
"     .+++++++++++.##    ",
"     .............##    ",
"       #############    ",
"       #############    ",
"                        ",
"                        ",
"                        "};
