/* XPM */
static char * run_xpm[] = {
"24 24 4 1",
" 	c None",
".	c #3A0303",
"+	c #D50303",
"@	c #A39A9A",
"                        ",
"                        ",
"                        ",
"   .                .+  ",
"   ...              .+  ",
"   .++..            .+@ ",
"   .++++..          .+@ ",
"   .++++++..        .+@ ",
"   .++++++++..      .+@ ",
"   .++++++++++..    .+@ ",
"   .++++++++++++..  .+@ ",
"   .+++++++++++..   .+@ ",
"   .++++++++++.@    .+@ ",
"   .+++++++++.@@@@  .+@ ",
"   .+++++++..@@@    .+@ ",
"   .++++++.@@@      .+@ ",
"   .++++..@@@       .+@ ",
"   .+++.@@@         .+@ ",
"   .++.@@@          .+@ ",
"   ...@@            .+@ ",
"   .@@@             .+@ ",
"   @@@               @@ ",
"   @                 @@ ",
"                        "};
