/* XPM */
static char * decorator_xpm[] = {
"24 24 256 2",
"  	c None",
". 	c #6F7073",
"+ 	c #6A6A6B",
"@ 	c #979790",
"# 	c #A1A199",
"$ 	c #989897",
"% 	c #9C9FA3",
"& 	c #B2B6A6",
"* 	c #D8DAB2",
"= 	c #AAAA97",
"- 	c #9B9B98",
"; 	c #9E8F78",
"> 	c #B69A75",
", 	c #CFA767",
"' 	c #D1B477",
") 	c #D4B476",
"! 	c #CDAE6E",
"~ 	c #CAAA73",
"{ 	c #AA9070",
"] 	c #928D7B",
"^ 	c #ADB2A1",
"/ 	c #CED1B1",
"( 	c #A0A096",
"_ 	c #AE9B7F",
": 	c #DBAF5F",
"< 	c #FEB248",
"[ 	c #FFC75C",
"} 	c #FFD264",
"| 	c #FFD062",
"1 	c #FFD467",
"2 	c #FFC658",
"3 	c #FFC149",
"4 	c #E7B767",
"5 	c #B2A17F",
"6 	c #9F9E9A",
"7 	c #A7AC8B",
"8 	c #B5B791",
"9 	c #A19889",
"0 	c #F7B453",
"a 	c #C19671",
"b 	c #BF9676",
"c 	c #FFC558",
"d 	c #FBCB69",
"e 	c #FDCA66",
"f 	c #FDCD68",
"g 	c #FDC25D",
"h 	c #FCB451",
"i 	c #FFCF62",
"j 	c #FFD35D",
"k 	c #C49766",
"l 	c #CBCC99",
"m 	c #D6DD93",
"n 	c #999788",
"o 	c #D5B97F",
"p 	c #FAB85B",
"q 	c #98788C",
"r 	c #C29471",
"s 	c #FFC659",
"t 	c #FCCC69",
"u 	c #FFCB65",
"v 	c #FFCE68",
"w 	c #FFC45C",
"x 	c #F7B152",
"y 	c #D5A962",
"z 	c #C1A570",
"A 	c #DEAD66",
"B 	c #BDA379",
"C 	c #97968F",
"D 	c #DCCDC1",
"E 	c #BEB4AD",
"F 	c #A5A299",
"G 	c #FFCD55",
"H 	c #FEBB5A",
"I 	c #EBAD56",
"J 	c #E5A64C",
"K 	c #FFC45E",
"L 	c #FECD67",
"M 	c #FECE69",
"N 	c #FFC554",
"O 	c #D8AC73",
"P 	c #858B99",
"Q 	c #9B9183",
"R 	c #9C8C71",
"S 	c #8D8E90",
"T 	c #D5C7C1",
"U 	c #F7E0D0",
"V 	c #C2B8B1",
"W 	c #6C6F70",
"X 	c #959185",
"Y 	c #FFCE46",
"Z 	c #E8B260",
"` 	c #AAA36D",
" .	c #FDB352",
"..	c #FDC15E",
"+.	c #FFCD67",
"@.	c #FFC555",
"#.	c #D9AD70",
"$.	c #9C9B99",
"%.	c #AA8D6A",
"&.	c #A38F76",
"*.	c #D6C6BC",
"=.	c #F6E0D2",
"-.	c #C3B9B1",
";.	c #6F7173",
">.	c #ADA9A0",
",.	c #F3C860",
"'.	c #7F9787",
").	c #3E8B96",
"!.	c #ECA955",
"~.	c #FFC058",
"{.	c #FBCC69",
"].	c #FFC35D",
"^.	c #FFB54B",
"/.	c #C2A270",
"(.	c #AFA9A4",
"_.	c #D9A454",
":.	c #AB8E6A",
"<.	c #D6C5BC",
"[.	c #F4DFD0",
"}.	c #BDB2AA",
"|.	c #858789",
"1.	c #D1B271",
"2.	c #D9B267",
"3.	c #C3AA68",
"4.	c #FFBB54",
"5.	c #E4C77C",
"6.	c #FFD15F",
"7.	c #FDCB67",
"8.	c #FEC35E",
"9.	c #FFB54A",
"0.	c #F9B95A",
"a.	c #CEAB6F",
"b.	c #8C8E8E",
"c.	c #8B8DA0",
"d.	c #F3BA64",
"e.	c #D79C56",
"f.	c #8A827C",
"g.	c #CDBDB4",
"h.	c #F2DCCC",
"i.	c #B6AAA3",
"j.	c #ABA090",
"k.	c #FFC34F",
"l.	c #DDAB59",
"m.	c #A65F5F",
"n.	c #B05557",
"o.	c #CDBD7F",
"p.	c #FFCD62",
"q.	c #FCCA67",
"r.	c #FFC25B",
"s.	c #FEB74F",
"t.	c #FFBA51",
"u.	c #FAC564",
"v.	c #F1BE65",
"w.	c #F6B654",
"x.	c #F8B550",
"y.	c #FFD664",
"z.	c #B68D59",
"A.	c #808080",
"B.	c #B9AEA7",
"C.	c #EDD6C8",
"D.	c #AAA5A1",
"E.	c #E5B466",
"F.	c #895E6E",
"G.	c #9B2040",
"H.	c #895966",
"I.	c #D8C07F",
"J.	c #FFCF5F",
"K.	c #FEC662",
"L.	c #FFBD56",
"M.	c #FFBD53",
"N.	c #FCB757",
"O.	c #FFCF5E",
"P.	c #D7B170",
"Q.	c #B0A393",
"R.	c #B7B0A3",
"S.	c #968D7B",
"T.	c #A09791",
"U.	c #A49F9C",
"V.	c #AB9268",
"W.	c #E6B66F",
"X.	c #C09263",
"Y.	c #FFC359",
"Z.	c #F8CA6D",
"`.	c #DEB97B",
" +	c #EFBC64",
".+	c #FFBF54",
"++	c #FDBF57",
"@+	c #FFBE55",
"#+	c #E2B76D",
"$+	c #A39779",
"%+	c #D8AF6E",
"&+	c #FEB34B",
"*+	c #CAAA78",
"=+	c #B5AA7A",
"-+	c #B7B245",
";+	c #C8AA5D",
">+	c #FFC256",
",+	c #FCBD56",
"'+	c #FFC15B",
")+	c #FAC56B",
"!+	c #B39E7C",
"~+	c #A29888",
"{+	c #E5B673",
"]+	c #B0A777",
"^+	c #F0E032",
"/+	c #C6BF48",
"(+	c #C2A55A",
"_+	c #FFC456",
":+	c #FCBC55",
"<+	c #FCC564",
"[+	c #FFCA59",
"}+	c #C7A773",
"|+	c #A28758",
"1+	c #FBBC5D",
"2+	c #B19C75",
"3+	c #AE9F6B",
"4+	c #D1AC5D",
"5+	c #FBB956",
"6+	c #A69883",
"7+	c #AFA690",
"8+	c #F8BB57",
"9+	c #FFCF70",
"0+	c #AA9D7E",
"a+	c #AB9572",
"b+	c #FFD364",
"c+	c #FFD562",
"d+	c #E8C276",
"e+	c #6B7287",
"f+	c #0E237D",
"g+	c #61627B",
"h+	c #ECB861",
"i+	c #FFCC53",
"j+	c #C3B699",
"k+	c #A69879",
"l+	c #FDCD6B",
"m+	c #DEB465",
"n+	c #676172",
"o+	c #283784",
"p+	c #636980",
"q+	c #E4B35F",
"r+	c #FFCE64",
"s+	c #BFB19B",
"t+	c #848077",
"u+	c #E8C078",
"v+	c #EBBE6F",
"w+	c #BB9966",
"x+	c #D3AC6A",
"y+	c #FAC15A",
"z+	c #D9B17B",
"A+	c #A0968B",
"B+	c #797E8D",
"C+	c #A79C8D",
"D+	c #DCB374",
"E+	c #F2BD60",
"F+	c #CCAD73",
"G+	c #898580",
"                                                ",
"                                                ",
"                    . + @ # $                   ",
"                      % & * = -                 ",
"        ; > , ' ) ! ~ { ] ^ / (                 ",
"      _ : < [ } | 1 2 3 4 5 6 7 8               ",
"    9 0 a b c d e f g h i j k l m n             ",
"    o p q r s t u v w x y z A B C D E           ",
"  F G H I J K L u M N O P   Q R S T U V W       ",
"  X Y Z `  ...+.u M @.#.$.      %.&.*.=.-.;.    ",
"  >.,.'.).!.~.{.u v ].^./.      (._.:.<.[.}.|.  ",
"    1.2.3.4.5.6.7.v 8.9.0.a.b.  c.d.e.f.g.h.i.  ",
"    j.k.l.m.n.o.p.q.r.s.t.u.v.w.x.y.z.  A.B.C.D.",
"      E.F.G.H.I.J.K.L.M.N.O.P.Q.R.S.        T.U.",
"      V.W.X.Y.Z.`. +.+++@+#+$+                  ",
"        %+&+*+=+-+;+>+,+'+)+!+                  ",
"        ~+{+]+^+/+(+_+:+<+[+}+                  ",
"          |+1+2+3+4+5+6+7+8+9+0+                ",
"            a+b+c+d+e+f+g+h+i+j+                ",
"              k+l+m+n+o+p+q+r+s+                ",
"                t+u+v+w+x+y+z+A+                ",
"                  B+C+D+E+F+G+                  ",
"                                                ",
"                                                "};
