/* XPM */
static char * enum_xpm[] = {
"24 24 4 1",
" 	c None",
".	c #D40000",
"+	c #D30000",
"@	c #D50000",
"                        ",
"                        ",
"                        ",
"                        ",
"         .+      ..     ",
"       ...     ...@     ",
"     +....   +....      ",
"    @  ... ... ...      ",
"       @....   ...      ",
"       ...     @.@      ",
"       ..      ..       ",
"      ...      ..       ",
"      ..@     +..       ",
"      ...     ...       ",
"      ..      ..        ",
"     @..      ..        ",
"     @.+      ..   .+   ",
"     ...     ...@..     ",
"     ..      ....       ",
"    ...      ...        ",
"                        ",
"                        ",
"                        ",
"                        "};
