/* XPM */
static char * folder_current_open_xpm[] = {
"24 24 248 2",
"  	c None",
". 	c #A8A396",
"+ 	c #DDD9CC",
"@ 	c #665E4B",
"# 	c #6C6343",
"$ 	c #9E9491",
"% 	c #EBE8EC",
"& 	c #D6D6D7",
"* 	c #6D6C66",
"= 	c #8B8479",
"- 	c #7C7467",
"; 	c #514C47",
"> 	c #D0CFCE",
", 	c #ACA9A8",
"' 	c #D7D7D2",
") 	c #6E6C6A",
"! 	c #4F4A4A",
"~ 	c #52504E",
"{ 	c #E8E5E2",
"] 	c #6F6C63",
"^ 	c #A29F9D",
"/ 	c #6F6B66",
"( 	c #8D8785",
"_ 	c #8D8884",
": 	c #989390",
"< 	c #CFCECA",
"[ 	c #EDECE7",
"} 	c #373528",
"| 	c #978C83",
"1 	c #8A8178",
"2 	c #453D39",
"3 	c #45403C",
"4 	c #D8D2D0",
"5 	c #B2ACA6",
"6 	c #716C67",
"7 	c #908B81",
"8 	c #9E9B90",
"9 	c #7A6E63",
"0 	c #BDB5AC",
"a 	c #BDB8B2",
"b 	c #CFCCCC",
"c 	c #CCCBCC",
"d 	c #CBC8C8",
"e 	c #A7A49F",
"f 	c #A6A39A",
"g 	c #857E73",
"h 	c #B8B6B2",
"i 	c #86817C",
"j 	c #C2B9B3",
"k 	c #CEC8C3",
"l 	c #E5E4E4",
"m 	c #A7ABB0",
"n 	c #E3E7EA",
"o 	c #B9BDC2",
"p 	c #EBECEC",
"q 	c #B9B9B4",
"r 	c #8F8B82",
"s 	c #9D9E9D",
"t 	c #9A9583",
"u 	c #B6B5AA",
"v 	c #B5B7B9",
"w 	c #D6D8D9",
"x 	c #F2F3F5",
"y 	c #E6E6E8",
"z 	c #F5F7F9",
"A 	c #F0F0F3",
"B 	c #C0C1C7",
"C 	c #DADBE0",
"D 	c #A8AAAF",
"E 	c #807A75",
"F 	c #D0CCC0",
"G 	c #878071",
"H 	c #ECECEC",
"I 	c #C1C3C5",
"J 	c #EFEFF1",
"K 	c #F1F2F4",
"L 	c #EEEFF1",
"M 	c #F0F1F4",
"N 	c #C8C9CD",
"O 	c #E1E3E8",
"P 	c #E2E3E6",
"Q 	c #C4C5CC",
"R 	c #847E79",
"S 	c #E1DFDE",
"T 	c #CAC5B4",
"U 	c #8D8776",
"V 	c #E0E0DF",
"W 	c #BBBBBC",
"X 	c #C6C7C8",
"Y 	c #DBDBDC",
"Z 	c #F5F7F7",
"` 	c #D8D8DC",
" .	c #D8D9DD",
"..	c #F2F3F9",
"+.	c #B6B6BA",
"@.	c #D0D1D7",
"#.	c #86807C",
"$.	c #A49D98",
"%.	c #C0BBAA",
"&.	c #8C8871",
"*.	c #D0D0C0",
"=.	c #C9CACA",
"-.	c #F3F4F5",
";.	c #F1F1F2",
">.	c #D3D3D5",
",.	c #9C9D9F",
"'.	c #EEF4F5",
").	c #F5F6FA",
"!.	c #E2E3E7",
"~.	c #D4D4DB",
"{.	c #7D7773",
"].	c #C5C2BF",
"^.	c #BDB9AB",
"/.	c #6F6955",
"(.	c #A7A08D",
"_.	c #B0B0B6",
":.	c #E8EAED",
"<.	c #EBEFF3",
"[.	c #EFF5F8",
"}.	c #EBF0F2",
"|.	c #EDF2F4",
"1.	c #ABACAF",
"2.	c #CDCECD",
"3.	c #727170",
"4.	c #D9D8D7",
"5.	c #E7E6E2",
"6.	c #787162",
"7.	c #9C9483",
"8.	c #C7C6CA",
"9.	c #C2C5C9",
"0.	c #E8EBEE",
"a.	c #EAF0F3",
"b.	c #EBF1F3",
"c.	c #EDF2F7",
"d.	c #B8BBBF",
"e.	c #E6E6E9",
"f.	c #B3B2B4",
"g.	c #6E6E6D",
"h.	c #8C887E",
"i.	c #847C71",
"j.	c #ACAAAA",
"k.	c #AEAEB0",
"l.	c #E2E5E7",
"m.	c #BFC3C6",
"n.	c #D4D8DC",
"o.	c #C8CAD3",
"p.	c #C2C1C8",
"q.	c #C7C5CC",
"r.	c #767277",
"s.	c #888A89",
"t.	c #CFCCCA",
"u.	c #6F6A60",
"v.	c #76746F",
"w.	c #A6A4A1",
"x.	c #BDBEC0",
"y.	c #B5B7BC",
"z.	c #D6D7DE",
"A.	c #BCBDC2",
"B.	c #BEBDC1",
"C.	c #7A7778",
"D.	c #585453",
"E.	c #CECBCA",
"F.	c #78756D",
"G.	c #504F49",
"H.	c #504F4F",
"I.	c #86878C",
"J.	c #9A9B9F",
"K.	c #595957",
"L.	c #31302B",
"M.	c #59554F",
"N.	c #C7C5C2",
"O.	c #C2C3C1",
"P.	c #B2B3B2",
"Q.	c #A9AAAA",
"R.	c #B0AFAF",
"S.	c #CECDCE",
"T.	c #D5D2CB",
"U.	c #72685E",
"V.	c #4F453C",
"W.	c #463B36",
"X.	c #625853",
"Y.	c #5A5852",
"Z.	c #39352E",
"`.	c #3F3D36",
" +	c #5A564F",
".+	c #6B6B66",
"++	c #6C6C67",
"@+	c #666260",
"#+	c #554E4F",
"$+	c #554E54",
"%+	c #3B343C",
"&+	c #D4D2D3",
"*+	c #979592",
"=+	c #544D4B",
"-+	c #56534F",
";+	c #484947",
">+	c #626461",
",+	c #727371",
"'+	c #686965",
")+	c #5E5F64",
"!+	c #666568",
"~+	c #706E71",
"{+	c #6E696E",
"]+	c #68625F",
"^+	c #747067",
"/+	c #D6D4D0",
"(+	c #323333",
"_+	c #676562",
":+	c #706E6B",
"<+	c #636664",
"[+	c #5D605D",
"}+	c #505251",
"|+	c #6D6F6C",
"1+	c #5D5B5A",
"2+	c #6F6C69",
"3+	c #78726D",
"4+	c #767068",
"5+	c #999387",
"6+	c #C8C4B7",
"7+	c #54504B",
"8+	c #504B43",
"9+	c #5D5850",
"0+	c #686561",
"a+	c #56554F",
"b+	c #5C5A55",
"c+	c #5F5D58",
"d+	c #685F50",
"e+	c #9A907D",
"f+	c #CEC1AA",
"g+	c #EBDCC0",
"h+	c #CCC1AE",
"i+	c #D4D1C9",
"j+	c #B2AC99",
"k+	c #B9B39B",
"l+	c #D1C9B0",
"m+	c #D6CFB5",
"n+	c #CBC2AA",
"o+	c #9E957D",
"p+	c #75726C",
"q+	c #7D7B76",
"r+	c #96918D",
"s+	c #CDC9C0",
"t+	c #D8D5CE",
"u+	c #CAC7C2",
"v+	c #C6C2BD",
"w+	c #C8C5BF",
"x+	c #D4D0CC",
"y+	c #DFDFE0",
"                                                ",
"              . +                               ",
"              @ # $ %                           ",
"          & * = - ; >                           ",
"          , ' ) !   ~                           ",
"        { ]   ^ / ( _ : <                       ",
"        [ } | 1 2 3 4 5 6 7                     ",
"          8 9 0 a b c d e f g                   ",
"        h i j k l m n o p q r s                 ",
"        t u v w x y z A B C D E                 ",
"      F G H I J K L M N O P Q R S               ",
"      T U V W X Y Z `  ...+.@.#.$.              ",
"      %.&.*.=.-.;.>.,.'.).!.~.{.].              ",
"      ^./.(._.:.<.'.[.}.|.1.2.3.4.              ",
"      5.6.7.8.9.0.a.b.c.d.e.f.g.                ",
"        h.i.j.k.l.m.n.o.p.q.r.s.                ",
"        t.u.v.w.x.y.z.A.B.C.D.                  ",
"          E.F.G.H.I.J.K.L.M.N.O.P.Q.R.S.        ",
"            T.U.V.W.X.Y.Z.`. +.+++@+#+$+%+&+    ",
"                *+=+-+;+>+,+'+)+!+~+{+]+^+/+    ",
"                (+_+:+<+[+}+|+1+2+3+4+5+6+      ",
"                7+8+9+0+a+b+c+d+e+f+g+h+        ",
"                i+j+k+l+m+n+o+p+q+r+s+          ",
"                    t+u+v+w+x+y+                "};
