/* XPM */
static char * folderT_xpm[] = {
"24 24 297 2",
"  	c None",
". 	c #FFFFFF",
"+ 	c #FDFEFF",
"@ 	c #FBFCFF",
"# 	c #FCFCFF",
"$ 	c #FDFFFF",
"% 	c #FFFFFD",
"& 	c #F6D021",
"* 	c #FACF0E",
"= 	c #FAD00F",
"- 	c #FAD00E",
"; 	c #FACF0C",
"> 	c #F5CD22",
", 	c #FBFBFF",
"' 	c #EEDA94",
") 	c #F2C32C",
"! 	c #F5D463",
"~ 	c #F3D35E",
"{ 	c #F6D055",
"] 	c #F3CE4A",
"^ 	c #F3CA36",
"/ 	c #F2E4C1",
"( 	c #F7EED0",
"_ 	c #F7EAC7",
": 	c #F6E8BE",
"< 	c #F4E5B6",
"[ 	c #F6E0AE",
"} 	c #F5DEA4",
"| 	c #F5DD9C",
"1 	c #F6DB9A",
"2 	c #F7E6B6",
"3 	c #FCF9F9",
"4 	c #E99A0A",
"5 	c #EFECEC",
"6 	c #F0F4FC",
"7 	c #F1F4FC",
"8 	c #F1F2FB",
"9 	c #F2F3F8",
"0 	c #F2F2F6",
"a 	c #F3F2F6",
"b 	c #F1F1F4",
"c 	c #F2F1F4",
"d 	c #F3F1F5",
"e 	c #F5F2F6",
"f 	c #F4F1F4",
"g 	c #F0F0F0",
"h 	c #ECF1F1",
"i 	c #E5B157",
"j 	c #F8F4EF",
"k 	c #FEFCF7",
"l 	c #EEC742",
"m 	c #F1C616",
"n 	c #F6CD16",
"o 	c #F8D21A",
"p 	c #FAD31B",
"q 	c #F9D51F",
"r 	c #FAD627",
"s 	c #F9D62C",
"t 	c #F9D731",
"u 	c #F8D835",
"v 	c #F9DA37",
"w 	c #F9D939",
"x 	c #F9DA39",
"y 	c #F8D939",
"z 	c #F7D939",
"A 	c #F8D738",
"B 	c #F6D33C",
"C 	c #F4CF44",
"D 	c #EECA59",
"E 	c #FEFBF3",
"F 	c #F1C121",
"G 	c #F6C803",
"H 	c #F9CE06",
"I 	c #FBD609",
"J 	c #FDD90B",
"K 	c #FDD910",
"L 	c #FCDB16",
"M 	c #FBDC1D",
"N 	c #FCDD22",
"O 	c #FDDD26",
"P 	c #FDDE2B",
"Q 	c #FDDE2D",
"R 	c #FEDF2E",
"S 	c #FDDD31",
"T 	c #FBDC30",
"U 	c #F9D835",
"V 	c #F7CE27",
"W 	c #EDBD20",
"X 	c #FEFBF6",
"Y 	c #F2C530",
"Z 	c #F7C901",
"` 	c #FBD105",
" .	c #FCD708",
"..	c #FFDB0C",
"+.	c #FEDC12",
"@.	c #FBD51C",
"#.	c #D420C7",
"$.	c #D51ECA",
"%.	c #E36490",
"&.	c #FEE02F",
"*.	c #FEDE30",
"=.	c #FCDD33",
"-.	c #FBD726",
";.	c #F8CB00",
">.	c #F1C733",
",.	c #FEFCF8",
"'.	c #F4C73C",
").	c #F7C502",
"!.	c #FBD004",
"~.	c #FDD408",
"{.	c #FDD90C",
"].	c #FED911",
"^.	c #F3B03F",
"/.	c #EA8669",
"(.	c #FDDD22",
"_.	c #D82FB9",
":.	c #F9CA3A",
"<.	c #F2AD53",
"[.	c #EB8A6F",
"}.	c #FEDE2E",
"|.	c #FDDD2F",
"1.	c #FCD716",
"2.	c #FACE02",
"3.	c #F7CA00",
"4.	c #F1C740",
"5.	c #FEFDFA",
"6.	c #F2C848",
"7.	c #F7C201",
"8.	c #FACD03",
"9.	c #FCD207",
"0.	c #FDD70A",
"a.	c #FED710",
"b.	c #FDD815",
"c.	c #FDD91B",
"d.	c #F9C830",
"e.	c #FEDC2A",
"f.	c #FDDC2C",
"g.	c #FDDD2C",
"h.	c #FDDA1D",
"i.	c #FCD405",
"j.	c #FDD101",
"k.	c #FBCE00",
"l.	c #F7C800",
"m.	c #F1CB56",
"n.	c #FFFEFD",
"o.	c #F5CC54",
"p.	c #F6BF01",
"q.	c #F9C903",
"r.	c #FCD106",
"s.	c #FED409",
"t.	c #FDD40F",
"u.	c #FCD614",
"v.	c #FDD71A",
"w.	c #F19F54",
"x.	c #E15499",
"y.	c #FED824",
"z.	c #FDD618",
"A.	c #FCD40A",
"B.	c #FFD201",
"C.	c #FFD302",
"D.	c #FED001",
"E.	c #FBCC00",
"F.	c #F7C700",
"G.	c #F4D065",
"H.	c #FEFEFD",
"I.	c #F3C958",
"J.	c #F6BC01",
"K.	c #FAC404",
"L.	c #FCCC07",
"M.	c #FED00B",
"N.	c #FED211",
"O.	c #FFD418",
"P.	c #FFD31A",
"Q.	c #E8766E",
"R.	c #E77768",
"S.	c #FDCF00",
"T.	c #FDCF01",
"U.	c #FCCD00",
"V.	c #FACB00",
"W.	c #F8C700",
"X.	c #F4D274",
"Y.	c #FEFEFE",
"Z.	c #F3C85C",
"`.	c #F3B700",
" +	c #FABF04",
".+	c #FAC705",
"++	c #FCC906",
"@+	c #FDC905",
"#+	c #FECA03",
"$+	c #FDCA00",
"%+	c #E0508D",
"&+	c #EF953B",
"*+	c #FDC800",
"=+	c #FDC900",
"-+	c #FCCB00",
";+	c #FBCB01",
">+	c #FCCB01",
",+	c #F8C800",
"'+	c #F5D885",
")+	c #FFFEFF",
"!+	c #F3C562",
"~+	c #F3AF00",
"{+	c #F7B801",
"]+	c #F7BE00",
"^+	c #FAC001",
"/+	c #F9C101",
"(+	c #FAC200",
"_+	c #F3A128",
":+	c #D72BB8",
"<+	c #ED8E3E",
"[+	c #FBC300",
"}+	c #F9C300",
"|+	c #F9C401",
"1+	c #F9C602",
"2+	c #F9C801",
"3+	c #F9CA00",
"4+	c #F9CD00",
"5+	c #F7C900",
"6+	c #F6DA8C",
"7+	c #FEFEFF",
"8+	c #F1C268",
"9+	c #F1A901",
"0+	c #F5AF01",
"a+	c #F4B400",
"b+	c #F6B701",
"c+	c #F6BA01",
"d+	c #F6BC00",
"e+	c #EF9F25",
"f+	c #EF9B2C",
"g+	c #F1A124",
"h+	c #F8BF02",
"i+	c #F7C001",
"j+	c #F6C100",
"k+	c #F8C401",
"l+	c #F9C802",
"m+	c #F8CE00",
"n+	c #F6C800",
"o+	c #F3D88F",
"p+	c #EFBF6B",
"q+	c #EEA200",
"r+	c #EFA800",
"s+	c #F1AC00",
"t+	c #F2AE01",
"u+	c #F2B001",
"v+	c #F3B400",
"w+	c #F2B600",
"x+	c #F4BA00",
"y+	c #F5BC00",
"z+	c #F4BD00",
"A+	c #F5C101",
"B+	c #F5C502",
"C+	c #F6C700",
"D+	c #F8CA01",
"E+	c #F8CE02",
"F+	c #F6C500",
"G+	c #F2D691",
"H+	c #FBFBFC",
"I+	c #E7C48C",
"J+	c #E09D25",
"K+	c #DB9A20",
"L+	c #D79719",
"M+	c #D39515",
"N+	c #CE9111",
"O+	c #CA910E",
"P+	c #CA8F0A",
"Q+	c #C89008",
"R+	c #C89007",
"S+	c #CA9107",
"T+	c #CB950B",
"U+	c #CC980E",
"V+	c #CF9D12",
"W+	c #D3A215",
"X+	c #D8A81A",
"Y+	c #DEAD20",
"Z+	c #E0AB24",
"`+	c #E7D0A4",
" @	c #FCFCFD",
".@	c #FBFBFB",
"+@	c #F3F4F5",
"@@	c #EFEEEE",
"#@	c #EAE8E8",
"$@	c #E6E3E2",
"%@	c #E1DFDE",
"&@	c #DDDBDA",
"*@	c #D2D1D0",
"=@	c #CECDCC",
"-@	c #CCCAC9",
";@	c #CCCBCA",
">@	c #CDCDCC",
",@	c #D4D4D3",
"'@	c #DFDDDD",
")@	c #E3E0E0",
"!@	c #E7E4E4",
"~@	c #EBE9E8",
"{@	c #F0EEEE",
"]@	c #F3F3F4",
"^@	c #FCFCFC",
". . . . . . . . . . . . . . . . . . . . . . . . ",
". . . . . . . . . . . . . . . . . . . . . . . . ",
". . . . . . . . . . . . . . . . . . . . . . . . ",
". . . . . + @ @ # # $ . . . . . . . . . . . . . ",
". . . . % & * = - ; > , . . . . . . . . . . . . ",
". . . . ' ) ! ~ { ] ^ / ( _ : < [ } | 1 2 . . . ",
". . . 3 4 5 6 7 8 9 9 0 a b c d e f g h i j . . ",
". . k l m n o p q r s t u v w x y z A B C D . . ",
". . E F G H I J K L M N O P Q R S S T U V W . . ",
". . X Y Z `  ...+.@.#.$.$.$.$.%.&.*.=.-.;.>.. . ",
". . ,.'.).!.~.{.].^./.(._.:.<.[.}.|.1.2.3.4.. . ",
". . 5.6.7.8.9.0.a.b.c.d._.e.f.g.h.i.j.k.l.m.. . ",
". . n.o.p.q.r.s.t.u.v.w.x.y.z.A.B.C.D.E.F.G.. . ",
". . H.I.J.K.L.M.N.O.P.Q.R.S.T.D.D.D.U.V.W.X.. . ",
". . Y.Z.`. +.+++@+#+$+%+&+*+=+-+;+>+V.V.,+'+. . ",
". . )+!+~+{+]+^+/+(+_+:+<+[+}+|+1+2+3+4+5+6+. . ",
". . 7+8+9+0+a+b+c+d+e+f+g+h+i+j+k+l+;.m+n+o+. . ",
". . 7+p+q+r+s+t+u+v+w+`.x+y+z+A+B+C+D+E+F+G+. . ",
". . H+I+J+K+L+M+N+O+P+Q+R+S+T+U+V+W+X+Y+Z+`+ @. ",
". . .@+@@@#@$@%@&@*@=@-@-@;@>@,@'@)@!@~@{@]@^@. ",
". . . . . . . . . . . . . . . . . . . . . . . . ",
". . . . . . . . . . . . . . . . . . . . . . . . ",
". . . . . . . . . . . . . . . . . . . . . . . . ",
". . . . . . . . . . . . . . . . . . . . . . . . "};
