/* XPM */
static char * git_xpm[] = {
"24 24 120 2",
"  	c None",
". 	c #27B639",
"+ 	c #2AB937",
"@ 	c #33BA45",
"# 	c #36BB44",
"$ 	c #3CBD49",
"% 	c #39BE47",
"& 	c #59C868",
"* 	c #3CBE47",
"= 	c #40BF4C",
"- 	c #40BE4C",
"; 	c #3FBF4C",
"> 	c #42C04D",
", 	c #40BF4D",
"' 	c #60C86B",
") 	c #40BD4A",
"! 	c #44C04F",
"~ 	c #42C052",
"{ 	c #41BF50",
"] 	c #41C04E",
"^ 	c #43C052",
"/ 	c #44C050",
"( 	c #41BF49",
"_ 	c #F47A63",
": 	c #35BA42",
"< 	c #37BD44",
"[ 	c #F04D2F",
"} 	c #F04F32",
"| 	c #2CB539",
"1 	c #2FB839",
"2 	c #F26A51",
"3 	c #F05134",
"4 	c #F05236",
"5 	c #5DD274",
"6 	c #5BD472",
"7 	c #F1593E",
"8 	c #F15336",
"9 	c #F15A3E",
"0 	c #F05033",
"a 	c #F2573B",
"b 	c #E1655D",
"c 	c #D8362A",
"d 	c #D93B33",
"e 	c #DA3B34",
"f 	c #DB3B35",
"g 	c #DA3B35",
"h 	c #D93B34",
"i 	c #D93C33",
"j 	c #D7352C",
"k 	c #D8584E",
"l 	c #F15B3E",
"m 	c #F15538",
"n 	c #DE6765",
"o 	c #DA372E",
"p 	c #DB3D33",
"q 	c #D93F34",
"r 	c #D83F35",
"s 	c #D84035",
"t 	c #D94136",
"u 	c #DA4136",
"v 	c #DA4135",
"w 	c #DB4136",
"x 	c #DD3C2F",
"y 	c #DC5E54",
"z 	c #F4806B",
"A 	c #EF4728",
"B 	c #F15539",
"C 	c #F58571",
"D 	c #F79784",
"E 	c #686767",
"F 	c #525151",
"G 	c #605F5F",
"H 	c #636262",
"I 	c #595858",
"J 	c #F79E8D",
"K 	c #F05235",
"L 	c #F05336",
"M 	c #656464",
"N 	c #666666",
"O 	c #6A6A6A",
"P 	c #5A5A5A",
"Q 	c #6B6B6B",
"R 	c #656565",
"S 	c #646464",
"T 	c #727272",
"U 	c #F1583C",
"V 	c #909B9D",
"W 	c #626161",
"X 	c #6F6F6F",
"Y 	c #585858",
"Z 	c #5C5C5C",
"` 	c #F45538",
" .	c #808B8D",
"..	c #5C5B5B",
"+.	c #595959",
"@.	c #F58671",
"#.	c #F45234",
"$.	c #7D898C",
"%.	c #5A5959",
"&.	c #5E5E5E",
"*.	c #F3735C",
"=.	c #828485",
"-.	c #606060",
";.	c #5B5B5B",
">.	c #F04E30",
",.	c #949291",
"'.	c #626262",
").	c #686868",
"!.	c #F04C2F",
"~.	c #6C6C6C",
"{.	c #5D5D5D",
"].	c #F15B3F",
"^.	c #EF4A2C",
"/.	c #F05034",
"(.	c #707070",
"_.	c #636363",
":.	c #696969",
"<.	c #676767",
"[.	c #F47761",
"}.	c #F05234",
"                                                ",
"                          . +                   ",
"                          @ #                   ",
"                          $ %                   ",
"                & * = - ; = > > ; , % '         ",
"                ' ) ! ~ { = ] ^ / / ( '         ",
"            _             : <                   ",
"          [ }             | 1                   ",
"        2 3 4             5 6                   ",
"        7 3 8                                   ",
"        9 0 a   b c d d e f g h d i j k         ",
"        l 3 m   n o p q r s t u v w x y         ",
"        z A B                                   ",
"          C [                                   ",
"          D [       E E     F G H G I           ",
"        J K L     M N O     P Q R S T           ",
"        U 3 8   V W X       Y       Z           ",
"        m 0 `    ...        +.      +.          ",
"        @.0 #.  $.%.                &.          ",
"        *.0     =.-.                ;.          ",
"        >.3     ,.'.).            O S           ",
"        !.0       ~.R R         '.).{.          ",
"        ].^./.      (._.:.<.N :.R S             ",
"          [.}.          X N ).<.                "};
