/* XPM */
static char * git_file_deleted_xpm[] = {
"24 24 263 2",
"  	c None",
". 	c #DCDCDC",
"+ 	c #D5D5D5",
"@ 	c #D7D7D7",
"# 	c #D2D2D2",
"$ 	c #D3D2D3",
"% 	c #D4D4D5",
"& 	c #D0D0D0",
"* 	c #C9C9C9",
"= 	c #C3C3C3",
"- 	c #B9B9B9",
"; 	c #E8E8E8",
"> 	c #E2E2E2",
", 	c #E0E0E0",
"' 	c #DFDFDF",
") 	c #E1E1E1",
"! 	c #E0DFE0",
"~ 	c #DCDDDC",
"{ 	c #D1D1D1",
"] 	c #BEBEBE",
"^ 	c #AFAFAF",
"/ 	c #DED9DA",
"( 	c #DCDBDC",
"_ 	c #D8D8D8",
": 	c #E3E3E3",
"< 	c #E5E5E5",
"[ 	c #DEDDDE",
"} 	c #DBDBDB",
"| 	c #B5B5B5",
"1 	c #D93E34",
"2 	c #DF9894",
"3 	c #E7E5E5",
"4 	c #F2F0F1",
"5 	c #CECECE",
"6 	c #BABABA",
"7 	c #ECECEC",
"8 	c #D9574F",
"9 	c #E2ACA8",
"0 	c #DEDCDC",
"a 	c #DDDDDD",
"b 	c #D9D9D9",
"c 	c #F0F0F0",
"d 	c #E5E2E2",
"e 	c #CC8884",
"f 	c #DB5A52",
"g 	c #E9B0AD",
"h 	c #F0ECED",
"i 	c #3CBC4D",
"j 	c #2DBA3B",
"k 	c #B2B2B2",
"l 	c #918D8D",
"m 	c #B26F6A",
"n 	c #D3473E",
"o 	c #CC554D",
"p 	c #D95850",
"q 	c #DBA4A0",
"r 	c #DEDEDE",
"s 	c #DADADA",
"t 	c #54C15F",
"u 	c #42BF4F",
"v 	c #D3D3D3",
"w 	c #C7C2C2",
"x 	c #C4817D",
"y 	c #D54940",
"z 	c #CF5750",
"A 	c #BC928F",
"B 	c #E7E4E3",
"C 	c #E2AAA7",
"D 	c #DD5C53",
"E 	c #DD5B53",
"F 	c #B1946E",
"G 	c #42BA47",
"H 	c #40BF4C",
"I 	c #3FBE4C",
"J 	c #42C04D",
"K 	c #44BC4B",
"L 	c #828641",
"M 	c #C84A35",
"N 	c #C45E46",
"O 	c #D9AEAC",
"P 	c #CDCACA",
"Q 	c #919191",
"R 	c #E9E9E9",
"S 	c #E7E4E2",
"T 	c #DDA5A1",
"U 	c #D95148",
"V 	c #D54539",
"W 	c #A37F53",
"X 	c #70BF73",
"Y 	c #73C97E",
"Z 	c #45BF51",
"` 	c #45BC4C",
" .	c #A18E5F",
"..	c #CE4C3B",
"+.	c #C15D42",
"@.	c #ADAB84",
"#.	c #E1E0DF",
"$.	c #E5E5E6",
"%.	c #A1A1A1",
"&.	c #E9E8E8",
"*.	c #EF7A65",
"=.	c #EA6B59",
"-.	c #E0746D",
";.	c #DA483E",
">.	c #E49590",
",.	c #F0EAEB",
"'.	c #4DBA52",
").	c #7F833C",
"!.	c #DB4F46",
"~.	c #DE665F",
"{.	c #EABEBC",
"].	c #E3E3E2",
"^.	c #9E9E9E",
"/.	c #F08B78",
"(.	c #F05134",
"_.	c #EE7A66",
":.	c #EDD0CF",
"<.	c #E0756E",
"[.	c #E28A86",
"}.	c #A08F60",
"|.	c #CD4C3A",
"1.	c #EDEDED",
"2.	c #A4A4A4",
"3.	c #EF7C67",
"4.	c #EA7A65",
"5.	c #D9C8C7",
"6.	c #D89690",
"7.	c #D95B53",
"8.	c #D83E34",
"9.	c #D94138",
"0.	c #D9544E",
"a.	c #D88B87",
"b.	c #D9A7A4",
"c.	c #D8A7A5",
"d.	c #D9BCBA",
"e.	c #E8E7E8",
"f.	c #F1F1F1",
"g.	c #ACACAC",
"h.	c #EF7C66",
"i.	c #F05135",
"j.	c #F28570",
"k.	c #E59A9A",
"l.	c #D93A30",
"m.	c #D93D33",
"n.	c #DB3A2E",
"o.	c #DE766E",
"p.	c #E6E8E8",
"q.	c #EEEEEE",
"r.	c #A9A9A9",
"s.	c #F29E8E",
"t.	c #EF4728",
"u.	c #EA7965",
"v.	c #D9D4D4",
"w.	c #D99490",
"x.	c #D94D44",
"y.	c #D95F57",
"z.	c #D96C64",
"A.	c #D93F36",
"B.	c #D96962",
"C.	c #D9BEBC",
"D.	c #D9D7D7",
"E.	c #E5F4EF",
"F.	c #B2B1B2",
"G.	c #F7917F",
"H.	c #ED715A",
"I.	c #E5A19D",
"J.	c #D35C54",
"K.	c #EBE3E3",
"L.	c #CD7671",
"M.	c #D7453C",
"N.	c #D26760",
"O.	c #C4AAA8",
"P.	c #EFEFEF",
"Q.	c #EEEBEB",
"R.	c #AEA9AA",
"S.	c #F1CBC3",
"T.	c #F0654B",
"U.	c #E15B4B",
"V.	c #C74F48",
"W.	c #855A58",
"X.	c #9B9898",
"Y.	c #5C5757",
"Z.	c #A0514C",
"`.	c #D13F36",
" +	c #B74B44",
".+	c #D9ADAB",
"++	c #D9D5D5",
"@+	c #B3A8AD",
"#+	c #ED7A64",
"$+	c #E54834",
"%+	c #DB4439",
"&+	c #D15C55",
"*+	c #835956",
"=+	c #858282",
"-+	c #5B5B5B",
";+	c #D23F36",
">+	c #DC584F",
",+	c #ECE7E7",
"'+	c #B0B0B0",
")+	c #E7E3E3",
"!+	c #E46254",
"~+	c #DB3F33",
"{+	c #DE4A3E",
"]+	c #AF9090",
"^+	c #5E5B5B",
"/+	c #818181",
"(+	c #D9D3D3",
"_+	c #914D49",
":+	c #E5ADAA",
"<+	c #B2B0B0",
"[+	c #E0928D",
"}+	c #DA4338",
"|+	c #DD4133",
"1+	c #EBAEA8",
"2+	c #ACAEB0",
"3+	c #606061",
"4+	c #F1EFF0",
"5+	c #5C5A5A",
"6+	c #DC5B52",
"7+	c #BF8885",
"8+	c #D9473E",
"9+	c #DF4E40",
"0+	c #E94D34",
"a+	c #D9D6D6",
"b+	c #B1AFAF",
"c+	c #656565",
"d+	c #7A7A7A",
"e+	c #888888",
"f+	c #646464",
"g+	c #D9A19E",
"h+	c #D15048",
"i+	c #DF736C",
"j+	c #EB6753",
"k+	c #EE4A2F",
"l+	c #F0D5D1",
"m+	c #9C9B9C",
"n+	c #686868",
"o+	c #8E8D8E",
"p+	c #CAC9CA",
"q+	c #C8C7C8",
"r+	c #9D9D9D",
"s+	c #666666",
"t+	c #D25149",
"u+	c #EDD2D0",
"v+	c #F1D7D2",
"w+	c #F36A52",
"x+	c #EE6B53",
"y+	c #EBEBEB",
"z+	c #939393",
"A+	c #676767",
"B+	c #828282",
"C+	c #CACACA",
"D+	c #F6F6F6",
"E+	c #F4F4F4",
"F+	c #F3EFEF",
"G+	c #C18985",
"H+	c #BAB8B8",
"I+	c #ADADAD",
"J+	c #B3B3B3",
"K+	c #AEAEAE",
"L+	c #B1B1B1",
"M+	c #ABABAB",
"N+	c #B8B8B8",
"        . + @ # $ % & * = -                     ",
"        ; > , ' ) > ! ~ . { ] ^                 ",
"        / ( + _ : < ' [ } _ = | ]         1     ",
"    1 1 2 3 4 4 4 4 4 4 4 4 5 6 7 6     1 1     ",
"      1 8 9 0 : a < ) , } b + - c d e 1 1       ",
"        f f g h 4 4 4 4 i j 4 k l m n o         ",
"        9 f p q 0 r a s t u v w x y z A         ",
"        B C D E F G H I H J K L M N O P Q       ",
"        R S T U V W X Y Z `  ...+.@.#.$.%.      ",
"        &.R *.=.-.;.>.,.'.).!.~.{.h 4 ].^.      ",
"        R /.(._.:.<.;.[.}.|.~.{.h 4 4 1.2.      ",
"        R 3.(.4.5.6.7.8.9.0.a.b.c.d.e.f.g.      ",
"        R h.i.j.k.l.m.1 1 1 1 1 n.o.p.q.r.      ",
"        R s.t.u.v.w.x.y.z.A.B.C.D.b b E.F.      ",
"        &.R G.H.I.!.J.O K.L.M.N.O.1.P.Q.R.      ",
"        R S.T.U.x.V.W.X.b Y.Z.`. +.+++Q.@+      ",
"        R #+$+%+&+*+=+4 4 -+,.>.;+>+g ,+'+      ",
"        )+!+~+{+]+^+b _ b /+b (+_+8 8 :+<+      ",
"        [+}+|+1+2+3+4 4+4+4 4+4 5+g D 6+7+      ",
"      1 8+9+0+a+b+c+d+b b b b e+f+++g+6+h+      ",
"    1 1 i+j+k+l+4 m+n+o+p+q+r+s+e+4 h :+t+1     ",
"    1 1 u+v+w+x+y+R = z+A+A+B+C+D+c E+F+G+1 1   ",
"        H+I+J+k g.K+L+'+k I+I+I+J+k M+N+    1   ",
"                                                "};
