/* XPM */
static char * git_file_xpm[] = {
"24 24 196 2",
"  	c None",
". 	c #DCDCDC",
"+ 	c #D5D5D5",
"@ 	c #D7D7D7",
"# 	c #D2D2D2",
"$ 	c #D3D2D3",
"% 	c #D4D4D5",
"& 	c #D0D0D0",
"* 	c #C9C9C9",
"= 	c #C3C3C3",
"- 	c #B9B9B9",
"; 	c #E8E8E8",
"> 	c #E2E2E2",
", 	c #E0E0E0",
"' 	c #DFDFDF",
") 	c #E1E1E1",
"! 	c #E0DFE0",
"~ 	c #DCDDDC",
"{ 	c #D1D1D1",
"] 	c #BEBEBE",
"^ 	c #AFAFAF",
"/ 	c #E2E1E2",
"( 	c #DCDBDC",
"_ 	c #D8D8D8",
": 	c #E3E3E3",
"< 	c #E5E5E5",
"[ 	c #DEDDDE",
"} 	c #DBDBDB",
"| 	c #B5B5B5",
"1 	c #E7E7E7",
"2 	c #E9E9E9",
"3 	c #F2F0F1",
"4 	c #CECECE",
"5 	c #BABABA",
"6 	c #ECECEC",
"7 	c #DDDDDD",
"8 	c #D9D9D9",
"9 	c #F0F0F0",
"0 	c #3CBC4D",
"a 	c #2DBA3B",
"b 	c #B2B2B2",
"c 	c #909090",
"d 	c #959595",
"e 	c #A0A0A0",
"f 	c #A4A4A4",
"g 	c #DEDEDE",
"h 	c #DADADA",
"i 	c #54C15F",
"j 	c #42BF4F",
"k 	c #D3D3D3",
"l 	c #C7C7C7",
"m 	c #B6B6B6",
"n 	c #B4B4B4",
"o 	c #AFB0AF",
"p 	c #93D89D",
"q 	c #3EBF49",
"r 	c #40BF4C",
"s 	c #3FBE4C",
"t 	c #42C04D",
"u 	c #41C04D",
"v 	c #40BF4D",
"w 	c #39BE47",
"x 	c #80CD88",
"y 	c #D9DAD9",
"z 	c #CDCDCD",
"A 	c #919191",
"B 	c #E9E8E8",
"C 	c #DEC1BE",
"D 	c #9DCCA3",
"E 	c #6EC575",
"F 	c #6EC577",
"G 	c #73C97E",
"H 	c #45BF51",
"I 	c #42C04E",
"J 	c #78CD82",
"K 	c #75CB7E",
"L 	c #71C976",
"M 	c #9ED5A4",
"N 	c #E5E5E6",
"O 	c #A1A1A1",
"P 	c #F17C67",
"Q 	c #F27E69",
"R 	c #4ABD54",
"S 	c #3BBB44",
"T 	c #E3E3E2",
"U 	c #9E9E9E",
"V 	c #F08B78",
"W 	c #F05134",
"X 	c #F07C68",
"Y 	c #74D687",
"Z 	c #64D679",
"` 	c #EDEDED",
" .	c #EF7C67",
"..	c #EA7A65",
"+.	c #D9CAC9",
"@.	c #D8A9A5",
"#.	c #D9A9A7",
"$.	c #D8A9A7",
"%.	c #E1AAAE",
"&.	c #E1AAAF",
"*.	c #D9AAA7",
"=.	c #D8A7A5",
"-.	c #D9BCBA",
";.	c #E8E7E8",
">.	c #F1F1F1",
",.	c #ACACAC",
"'.	c #EF7C66",
").	c #F05135",
"!.	c #F28570",
"~.	c #E59A9A",
"{.	c #DA3A30",
"].	c #DA3D33",
"^.	c #D93E34",
"/.	c #D93E35",
"(.	c #D93F36",
"_.	c #DA3F35",
":.	c #DA4035",
"<.	c #DB3A2E",
"[.	c #DE766E",
"}.	c #E6E8E8",
"|.	c #EEEEEE",
"1.	c #A9A9A9",
"2.	c #F29E8E",
"3.	c #EF4728",
"4.	c #EA7965",
"5.	c #E5F4EF",
"6.	c #B2B1B2",
"7.	c #F7917F",
"8.	c #EF735C",
"9.	c #EFEFEF",
"0.	c #C4C4C4",
"a.	c #C1C1C1",
"b.	c #EEEBEB",
"c.	c #AEA9AA",
"d.	c #F1CBC3",
"e.	c #F2674D",
"f.	c #E9735E",
"g.	c #8E8D8D",
"h.	c #676666",
"i.	c #9B9B9B",
"j.	c #595959",
"k.	c #686767",
"l.	c #636262",
"m.	c #6C6B6B",
"n.	c #B3A8AD",
"o.	c #F5806B",
"p.	c #B8C6C9",
"q.	c #646464",
"r.	c #848484",
"s.	c #5B5B5B",
"t.	c #5C5C5C",
"u.	c #B0B0B0",
"v.	c #F18572",
"w.	c #F05033",
"x.	c #F17761",
"y.	c #A0B0B4",
"z.	c #5D5D5D",
"A.	c #818181",
"B.	c #F29B8B",
"C.	c #F3DAD5",
"D.	c #ACB1B3",
"E.	c #606061",
"F.	c #F1EFF0",
"G.	c #EF5235",
"H.	c #B1AFAF",
"I.	c #656565",
"J.	c #7A7A7A",
"K.	c #888888",
"L.	c #AEAEAE",
"M.	c #EF715B",
"N.	c #F04C2F",
"O.	c #F0D5D1",
"P.	c #9C9B9C",
"Q.	c #686868",
"R.	c #8E8D8E",
"S.	c #CAC9CA",
"T.	c #C8C7C8",
"U.	c #9D9D9D",
"V.	c #666666",
"W.	c #B3B3B3",
"X.	c #F2F2F2",
"Y.	c #F3D9D4",
"Z.	c #F36A52",
"`.	c #EE6B53",
" +	c #EBEBEB",
".+	c #939393",
"++	c #676767",
"@+	c #828282",
"#+	c #CACACA",
"$+	c #F6F6F6",
"%+	c #F4F4F4",
"&+	c #F5F5F5",
"*+	c #ADADAD",
"=+	c #B1B1B1",
"-+	c #ABABAB",
";+	c #B8B8B8",
"        . + @ # $ % & * = -                     ",
"        ; > , ' ) > ! ~ . { ] ^                 ",
"        / ( + _ : < ' [ } _ = | ]               ",
"        1 2 3 3 3 3 3 3 3 3 4 5 6 5             ",
"        , 2 , : 7 < ) , } 8 + - 9 1 =           ",
"        2 2 3 3 3 3 3 3 0 a 3 b c d e f         ",
"        2 2 } 7 , g 7 h i j k l m n o b         ",
"        2 2 3 3 p q r s r t u v w x y z A       ",
"        2 B , C D E F G H I J K L M : N O       ",
"        B 2 P Q 3 3 3 3 R S 3 3 3 3 3 T U       ",
"        2 V W X 3 3 3 3 Y Z 3 3 3 3 3 ` f       ",
"        2  .W ..+.@.#.$.%.&.$.*.=.-.;.>.,.      ",
"        2 '.).!.~.{.].^./.(._.:.<.[.}.|.1.      ",
"        2 2.3.4.8 8 8 8 8 8 8 8 8 8 8 5.6.      ",
"        B 2 7.8.9.9.= h 9.] 0.0.a.9.9.b.c.      ",
"        2 d.e.f.8 g.h.i.8 j.k.l.m.8 8 b.n.      ",
"        2 '.W o.p.q.r.3 3 s.3 3 t.3 3 b.u.      ",
"        2 v.w.x.y.z.8 _ 8 A.8 8 s.8 8 b.b       ",
"        2 B.w.C.D.E.3 F.F.3 F.3 t.3 3 b.b       ",
"        2 8.G.8 H.I.J.8 8 8 8 K.q.8 8 b.L.      ",
"        b.M.N.O.3 P.Q.R.S.T.U.V.K.3 3 b.W.      ",
"        X.Y.Z.`. +2 = .+++++@+#+$+9 %+&+n       ",
"        5 *+W.b ,.L.=+u.b *+*+*+W.b -+;+        ",
"                                                "};
