/* XPM */
static char * hfile_xpm[] = {
"24 24 228 2",
"  	c None",
". 	c #DCDCDC",
"+ 	c #D5D5D5",
"@ 	c #D7D7D7",
"# 	c #D2D2D2",
"$ 	c #D3D2D3",
"% 	c #D4D4D5",
"& 	c #D0D0D0",
"* 	c #C9C9C9",
"= 	c #C3C3C3",
"- 	c #BABABA",
"; 	c #E8E8E8",
"> 	c #E2E2E2",
", 	c #E0E0E0",
"' 	c #DFDFDF",
") 	c #E1E1E1",
"! 	c #E0DFE0",
"~ 	c #DCDDDC",
"{ 	c #D1D1D1",
"] 	c #BEBEBE",
"^ 	c #AFAFAF",
"/ 	c #E2E1E2",
"( 	c #DCDBDC",
"_ 	c #D8D8D8",
": 	c #E3E3E3",
"< 	c #E5E5E5",
"[ 	c #DEDDDE",
"} 	c #DBDBDB",
"| 	c #B5B5B5",
"1 	c #BFBFBF",
"2 	c #E7E7E7",
"3 	c #E9E9E9",
"4 	c #D9DAD9",
"5 	c #CFCFCF",
"6 	c #DDDDDD",
"7 	c #CECECE",
"8 	c #D3D3D3",
"9 	c #D4D4D4",
"0 	c #ECECEC",
"a 	c #E1E0E1",
"b 	c #D9D9D9",
"c 	c #B9B9B9",
"d 	c #F0F0F0",
"e 	c #C4C4C4",
"f 	c #D7D4D5",
"g 	c #D8D5D6",
"h 	c #DDDDDE",
"i 	c #DADADA",
"j 	c #C7C7C7",
"k 	c #B2B2B2",
"l 	c #909090",
"m 	c #959595",
"n 	c #A0A0A0",
"o 	c #A5A5A5",
"p 	c #E4E4E4",
"q 	c #DEDEDE",
"r 	c #E0DFDF",
"s 	c #E0D0D2",
"t 	c #DFB0B7",
"u 	c #DBC5C6",
"v 	c #D5D5D6",
"w 	c #B6B6B6",
"x 	c #B4B4B4",
"y 	c #B0B0B0",
"z 	c #EDEDED",
"A 	c #D6D6D6",
"B 	c #DBD2D3",
"C 	c #E98796",
"D 	c #F20028",
"E 	c #E9A9AF",
"F 	c #F0EEEF",
"G 	c #EAE9E9",
"H 	c #D8D7D8",
"I 	c #CDCDCD",
"J 	c #929292",
"K 	c #EBEBEB",
"L 	c #CCC8C9",
"M 	c #E3CED1",
"N 	c #F30C36",
"O 	c #E8AAB1",
"P 	c #E8E7E7",
"Q 	c #DDDCDC",
"R 	c #EAEAEA",
"S 	c #E5E5E6",
"T 	c #A1A1A1",
"U 	c #D9D5D6",
"V 	c #DFCCD0",
"W 	c #EF0F36",
"X 	c #DFA3A9",
"Y 	c #D9DBDB",
"Z 	c #D9DEDD",
"` 	c #E5EBEA",
" .	c #E5E7E7",
"..	c #E6E5E5",
"+.	c #E3E3E2",
"@.	c #9E9E9E",
"#.	c #EFEFEF",
"$.	c #E4DFE0",
"%.	c #EEDBDE",
"&.	c #F30C37",
"*.	c #E5B0B5",
"=.	c #EDCFD4",
"-.	c #EA778D",
";.	c #ED899A",
">.	c #EDD5D9",
",.	c #ECF0EF",
"'.	c #E7E6E7",
").	c #A4A4A4",
"!.	c #F4F4F4",
"~.	c #F5F5F5",
"{.	c #DDD9D9",
"].	c #ECD9DD",
"^.	c #F2133B",
"/.	c #E27783",
"(.	c #ED5E77",
"_.	c #E18A97",
":.	c #EC2A4E",
"<.	c #EC3C59",
"[.	c #E7E5E5",
"}.	c #E9EAEA",
"|.	c #F1F1F1",
"1.	c #ACACAC",
"2.	c #EEEEEE",
"3.	c #F2F2F2",
"4.	c #E1DDDD",
"5.	c #EAD8DB",
"6.	c #F6133E",
"7.	c #EB7186",
"8.	c #E7F4F2",
"9.	c #E6EEED",
"0.	c #E6A8B0",
"a.	c #F51540",
"b.	c #E7B6BE",
"c.	c #E6E6E6",
"d.	c #A9A9A9",
"e.	c #F3F3F3",
"f.	c #D1CCCD",
"g.	c #DAC7CA",
"h.	c #F50F3B",
"i.	c #E49AA7",
"j.	c #D6D3D4",
"k.	c #E1BCC2",
"l.	c #F50D39",
"m.	c #E1ADB4",
"n.	c #DFE4E3",
"o.	c #E7E2E3",
"p.	c #E1CFD2",
"q.	c #F40C38",
"r.	c #EA96A7",
"s.	c #E6E8E7",
"t.	c #ECC5CB",
"u.	c #F10934",
"v.	c #EBB4BC",
"w.	c #F0F5F4",
"x.	c #AEAEAE",
"y.	c #EBDADC",
"z.	c #F40D39",
"A.	c #F19FAF",
"B.	c #F0F2F2",
"C.	c #EDC7CF",
"D.	c #F60C38",
"E.	c #F0B9C0",
"F.	c #F1F6F6",
"G.	c #F4F3F4",
"H.	c #ECF1F0",
"I.	c #ECEAE9",
"J.	c #EAE8E8",
"K.	c #F1DDE1",
"L.	c #F00C36",
"M.	c #F2A0B0",
"N.	c #EFEEEE",
"O.	c #F0F1F1",
"P.	c #E9BFC5",
"Q.	c #F40C37",
"R.	c #ECB5BC",
"S.	c #F3F7F7",
"T.	c #F2F0F0",
"U.	c #EBF0EF",
"V.	c #EE798D",
"W.	c #F13253",
"X.	c #E6D2D4",
"Y.	c #F1E3E5",
"Z.	c #EF0C36",
"`.	c #F2A1AE",
" +	c #EFF4F4",
".+	c #F5F9F9",
"++	c #F0C8CD",
"@+	c #F30F3B",
"#+	c #ECB5BB",
"$+	c #F4FBFA",
"%+	c #EFF3F2",
"&+	c #F17E93",
"*+	c #F63459",
"=+	c #E3C8CC",
"-+	c #EC7F90",
";+	c #F23B5D",
">+	c #F05A71",
",+	c #EBC8CC",
"'+	c #EDE0E2",
")+	c #EB6376",
"!+	c #F63C5F",
"~+	c #EE667E",
"{+	c #EFE2E3",
"]+	c #F1F0F0",
"^+	c #EFF0F0",
"/+	c #F2F1F1",
"(+	c #DEE4E3",
"_+	c #DCDBDA",
":+	c #D7D8D8",
"<+	c #DEE1E2",
"[+	c #E1ECEB",
"}+	c #DAE3E2",
"|+	c #E5E2E3",
"1+	c #E7EEEE",
"2+	c #EAF6F4",
"3+	c #EEF4F3",
"4+	c #ECEDED",
"5+	c #DBDCDC",
"6+	c #D5D7D6",
"7+	c #D3D4D4",
"8+	c #D8D9D8",
"9+	c #F9F9F9",
"0+	c #B3B3B3",
"a+	c #F6F6F6",
"b+	c #ADADAD",
"c+	c #B1B1B1",
"d+	c #ABABAB",
"e+	c #B8B8B8",
"        . + @ # $ % & * = -                     ",
"        ; > , ' ) > ! ~ . { ] ^                 ",
"        / ( + _ : < ' [ } _ = | 1               ",
"        2 3 . 4 5 6 7 8 9 { 7 - 0 -             ",
"        , 2 , : 6 < a , } b + c d 2 e           ",
"        0 : } @ 6 f g h i 6 j k l m n o         ",
"        ; p } q r s t u v 9 8 j w x y k         ",
"        ; z A b B C D E F G 2 . _ H 4 I J       ",
"        K 0 , A L M N O P Q R ; : > : S T       ",
"        R K d z U V W X Y Z `  ...p q +.@.      ",
"        z 0 #.> $.%.&.*.=.-.;.>.,.K '.z ).      ",
"        !.d ~.) {.].^./.(._.:.<.[.}.; |.1.      ",
"        2.3.|.d 4.5.6.7.8.9.0.a.b.,.c.2.d.      ",
"        3.e.2.6 f.g.h.i.j.b k.l.m.n.) : k       ",
"        d z d , o.p.q.r.q s.t.u.v.w.3 2.x.      ",
"        e.|.' }.$.y.z.A.|.B.C.D.E.F.e.e.x       ",
"        2.G.H.I.J.K.L.M.N.O.P.Q.R.S.#.!.^       ",
"        T.U.V.W.X.Y.Z.`. +.+++@+#+$+|.3.k       ",
"        T.%+&+*+=+-+;+>+,+'+)+!+~+{+]+~.k       ",
"        ^+/+(+_+:+<+[+}+|+N.1+2+3+G 4+!.x.      ",
"        ~.3.5+6+7+8+q b R < q . R 3 z 9+0+      ",
"        3.!.#.c.K 3 3 d |.!.a+~.a+|.!.~.x       ",
"        - b+0+k 1.x.c+y k b+b+b+0+k d+e+        ",
"                                                "};
