/* XPM */
static char * package_xpm[] = {
"24 24 365 2",
"  	c None",
". 	c #C3AD99",
"+ 	c #B99E88",
"@ 	c #B99C87",
"# 	c #C4B09F",
"$ 	c #BBA48F",
"% 	c #B79A81",
"& 	c #B99678",
"* 	c #BB9574",
"= 	c #BC987A",
"- 	c #C1A792",
"; 	c #CFBDAB",
"> 	c #C1A994",
", 	c #B89B85",
"' 	c #B3937A",
") 	c #B79478",
"! 	c #BB9577",
"~ 	c #BF9674",
"{ 	c #C29774",
"] 	c #C29876",
"^ 	c #BF997F",
"/ 	c #C7AA9B",
"( 	c #CFC1B0",
"_ 	c #BFAD9A",
": 	c #B9A089",
"< 	c #B9997E",
"[ 	c #B89474",
"} 	c #BB9372",
"| 	c #BB9272",
"1 	c #B89070",
"2 	c #BB9475",
"3 	c #BD9474",
"4 	c #C19775",
"5 	c #C69C7B",
"6 	c #C49B7D",
"7 	c #BB9880",
"8 	c #C1A894",
"9 	c #B5A99A",
"0 	c #B29980",
"a 	c #BC9979",
"b 	c #C19774",
"c 	c #C1936B",
"d 	c #BF8F68",
"e 	c #BE8E6A",
"f 	c #BA906E",
"g 	c #B28D6F",
"h 	c #B59175",
"i 	c #C09B7D",
"j 	c #BE9A7C",
"k 	c #BA9579",
"l 	c #BC9677",
"m 	c #BE9777",
"n 	c #C1977E",
"o 	c #CAA694",
"p 	c #B2A499",
"q 	c #A1836D",
"r 	c #C1997A",
"s 	c #C29672",
"t 	c #C1956F",
"u 	c #BD9471",
"v 	c #C0997A",
"w 	c #BB977A",
"x 	c #B49175",
"y 	c #BA9678",
"z 	c #BE9778",
"A 	c #C09777",
"B 	c #C29878",
"C 	c #C5967C",
"D 	c #C19783",
"E 	c #D1B3A1",
"F 	c #8E7361",
"G 	c #B58F75",
"H 	c #C39776",
"I 	c #C39B79",
"J 	c #C09C7D",
"K 	c #C19B7E",
"L 	c #BD977A",
"M 	c #B89375",
"N 	c #B69174",
"O 	c #B89477",
"P 	c #BA9475",
"Q 	c #BE9473",
"R 	c #C5987C",
"S 	c #C5997F",
"T 	c #C5A48A",
"U 	c #D2BDA8",
"V 	c #8E725F",
"W 	c #9F7B61",
"X 	c #C39D7E",
"Y 	c #BC9674",
"Z 	c #BB9674",
"` 	c #C19A7B",
" .	c #BF9879",
"..	c #BB9474",
"+.	c #BE9575",
"@.	c #C29977",
"#.	c #C49C78",
"$.	c #C89F7C",
"%.	c #CEA585",
"&.	c #CDAA89",
"*.	c #C1A991",
"=.	c #8F7460",
"-.	c #93735B",
";.	c #AA896F",
">.	c #BD9879",
",.	c #C09A78",
"'.	c #C2997A",
").	c #C29979",
"!.	c #C29A7A",
"~.	c #C29A79",
"{.	c #BE9676",
"].	c #C39C7D",
"^.	c #CBA384",
"/.	c #D1AA87",
"(.	c #CFA984",
"_.	c #C9A17D",
":.	c #C49D7A",
"<.	c #C1A58C",
"[.	c #917562",
"}.	c #8F705A",
"|.	c #967860",
"1.	c #B18E6F",
"2.	c #C59A79",
"3.	c #C59C7A",
"4.	c #C79D7B",
"5.	c #CA9F7D",
"6.	c #CDA383",
"7.	c #D1AA8C",
"8.	c #CEA98B",
"9.	c #C6A082",
"0.	c #C4A07E",
"a.	c #C49F7A",
"b.	c #C59A77",
"c.	c #D0B29C",
"d.	c #907460",
"e.	c #8D7059",
"f.	c #927760",
"g.	c #98775A",
"h.	c #BF9774",
"i.	c #C79B79",
"j.	c #CA9F7C",
"k.	c #D0A482",
"l.	c #D3A886",
"m.	c #D1A683",
"n.	c #C8A07E",
"o.	c #C39D7F",
"p.	c #C39E83",
"q.	c #C59F83",
"r.	c #C5A182",
"s.	c #C49E7D",
"t.	c #C59877",
"u.	c #D4B8A3",
"v.	c #89725D",
"w.	c #8B6E56",
"x.	c #907760",
"y.	c #8D7054",
"z.	c #AB8463",
"A.	c #D2A484",
"B.	c #D3A685",
"C.	c #CFA281",
"D.	c #C89B7A",
"E.	c #C59978",
"F.	c #C39C7B",
"G.	c #C29D7E",
"H.	c #C59E80",
"I.	c #C89F81",
"J.	c #C89F82",
"K.	c #C69D7E",
"L.	c #C3997A",
"M.	c #CEB39F",
"N.	c #E0DCD9",
"O.	c #DBDAD9",
"P.	c #917E6B",
"Q.	c #8A6C53",
"R.	c #957863",
"S.	c #8F6D57",
"T.	c #9D7457",
"U.	c #C69978",
"V.	c #BD906E",
"W.	c #A87E58",
"X.	c #B78D69",
"Y.	c #C19D7D",
"Z.	c #C49D80",
"`.	c #C79E81",
" +	c #C59C7E",
".+	c #C2997B",
"++	c #C1977A",
"@+	c #CDB3A0",
"#+	c #DFDDDB",
"$+	c #E3E4E4",
"%+	c #D6D5D4",
"&+	c #A59485",
"*+	c #876C55",
"=+	c #947561",
"-+	c #916C59",
";+	c #9D745B",
">+	c #BF9170",
",+	c #C29573",
"'+	c #9D7753",
")+	c #684C25",
"!+	c #916D47",
"~+	c #C39C7A",
"{+	c #C19C7D",
"]+	c #C39B7E",
"^+	c #C2997C",
"/+	c #C19879",
"(+	c #C19779",
"_+	c #C09879",
":+	c #CBB29F",
"<+	c #DBD9D8",
"[+	c #E1E2E2",
"}+	c #D1D1D0",
"|+	c #C1B7AF",
"1+	c #8B7666",
"2+	c #937560",
"3+	c #8F6E58",
"4+	c #9A765B",
"5+	c #C09270",
"6+	c #BB8E6C",
"7+	c #856239",
"8+	c #61471C",
"9+	c #98754D",
"0+	c #C49D7B",
"a+	c #BF9B7B",
"b+	c #C19B7D",
"c+	c #C1987A",
"d+	c #C09779",
"e+	c #C9B09C",
"f+	c #D9D7D5",
"g+	c #E0E5E7",
"h+	c #DEDEDE",
"i+	c #CECECE",
"j+	c #C6C3C3",
"k+	c #AD9E97",
"l+	c #8D755F",
"m+	c #8A7052",
"n+	c #977757",
"o+	c #946D45",
"p+	c #67481A",
"q+	c #9F7A4F",
"r+	c #C19B77",
"s+	c #BD997A",
"t+	c #C19A7D",
"u+	c #C39A7C",
"v+	c #C09678",
"w+	c #C8AE9B",
"x+	c #DAD8D7",
"y+	c #DFDFDF",
"z+	c #D1D1D1",
"A+	c #C7C8CA",
"B+	c #C1BCBA",
"C+	c #9B8A7D",
"D+	c #876E54",
"E+	c #967656",
"F+	c #BC926F",
"G+	c #C49672",
"H+	c #AD825B",
"I+	c #A17A52",
"J+	c #B9926B",
"K+	c #BB956F",
"L+	c #BD9878",
"M+	c #C09A7A",
"N+	c #C49979",
"O+	c #BE9C82",
"P+	c #BB9F89",
"Q+	c #CABBB0",
"R+	c #DEDDDD",
"S+	c #E1E1E1",
"T+	c #D6D7D7",
"U+	c #CACBCC",
"V+	c #C5C4C4",
"W+	c #B5ACA4",
"X+	c #89725F",
"Y+	c #95755B",
"Z+	c #B59174",
"`+	c #B2885D",
" @	c #A67D4F",
".@	c #B68A63",
"+@	c #BE9274",
"@@	c #BE957B",
"#@	c #BF9A81",
"$@	c #BD9D85",
"%@	c #BAA28F",
"&@	c #C0B0A5",
"*@	c #C7C0BC",
"=@	c #D2D1D0",
"-@	c #DFDFE0",
";@	c #E4E4E4",
">@	c #DDDDDD",
",@	c #D0D0D1",
"'@	c #C8C8C8",
")@	c #C5BFBA",
"!@	c #A59285",
"~@	c #8F735E",
"{@	c #B28F76",
"]@	c #C09776",
"^@	c #B58C62",
"/@	c #B78F6B",
"(@	c #C3977C",
"_@	c #BE9680",
":@	c #BA9988",
"<@	c #BEA599",
"[@	c #C1B3AB",
"}@	c #C4C0BC",
"|@	c #C5C6C8",
"1@	c #C7CED4",
"2@	c #D8DBDD",
"3@	c #E3E2E3",
"4@	c #D9D8D7",
"5@	c #CDCCCC",
"6@	c #C8C5C4",
"7@	c #C1B6AD",
"8@	c #987E6D",
"9@	c #B4896D",
"0@	c #C49876",
"a@	c #C29873",
"b@	c #BB9B7B",
"c@	c #B7A08A",
"d@	c #BAAB9A",
"e@	c #BEB7AD",
"f@	c #C4C1BB",
"g@	c #C8C5C1",
"h@	c #CAC7C5",
"i@	c #CECFD0",
"j@	c #D8DADD",
"k@	c #E1E2E4",
"l@	c #E4E2E0",
"m@	c #D8D8D7",
"n@	c #CECECF",
"o@	c #C8C4C0",
"p@	c #B7A598",
"q@	c #AA886F",
"r@	c #BFA188",
"s@	c #C1AF9C",
"t@	c #C2BDB2",
"u@	c #C4C5BD",
"v@	c #C3C9C4",
"w@	c #C5CCC9",
"x@	c #CDCECC",
"y@	c #D7D4D2",
"z@	c #DEDCDA",
"A@	c #E5E3E1",
"B@	c #EBE7E4",
"C@	c #E3E2E1",
"D@	c #D9DBDE",
"E@	c #D3D2D2",
"F@	c #CAC3BB",
"G@	c #B7AB9C",
"H@	c #C0B3A7",
"I@	c #C9C0BD",
"J@	c #CAC8C9",
"K@	c #CCCBCC",
"L@	c #D0D1D2",
"M@	c #D5D7D9",
"N@	c #D9DDE1",
"O@	c #E0E3E7",
"P@	c #E4E6E8",
"Q@	c #E0E0DE",
"R@	c #DCDBDA",
"S@	c #D6D5D5",
"T@	c #D4D3D4",
"U@	c #D6D6D6",
"V@	c #D8D8D8",
"W@	c #DBDBDC",
"X@	c #E2E2E2",
"                                                ",
"                        . + @                   ",
"                  # $ % & * = -                 ",
"            ; > , ' ) ! ~ { ] ^ /               ",
"      ( _ : < [ } | 1 2 3 4 5 6 7 8             ",
"    9 0 a b c d e f g h i j k l m n o           ",
"    p q r s t u 3 v w x h y z A B C D E         ",
"      F G H I J K L M N O P Q b B R S T U       ",
"      V W X Y Z ` `  .l P ..+.@.#.$.%.&.*.      ",
"      =.-.;.>.,.'.).!.~.A {.].^./.(._.:.<.      ",
"      [.}.|.1.@.2.3.5 4.5.6.7.8.9.0.a.b.c.      ",
"      d.e.f.g.h.i.j.k.l.m.n.o.p.q.r.s.t.u.      ",
"      v.w.x.y.z.A.B.C.D.E.F.G.H.I.J.K.L.M.N.    ",
"    O.P.Q.R.S.T.t.U.V.W.X.s.Y.Z.`. +.+++@+#+    ",
"  $+%+&+*+=+-+;+>+,+'+)+!+~+{+]+^+/+(+_+:+<+    ",
"  [+}+|+1+2+3+4+5+6+7+8+9+0+a+b+^+c+'.d+e+f+g+  ",
"  h+i+j+k+l+m+n+>+,+o+p+q+r+s+t+u+u+u+v+w+x+    ",
"  y+z+A+B+C+D+E+F+G+H+I+J+K+L+M+N+u+O+P+Q+R+    ",
"  S+T+U+V+W+X+Y+Z+4 `+ @.@+@@@#@$@%@&@*@=@-@    ",
"  ;@>@,@'@)@!@~@{@]@^@/@(@_@:@<@[@}@|@1@2@3@    ",
"    S+4@5@6@7@8@9@0@a@b@c@d@e@f@g@h@i@j@k@      ",
"      l@m@n@o@p@q@O+r@s@t@u@v@w@x@y@z@A@        ",
"      B@C@D@E@F@G@H@I@J@J@K@L@M@N@O@P@          ",
"            S+Q@R@S@T@U@V@W@y+X@                "};
