/* XPM */
static char * makefile_xpm[] = {
"24 24 182 2",
"  	c None",
". 	c #F0F0F1",
"+ 	c #E9E9E9",
"@ 	c #C3C3C3",
"# 	c #B9B9B9",
"$ 	c #F1F1F1",
"% 	c #BEBEBE",
"& 	c #AFAFAF",
"* 	c #EFEFF0",
"= 	c #E4E4EE",
"- 	c #E5E5EF",
"; 	c #DCDCED",
"> 	c #E2E2EE",
", 	c #E4E4EF",
"' 	c #E7E7EF",
") 	c #E3E3EE",
"! 	c #B5B5B5",
"~ 	c #F2F2F1",
"{ 	c #E8E8EF",
"] 	c #CBCBEA",
"^ 	c #C5C5E9",
"/ 	c #BABAE5",
"( 	c #D3D3EC",
"_ 	c #C4C4E7",
": 	c #C0C0E6",
"< 	c #D4D4EB",
"[ 	c #ECECF0",
"} 	c #EDEDF0",
"| 	c #BABABA",
"1 	c #ECECEC",
"2 	c #E6E6EF",
"3 	c #CDCDE9",
"4 	c #C7C7E9",
"5 	c #BDBDE6",
"6 	c #C8C8E9",
"7 	c #C9C9E8",
"8 	c #CCCCE9",
"9 	c #DDDDED",
"0 	c #F0F0F0",
"a 	c #E7E7E7",
"b 	c #CACAE9",
"c 	c #CECEEA",
"d 	c #CECEE9",
"e 	c #D4D4EA",
"f 	c #D6D6EB",
"g 	c #D3D3EB",
"h 	c #E1E1EE",
"i 	c #C9C9C9",
"j 	c #B2B2B2",
"k 	c #909090",
"l 	c #959595",
"m 	c #A0A0A0",
"n 	c #A4A4A4",
"o 	c #DEDEED",
"p 	c #CBCBE9",
"q 	c #D5D5EC",
"r 	c #D9D9EC",
"s 	c #D6D6EC",
"t 	c #D2D2EB",
"u 	c #B6B6B6",
"v 	c #B4B4B4",
"w 	c #B0B0B0",
"x 	c #D9D9EB",
"y 	c #D1D1EB",
"z 	c #CDCDEA",
"A 	c #DEDEEE",
"B 	c #DFDFEE",
"C 	c #DBDBED",
"D 	c #919191",
"E 	c #EEEEF1",
"F 	c #EDEDF1",
"G 	c #E9E9EF",
"H 	c #ECECF1",
"I 	c #F5F5F2",
"J 	c #F4F4F1",
"K 	c #F3F3F1",
"L 	c #A1A1A1",
"M 	c #D2D2EA",
"N 	c #CFCFEA",
"O 	c #D8D8EC",
"P 	c #D7D7EB",
"Q 	c #9E9E9E",
"R 	c #E1E1ED",
"S 	c #F2EDED",
"T 	c #F0E2E6",
"U 	c #E9E9F0",
"V 	c #F0EFF0",
"W 	c #F0A9B5",
"X 	c #F15D77",
"Y 	c #ACACAC",
"Z 	c #D48BAE",
"` 	c #E3B2C6",
" .	c #E78BA2",
"..	c #E5C7D6",
"+.	c #E68CA4",
"@.	c #E2C7D7",
"#.	c #E49EB4",
"$.	c #E98099",
"%.	c #E8A7BA",
"&.	c #EF6881",
"*.	c #F0798E",
"=.	c #F0CDD3",
"-.	c #C37683",
";.	c #EEEEF0",
">.	c #F03051",
",.	c #EE768C",
"'.	c #EF4665",
").	c #EF4866",
"!.	c #F0546F",
"~.	c #F15470",
"{.	c #E8E8F0",
"].	c #EE758C",
"^.	c #EF8296",
"/.	c #F22044",
"(.	c #ECAABA",
"_.	c #F04D6A",
":.	c #F091A2",
"<.	c #F05A74",
"[.	c #B8A2A7",
"}.	c #DED5E4",
"|.	c #F02F51",
"1.	c #B8B2DF",
"2.	c #E04B72",
"3.	c #D084AB",
"4.	c #DC587F",
"5.	c #E56686",
"6.	c #DE92AE",
"7.	c #E75374",
"8.	c #E37694",
"9.	c #F12044",
"0.	c #DE9CB5",
"a.	c #EE3E5F",
"b.	c #F1264A",
"c.	c #F0ACB8",
"d.	c #AEA9AA",
"e.	c #F17489",
"f.	c #F09BAB",
"g.	c #F0B3BE",
"h.	c #EF4867",
"i.	c #F8F8F2",
"j.	c #F23958",
"k.	c #F4C6CA",
"l.	c #F24461",
"m.	c #F29CA9",
"n.	c #F2687F",
"o.	c #F24E69",
"p.	c #F16C82",
"q.	c #F0D4D9",
"r.	c #F14B67",
"s.	c #F093A3",
"t.	c #F14C68",
"u.	c #B5A2A8",
"v.	c #F1D1D7",
"w.	c #ECD8DF",
"x.	c #D8BED6",
"y.	c #D8B2CC",
"z.	c #E0A9C0",
"A.	c #D6CFE6",
"B.	c #E3AFC4",
"C.	c #D9C7DE",
"D.	c #DFD9E7",
"E.	c #E0ABC2",
"F.	c #E2C3D4",
"G.	c #DEAFC6",
"H.	c #DED7E7",
"I.	c #E6BDCC",
"J.	c #F0B7C2",
"K.	c #B2AAAC",
"L.	c #EBEBF0",
"M.	c #EAEAF0",
"N.	c #EFEFF1",
"O.	c #D1D2EB",
"P.	c #C6C6E8",
"Q.	c #CCCCEA",
"R.	c #D0D0EB",
"S.	c #DBDBEC",
"T.	c #AEAEAE",
"U.	c #B3B3B3",
"V.	c #ADADAD",
"W.	c #B1B1B1",
"X.	c #ABABAB",
"Y.	c #B8B8B8",
"      . . . . . . . . + @ #                     ",
"      . . . . $ $ . . . . . % &                 ",
"      $ * = - ; > , ' ) . . @ ! %               ",
"      ~ { ] ^ / ( _ : < [ } . | 1 |             ",
"      ~ 2 3 4 5 ] 6 7 8 9 = . # 0 a @           ",
"      . $ - b c d e f g h . i j k l m n         ",
"      ~ o p g q r s d t 9 . . i u v w j         ",
"      $ [ x y z g > A B C { [ . . . . . D       ",
"      . . E F G H I ~ J J K K K $ . . . L       ",
"      ~ . . c M N N q N O o P > } . . . Q       ",
"      $ . { R f A > > K ~ K K K ~ S T . n       ",
"      . . { ) U $ $ ~ $ V . . . . W X . Y       ",
"      $ { c Z `  ...+.@.; #.$.%.= &.*.=.-.      ",
"      $ ;.[ >.,.'.).!.~.{.].^./.(._.:.<.[.      ",
"      . ;.}.|.1.2.3.4.5.6.7.8.9.0.a.b.c.d.      ",
"      e.f.g.h.i.j.k.l.m.n.o.p./.q.r.s.t.u.      ",
"      v.w.x.y.B z.A.B.C.D.E.F.G.H.I.. J.K.      ",
"      $ } { } } E [ E U L.U L.G M.[ . . j       ",
"      . N.) f O.P.Q.R.' U M.M.U N.N.. . j       ",
"      . . L.h 9 h h 9 o 9 ; ; S.N.. . . T.      ",
"      . . . . . . . . . . . . . . . . . U.      ",
"      . . . . . . . . . . . . . . . . . v       ",
"        | V.U.j Y T.W.w j V.V.V.U.j X.Y.        ",
"                                                "};
