/* XPM */
static char * mfile_xpm[] = {
"24 24 197 2",
"  	c None",
". 	c #DCDCDC",
"+ 	c #D5D5D5",
"@ 	c #D7D7D7",
"# 	c #D2D2D2",
"$ 	c #D3D2D3",
"% 	c #D4D4D5",
"& 	c #D0D0D0",
"* 	c #C9C9C9",
"= 	c #C3C3C3",
"- 	c #BABABA",
"; 	c #E8E8E8",
"> 	c #E2E2E2",
", 	c #E0E0E0",
"' 	c #DFDFDF",
") 	c #E1E1E1",
"! 	c #E0DFE0",
"~ 	c #DCDDDC",
"{ 	c #D1D1D1",
"] 	c #BEBEBE",
"^ 	c #AFAFAF",
"/ 	c #E2E1E2",
"( 	c #DCDBDC",
"_ 	c #D8D8D8",
": 	c #E3E3E3",
"< 	c #E5E5E5",
"[ 	c #DEDDDE",
"} 	c #DBDBDB",
"| 	c #B5B5B5",
"1 	c #BFBFBF",
"2 	c #E7E7E7",
"3 	c #E9E9E9",
"4 	c #D9DAD9",
"5 	c #CFCFCF",
"6 	c #DDDDDD",
"7 	c #CECECE",
"8 	c #D3D3D3",
"9 	c #D4D4D4",
"0 	c #ECECEC",
"a 	c #D9D9D9",
"b 	c #B9B9B9",
"c 	c #F0F0F0",
"d 	c #C4C4C4",
"e 	c #D9D7D8",
"f 	c #DFE0E0",
"g 	c #DADADA",
"h 	c #C7C7C7",
"i 	c #B2B2B2",
"j 	c #909090",
"k 	c #959595",
"l 	c #A0A0A0",
"m 	c #A5A5A5",
"n 	c #E4E4E4",
"o 	c #DEDEDE",
"p 	c #E0DFDF",
"q 	c #E0DDDD",
"r 	c #E3E1E2",
"s 	c #E2DFDF",
"t 	c #D8D8D9",
"u 	c #B6B6B6",
"v 	c #B4B4B4",
"w 	c #B0B0B0",
"x 	c #EDEDED",
"y 	c #D6D6D6",
"z 	c #DBD6D6",
"A 	c #E3DCDC",
"B 	c #E8E5E5",
"C 	c #E7E5E5",
"D 	c #EAE9E9",
"E 	c #D8D7D8",
"F 	c #CDCDCD",
"G 	c #929292",
"H 	c #EBEBEB",
"I 	c #D3D0D1",
"J 	c #E4DEDE",
"K 	c #E9E9E8",
"L 	c #EAE7E7",
"M 	c #E6E9E8",
"N 	c #EAEAEA",
"O 	c #E5E5E6",
"P 	c #A1A1A1",
"Q 	c #D9D5D6",
"R 	c #DFDADC",
"S 	c #E8E4E5",
"T 	c #EBECEB",
"U 	c #E9EAEA",
"V 	c #E8EBEB",
"W 	c #E5EBEA",
"X 	c #E6E8E8",
"Y 	c #E6E5E5",
"Z 	c #E3E3E2",
"` 	c #9E9E9E",
" .	c #EFEFEF",
"..	c #E4E0E1",
"+.	c #EBE5E5",
"@.	c #E7E2E3",
"#.	c #EAE7E8",
"$.	c #ECEBEB",
"%.	c #EBEEED",
"&.	c #ECE9E9",
"*.	c #ECF0EF",
"=.	c #E7E6E7",
"-.	c #A4A4A4",
";.	c #F4F4F4",
">.	c #F5F5F5",
",.	c #DEDBDB",
"'.	c #ECE6E7",
").	c #ECEEEE",
"!.	c #ECEBEA",
"~.	c #EAE9E8",
"{.	c #ECEDEC",
"].	c #ECE7E7",
"^.	c #E7E6E5",
"/.	c #F1F1F1",
"(.	c #ACACAC",
"_.	c #EEEEEE",
":.	c #F2F2F2",
"<.	c #EFF0EF",
"[.	c #E5E5E4",
"}.	c #EBEFEE",
"|.	c #F13253",
"1.	c #EC90A0",
"2.	c #F03D5C",
"3.	c #EF4260",
"4.	c #ECB2BB",
"5.	c #ED94A2",
"6.	c #EF3D5C",
"7.	c #F04664",
"8.	c #E8B9C1",
"9.	c #A9A9A9",
"0.	c #F3F3F3",
"a.	c #D4D0D1",
"b.	c #ED7B8E",
"c.	c #DFD6D8",
"d.	c #E298A5",
"e.	c #F03958",
"f.	c #EE8093",
"g.	c #EAE2E4",
"h.	c #E69FAB",
"i.	c #ED546E",
"j.	c #E7E4E4",
"k.	c #EAE0E1",
"l.	c #DFE1E0",
"m.	c #E5E2E2",
"n.	c #EBDEE0",
"o.	c #EBEAEA",
"p.	c #EF3757",
"q.	c #AEAEAE",
"r.	c #E4E1E1",
"s.	c #ECE7E8",
"t.	c #EEF0F0",
"u.	c #ECF1F1",
"v.	c #F4F3F4",
"w.	c #ECF1F0",
"x.	c #ECEAE9",
"y.	c #EAE8E8",
"z.	c #EDF0EF",
"A.	c #ECECEB",
"B.	c #EFF3F2",
"C.	c #F2F0F0",
"D.	c #EBF0EF",
"E.	c #EE798D",
"F.	c #E6D2D4",
"G.	c #ECE5E6",
"H.	c #EEF2F2",
"I.	c #ECE8E9",
"J.	c #ECEEED",
"K.	c #EDF2F1",
"L.	c #F17E93",
"M.	c #F63459",
"N.	c #E3CACE",
"O.	c #ECD7DA",
"P.	c #ECEDED",
"Q.	c #EBEBEA",
"R.	c #ECEFEE",
"S.	c #EFF0F0",
"T.	c #F2F1F1",
"U.	c #DEE4E3",
"V.	c #DCDBDA",
"W.	c #D7D8D8",
"X.	c #E0E4E4",
"Y.	c #E2ECEB",
"Z.	c #E1E8E7",
"`.	c #E9EBEA",
" +	c #EAEFEE",
".+	c #DBDCDC",
"++	c #D5D7D6",
"@+	c #D3D4D4",
"#+	c #D8D9D8",
"$+	c #F9F9F9",
"%+	c #B3B3B3",
"&+	c #E6E6E6",
"*+	c #F6F6F6",
"=+	c #ADADAD",
"-+	c #B1B1B1",
";+	c #ABABAB",
">+	c #B8B8B8",
"        . + @ # $ % & * = -                     ",
"        ; > , ' ) > ! ~ . { ] ^                 ",
"        / ( + _ : < ' [ } _ = | 1               ",
"        2 3 . 4 5 6 7 8 9 { 7 - 0 -             ",
"        , 2 , : 6 < [ 6 } a + b c 2 d           ",
"        0 : } @ 6 e ( f g 6 h i j k l m         ",
"        ; n } o p q r s t 9 8 h u v w i         ",
"        ; x y a z A B C < D 2 . _ E 4 F G       ",
"        H 0 , y I J K L ; M N ; : > : O P       ",
"        N H c x Q R S T U V W X Y n o Z `       ",
"        x 0  .> ..+.@.#.$.%.&.$.*.H =.x -.      ",
"        ;.c >.) ,.'.).T !.~.{.].^.U ; /.(.      ",
"        _.:./.<.[.}.|.1.2.3.4.5.6.7.8._.9.      ",
"        :.0._.6 a.%.|.b.c.d.e.f.g.h.i.: i       ",
"        c x c , j.%.|.k.l.m.|.n.o.H p._.q.      ",
"        0./.' U r.%.|.s.*.t.|.{.{.u.|.0.v       ",
"        _.v.w.x.y.s.|.$.).z.|.{.A.B.|.;.^       ",
"        C.D.E.|.F.G.|.$.*.H.|.I.J.K.|.:.i       ",
"        C.B.L.M.N.O.|.P.Q.$.|.R.J.$.|.>.i       ",
"        S.T.U.V.W.X.Y.Z.`.R. +D.*.D P.;.q.      ",
"        >.:..+++@+#+o a N < o . N 3 x $+%+      ",
"        :.;. .&+H 3 3 c /.;.*+>.*+/.;.>.v       ",
"        - =+%+i (.q.-+w i =+=+=+%+i ;+>+        ",
"                                                "};
