/* XPM */
static char * module_xpm[] = {
"24 24 76 1",
" 	c None",
".	c #7070B4",
"+	c #7D7DBC",
"@	c #ADADE2",
"#	c #B5B5E7",
"$	c #7878B1",
"%	c #8686BF",
"&	c #9797CB",
"*	c #D7D7FF",
"=	c #DCDCFF",
"-	c #7B7BB3",
";	c #A0A0D1",
">	c #DCDCFE",
",	c #C5C5EC",
"'	c #C6C6EF",
")	c #7474AC",
"!	c #8282BB",
"~	c #9999CC",
"{	c #D8D8FF",
"]	c #B3B3DD",
"^	c #7373A9",
"/	c #C5C5EF",
"(	c #65659C",
"_	c #58589A",
":	c #4E4EA0",
"<	c #4D4D9F",
"[	c #5E5EAA",
"}	c #8484C2",
"|	c #ADADD7",
"1	c #8989C0",
"2	c #8989C1",
"3	c #BBBBE9",
"4	c #CDCDF7",
"5	c #8484BC",
"6	c #D0D0F8",
"7	c #DBDBFF",
"8	c #8F8FC5",
"9	c #D5D5FA",
"0	c #5C5CA3",
"a	c #7F7FBE",
"b	c #4A4A8D",
"c	c #4D4D9E",
"d	c #5C5CA9",
"e	c #C9C9F0",
"f	c #7D7DB6",
"g	c #8B8BC3",
"h	c #CECEF6",
"i	c #5454A3",
"j	c #9797CD",
"k	c #5151A1",
"l	c #D0D0F7",
"m	c #8A8AC2",
"n	c #C8C8F1",
"o	c #6D6DAF",
"p	c #5050A0",
"q	c #9F9FD5",
"r	c #D7D7FE",
"s	c #9A9ACF",
"t	c #9292C8",
"u	c #BDBDEA",
"v	c #8B8BC2",
"w	c #8E8EC4",
"x	c #A9A9DA",
"y	c #D8D8FE",
"z	c #9999CD",
"A	c #D2D2FB",
"B	c #9D9DD3",
"C	c #AAAAD7",
"D	c #A5A5D7",
"E	c #A2A2D5",
"F	c #A1A1D5",
"G	c #9292C9",
"H	c #D5D5FD",
"I	c #A2A2D4",
"J	c #C8C8F3",
"K	c #A6A6D8",
"                        ",
"                        ",
"                        ",
"                        ",
"                        ",
"        .+@#            ",
"      $%%&**=           ",
"      -%%;**>           ",
"      -%%;**,%%%'*=     ",
"      )!%~*{]%%%'*=     ",
"            ^%%%/*=     ",
"      (_:<[}|12%34      ",
"      -%5~6*7           ",
"      -%%8**90a bc<de   ",
"      f%%g**h<<<ijkl=   ",
"       g%m**nop<qrs*9   ",
"        tm*uv%wx*yzA    ",
"         BC%%%%D*yz     ",
"           g%%%E*6F     ",
"            G%%EH       ",
"              mIJ       ",
"               K        ",
"                        ",
"                        "};
