/* XPM */
static char * private_constructor_xpm[] = {
"48 24 764 2",
"  	c None",
". 	c #FDFDFC",
"+ 	c #FCFCFB",
"@ 	c #FBFBFA",
"# 	c #FEFEFD",
"$ 	c #FAFBF9",
"% 	c #E2E4DD",
"& 	c #B3B7AB",
"* 	c #AAAFA0",
"= 	c #A8AB9F",
"- 	c #ADB2A2",
"; 	c #C2C6BC",
"> 	c #E3E4DF",
", 	c #FFFFFF",
"' 	c #FEFEFE",
") 	c #FDFDFD",
"! 	c #F9FAFC",
"~ 	c #F1F4E9",
"{ 	c #EFF1EF",
"] 	c #F3F6F4",
"^ 	c #F4F8F2",
"/ 	c #F5F9F4",
"( 	c #F2F5EA",
"_ 	c #F6F9F0",
": 	c #F4F7F6",
"< 	c #F5F8F6",
"[ 	c #F1F4EE",
"} 	c #EDEFE9",
"| 	c #F2F3F6",
"1 	c #A6AB9B",
"2 	c #E5E6E1",
"3 	c #EEF1E8",
"4 	c #E8ECDE",
"5 	c #E5EADA",
"6 	c #EBEEE4",
"7 	c #F1F2EE",
"8 	c #DCDED6",
"9 	c #C7CAC1",
"0 	c #FDFDFE",
"a 	c #F6F6F5",
"b 	c #E8EEEA",
"c 	c #F1F8EE",
"d 	c #E7EDE1",
"e 	c #DDEBBF",
"f 	c #D3E2AB",
"g 	c #CDE18B",
"h 	c #CDE47D",
"i 	c #CBE08D",
"j 	c #CFE09E",
"k 	c #DAE7B6",
"l 	c #E7F0D2",
"m 	c #EFF4F5",
"n 	c #EAF3DF",
"o 	c #F4F4F3",
"p 	c #FAFAFA",
"q 	c #FCFCFA",
"r 	c #BCBFB5",
"s 	c #DDDFD7",
"t 	c #DEE4D3",
"u 	c #AFB89D",
"v 	c #A2AB92",
"w 	c #A1A990",
"x 	c #ADB59B",
"y 	c #BFC6AF",
"z 	c #F6F7F1",
"A 	c #B3B8AB",
"B 	c #E4E6E0",
"C 	c #F3F4EF",
"D 	c #E7E9E7",
"E 	c #E6EFF2",
"F 	c #D3E4B0",
"G 	c #CAE28D",
"H 	c #D7E9A0",
"I 	c #E8F5C1",
"J 	c #EDF5E1",
"K 	c #F6FCE9",
"L 	c #F1FAE2",
"M 	c #EAF6CB",
"N 	c #DDEBB0",
"O 	c #D0E58D",
"P 	c #CFE29A",
"Q 	c #E2ECE5",
"R 	c #E8EEE8",
"S 	c #EAEDE8",
"T 	c #FBFBFB",
"U 	c #F7F7F4",
"V 	c #C0C4B8",
"W 	c #E8EDDF",
"X 	c #828A74",
"Y 	c #FBFBF9",
"Z 	c #F7F8F6",
"` 	c #CDD1C5",
" .	c #A5AE94",
"..	c #FCFEF9",
"+.	c #AAAFA1",
"@.	c #F4F6F1",
"#.	c #DFE4DC",
"$.	c #DCE2E9",
"%.	c #C6DC8E",
"&.	c #C9E182",
"*.	c #DEF1AE",
"=.	c #DFF1B0",
"-.	c #D8ED9C",
";.	c #D1F182",
">.	c #C0E580",
",.	c #CEED7E",
"'.	c #D7ED90",
").	c #DFF2A7",
"!.	c #DDEEB2",
"~.	c #D3E797",
"{.	c #C4DB75",
"].	c #D8E3DE",
"^.	c #DDE4E0",
"/.	c #E9EDEA",
"(.	c #FBFCFC",
"_.	c #FCFBFB",
":.	c #F3F4F0",
"<.	c #D5D8CE",
"[.	c #BCC5AB",
"}.	c #E6E9E1",
"|.	c #999F8C",
"1.	c #E0E6D5",
"2.	c #C6CBBF",
"3.	c #F8F9F7",
"4.	c #FCFCFD",
"5.	c #E8EBE8",
"6.	c #D9E0E2",
"7.	c #CCDF9E",
"8.	c #AED830",
"9.	c #BCDE66",
"0.	c #B4DF34",
"a.	c #A4D128",
"b.	c #A4D317",
"c.	c #8BCA17",
"d.	c #1E600B",
"e.	c #96D126",
"f.	c #A6D215",
"g.	c #A6D526",
"h.	c #B0DB3E",
"i.	c #B8DE54",
"j.	c #B3DC47",
"k.	c #B0D15D",
"l.	c #DBE4E5",
"m.	c #DEE6DC",
"n.	c #F4F5F6",
"o.	c #FDFCFD",
"p.	c #F0F1EC",
"q.	c #CACFBF",
"r.	c #B3BD9E",
"s.	c #EBECE9",
"t.	c #D6DACD",
"u.	c #BDC6AC",
"v.	c #D6D9CF",
"w.	c #F4F5F2",
"x.	c #F4F7F8",
"y.	c #DDE1E0",
"z.	c #D8E1CF",
"A.	c #A3CE35",
"B.	c #97CF0A",
"C.	c #A2D415",
"D.	c #9FD010",
"E.	c #9ACE0C",
"F.	c #9CD313",
"G.	c #7DC00B",
"H.	c #0C6A04",
"I.	c #8DC611",
"J.	c #9AD610",
"K.	c #98D10A",
"L.	c #97CD04",
"M.	c #9AD313",
"N.	c #9ED70D",
"O.	c #9CCD13",
"P.	c #C4DF9C",
"Q.	c #DAE1E5",
"R.	c #EAEEEA",
"S.	c #F9FCFB",
"T.	c #FDFCFC",
"U.	c #DBDFD2",
"V.	c #CBD1C0",
"W.	c #A7B290",
"X.	c #F1F2EF",
"Y.	c #E6E8E1",
"Z.	c #B2BD9D",
"`.	c #D1D5C8",
" +	c #F5F6F3",
".+	c #EAF0EE",
"++	c #DAE0E1",
"@+	c #C4DA8F",
"#+	c #9ACF14",
"$+	c #94CE0D",
"%+	c #9ACC11",
"&+	c #91CD0D",
"*+	c #58A515",
"=+	c #63A50F",
"-+	c #84BF0E",
";+	c #0C7405",
">+	c #8DCA05",
",+	c #5BA410",
"'+	c #52A113",
")+	c #94CD0F",
"!+	c #95CA09",
"~+	c #98CA0E",
"{+	c #99CD10",
"]+	c #A9D743",
"^+	c #D8E0DC",
"/+	c #E3E7E3",
"(+	c #F6FAF8",
"_+	c #C5C8C0",
":+	c #D5DCC9",
"<+	c #A6B190",
"[+	c #F3F3F1",
"}+	c #E7E9E2",
"|+	c #AEB998",
"1+	c #CDD2C3",
"2+	c #F4F6F2",
"3+	c #E0E5E4",
"4+	c #D8E0D9",
"5+	c #ABD159",
"6+	c #95CB0A",
"7+	c #93CC15",
"8+	c #93C70D",
"9+	c #6BB811",
"0+	c #207B0C",
"a+	c #6DB20D",
"b+	c #7EBD10",
"c+	c #198002",
"d+	c #85CB0A",
"e+	c #6EAF16",
"f+	c #207904",
"g+	c #62AC10",
"h+	c #96CD0D",
"i+	c #90C60A",
"j+	c #94CC10",
"k+	c #96CB20",
"l+	c #CDDDB7",
"m+	c #DCE1DC",
"n+	c #F2F5F4",
"o+	c #FDFEFE",
"p+	c #C0C2BA",
"q+	c #E4E9DA",
"r+	c #B0BA9B",
"s+	c #F8F7F7",
"t+	c #ECEEE9",
"u+	c #B5C0A1",
"v+	c #D7DBCE",
"w+	c #FAFAF7",
"x+	c #DEE2E3",
"y+	c #D4DEC8",
"z+	c #9BCC3A",
"A+	c #8CC60A",
"B+	c #89C60D",
"C+	c #8AC40F",
"D+	c #3B920F",
"E+	c #459509",
"F+	c #95CC0D",
"G+	c #74BC0C",
"H+	c #25890D",
"I+	c #88C40F",
"J+	c #89C810",
"K+	c #4D9B0A",
"L+	c #3E9110",
"M+	c #86C612",
"N+	c #8BC60C",
"O+	c #8CC809",
"P+	c #8BC614",
"Q+	c #BFD791",
"R+	c #DCE0E4",
"S+	c #EFF4EF",
"T+	c #E0E3DB",
"U+	c #97A086",
"V+	c #A5AF92",
"W+	c #9AA485",
"X+	c #A2AB8D",
"Y+	c #A3AD8D",
"Z+	c #A1AB8B",
"`+	c #9DA787",
" @	c #99A481",
".@	c #97A381",
"+@	c #949F7E",
"@@	c #869171",
"#@	c #878F77",
"$@	c #A7A9A0",
"%@	c #F6F7F4",
"&@	c #DFE4E3",
"*@	c #D2DEC3",
"=@	c #96CA37",
"-@	c #84C208",
";@	c #82C108",
">@	c #84C10D",
",@	c #268008",
"'@	c #5CA810",
")@	c #8DC408",
"!@	c #74BB0B",
"~@	c #227F04",
"{@	c #8CC30B",
"]@	c #88C80E",
"^@	c #5FA407",
"/@	c #328306",
"(@	c #7DBE0F",
"_@	c #85C30D",
":@	c #83C20A",
"<@	c #86C613",
"[@	c #B8D57E",
"}@	c #E0E4E6",
"|@	c #EFF4EE",
"1@	c #CAD1BB",
"2@	c #F2F4EC",
"3@	c #F4F7F0",
"4@	c #F1F4EC",
"5@	c #E2E7D7",
"6@	c #D0D8C1",
"7@	c #C5CEB1",
"8@	c #BFCAA9",
"9@	c #BCC8A4",
"0@	c #B8C4A0",
"a@	c #B5C39C",
"b@	c #B4C099",
"c@	c #B1BE94",
"d@	c #8A976E",
"e@	c #DDDFDA",
"f@	c #DEE3E3",
"g@	c #D2E0C8",
"h@	c #91C840",
"i@	c #7DBE07",
"j@	c #81BE0C",
"k@	c #83C00A",
"l@	c #29810B",
"m@	c #4A970D",
"n@	c #84C20D",
"o@	c #78BB0F",
"p@	c #66B511",
"q@	c #85C10C",
"r@	c #7EBE0D",
"s@	c #529D07",
"t@	c #378807",
"u@	c #79BB0C",
"v@	c #7ABC09",
"w@	c #7CBD0D",
"x@	c #80C114",
"y@	c #B9D789",
"z@	c #DFE4E2",
"A@	c #F0F5EF",
"B@	c #CDD5BF",
"C@	c #D0D8BF",
"D@	c #B5C19A",
"E@	c #B3C099",
"F@	c #B2BF98",
"G@	c #B0BE95",
"H@	c #AEBB92",
"I@	c #ACBA8F",
"J@	c #8D9B72",
"K@	c #E0E3E3",
"L@	c #D4E0CE",
"M@	c #90C64B",
"N@	c #76BA08",
"O@	c #76B609",
"P@	c #77B503",
"Q@	c #449919",
"R@	c #267404",
"S@	c #6AB10C",
"T@	c #7CC00D",
"U@	c #7CBC07",
"V@	c #71B405",
"W@	c #6BB815",
"X@	c #308805",
"Y@	c #4A9818",
"Z@	c #77B90D",
"`@	c #72B609",
" #	c #78BB0E",
".#	c #78BB20",
"+#	c #C0D9A9",
"@#	c #DEE1E3",
"##	c #F2F6F1",
"$#	c #CBD2BC",
"%#	c #EDF1E7",
"&#	c #D3DAC4",
"*#	c #B6C29D",
"=#	c #B4C19A",
"-#	c #B5C29B",
";#	c #B5C49A",
">#	c #ADBB90",
",#	c #ABB98E",
"'#	c #AAB98E",
")#	c #AAB88C",
"!#	c #88966B",
"~#	c #DEDFDA",
"{#	c #ECEAEB",
"]#	c #E2E4E3",
"^#	c #A5CC7A",
"/#	c #6EB30D",
"(#	c #69B60C",
"_#	c #6CAE04",
":#	c #64AD10",
"<#	c #257F0A",
"[#	c #1F7808",
"}#	c #479908",
"|#	c #58A909",
"1#	c #4AA00C",
"2#	c #2B7E0E",
"3#	c #34820E",
"4#	c #6BB012",
"5#	c #6EB706",
"6#	c #6BB304",
"7#	c #80BD32",
"8#	c #DCE5DC",
"9#	c #E8E4E6",
"0#	c #F8F8F9",
"a#	c #FCFCFC",
"b#	c #CBD2BD",
"c#	c #E8ECE0",
"d#	c #AFBD94",
"e#	c #65724B",
"f#	c #424D2D",
"g#	c #849268",
"h#	c #A9B88C",
"i#	c #A7B789",
"j#	c #819163",
"k#	c #DEDFDB",
"l#	c #F4F5F4",
"m#	c #E3E7E7",
"n#	c #CFDEC2",
"o#	c #70B12B",
"p#	c #60AF0C",
"q#	c #64B009",
"r#	c #60AE05",
"s#	c #59A809",
"t#	c #3C880C",
"u#	c #287A0F",
"v#	c #20760D",
"w#	c #2E810E",
"x#	c #448F0E",
"y#	c #62AB0F",
"z#	c #64B108",
"A#	c #62AF05",
"B#	c #61AD09",
"C#	c #60AC0C",
"D#	c #A8CA85",
"E#	c #E6EAF0",
"F#	c #EAEBEA",
"G#	c #C9D0BB",
"H#	c #DFE5D4",
"I#	c #B5C29C",
"J#	c #9FAD84",
"K#	c #444E31",
"L#	c #363E26",
"M#	c #3B432A",
"N#	c #ACBB8D",
"O#	c #A6B588",
"P#	c #A4B385",
"Q#	c #A4B485",
"R#	c #7B8C5A",
"S#	c #DFE0DB",
"T#	c #F9FBFA",
"U#	c #E5E9E7",
"V#	c #EBEDF0",
"W#	c #A5CC91",
"X#	c #51A203",
"Y#	c #54A809",
"Z#	c #54A108",
"`#	c #5AA604",
" $	c #5BA908",
".$	c #509F05",
"+$	c #4E9F08",
"@$	c #59A907",
"#$	c #59AB07",
"$$	c #56A906",
"%$	c #55A808",
"&$	c #59A70A",
"*$	c #51A300",
"=$	c #77B03A",
"-$	c #E4EEEC",
";$	c #E2E8E0",
">$	c #EFF2F0",
",$	c #CAD1BC",
"'$	c #D7DEC9",
")$	c #B1BE96",
"!$	c #AEBC93",
"~$	c #ACBA8E",
"{$	c #5E6A48",
"]$	c #222718",
"^$	c #818E66",
"/$	c #A7B689",
"($	c #A3B284",
"_$	c #A3B283",
":$	c #A2B180",
"<$	c #758652",
"[$	c #DFE0DC",
"}$	c #F3F5F3",
"|$	c #E1E7E1",
"1$	c #E8EFE9",
"2$	c #8EC173",
"3$	c #469900",
"4$	c #49A805",
"5$	c #46A009",
"6$	c #4B9E05",
"7$	c #4D9F0C",
"8$	c #4BA10C",
"9$	c #459902",
"0$	c #4BA008",
"a$	c #4EA109",
"b$	c #4B9D05",
"c$	c #429C01",
"d$	c #5DAE29",
"e$	c #DFEED1",
"f$	c #E2EBE6",
"g$	c #EBF0ED",
"h$	c #FBFDFA",
"i$	c #C9CFBB",
"j$	c #D0D8C0",
"k$	c #AEBC92",
"l$	c #ACBA90",
"m$	c #AAB88E",
"n$	c #ACBA8D",
"o$	c #74805B",
"p$	c #0A0D06",
"q$	c #A6B685",
"r$	c #A1B181",
"s$	c #A0B07F",
"t$	c #9DAE7B",
"u$	c #70804D",
"v$	c #FFFEFF",
"w$	c #F1F2F1",
"x$	c #E8EDE5",
"y$	c #E8F2F4",
"z$	c #A5CD90",
"A$	c #419313",
"B$	c #3B9C04",
"C$	c #3B9900",
"D$	c #3C9800",
"E$	c #419706",
"F$	c #3D9705",
"G$	c #3D9900",
"H$	c #399803",
"I$	c #3B9A0A",
"J$	c #72B24F",
"K$	c #E6E8E5",
"L$	c #E2EAEE",
"M$	c #E6ECE3",
"N$	c #FEFEFF",
"O$	c #CBD4B9",
"P$	c #A8B78A",
"Q$	c #2F3524",
"R$	c #000000",
"S$	c #78845E",
"T$	c #A3B382",
"U$	c #9FAF7E",
"V$	c #9EAE7D",
"W$	c #99AB77",
"X$	c #687847",
"Y$	c #E0E1DC",
"Z$	c #FEFCFF",
"`$	c #FCFBFC",
" %	c #EDEFED",
".%	c #EEEEE7",
"+%	c #F1EEF6",
"@%	c #DCEAD8",
"#%	c #87B573",
"$%	c #539E3A",
"%%	c #409A27",
"&%	c #3E9922",
"*%	c #429C24",
"=%	c #4F9C30",
"-%	c #6CA954",
";%	c #B7D5AD",
">%	c #F7F2F7",
",%	c #EEEDEC",
"'%	c #EEF4EB",
")%	c #F7F8FA",
"!%	c #C8CFBA",
"~%	c #C7D1B3",
"{%	c #A9B78B",
"]%	c #A6B586",
"^%	c #6A7553",
"/%	c #667150",
"(%	c #828F65",
"_%	c #9BAC79",
":%	c #90A26C",
"<%	c #637243",
"[%	c #DFE1DC",
"}%	c #F4F3F1",
"|%	c #F1F0F0",
"1%	c #F1F0F2",
"2%	c #FAF8FA",
"3%	c #EDF0E9",
"4%	c #D6E4D3",
"5%	c #C7DDC6",
"6%	c #D0E3CC",
"7%	c #E2EADF",
"8%	c #F8F8F7",
"9%	c #F9F6F7",
"0%	c #F1F0EB",
"a%	c #EEF2EE",
"b%	c #FAFAF9",
"c%	c #FFFFFE",
"d%	c #C2CDAD",
"e%	c #A2B181",
"f%	c #A4B483",
"g%	c #A2B381",
"h%	c #9FAF7D",
"i%	c #9CAD7B",
"j%	c #9AAB77",
"k%	c #98AA75",
"l%	c #7F915B",
"m%	c #5E6D40",
"n%	c #FCFDFB",
"o%	c #FDFFFF",
"p%	c #F9FBFC",
"q%	c #F4F7F5",
"r%	c #F0F3F1",
"s%	c #F1F4F4",
"t%	c #F4F2F6",
"u%	c #F7F4F9",
"v%	c #F9F8F9",
"w%	c #F4F6F6",
"x%	c #F0F3F0",
"y%	c #F2F5F2",
"z%	c #F8FAF9",
"A%	c #FBFEFE",
"B%	c #FEFEFB",
"C%	c #FDFEFA",
"D%	c #FCFDFA",
"E%	c #F6F8F4",
"F%	c #F2F5EE",
"G%	c #BFC6AD",
"H%	c #C0CBA9",
"I%	c #A3B282",
"J%	c #A1B180",
"K%	c #9DAE7C",
"L%	c #92A56F",
"M%	c #718250",
"N%	c #5C6A40",
"O%	c #D2D5CA",
"P%	c #F0F3EC",
"Q%	c #F6F7F2",
"R%	c #FDFCFF",
"S%	c #F4FCEA",
"T%	c #EEF8DF",
"U%	c #E8F3D1",
"V%	c #E5F2CC",
"W%	c #DDEEC4",
"X%	c #DDF0BD",
"Y%	c #DFF3BE",
"Z%	c #DCEDBD",
"`%	c #E0EEC1",
" &	c #E4F0C7",
".&	c #E8F4CE",
"+&	c #EAF5D7",
"@&	c #F0FAE3",
"#&	c #FBFBF7",
"$&	c #FDFEF9",
"%&	c #FFFFFA",
"&&	c #FFFFFD",
"*&	c #DBE1CF",
"=&	c #D2DAC3",
"-&	c #CDD5BB",
";&	c #A0AA89",
">&	c #879171",
",&	c #7C8A60",
"'&	c #8A986B",
")&	c #92A471",
"!&	c #95A871",
"~&	c #93A76D",
"{&	c #8EA267",
"]&	c #889B61",
"^&	c #80935A",
"/&	c #758651",
"(&	c #647445",
"_&	c #55623A",
":&	c #3E4827",
"<&	c #B7BFA4",
"[&	c #D7DDC9",
"}&	c #E5EADD",
"|&	c #F8F9F5",
"1&	c #FCFDF7",
"2&	c #F8FBF3",
"3&	c #EEF8E0",
"4&	c #E5F4CC",
"5&	c #DDEFBB",
"6&	c #D8EEAD",
"7&	c #CFEA9C",
"8&	c #CBE98E",
"9&	c #C9E786",
"0&	c #C8E687",
"a&	c #C8E685",
"b&	c #C8E686",
"c&	c #CAE787",
"d&	c #C9E889",
"e&	c #CCE996",
"f&	c #D5ECA7",
"g&	c #DBEFB6",
"h&	c #E1F3C5",
"i&	c #E9F7D7",
"j&	c #F3F9EC",
"k&	c #F9FBF4",
"l&	c #FEFEFA",
"m&	c #EEF0E8",
"n&	c #DAE0CE",
"o&	c #D1D9C1",
"p&	c #CCD5BA",
"q&	c #CBD5B8",
"r&	c #B8C3A4",
"s&	c #A2AC90",
"t&	c #919A7E",
"u&	c #878F76",
"v&	c #7E8771",
"w&	c #7C836E",
"x&	c #7D856E",
"y&	c #858D76",
"z&	c #8E977E",
"A&	c #A1AA8E",
"B&	c #BAC3A5",
"C&	c #CFD9BD",
"D&	c #CFD6BE",
"E&	c #D6DDC8",
"F&	c #E5E9DD",
"G&	c #FCFDF5",
"H&	c #F2F7E2",
"I&	c #E9F3CC",
"J&	c #E0F0B8",
"K&	c #D4EAA2",
"L&	c #CFE893",
"M&	c #C6E482",
"N&	c #C5E47F",
"O&	c #C5E381",
"P&	c #C4E280",
"Q&	c #C5E47D",
"R&	c #CCE68E",
"S&	c #D2E99A",
"T&	c #DCF0B2",
"U&	c #E4F3C4",
"V&	c #EDF6DA",
"W&	c #F8FAF0",
"X&	c #F9FAF8",
"Y&	c #F7F8F4",
"Z&	c #F2F4EE",
"`&	c #EFF2E9",
" *	c #E6EADD",
".*	c #E5EADC",
"+*	c #E4E9DB",
"@*	c #E5E9DB",
"#*	c #E8ECDF",
"$*	c #EAEDE2",
"%*	c #EEF0E7",
"&*	c #F1F3EC",
"**	c #F5F7F2",
"=*	c #FBFDF6",
"-*	c #F3F8E7",
";*	c #EAF4D2",
">*	c #E0F0BE",
",*	c #DBEEB3",
"'*	c #CCE995",
")*	c #CAE88D",
"!*	c #CAE78C",
"~*	c #C9E68B",
"{*	c #C9E68C",
"]*	c #CAE88C",
"^*	c #CAE88F",
"/*	c #D2EAA0",
"(*	c #D9EDAE",
"_*	c #DDF0B8",
":*	c #E5F3CB",
"<*	c #EEF6E0",
"[*	c #F8FBF1",
"}*	c #FFFEFA",
". + @ @ @ @ # $ % & * = - ; > . . . . . . . . , , ' ) ' ' ! ~ { ] ^ / ( _ : < [ } | ' ' ' ' , , ",
". @ @ @ @ @ , 1 2 3 4 5 6 7 8 9 # # . . # # . , , ' 0 # a b c d e f g h i j k l m n o p # ) , , ",
". + @ @ @ q r s t u v w x y z A B # . . # # # , , ' ) C D E F G H I J K L M N O P Q R S T . ' , ",
". . @ @ @ U V W X @ @ Y Z `  ...+.. . . . . . , , ' @.#.$.%.&.*.=.-.;.>.,.'.).!.~.{.].^./.(.) ' ",
". . @ @ _.:.<.[.}.# # # . , |.1.2.3.. . # . . , , 4.5.6.7.8.9.0.a.b.c.d.e.f.g.h.i.j.k.l.m.n.o.) ",
". + + + + p.q.r.s.. # . # ' t.u.v.w.. . # . . , , x.y.z.A.B.C.D.E.F.G.H.I.J.K.L.M.N.O.P.Q.R.S.' ",
". @ @ @ T.U.V.W.X.. # . # # Y.Z.`. +. # # # # , , .+++@+#+$+%+&+*+=+-+;+>+,+'+)+!+~+{+]+^+/+(+' ",
"+ @ @ @ ' _+:+<+[+# # # # . }+|+1+2+. . . . . , , 3+4+5+6+7+8+9+0+a+b+c+d+e+f+g+h+i+j+k+l+m+n+o+",
"@ @ @ @ , p+q+r+s+, , , , , t+u+v+w+. . . . . , , x+y+z+A+B+C+D+E+F+G+H+I+J+K+L+M+N+O+P+Q+R+S+) ",
"@ @ @ @ T+U+V+W+X+Y+Z+`+ @.@+@@@#@$@%@. . . . , , &@*@=@-@;@>@,@'@)@!@~@{@]@^@/@(@_@:@<@[@}@|@) ",
". @ @ @ 1@2@3@4@5@6@7@8@9@0@a@b@c@d@e@. . . . , , f@g@h@i@j@k@l@m@n@o@p@q@r@s@t@u@v@w@x@y@z@A@) ",
"+ @ @ @ B@2@3 C@0@D@E@F@G@G@H@I@I@J@e@. . . . , , K@L@M@N@O@P@Q@R@S@T@U@V@W@X@Y@Z@`@ #.#+#@###) ",
"+ @ @ @ $#%#&#*#=#F@-#;#G@>#,#'#)#!#~#. . . . , , {#]#^#/#(#_#:#<#[#}#|#1#2#3#4#5#a+6#7#8#9#0#a#",
". @ @ @ b#c#8@E@F@d#e#f#g#I@h#i#i#j#k#. . . . , , l#m#n#o#p#q#r#s#t#u#v#w#x#y#z#A#B#C#D#E#F#T ' ",
"+ @ @ @ G#H#I#G@G@J#K#L#M#N#O#P#Q#R#S#. . . . , , T#U#V#W#X#Y#Z#`# $.$+$@$#$$$%$&$*$=$-$;$>$) ' ",
"@ @ @ @ ,$'$)$!$>#~${$]$^$/$($_$:$<$[$. . . . , , ' }$|$1$2$3$4$5$6$7$8$9$0$a$b$c$d$e$f$g$h$, , ",
". @ @ @ i$j$k$l$m$n$o$p$q$_$r$s$t$u$[$. # # # , , v$_.w$x$y$z$A$B$C$D$E$F$G$H$I$J$K$L$M$Z N$, , ",
". + @ @ i$O$,#)#P$N#Q$R$S$T$U$V$W$X$Y$# # # # , , v$Z$`$ %.%+%@%#%$%%%&%*%=%-%;%>%,%'%)%# ) , , ",
". @ @ @ !%~%{%/$O#]%^%/%(%U$t$_%:%<%[%. . . . , , , ' ' N$}%|%1%2%3%4%5%6%7%8%9%0%a%b%) ' c%, , ",
". + @ @ G#d%O#Q#_$e%f%g%h%i%j%k%l%m%[%+ n%. . , , , ' ) T.o%p%q%r%s%t%u%v%w%x%y%z%A%B%C%D%) , , ",
"$ E%F%3 G%H%_$I%J%U$K%i%W$k%L%l%M%N%O%P%Q%w+n%, , ' ) o.R%S%T%U%V%W%X%Y%Z%`% &.&+&@&#&$&%&&&, , ",
"3 *&=&-&;&>&,&'&)&!&~&{&]&^&/&(&_&:&<&j$[&}&|&, , 1&2&3&4&5&6&7&8&9&0&a&b&c&d&e&f&g&h&i&j&k&l&' ",
"m&n&o&-&p&q&r&s&t&u&v&w&x&y&z&A&B&C&-&D&E&F&|&, , G&H&I&J&K&L&M&N&M&O&P&O&O&N&Q&R&S&T&U&V&W&%&, ",
"X&Y&Z&`&6 c# *.*+*q+@*+*@*+*@* *#*$*%*&***w+q , , =*-*;*>*,*f&'*)*!*~*{*{*!*]*^*/*(*_*:*<*[*}*c%"};
