/* XPM */
static char * private_inheritance_xpm[] = {
"48 24 567 2",
"  	c None",
". 	c #FDFDFC",
"+ 	c #FCFCFB",
"@ 	c #FBFBFA",
"# 	c #FEFEFD",
"$ 	c #FAFBF9",
"% 	c #E2E4DD",
"& 	c #B3B7AB",
"* 	c #AAAFA0",
"= 	c #A8AB9F",
"- 	c #ADB2A2",
"; 	c #C2C6BC",
"> 	c #E3E4DF",
", 	c #FFFFFF",
"' 	c #A6AB9B",
") 	c #E5E6E1",
"! 	c #EEF1E8",
"~ 	c #E8ECDE",
"{ 	c #E5EADA",
"] 	c #EBEEE4",
"^ 	c #F1F2EE",
"/ 	c #DCDED6",
"( 	c #C7CAC1",
"_ 	c #FCFCFA",
": 	c #BCBFB5",
"< 	c #DDDFD7",
"[ 	c #DEE4D3",
"} 	c #AFB89D",
"| 	c #A2AB92",
"1 	c #A1A990",
"2 	c #ADB59B",
"3 	c #BFC6AF",
"4 	c #F6F7F1",
"5 	c #B3B8AB",
"6 	c #E4E6E0",
"7 	c #F7F7F4",
"8 	c #C0C4B8",
"9 	c #E8EDDF",
"0 	c #828A74",
"a 	c #FBFBF9",
"b 	c #F7F8F6",
"c 	c #CDD1C5",
"d 	c #A5AE94",
"e 	c #FCFEF9",
"f 	c #AAAFA1",
"g 	c #FCFBFB",
"h 	c #F3F4F0",
"i 	c #D5D8CE",
"j 	c #BCC5AB",
"k 	c #E6E9E1",
"l 	c #999F8C",
"m 	c #E0E6D5",
"n 	c #C6CBBF",
"o 	c #F8F9F7",
"p 	c #F0F1EC",
"q 	c #CACFBF",
"r 	c #B3BD9E",
"s 	c #EBECE9",
"t 	c #FEFEFE",
"u 	c #D6DACD",
"v 	c #BDC6AC",
"w 	c #D6D9CF",
"x 	c #F4F5F2",
"y 	c #9D9CB1",
"z 	c #BFBDCE",
"A 	c #ABA9C4",
"B 	c #BBBAC9",
"C 	c #ABA9C0",
"D 	c #A9A7BE",
"E 	c #BAB9CA",
"F 	c #ABA9BE",
"G 	c #ADABC0",
"H 	c #BDBCC9",
"I 	c #B4B4BC",
"J 	c #B6B6BE",
"K 	c #B5B5BD",
"L 	c #B3B2BA",
"M 	c #B2B1B9",
"N 	c #B3B2BB",
"O 	c #BEBEC2",
"P 	c #BBBABE",
"Q 	c #FFFEFF",
"R 	c #FDFDFE",
"S 	c #FDFCFC",
"T 	c #DBDFD2",
"U 	c #CBD1C0",
"V 	c #A7B290",
"W 	c #F1F2EF",
"X 	c #E6E8E1",
"Y 	c #B2BD9D",
"Z 	c #D1D5C8",
"` 	c #F5F6F3",
" .	c #BEBFBC",
"..	c #EBEBF1",
"+.	c #D9D9DB",
"@.	c #E1E1DD",
"#.	c #E5E6DF",
"$.	c #E0DFDC",
"%.	c #E3E3E3",
"&.	c #E0E0E0",
"*.	c #E1E1E1",
"=.	c #E4E4E4",
"-.	c #E6E6E6",
";.	c #E6E6E7",
">.	c #E5E5E6",
",.	c #E4E4E6",
"'.	c #E2E2E4",
").	c #EBEBEC",
"!.	c #A4A4A5",
"~.	c #FCFCFC",
"{.	c #FCFCFD",
"].	c #C5C8C0",
"^.	c #D5DCC9",
"/.	c #A6B190",
"(.	c #F3F3F1",
"_.	c #E7E9E2",
":.	c #AEB998",
"<.	c #CDD2C3",
"[.	c #F4F6F2",
"}.	c #BBBBBB",
"|.	c #EAEBF0",
"1.	c #E9E9E7",
"2.	c #E0E1D9",
"3.	c #E3E4D8",
"4.	c #DDDDD7",
"5.	c #E7E7E7",
"6.	c #E6E6E4",
"7.	c #E5E5E4",
"8.	c #E5E5E3",
"9.	c #E7E7E6",
"0.	c #EAEAE8",
"a.	c #A6A6A4",
"b.	c #FAFAFA",
"c.	c #FFFFFE",
"d.	c #C0C2BA",
"e.	c #E4E9DA",
"f.	c #B0BA9B",
"g.	c #F8F7F7",
"h.	c #ECEEE9",
"i.	c #B5C0A1",
"j.	c #D7DBCE",
"k.	c #FAFAF7",
"l.	c #B8B8B8",
"m.	c #E9E9EE",
"n.	c #9FA09F",
"o.	c #C3C4BE",
"p.	c #D5D6CC",
"q.	c #D3D3D0",
"r.	c #D2D2D2",
"s.	c #E8E8E8",
"t.	c #E5E5E5",
"u.	c #E9E9E8",
"v.	c #E8E8E6",
"w.	c #E7E7E5",
"x.	c #EDEDEB",
"y.	c #AAAAA8",
"z.	c #FDFDFB",
"A.	c #E0E3DB",
"B.	c #97A086",
"C.	c #A5AF92",
"D.	c #9AA485",
"E.	c #A2AB8D",
"F.	c #A3AD8D",
"G.	c #A1AB8B",
"H.	c #9DA787",
"I.	c #99A481",
"J.	c #97A381",
"K.	c #949F7E",
"L.	c #869171",
"M.	c #878F77",
"N.	c #A7A9A0",
"O.	c #F6F7F4",
"P.	c #B6B6B6",
"Q.	c #E5E5F0",
"R.	c #8C8C91",
"S.	c #A3A3A4",
"T.	c #7D7D7B",
"U.	c #8B8A89",
"V.	c #858585",
"W.	c #D6D6D6",
"X.	c #EBEBEB",
"Y.	c #EDEDED",
"Z.	c #E9E9E9",
"`.	c #EAEAEA",
" +	c #E9EAE9",
".+	c #EBEAE9",
"++	c #F0F2EF",
"@+	c #EDEEEC",
"#+	c #E4E4E2",
"$+	c #F0F0EE",
"%+	c #A7A7A5",
"&+	c #FEFEFB",
"*+	c #FEFEFF",
"=+	c #CAD1BB",
"-+	c #F2F4EC",
";+	c #F4F7F0",
">+	c #F1F4EC",
",+	c #E2E7D7",
"'+	c #D0D8C1",
")+	c #C5CEB1",
"!+	c #BFCAA9",
"~+	c #BCC8A4",
"{+	c #B8C4A0",
"]+	c #B5C39C",
"^+	c #B4C099",
"/+	c #B1BE94",
"(+	c #8A976E",
"_+	c #DDDFDA",
":+	c #EEEEF7",
"<+	c #E1E1E9",
"[+	c #D5D4DA",
"}+	c #C6C4C9",
"|+	c #A4A4A6",
"1+	c #CDCDCD",
"2+	c #EEEDEE",
"3+	c #BDB2B5",
"4+	c #936E7B",
"5+	c #87747B",
"6+	c #DBDBDB",
"7+	c #EBEBEA",
"8+	c #A5A5A5",
"9+	c #FDFDFD",
"0+	c #F8F8F9",
"a+	c #CDD5BF",
"b+	c #D0D8BF",
"c+	c #B5C19A",
"d+	c #B3C099",
"e+	c #B2BF98",
"f+	c #B0BE95",
"g+	c #AEBB92",
"h+	c #ACBA8F",
"i+	c #8D9B72",
"j+	c #B7B7B7",
"k+	c #F5F5F8",
"l+	c #BBBBBF",
"m+	c #CFCED3",
"n+	c #E4E3E7",
"o+	c #DFDEE0",
"p+	c #D9D9D9",
"q+	c #CCCCCC",
"r+	c #F6F5F7",
"s+	c #97868C",
"t+	c #FDF4F8",
"u+	c #FCF7F8",
"v+	c #F9E7EC",
"w+	c #986478",
"x+	c #ECEEEC",
"y+	c #ABABA9",
"z+	c #FAFAF8",
"A+	c #FEFDFF",
"B+	c #CBD2BC",
"C+	c #EDF1E7",
"D+	c #D3DAC4",
"E+	c #B6C29D",
"F+	c #B4C19A",
"G+	c #B5C29B",
"H+	c #B5C49A",
"I+	c #ADBB90",
"J+	c #ABB98E",
"K+	c #AAB98E",
"L+	c #AAB88C",
"M+	c #88966B",
"N+	c #DEDFDA",
"O+	c #E6E8E4",
"P+	c #AFB0AC",
"Q+	c #A8A9A6",
"R+	c #939292",
"S+	c #959495",
"T+	c #8B8B8B",
"U+	c #9A9A9A",
"V+	c #929292",
"W+	c #8D8D8D",
"X+	c #808080",
"Y+	c #969696",
"Z+	c #B5B8B8",
"`+	c #FBF0F6",
" @	c #FEFDFE",
".@	c #FBF2F4",
"+@	c #FFD6E5",
"@@	c #A78C97",
"#@	c #785E4C",
"$@	c #7D695B",
"%@	c #D7DCDD",
"&@	c #CBD2BD",
"*@	c #E8ECE0",
"=@	c #AFBD94",
"-@	c #65724B",
";@	c #424D2D",
">@	c #849268",
",@	c #A9B88C",
"'@	c #A7B789",
")@	c #819163",
"!@	c #DEDFDB",
"~@	c #F3F4EF",
"{@	c #BDBEB8",
"]@	c #CECFCA",
"^@	c #C2C1C0",
"/@	c #D4D4D2",
"(@	c #CCCCCB",
"_@	c #D3D3D2",
":@	c #CACACA",
"<@	c #C7C7C7",
"[@	c #D5D5D6",
"}@	c #F1F1F2",
"|@	c #999A9C",
"1@	c #FFEFF7",
"2@	c #FDFEFE",
"3@	c #B3A4AA",
"4@	c #E7DBC3",
"5@	c #FEF8E8",
"6@	c #FFEDCF",
"7@	c #DBB685",
"8@	c #D7D5D0",
"9@	c #C9D0BB",
"0@	c #DFE5D4",
"a@	c #B5C29C",
"b@	c #9FAD84",
"c@	c #444E31",
"d@	c #363E26",
"e@	c #3B432A",
"f@	c #ACBB8D",
"g@	c #A6B588",
"h@	c #A4B385",
"i@	c #A4B485",
"j@	c #7B8C5A",
"k@	c #DFE0DB",
"l@	c #F6F6F6",
"m@	c #EAEAE9",
"n@	c #EEEEED",
"o@	c #EFF0ED",
"p@	c #C2C2C3",
"q@	c #79797A",
"r@	c #D8D8D8",
"s@	c #F8F8F8",
"t@	c #F7F7F7",
"u@	c #F2F2F4",
"v@	c #F1F1F3",
"w@	c #F0F2F4",
"x@	c #DFB0C2",
"y@	c #F7EEF2",
"z@	c #FEFFFF",
"A@	c #BFAEA8",
"B@	c #F9E4CD",
"C@	c #FFF8EE",
"D@	c #FDECCD",
"E@	c #A89C84",
"F@	c #CAD1BC",
"G@	c #D7DEC9",
"H@	c #B1BE96",
"I@	c #AEBC93",
"J@	c #ACBA8E",
"K@	c #5E6A48",
"L@	c #222718",
"M@	c #818E66",
"N@	c #A7B689",
"O@	c #A3B284",
"P@	c #A3B283",
"Q@	c #A2B180",
"R@	c #758652",
"S@	c #DFE0DC",
"T@	c #B9B9B9",
"U@	c #ECECEC",
"V@	c #F0F1EE",
"W@	c #9A9A9B",
"X@	c #696969",
"Y@	c #6B6B6B",
"Z@	c #ACACAC",
"`@	c #E9E9EB",
" #	c #E4E1E4",
".#	c #286E4F",
"+#	c #8F9D94",
"@#	c #EBC2CF",
"##	c #E4BECA",
"$#	c #EFD0DD",
"%#	c #D0B499",
"&#	c #FFFEFB",
"*#	c #FCF6EC",
"=#	c #A79877",
"-#	c #C9CFBB",
";#	c #D0D8C0",
">#	c #AEBC92",
",#	c #ACBA90",
"'#	c #AAB88E",
")#	c #ACBA8D",
"!#	c #74805B",
"~#	c #0A0D06",
"{#	c #A6B685",
"]#	c #A1B181",
"^#	c #A0B07F",
"/#	c #9DAE7B",
"(#	c #70804D",
"_#	c #343434",
":#	c #ECECEA",
"<#	c #F1F1F0",
"[#	c #F3F3F3",
"}#	c #A8A8A8",
"|#	c #141314",
"1#	c #297357",
"2#	c #A9D1BC",
"3#	c #CFEBEA",
"4#	c #DFF7F3",
"5#	c #B1CDC9",
"6#	c #697772",
"7#	c #CBAE8B",
"8#	c #FFFFFC",
"9#	c #FEFBF3",
"0#	c #B6A891",
"a#	c #CBD4B9",
"b#	c #A8B78A",
"c#	c #2F3524",
"d#	c #000000",
"e#	c #78845E",
"f#	c #A3B382",
"g#	c #9FAF7E",
"h#	c #9EAE7D",
"i#	c #99AB77",
"j#	c #687847",
"k#	c #E0E1DC",
"l#	c #B4B4B4",
"m#	c #F4F4F4",
"n#	c #A6A6A7",
"o#	c #C5C5C5",
"p#	c #606060",
"q#	c #757575",
"r#	c #C2C2C2",
"s#	c #689F87",
"t#	c #C5E4DD",
"u#	c #E2F3EF",
"v#	c #F9FCFB",
"w#	c #F0F8F8",
"x#	c #94AAAE",
"y#	c #C8CCCB",
"z#	c #D5BB97",
"A#	c #FFF2D9",
"B#	c #FFEECB",
"C#	c #C8B892",
"D#	c #DEE0E3",
"E#	c #C8CFBA",
"F#	c #C7D1B3",
"G#	c #A9B78B",
"H#	c #A6B586",
"I#	c #6A7553",
"J#	c #667150",
"K#	c #828F65",
"L#	c #9BAC79",
"M#	c #90A26C",
"N#	c #637243",
"O#	c #DFE1DC",
"P#	c #A1A1A1",
"Q#	c #EAEAE7",
"R#	c #D1D2D0",
"S#	c #B1B1B1",
"T#	c #DADAD9",
"U#	c #F0F0F0",
"V#	c #EDEDEE",
"W#	c #EAEAEC",
"X#	c #609882",
"Y#	c #C7E1DE",
"Z#	c #E3F3F1",
"`#	c #FCFEFD",
" $	c #EFFCFA",
".$	c #78868B",
"+$	c #EBEAEB",
"@$	c #D2D6D9",
"#$	c #C0BBAE",
"$$	c #DBDCD4",
"%$	c #F1F2F4",
"&$	c #C2CDAD",
"*$	c #A2B181",
"=$	c #A4B483",
"-$	c #A2B381",
";$	c #9FAF7D",
">$	c #9CAD7B",
",$	c #9AAB77",
"'$	c #98AA75",
")$	c #7F915B",
"!$	c #5E6D40",
"~$	c #FCFDFB",
"{$	c #B3B3B3",
"]$	c #AEAEAE",
"^$	c #AFAFAF",
"/$	c #AFB0AD",
"($	c #B1B1AE",
"_$	c #B1B1B0",
":$	c #B0B0B0",
"<$	c #B0AFB2",
"[$	c #7B8E89",
"}$	c #96BCB9",
"|$	c #CFD6E0",
"1$	c #DAE1E6",
"2$	c #B7B1C6",
"3$	c #B3B6B7",
"4$	c #AFAFB1",
"5$	c #B2B2B4",
"6$	c #6B6980",
"7$	c #F6F8F4",
"8$	c #F2F5EE",
"9$	c #BFC6AD",
"0$	c #C0CBA9",
"a$	c #A3B282",
"b$	c #A1B180",
"c$	c #9DAE7C",
"d$	c #92A56F",
"e$	c #718250",
"f$	c #5C6A40",
"g$	c #D2D5CA",
"h$	c #F0F3EC",
"i$	c #F6F7F2",
"j$	c #9CA0A3",
"k$	c #7C999A",
"l$	c #8A97A2",
"m$	c #CACCCC",
"n$	c #FCFFFF",
"o$	c #DBE1CF",
"p$	c #D2DAC3",
"q$	c #CDD5BB",
"r$	c #A0AA89",
"s$	c #879171",
"t$	c #7C8A60",
"u$	c #8A986B",
"v$	c #92A471",
"w$	c #95A871",
"x$	c #93A76D",
"y$	c #8EA267",
"z$	c #889B61",
"A$	c #80935A",
"B$	c #758651",
"C$	c #647445",
"D$	c #55623A",
"E$	c #3E4827",
"F$	c #B7BFA4",
"G$	c #D7DDC9",
"H$	c #E5EADD",
"I$	c #F8F9F5",
"J$	c #EEF0E8",
"K$	c #DAE0CE",
"L$	c #D1D9C1",
"M$	c #CCD5BA",
"N$	c #CBD5B8",
"O$	c #B8C3A4",
"P$	c #A2AC90",
"Q$	c #919A7E",
"R$	c #878F76",
"S$	c #7E8771",
"T$	c #7C836E",
"U$	c #7D856E",
"V$	c #858D76",
"W$	c #8E977E",
"X$	c #A1AA8E",
"Y$	c #BAC3A5",
"Z$	c #CFD9BD",
"`$	c #CFD6BE",
" %	c #D6DDC8",
".%	c #E5E9DD",
"+%	c #F9FAF8",
"@%	c #F7F8F4",
"#%	c #F2F4EE",
"$%	c #EFF2E9",
"%%	c #E6EADD",
"&%	c #E5EADC",
"*%	c #E4E9DB",
"=%	c #E5E9DB",
"-%	c #E8ECDF",
";%	c #EAEDE2",
">%	c #EEF0E7",
",%	c #F1F3EC",
"'%	c #F5F7F2",
". + @ @ @ @ # $ % & * = - ; > . . . . . . . . , , , , , , , , , , , , , , , , , , , , , , , , , ",
". @ @ @ @ @ , ' ) ! ~ { ] ^ / ( # # . . # # . , , , , , , , , , , , , , , , , , , , , , , , , , ",
". + @ @ @ _ : < [ } | 1 2 3 4 5 6 # . . # # # , , , , , , , , , , , , , , , , , , , , , , , , , ",
". . @ @ @ 7 8 9 0 @ @ a b c d e f . . . . . . , , , , , , , , , , , , , , , , , , , , , , , , , ",
". . @ @ g h i j k # # # . , l m n o . . # . . , , , , , , , , , , , , , , , , , , , , , , , , , ",
". + + + + p q r s . # . # t u v w x . . # . . , y z A B C D E F G H I J J K I L M M N O P Q R , ",
". @ @ @ S T U V W . # . # # X Y Z ` . # # # # ,  ...+.@.#.$.%.&.*.=.%.%.%.%.-.;.>.,.'.).!.~.{., ",
"+ @ @ @ t ].^./.(.# # # # . _.:.<.[.. . . . . , }.|.1.2.3.4.5.&.*.%.-.-.-.-.-.6.7.8.9.0.a.b.c., ",
"@ @ @ @ , d.e.f.g., , , , , h.i.j.k.. . . . . , l.m.n.o.p.q.r.-.s.t.5.5.5.5.u.0.1.v.w.x.y.a z.c.",
"@ @ @ @ A.B.C.D.E.F.G.H.I.J.K.L.M.N.O.. . . . , P.Q.R.S.T.U.V.W.-.X.Y.Z.`.s. +.+++@+#+$+%+&+. *+",
". @ @ @ =+-+;+>+,+'+)+!+~+{+]+^+/+(+_+. . . . , }.:+<+[+}+|+1+X.Y.Z.Z.`.s.2+5.3+4+5+6+7+8+9+0+t ",
"+ @ @ @ a+-+! b+{+c+d+e+f+f+g+h+h+i+_+. . . . , j+k+l+m+n+o+p+-.=.q+5.-.Z.r+s+t+u+v+w+x+y+z+A+, ",
"+ @ @ @ B+C+D+E+F+e+G+H+f+I+J+K+L+M+N+. . . . , }.O+P+Q+R+S+T+U+V+W+X+Y+-.Z+`+ @9+.@+@@@#@$@%@, ",
". @ @ @ &@*@!+d+e+=@-@;@>@h+,@'@'@)@!@. . . . , l.~@{@]@^@/@(@_@:@r.<@[@}@|@1@2@, R 3@4@5@6@7@8@",
"+ @ @ @ 9@0@a@f+f+b@c@d@e@f@g@h@i@j@k@. . . . , l.l@Z.m@n@o@p@q@r@s@t@u@v@w@x@y@z@, A@B@# C@D@E@",
"@ @ @ @ F@G@H@I@I+J@K@L@M@N@O@P@Q@R@S@. . . . , T@l@5.Z.U@V@W@Z.X@Y@Z@`@ #.#+#@###$#%#z@, &#*#=#",
". @ @ @ -#;#>#,#'#)#!#~#{#P@]#^#/#(#S@. # # # , P.l@5.Z.U@x _#:#<#[#}#|#1#2#3#4#5#6#7#, 8#z@9#0#",
". + @ @ -#a#J+L+b#f@c#d#e#f#g#h#i#j#k## # # # , l#m#5.Z.U@o@n#o#p#q#r#`@s#t#u#v#w#x#y#z#A#B#C#D#",
". @ @ @ E#F#G#N@g@H#I#J#K#g#/#L#M#N#O#. . . . , P#`.=.t.-.Q#R#S#T#U#V#W#X#Y#Z#`# $.$+$@$#$$$%$, ",
". + @ @ 9@&$g@i@P@*$=$-$;$>$,$'$)$!$O#+ ~$. . , <@{$]$^$S#/$($($_$S#:$<$[$}$|$1$2$3$4$5$6$, , , ",
"$ 7$8$! 9$0$P@a$b$g#c$>$i#'$d$)$e$f$g$h$i$k.~$, , , , , , , , , , , , , , j$k$l$m$n$z@z@, z@, , ",
"! o$p$q$r$s$t$u$v$w$x$y$z$A$B$C$D$E$F$;#G$H$I$, , , , , , , , , , , , , , , , , , , , , , , , , ",
"J$K$L$q$M$N$O$P$Q$R$S$T$U$V$W$X$Y$Z$q$`$ %.%I$, , , , , , , , , , , , , , , , , , , , , , , , , ",
"+%@%#%$%] *@%%&%*%e.=%*%=%*%=%%%-%;%>%,%'%k._ , , , , , , , , , , , , , , , , , , , , , , , , , "};
