/* XPM */
static char * private_data_xpm[] = {
"48 24 429 2",
"  	c None",
". 	c #FDFDFC",
"+ 	c #FCFCFB",
"@ 	c #FBFBFA",
"# 	c #FEFEFD",
"$ 	c #FAFBF9",
"% 	c #E2E4DD",
"& 	c #B3B7AB",
"* 	c #AAAFA0",
"= 	c #A8AB9F",
"- 	c #ADB2A2",
"; 	c #C2C6BC",
"> 	c #E3E4DF",
", 	c #FFFFFF",
"' 	c #A6AB9B",
") 	c #E5E6E1",
"! 	c #EEF1E8",
"~ 	c #E8ECDE",
"{ 	c #E5EADA",
"] 	c #EBEEE4",
"^ 	c #F1F2EE",
"/ 	c #DCDED6",
"( 	c #C7CAC1",
"_ 	c #FCFCFA",
": 	c #BCBFB5",
"< 	c #DDDFD7",
"[ 	c #DEE4D3",
"} 	c #AFB89D",
"| 	c #A2AB92",
"1 	c #A1A990",
"2 	c #ADB59B",
"3 	c #BFC6AF",
"4 	c #F6F7F1",
"5 	c #B3B8AB",
"6 	c #E4E6E0",
"7 	c #F7F7F4",
"8 	c #C0C4B8",
"9 	c #E8EDDF",
"0 	c #828A74",
"a 	c #FBFBF9",
"b 	c #F7F8F6",
"c 	c #CDD1C5",
"d 	c #A5AE94",
"e 	c #FCFEF9",
"f 	c #AAAFA1",
"g 	c #FCFBFB",
"h 	c #F3F4F0",
"i 	c #D5D8CE",
"j 	c #BCC5AB",
"k 	c #E6E9E1",
"l 	c #999F8C",
"m 	c #E0E6D5",
"n 	c #C6CBBF",
"o 	c #F8F9F7",
"p 	c #FCFCFD",
"q 	c #FAFAFD",
"r 	c #F3F3F6",
"s 	c #FEFEFF",
"t 	c #F0F1EC",
"u 	c #CACFBF",
"v 	c #B3BD9E",
"w 	c #EBECE9",
"x 	c #FEFEFE",
"y 	c #D6DACD",
"z 	c #BDC6AC",
"A 	c #D6D9CF",
"B 	c #F4F5F2",
"C 	c #E7E5EC",
"D 	c #FAF8FD",
"E 	c #C7C4E1",
"F 	c #828095",
"G 	c #F6F6FC",
"H 	c #9492A0",
"I 	c #F0F1F2",
"J 	c #FFFFFE",
"K 	c #FDFCFC",
"L 	c #DBDFD2",
"M 	c #CBD1C0",
"N 	c #A7B290",
"O 	c #F1F2EF",
"P 	c #E6E8E1",
"Q 	c #B2BD9D",
"R 	c #D1D5C8",
"S 	c #F5F6F3",
"T 	c #CBC9DA",
"U 	c #C3BDDB",
"V 	c #BAB6CE",
"W 	c #CFCCE6",
"X 	c #B1AFC4",
"Y 	c #DDDCED",
"Z 	c #9C99AB",
"` 	c #929197",
" .	c #C5C8C0",
"..	c #D5DCC9",
"+.	c #A6B190",
"@.	c #F3F3F1",
"#.	c #E7E9E2",
"$.	c #AEB998",
"%.	c #CDD2C3",
"&.	c #F4F6F2",
"*.	c #F6F4F9",
"=.	c #E4E1F0",
"-.	c #CBC8E1",
";.	c #D3D0E5",
">.	c #DAD9E9",
",.	c #E2E2EF",
"'.	c #E8E8F2",
").	c #CBCBCE",
"!.	c #D1D1D4",
"~.	c #AEAEB0",
"{.	c #EDEDED",
"].	c #C0C2BA",
"^.	c #E4E9DA",
"/.	c #B0BA9B",
"(.	c #F8F7F7",
"_.	c #ECEEE9",
":.	c #B5C0A1",
"<.	c #D7DBCE",
"[.	c #FAFAF7",
"}.	c #F5F3F8",
"|.	c #C3BFDA",
"1.	c #D5D1EB",
"2.	c #BDBBD0",
"3.	c #BEBDCE",
"4.	c #DAD9E6",
"5.	c #E1E2EB",
"6.	c #F3F4FB",
"7.	c #F9FAFF",
"8.	c #C0C0C3",
"9.	c #BBBBBB",
"0.	c #FDFDFD",
"a.	c #E0E3DB",
"b.	c #97A086",
"c.	c #A5AF92",
"d.	c #9AA485",
"e.	c #A2AB8D",
"f.	c #A3AD8D",
"g.	c #A1AB8B",
"h.	c #9DA787",
"i.	c #99A481",
"j.	c #97A381",
"k.	c #949F7E",
"l.	c #869171",
"m.	c #878F77",
"n.	c #A7A9A0",
"o.	c #F6F7F4",
"p.	c #D3D0E4",
"q.	c #DDDAEE",
"r.	c #B9B8CA",
"s.	c #C3C2CF",
"t.	c #BABAC3",
"u.	c #FAFAFE",
"v.	c #F1F2F5",
"w.	c #F1F2F6",
"x.	c #E3E4E8",
"y.	c #7A7A7C",
"z.	c #CAD1BB",
"A.	c #F2F4EC",
"B.	c #F4F7F0",
"C.	c #F1F4EC",
"D.	c #E2E7D7",
"E.	c #D0D8C1",
"F.	c #C5CEB1",
"G.	c #BFCAA9",
"H.	c #BCC8A4",
"I.	c #B8C4A0",
"J.	c #B5C39C",
"K.	c #B4C099",
"L.	c #B1BE94",
"M.	c #8A976E",
"N.	c #DDDFDA",
"O.	c #FDFEFD",
"P.	c #E0DFE9",
"Q.	c #E1E1F4",
"R.	c #D5D4E1",
"S.	c #FAF9FF",
"T.	c #6B6C71",
"U.	c #EFF0F0",
"V.	c #F4F9FC",
"W.	c #EEEEEF",
"X.	c #ECF0F5",
"Y.	c #DBE2E8",
"Z.	c #A3A8AB",
"`.	c #CDD5BF",
" +	c #D0D8BF",
".+	c #B5C19A",
"++	c #B3C099",
"@+	c #B2BF98",
"#+	c #B0BE95",
"$+	c #AEBB92",
"%+	c #ACBA8F",
"&+	c #8D9B72",
"*+	c #FBFCFB",
"=+	c #E2E0F2",
"-+	c #E9E7FA",
";+	c #DCDCE3",
">+	c #E6E5EF",
",+	c #C3C5C7",
"'+	c #F3F5F5",
")+	c #ECF0F4",
"!+	c #E7ECEF",
"~+	c #E4ECF1",
"{+	c #EDF7FF",
"]+	c #747E85",
"^+	c #FBFEFF",
"/+	c #CBD2BC",
"(+	c #EDF1E7",
"_+	c #D3DAC4",
":+	c #B6C29D",
"<+	c #B4C19A",
"[+	c #B5C29B",
"}+	c #B5C49A",
"|+	c #ADBB90",
"1+	c #ABB98E",
"2+	c #AAB98E",
"3+	c #AAB88C",
"4+	c #88966B",
"5+	c #DEDFDA",
"6+	c #ECEBF4",
"7+	c #EFF0F7",
"8+	c #E9EAF0",
"9+	c #757778",
"0+	c #ECEDED",
"a+	c #E9E9EB",
"b+	c #E0E6EA",
"c+	c #DFE6EE",
"d+	c #DAE5ED",
"e+	c #434B52",
"f+	c #CBD2BD",
"g+	c #E8ECE0",
"h+	c #AFBD94",
"i+	c #65724B",
"j+	c #424D2D",
"k+	c #849268",
"l+	c #A9B88C",
"m+	c #A7B789",
"n+	c #819163",
"o+	c #DEDFDB",
"p+	c #F1F1F3",
"q+	c #FAF9FD",
"r+	c #F6F5FB",
"s+	c #D4D6DA",
"t+	c #F0F1F6",
"u+	c #CACBCD",
"v+	c #DFE3E8",
"w+	c #EBF2F7",
"x+	c #D0DAE3",
"y+	c #CEDBE3",
"z+	c #BBCDDA",
"A+	c #C9D2D6",
"B+	c #FEFDFE",
"C+	c #C9D0BB",
"D+	c #DFE5D4",
"E+	c #B5C29C",
"F+	c #9FAD84",
"G+	c #444E31",
"H+	c #363E26",
"I+	c #3B432A",
"J+	c #ACBB8D",
"K+	c #A6B588",
"L+	c #A4B385",
"M+	c #A4B485",
"N+	c #7B8C5A",
"O+	c #DFE0DB",
"P+	c #FCFCFC",
"Q+	c #DCDCDF",
"R+	c #EDEEF1",
"S+	c #E2E7EB",
"T+	c #E4EBF1",
"U+	c #CFDAE3",
"V+	c #C4CCD7",
"W+	c #C0CDD6",
"X+	c #9BABB4",
"Y+	c #B7B9BC",
"Z+	c #FBFBFB",
"`+	c #CAD1BC",
" @	c #D7DEC9",
".@	c #B1BE96",
"+@	c #AEBC93",
"@@	c #ACBA8E",
"#@	c #5E6A48",
"$@	c #222718",
"%@	c #818E66",
"&@	c #A7B689",
"*@	c #A3B284",
"=@	c #A3B283",
"-@	c #A2B180",
";@	c #758652",
">@	c #DFE0DC",
",@	c #E2E2E2",
"'@	c #F4FAFD",
")@	c #EBF3FA",
"!@	c #D6DEE3",
"~@	c #DEE8F0",
"{@	c #CEDCE7",
"]@	c #68747F",
"^@	c #8E9295",
"/@	c #CACBC8",
"(@	c #DFDFDF",
"_@	c #F5F5F5",
":@	c #C9CFBB",
"<@	c #D0D8C0",
"[@	c #AEBC92",
"}@	c #ACBA90",
"|@	c #AAB88E",
"1@	c #ACBA8D",
"2@	c #74805B",
"3@	c #0A0D06",
"4@	c #A6B685",
"5@	c #A1B181",
"6@	c #A0B07F",
"7@	c #9DAE7B",
"8@	c #70804D",
"9@	c #F6F6F7",
"0@	c #959698",
"a@	c #82888B",
"b@	c #E3EAF1",
"c@	c #525A60",
"d@	c #BFC6CC",
"e@	c #697C85",
"f@	c #6A7077",
"g@	c #B7B6B9",
"h@	c #C7C7C7",
"i@	c #F9F9F9",
"j@	c #CBD4B9",
"k@	c #A8B78A",
"l@	c #2F3524",
"m@	c #000000",
"n@	c #78845E",
"o@	c #A3B382",
"p@	c #9FAF7E",
"q@	c #9EAE7D",
"r@	c #99AB77",
"s@	c #687847",
"t@	c #E0E1DC",
"u@	c #E6EDF2",
"v@	c #808489",
"w@	c #BABBBB",
"x@	c #F9F8F9",
"y@	c #E5E6E6",
"z@	c #C8CFBA",
"A@	c #C7D1B3",
"B@	c #A9B78B",
"C@	c #A6B586",
"D@	c #6A7553",
"E@	c #667150",
"F@	c #828F65",
"G@	c #9BAC79",
"H@	c #90A26C",
"I@	c #637243",
"J@	c #DFE1DC",
"K@	c #C2CDAD",
"L@	c #A2B181",
"M@	c #A4B483",
"N@	c #A2B381",
"O@	c #9FAF7D",
"P@	c #9CAD7B",
"Q@	c #9AAB77",
"R@	c #98AA75",
"S@	c #7F915B",
"T@	c #5E6D40",
"U@	c #FCFDFB",
"V@	c #F6F8F4",
"W@	c #F2F5EE",
"X@	c #BFC6AD",
"Y@	c #C0CBA9",
"Z@	c #A3B282",
"`@	c #A1B180",
" #	c #9DAE7C",
".#	c #92A56F",
"+#	c #718250",
"@#	c #5C6A40",
"##	c #D2D5CA",
"$#	c #F0F3EC",
"%#	c #F6F7F2",
"&#	c #DBE1CF",
"*#	c #D2DAC3",
"=#	c #CDD5BB",
"-#	c #A0AA89",
";#	c #879171",
">#	c #7C8A60",
",#	c #8A986B",
"'#	c #92A471",
")#	c #95A871",
"!#	c #93A76D",
"~#	c #8EA267",
"{#	c #889B61",
"]#	c #80935A",
"^#	c #758651",
"/#	c #647445",
"(#	c #55623A",
"_#	c #3E4827",
":#	c #B7BFA4",
"<#	c #D7DDC9",
"[#	c #E5EADD",
"}#	c #F8F9F5",
"|#	c #EEF0E8",
"1#	c #DAE0CE",
"2#	c #D1D9C1",
"3#	c #CCD5BA",
"4#	c #CBD5B8",
"5#	c #B8C3A4",
"6#	c #A2AC90",
"7#	c #919A7E",
"8#	c #878F76",
"9#	c #7E8771",
"0#	c #7C836E",
"a#	c #7D856E",
"b#	c #858D76",
"c#	c #8E977E",
"d#	c #A1AA8E",
"e#	c #BAC3A5",
"f#	c #CFD9BD",
"g#	c #CFD6BE",
"h#	c #D6DDC8",
"i#	c #E5E9DD",
"j#	c #F9FAF8",
"k#	c #F7F8F4",
"l#	c #F2F4EE",
"m#	c #EFF2E9",
"n#	c #E6EADD",
"o#	c #E5EADC",
"p#	c #E4E9DB",
"q#	c #E5E9DB",
"r#	c #E8ECDF",
"s#	c #EAEDE2",
"t#	c #EEF0E7",
"u#	c #F1F3EC",
"v#	c #F5F7F2",
". + @ @ @ @ # $ % & * = - ; > . . . . . . . . , , , , , , , , , , , , , , , , , , , , , , , , , ",
". @ @ @ @ @ , ' ) ! ~ { ] ^ / ( # # . . # # . , , , , , , , , , , , , , , , , , , , , , , , , , ",
". + @ @ @ _ : < [ } | 1 2 3 4 5 6 # . . # # # , , , , , , , , , , , , , , , , , , , , , , , , , ",
". . @ @ @ 7 8 9 0 @ @ a b c d e f . . . . . . , , , , , , , , , , , , , , , , , , , , , , , , , ",
". . @ @ g h i j k # # # . , l m n o . . # . . , , , , , , , , , , p q r , , s , , , , , , , , , ",
". + + + + t u v w . # . # x y z A B . . # . . , , , , , , , s , C D E F G H I J , , , , , , , , ",
". @ @ @ K L M N O . # . # # P Q R S . # # # # , , , , , , , , T U V W X Y Z ` , , , , , , , , , ",
"+ @ @ @ x  ...+.@.# # # # . #.$.%.&.. . . . . , , , , , , J *.=.-.;.>.,.'.).!.~.{.x , , , , , , ",
"@ @ @ @ , ].^./.(., , , , , _.:.<.[.. . . . . , , , , , , }.|.1.2.3.4.5.6.7., 8.9.0., , , , , , ",
"@ @ @ @ a.b.c.d.e.f.g.h.i.j.k.l.m.n.o.. . . . , , , , , , , p.q.r.s.t.u.v.w.x.y., , , , , , , , ",
". @ @ @ z.A.B.C.D.E.F.G.H.I.J.K.L.M.N.. . . . , , , , , O.P.Q.R.S.T.J U.V.W.X.Y.Z., x , , , , , ",
"+ @ @ @ `.A.!  +I..+++@+#+#+$+%+%+&+N.. . . . , , , , , *+=+-+;+>+,+. '+)+!+~+{+]+^+x , , , , , ",
"+ @ @ @ /+(+_+:+<+@+[+}+#+|+1+2+3+4+5+. . . . , , , , , , , 6+7+8+9+0+a+b+c+d+e+, # , , , , , , ",
". @ @ @ f+g+G.++@+h+i+j+k+%+l+m+m+n+o+. . . . , , , , , , p+q+r+s+t+u+v+w+x+y+z+A+B+, , , , , , ",
"+ @ @ @ C+D+E+#+#+F+G+H+I+J+K+L+M+N+O+. . . . , , , , , , P+Q+6+R+x.S+T+U+V+W+X+Y+Z+, , , , , , ",
"@ @ @ @ `+ @.@+@|+@@#@$@%@&@*@=@-@;@>@. . . . , , , , , , , , ,@'@)@!@~@{@]@^@/@(@_@, , , , , , ",
". @ @ @ :@<@[@}@|@1@2@3@4@=@5@6@7@8@>@. # # # , , , , , , , , 9@0@a@b@c@d@e@f@g@h@i@, , , , , , ",
". + @ @ :@j@1+3+k@J+l@m@n@o@p@q@r@s@t@# # # # , , , , , , , , , , P+u@v@w@x@y@, , , , , , , , , ",
". @ @ @ z@A@B@&@K+C@D@E@F@p@7@G@H@I@J@. . . . , , , , , , , , , x , , , , , , x , , , , , , , , ",
". + @ @ C+K@K+M+=@L@M@N@O@P@Q@R@S@T@J@+ U@. . , , , , , , , , , , , , , , , , , , , , , , , , , ",
"$ V@W@! X@Y@=@Z@`@p@ #P@r@R@.#S@+#@###$#%#[.U@, , , , , , , , , , , , , , , , , , , , , , , , , ",
"! &#*#=#-#;#>#,#'#)#!#~#{#]#^#/#(#_#:#<@<#[#}#, , , , , , , , , , , , , , , , , , , , , , , , , ",
"|#1#2#=#3#4#5#6#7#8#9#0#a#b#c#d#e#f#=#g#h#i#}#, , , , , , , , , , , , , , , , , , , , , , , , , ",
"j#k#l#m#] g+n#o#p#^.q#p#q#p#q#n#r#s#t#u#v#[._ , , , , , , , , , , , , , , , , , , , , , , , , , "};
