/* XPM */
static char * protected_inheritance_xpm[] = {
"48 24 421 2",
"  	c None",
". 	c #FFFFFF",
"+ 	c #FFFEFE",
"@ 	c #FCFAFA",
"# 	c #D9C8C8",
"$ 	c #AC8C8A",
"% 	c #F7EAEA",
"& 	c #9D5B5E",
"* 	c #7C4846",
"= 	c #F2E8E7",
"- 	c #B47275",
"; 	c #D29FA3",
"> 	c #F6E8E8",
", 	c #EED2D5",
"' 	c #8F5858",
") 	c #D6B7B5",
"! 	c #F0DBDB",
"~ 	c #F4DCDF",
"{ 	c #D2A8AD",
"] 	c #A45F62",
"^ 	c #CB9D9F",
"/ 	c #FCF7F8",
"( 	c #F0CED1",
"_ 	c #A6393F",
": 	c #BF8280",
"< 	c #925551",
"[ 	c #A04E52",
"} 	c #B2686C",
"| 	c #E1C2C4",
"1 	c #FDFCFC",
"2 	c #FEFAFA",
"3 	c #FBF0F0",
"4 	c #9D9CB1",
"5 	c #BFBDCE",
"6 	c #ABA9C4",
"7 	c #BBBAC9",
"8 	c #ABA9C0",
"9 	c #A9A7BE",
"0 	c #BAB9CA",
"a 	c #ABA9BE",
"b 	c #ADABC0",
"c 	c #BDBCC9",
"d 	c #B4B4BC",
"e 	c #B6B6BE",
"f 	c #B5B5BD",
"g 	c #B3B2BA",
"h 	c #B2B1B9",
"i 	c #B3B2BB",
"j 	c #BEBEC2",
"k 	c #BBBABE",
"l 	c #FFFEFF",
"m 	c #FDFDFE",
"n 	c #F5DEE0",
"o 	c #D17F86",
"p 	c #FDFBFC",
"q 	c #FDFDFD",
"r 	c #FEFDFD",
"s 	c #9B7573",
"t 	c #6B1D1D",
"u 	c #BEBFBC",
"v 	c #EBEBF1",
"w 	c #D9D9DB",
"x 	c #E1E1DD",
"y 	c #E5E6DF",
"z 	c #E0DFDC",
"A 	c #E3E3E3",
"B 	c #E0E0E0",
"C 	c #E1E1E1",
"D 	c #E4E4E4",
"E 	c #E6E6E6",
"F 	c #E6E6E7",
"G 	c #E5E5E6",
"H 	c #E4E4E6",
"I 	c #E2E2E4",
"J 	c #EBEBEC",
"K 	c #A4A4A5",
"L 	c #FCFCFC",
"M 	c #FCFCFD",
"N 	c #F7E7E7",
"O 	c #B96D6F",
"P 	c #905857",
"Q 	c #A75659",
"R 	c #BBBBBB",
"S 	c #EAEBF0",
"T 	c #E9E9E7",
"U 	c #E0E1D9",
"V 	c #E3E4D8",
"W 	c #DDDDD7",
"X 	c #E7E7E7",
"Y 	c #E6E6E4",
"Z 	c #E5E5E4",
"` 	c #E5E5E3",
" .	c #E7E7E6",
"..	c #EAEAE8",
"+.	c #A6A6A4",
"@.	c #FAFAFA",
"#.	c #FFFFFE",
"$.	c #FFFAFA",
"%.	c #A9575A",
"&.	c #FEF9FA",
"*.	c #985F5C",
"=.	c #A65052",
"-.	c #851D21",
";.	c #FFFCFD",
">.	c #8E4446",
",.	c #EFE1E1",
"'.	c #B8B8B8",
").	c #E9E9EE",
"!.	c #9FA09F",
"~.	c #C3C4BE",
"{.	c #D5D6CC",
"].	c #D3D3D0",
"^.	c #D2D2D2",
"/.	c #E8E8E8",
"(.	c #E5E5E5",
"_.	c #E9E9E8",
":.	c #E8E8E6",
"<.	c #E7E7E5",
"[.	c #EDEDEB",
"}.	c #AAAAA8",
"|.	c #FBFBF9",
"1.	c #FDFDFB",
"2.	c #AF6D6F",
"3.	c #F9EDED",
"4.	c #B78382",
"5.	c #933E3D",
"6.	c #822A2C",
"7.	c #864344",
"8.	c #FBF8F8",
"9.	c #B6B6B6",
"0.	c #E5E5F0",
"a.	c #8C8C91",
"b.	c #A3A3A4",
"c.	c #7D7D7B",
"d.	c #8B8A89",
"e.	c #858585",
"f.	c #D6D6D6",
"g.	c #EBEBEB",
"h.	c #EDEDED",
"i.	c #E9E9E9",
"j.	c #EAEAEA",
"k.	c #E9EAE9",
"l.	c #EBEAE9",
"m.	c #F0F2EF",
"n.	c #EDEEEC",
"o.	c #E4E4E2",
"p.	c #F0F0EE",
"q.	c #A7A7A5",
"r.	c #FEFEFB",
"s.	c #FDFDFC",
"t.	c #FEFEFF",
"u.	c #C89394",
"v.	c #DBC0C0",
"w.	c #CE9C9D",
"x.	c #8E3E3D",
"y.	c #924E4D",
"z.	c #FCF0F0",
"A.	c #874D4D",
"B.	c #EEEEF7",
"C.	c #E1E1E9",
"D.	c #D5D4DA",
"E.	c #C6C4C9",
"F.	c #A4A4A6",
"G.	c #CDCDCD",
"H.	c #EEEDEE",
"I.	c #BDB2B5",
"J.	c #936E7B",
"K.	c #87747B",
"L.	c #DBDBDB",
"M.	c #EBEBEA",
"N.	c #A5A5A5",
"O.	c #F8F8F9",
"P.	c #FEFEFE",
"Q.	c #E6C9CA",
"R.	c #9F6D6D",
"S.	c #DCC0BE",
"T.	c #833634",
"U.	c #AA7675",
"V.	c #DBC5C4",
"W.	c #976666",
"X.	c #B7B7B7",
"Y.	c #F5F5F8",
"Z.	c #BBBBBF",
"`.	c #CFCED3",
" +	c #E4E3E7",
".+	c #DFDEE0",
"++	c #D9D9D9",
"@+	c #CCCCCC",
"#+	c #F6F5F7",
"$+	c #97868C",
"%+	c #FDF4F8",
"&+	c #F9E7EC",
"*+	c #986478",
"=+	c #ECEEEC",
"-+	c #ABABA9",
";+	c #FAFAF8",
">+	c #FEFDFF",
",+	c #8C5051",
"'+	c #F4E6E7",
")+	c #F5DFE0",
"!+	c #6E1516",
"~+	c #AA7272",
"{+	c #A87B79",
"]+	c #BC9B9B",
"^+	c #E6E8E4",
"/+	c #AFB0AC",
"(+	c #A8A9A6",
"_+	c #939292",
":+	c #959495",
"<+	c #8B8B8B",
"[+	c #9A9A9A",
"}+	c #929292",
"|+	c #8D8D8D",
"1+	c #808080",
"2+	c #969696",
"3+	c #B5B8B8",
"4+	c #FBF0F6",
"5+	c #FEFDFE",
"6+	c #FBF2F4",
"7+	c #FFD6E5",
"8+	c #A78C97",
"9+	c #785E4C",
"0+	c #7D695B",
"a+	c #D7DCDD",
"b+	c #C9A6A5",
"c+	c #B88D8B",
"d+	c #FFF7F7",
"e+	c #7B2B29",
"f+	c #CB9D9B",
"g+	c #F9EDEE",
"h+	c #9F6666",
"i+	c #EDE3E3",
"j+	c #F3F4EF",
"k+	c #BDBEB8",
"l+	c #CECFCA",
"m+	c #C2C1C0",
"n+	c #D4D4D2",
"o+	c #CCCCCB",
"p+	c #D3D3D2",
"q+	c #CACACA",
"r+	c #C7C7C7",
"s+	c #D5D5D6",
"t+	c #F1F1F2",
"u+	c #999A9C",
"v+	c #FFEFF7",
"w+	c #FDFEFE",
"x+	c #B3A4AA",
"y+	c #E7DBC3",
"z+	c #FEF8E8",
"A+	c #FFEDCF",
"B+	c #DBB685",
"C+	c #D7D5D0",
"D+	c #FAECEB",
"E+	c #894442",
"F+	c #F7F0EF",
"G+	c #F1D9D5",
"H+	c #FDF8F6",
"I+	c #C09898",
"J+	c #CBAFAF",
"K+	c #F6F6F6",
"L+	c #EAEAE9",
"M+	c #EEEEED",
"N+	c #EFF0ED",
"O+	c #C2C2C3",
"P+	c #79797A",
"Q+	c #D8D8D8",
"R+	c #F8F8F8",
"S+	c #F7F7F7",
"T+	c #F2F2F4",
"U+	c #F1F1F3",
"V+	c #F0F2F4",
"W+	c #DFB0C2",
"X+	c #F7EEF2",
"Y+	c #FEFFFF",
"Z+	c #BFAEA8",
"`+	c #F9E4CD",
" @	c #FEFEFD",
".@	c #FFF8EE",
"+@	c #FDECCD",
"@@	c #A89C84",
"#@	c #B37E80",
"$@	c #F7D6D6",
"%@	c #611F1B",
"&@	c #9F7C77",
"*@	c #E8CECF",
"=@	c #AB7778",
"-@	c #EEE6E6",
";@	c #B9B9B9",
">@	c #ECECEC",
",@	c #F0F1EE",
"'@	c #9A9A9B",
")@	c #696969",
"!@	c #6B6B6B",
"~@	c #ACACAC",
"{@	c #E9E9EB",
"]@	c #E4E1E4",
"^@	c #286E4F",
"/@	c #8F9D94",
"(@	c #EBC2CF",
"_@	c #E4BECA",
":@	c #EFD0DD",
"<@	c #D0B499",
"[@	c #FFFEFB",
"}@	c #FCF6EC",
"|@	c #A79877",
"1@	c #FCF6F7",
"2@	c #AC7775",
"3@	c #D7BDBC",
"4@	c #EDC7C7",
"5@	c #A03D41",
"6@	c #CDA3A4",
"7@	c #EADADC",
"8@	c #97615F",
"9@	c #D3BCBA",
"0@	c #F4F5F2",
"a@	c #343434",
"b@	c #ECECEA",
"c@	c #F1F1F0",
"d@	c #F3F3F3",
"e@	c #A8A8A8",
"f@	c #141314",
"g@	c #297357",
"h@	c #A9D1BC",
"i@	c #CFEBEA",
"j@	c #DFF7F3",
"k@	c #B1CDC9",
"l@	c #697772",
"m@	c #CBAE8B",
"n@	c #FFFFFC",
"o@	c #FEFBF3",
"p@	c #B6A891",
"q@	c #E1D1D0",
"r@	c #916561",
"s@	c #D7C5C4",
"t@	c #FFF0F2",
"u@	c #F3E9EA",
"v@	c #835A5D",
"w@	c #886867",
"x@	c #F6F4F2",
"y@	c #B4B4B4",
"z@	c #F4F4F4",
"A@	c #A6A6A7",
"B@	c #C5C5C5",
"C@	c #606060",
"D@	c #757575",
"E@	c #C2C2C2",
"F@	c #689F87",
"G@	c #C5E4DD",
"H@	c #E2F3EF",
"I@	c #F9FCFB",
"J@	c #F0F8F8",
"K@	c #94AAAE",
"L@	c #C8CCCB",
"M@	c #D5BB97",
"N@	c #FFF2D9",
"O@	c #FFEECB",
"P@	c #C8B892",
"Q@	c #DEE0E3",
"R@	c #CBB8B6",
"S@	c #8E5956",
"T@	c #D1B7B5",
"U@	c #ECDEDD",
"V@	c #905C5C",
"W@	c #966466",
"X@	c #E6DEDF",
"Y@	c #A1A1A1",
"Z@	c #EAEAE7",
"`@	c #D1D2D0",
" #	c #B1B1B1",
".#	c #DADAD9",
"+#	c #F0F0F0",
"@#	c #EDEDEE",
"##	c #EAEAEC",
"$#	c #609882",
"%#	c #C7E1DE",
"&#	c #E3F3F1",
"*#	c #FCFEFD",
"=#	c #EFFCFA",
"-#	c #78868B",
";#	c #EBEAEB",
">#	c #D2D6D9",
",#	c #C0BBAE",
"'#	c #DBDCD4",
")#	c #F1F2F4",
"!#	c #D6BDBB",
"~#	c #965E5D",
"{#	c #986667",
"]#	c #E3C9CA",
"^#	c #D4B6B7",
"/#	c #704240",
"(#	c #A47D7B",
"_#	c #B3B3B3",
":#	c #AEAEAE",
"<#	c #AFAFAF",
"[#	c #AFB0AD",
"}#	c #B1B1AE",
"|#	c #B1B1B0",
"1#	c #B0B0B0",
"2#	c #B0AFB2",
"3#	c #7B8E89",
"4#	c #96BCB9",
"5#	c #CFD6E0",
"6#	c #DAE1E6",
"7#	c #B7B1C6",
"8#	c #B3B6B7",
"9#	c #AFAFB1",
"0#	c #B2B2B4",
"a#	c #6B6980",
"b#	c #EEE1E1",
"c#	c #B89393",
"d#	c #83413F",
"e#	c #9A5B5D",
"f#	c #D1BBBA",
"g#	c #FAF8F8",
"h#	c #9CA0A3",
"i#	c #7C999A",
"j#	c #8A97A2",
"k#	c #CACCCC",
"l#	c #FCFFFF",
"m#	c #F9F2F1",
"n#	c #FAF7F7",
". . . . . . . . . . . + @ + . . . . . . . . . . . . . . . . . . . . . . . . . . . . . . . . . . ",
". . . . . . . . . . . # $ # . . . . . . . . . . . . . . . . . . . . . . . . . . . . . . . . . . ",
". . . . . . . . . . % & * & % . . . . . . . . . . . . . . . . . . . . . . . . . . . . . . . . . ",
". . . . . . . . . = - ; > ; - = . . . . . . . . . . . . . . . . . . . . . . . . . . . . . . . . ",
". . . , ' ) ! ~ { ] ^ / . / ^ ] { ~ ! ) ' , . . . . . . . . . . . . . . . . . . . . . . . . . . ",
". . . ( _ : < [ } | 1 2 3 2 1 | } [ < : _ ( . . 4 5 6 7 8 9 0 a b c d e e f d g h h i j k l m . ",
". . . n o p q r r + . s t s . + r r q p o n . . u v w x y z A B C D A A A A E F G H I J K L M . ",
". . . N O r . . . . . P Q P . . . . . r O N . . R S T U V W X B C A E E E E E Y Z `  ...+.@.#.. ",
". . . $.%.&.. . . . . *.=.-.;.. . . . . >.,.. . '.).!.~.{.].^.E /.(.X X X X _...T :.<.[.}.|.1.#.",
". . . . 2.3.. . . . . 4.5.6.. . . . . . 7.8.. . 9.0.a.b.c.d.e.f.E g.h.i.j./.k.l.m.n.o.p.q.r.s.t.",
". . . . u.v.. . . . . w.x.y.. . . . . z.A.@ . . R B.C.D.E.F.G.g.h.i.i.j./.H.X I.J.K.L.M.N.q O.P.",
". . . . Q.R.. . . . . S.T.U.. . . . . V.W.r . . X.Y.Z.`. +.+++E D @+X E i.#+$+%+/ &+*+=+-+;+>+. ",
". . . . . ,+'+. . . . )+!+~+. . . . . {+]+. . . R ^+/+(+_+:+<+[+}+|+1+2+E 3+4+5+q 6+7+8+9+0+a+. ",
". . . . . b+c+. . . . d+e+f+. . . . g+h+i+. . . '.j+k+l+m+n+o+p+q+^.r+s+t+u+v+w+. m x+y+z+A+B+C+",
". . . . . D+E+F+. . . . G+H+. . . . I+J+1 . . . '.K+i.L+M+N+O+P+Q+R+S+T+U+V+W+X+Y+. Z+`+ @.@+@@@",
". . . . . . ^ #@. . . $@%@&@. . . *@=@-@. . . . ;@K+X i.>@,@'@i.)@!@~@{@]@^@/@(@_@:@<@Y+. [@}@|@",
". . . . . . 1@2@3@. . 4@5@6@. . 7@8@9@. . . . . 9.K+X i.>@0@a@b@c@d@e@f@g@h@i@j@k@l@m@. n@Y+o@p@",
". . . . . . . q@r@s@. . t@. . u@v@w@x@. . . . . y@z@X i.>@N+A@B@C@D@E@{@F@G@H@I@J@K@L@M@N@O@P@Q@",
". . . . . . . Y+R@S@T@. . . U@V@W@X@. . . . . . Y@j.D (.E Z@`@ #.#+#@###$#%#&#*#=#-#;#>#,#'#)#. ",
". . . . . . . . r !#~#{#]#^#/#(#g+. . . . . . . r+_#:#<# #[#}#}#|# #1#2#3#4#5#6#7#8#9#0#a#. . . ",
". . . . . . . . . . b#c#d#e#f#g#. . . . . . . . . . . . . . . . . . . . . h#i#j#k#l#Y+Y+. Y+. . ",
". . . . . . . . . . . 1 m#n#P.. . . . . . . . . . . . . . . . . . . . . . . . . . . . . . . . . ",
". . . . . . . . . . . . . . . . . . . . . . . . . . . . . . . . . . . . . . . . . . . . . . . . ",
". . . . . . . . . . . . . . . . . . . . . . . . . . . . . . . . . . . . . . . . . . . . . . . . "};
