/* XPM */
static char * protected_xpm[] = {
"24 24 107 2",
"  	c None",
". 	c #F5F0DE",
"+ 	c #EFE7C8",
"@ 	c #E4D6A1",
"# 	c #E9DDB0",
"$ 	c #F4EFDB",
"% 	c #F5F0DC",
"& 	c #ECE2BB",
"* 	c #DFCE8E",
"= 	c #D4BD67",
"- 	c #C9AD40",
"; 	c #9C842B",
"> 	c #A58C2E",
", 	c #D0B85B",
"' 	c #EAE0B7",
") 	c #F4EED9",
"! 	c #D4BE69",
"~ 	c #BCA035",
"{ 	c #B09631",
"] 	c #8F7A28",
"^ 	c #917B28",
"/ 	c #877326",
"( 	c #6A5A1D",
"_ 	c #D2BB61",
": 	c #D5BF6A",
"< 	c #D5BF6C",
"[ 	c #F1EACE",
"} 	c #BB9F34",
"| 	c #9D862C",
"1 	c #947E29",
"2 	c #786621",
"3 	c #756320",
"4 	c #CEB451",
"5 	c #EBE0B8",
"6 	c #EADFB5",
"7 	c #CEB553",
"8 	c #F0E8C9",
"9 	c #B39832",
"0 	c #99822A",
"a 	c #97802A",
"b 	c #7C6A23",
"c 	c #DECD8D",
"d 	c #D1B95C",
"e 	c #EEE6C5",
"f 	c #EFE6C6",
"g 	c #AB9230",
"h 	c #867225",
"i 	c #EEE5C3",
"j 	c #EDE4C2",
"k 	c #A28A2D",
"l 	c #AA902F",
"m 	c #927C29",
"n 	c #D2BA5F",
"o 	c #F2EBD1",
"p 	c #EDE3BE",
"q 	c #C7A938",
"r 	c #ECE2BD",
"s 	c #9A832B",
"t 	c #CDB350",
"u 	c #E5D8A4",
"v 	c #E2D399",
"w 	c #7E6B23",
"x 	c #8C7727",
"y 	c #C1A436",
"z 	c #AD9330",
"A 	c #847025",
"B 	c #736220",
"C 	c #E9DEB2",
"D 	c #8A7627",
"E 	c #957F2A",
"F 	c #4F4316",
"G 	c #554918",
"H 	c #524617",
"I 	c #4E4215",
"J 	c #836F24",
"K 	c #403611",
"L 	c #3E3511",
"M 	c #413712",
"N 	c #68581D",
"O 	c #EBE1BA",
"P 	c #716020",
"Q 	c #393110",
"R 	c #3B3210",
"S 	c #B89C33",
"T 	c #796722",
"U 	c #6E5E1F",
"V 	c #382F0F",
"W 	c #362E0F",
"X 	c #DECD8B",
"Y 	c #6D5C1E",
"Z 	c #352D0E",
"` 	c #332B0E",
" .	c #544717",
"..	c #DCC983",
"+.	c #D3BC64",
"@.	c #312A0E",
"#.	c #A88F2F",
"$.	c #F4EED7",
"%.	c #C4A737",
"&.	c #6B5B1E",
"*.	c #2D260C",
"=.	c #E3D49C",
"-.	c #EDE4C0",
";.	c #2E270D",
">.	c #F2ECD3",
",.	c #D6C16F",
"'.	c #CCB14B",
"                                                ",
"                                                ",
"                                                ",
"                    . + @ # $                   ",
"              % & * = - ; > , * ' )             ",
"              ! ~ { ] ^ / ( ; _ : < $           ",
"            [ } { > | 1 2 3 4 5 6 7 +           ",
"            8 9 } ^ 0 a b | c 8 $ d e           ",
"            f g { 1 0 0 h - ' . $ 4 i           ",
"            j k l m 0 0 m n i o p q r           ",
"            & s k m 0 0 ] t u v : ; 5           ",
"            ' ^ ; 1 0 0 w x y z A B 5           ",
"            C D E a 0 0 2 F G H I ( '           ",
"            C J x a 0 0 B K L K M N O           ",
"            r ] J a 0 0 P Q Q R L 3 +           ",
"              S T a 1 a U V W V Q z %           ",
"              X 1 J 1 1 Y Z ` Z  ...            ",
"                +.3 h 1 Y ` @.` #.$             ",
"                $.%.B x &.` *.2 =.              ",
"                  -.- B G ;.h X                 ",
"                    >.,.'.'.6                   ",
"                                                ",
"                                                ",
"                                                "};
