/* XPM */
static char * protected_data_xpm[] = {
"48 24 283 2",
"  	c None",
". 	c #FFFFFF",
"+ 	c #FFFEFE",
"@ 	c #FCFAFA",
"# 	c #D9C8C8",
"$ 	c #AC8C8A",
"% 	c #F7EAEA",
"& 	c #9D5B5E",
"* 	c #7C4846",
"= 	c #F2E8E7",
"- 	c #B47275",
"; 	c #D29FA3",
"> 	c #F6E8E8",
", 	c #EED2D5",
"' 	c #8F5858",
") 	c #D6B7B5",
"! 	c #F0DBDB",
"~ 	c #F4DCDF",
"{ 	c #D2A8AD",
"] 	c #A45F62",
"^ 	c #CB9D9F",
"/ 	c #FCF7F8",
"( 	c #FCFCFD",
"_ 	c #FAFAFD",
": 	c #F3F3F6",
"< 	c #FEFEFF",
"[ 	c #F0CED1",
"} 	c #A6393F",
"| 	c #BF8280",
"1 	c #925551",
"2 	c #A04E52",
"3 	c #B2686C",
"4 	c #E1C2C4",
"5 	c #FDFCFC",
"6 	c #FEFAFA",
"7 	c #FBF0F0",
"8 	c #E7E5EC",
"9 	c #FAF8FD",
"0 	c #C7C4E1",
"a 	c #828095",
"b 	c #F6F6FC",
"c 	c #9492A0",
"d 	c #F0F1F2",
"e 	c #FFFFFE",
"f 	c #F5DEE0",
"g 	c #D17F86",
"h 	c #FDFBFC",
"i 	c #FDFDFD",
"j 	c #FEFDFD",
"k 	c #9B7573",
"l 	c #6B1D1D",
"m 	c #CBC9DA",
"n 	c #C3BDDB",
"o 	c #BAB6CE",
"p 	c #CFCCE6",
"q 	c #B1AFC4",
"r 	c #DDDCED",
"s 	c #9C99AB",
"t 	c #929197",
"u 	c #F7E7E7",
"v 	c #B96D6F",
"w 	c #905857",
"x 	c #A75659",
"y 	c #F6F4F9",
"z 	c #E4E1F0",
"A 	c #CBC8E1",
"B 	c #D3D0E5",
"C 	c #DAD9E9",
"D 	c #E2E2EF",
"E 	c #E8E8F2",
"F 	c #CBCBCE",
"G 	c #D1D1D4",
"H 	c #AEAEB0",
"I 	c #EDEDED",
"J 	c #FEFEFE",
"K 	c #FFFAFA",
"L 	c #A9575A",
"M 	c #FEF9FA",
"N 	c #985F5C",
"O 	c #A65052",
"P 	c #851D21",
"Q 	c #FFFCFD",
"R 	c #8E4446",
"S 	c #EFE1E1",
"T 	c #F5F3F8",
"U 	c #C3BFDA",
"V 	c #D5D1EB",
"W 	c #BDBBD0",
"X 	c #BEBDCE",
"Y 	c #DAD9E6",
"Z 	c #E1E2EB",
"` 	c #F3F4FB",
" .	c #F9FAFF",
"..	c #C0C0C3",
"+.	c #BBBBBB",
"@.	c #AF6D6F",
"#.	c #F9EDED",
"$.	c #B78382",
"%.	c #933E3D",
"&.	c #822A2C",
"*.	c #864344",
"=.	c #FBF8F8",
"-.	c #D3D0E4",
";.	c #DDDAEE",
">.	c #B9B8CA",
",.	c #C3C2CF",
"'.	c #BABAC3",
").	c #FAFAFE",
"!.	c #F1F2F5",
"~.	c #F1F2F6",
"{.	c #E3E4E8",
"].	c #7A7A7C",
"^.	c #C89394",
"/.	c #DBC0C0",
"(.	c #CE9C9D",
"_.	c #8E3E3D",
":.	c #924E4D",
"<.	c #FCF0F0",
"[.	c #874D4D",
"}.	c #FDFEFD",
"|.	c #E0DFE9",
"1.	c #E1E1F4",
"2.	c #D5D4E1",
"3.	c #FAF9FF",
"4.	c #6B6C71",
"5.	c #EFF0F0",
"6.	c #F4F9FC",
"7.	c #EEEEEF",
"8.	c #ECF0F5",
"9.	c #DBE2E8",
"0.	c #A3A8AB",
"a.	c #E6C9CA",
"b.	c #9F6D6D",
"c.	c #DCC0BE",
"d.	c #833634",
"e.	c #AA7675",
"f.	c #DBC5C4",
"g.	c #976666",
"h.	c #FBFCFB",
"i.	c #E2E0F2",
"j.	c #E9E7FA",
"k.	c #DCDCE3",
"l.	c #E6E5EF",
"m.	c #C3C5C7",
"n.	c #FDFDFC",
"o.	c #F3F5F5",
"p.	c #ECF0F4",
"q.	c #E7ECEF",
"r.	c #E4ECF1",
"s.	c #EDF7FF",
"t.	c #747E85",
"u.	c #FBFEFF",
"v.	c #8C5051",
"w.	c #F4E6E7",
"x.	c #F5DFE0",
"y.	c #6E1516",
"z.	c #AA7272",
"A.	c #A87B79",
"B.	c #BC9B9B",
"C.	c #ECEBF4",
"D.	c #EFF0F7",
"E.	c #E9EAF0",
"F.	c #757778",
"G.	c #ECEDED",
"H.	c #E9E9EB",
"I.	c #E0E6EA",
"J.	c #DFE6EE",
"K.	c #DAE5ED",
"L.	c #434B52",
"M.	c #FEFEFD",
"N.	c #C9A6A5",
"O.	c #B88D8B",
"P.	c #FFF7F7",
"Q.	c #7B2B29",
"R.	c #CB9D9B",
"S.	c #F9EDEE",
"T.	c #9F6666",
"U.	c #EDE3E3",
"V.	c #F1F1F3",
"W.	c #FAF9FD",
"X.	c #F6F5FB",
"Y.	c #D4D6DA",
"Z.	c #F0F1F6",
"`.	c #CACBCD",
" +	c #DFE3E8",
".+	c #EBF2F7",
"++	c #D0DAE3",
"@+	c #CEDBE3",
"#+	c #BBCDDA",
"$+	c #C9D2D6",
"%+	c #FEFDFE",
"&+	c #FAECEB",
"*+	c #894442",
"=+	c #F7F0EF",
"-+	c #F1D9D5",
";+	c #FDF8F6",
">+	c #C09898",
",+	c #CBAFAF",
"'+	c #FCFCFC",
")+	c #DCDCDF",
"!+	c #EDEEF1",
"~+	c #E2E7EB",
"{+	c #E4EBF1",
"]+	c #CFDAE3",
"^+	c #C4CCD7",
"/+	c #C0CDD6",
"(+	c #9BABB4",
"_+	c #B7B9BC",
":+	c #FBFBFB",
"<+	c #B37E80",
"[+	c #F7D6D6",
"}+	c #611F1B",
"|+	c #9F7C77",
"1+	c #E8CECF",
"2+	c #AB7778",
"3+	c #EEE6E6",
"4+	c #E2E2E2",
"5+	c #F4FAFD",
"6+	c #EBF3FA",
"7+	c #D6DEE3",
"8+	c #DEE8F0",
"9+	c #CEDCE7",
"0+	c #68747F",
"a+	c #8E9295",
"b+	c #CACBC8",
"c+	c #DFDFDF",
"d+	c #F5F5F5",
"e+	c #FCF6F7",
"f+	c #AC7775",
"g+	c #D7BDBC",
"h+	c #EDC7C7",
"i+	c #A03D41",
"j+	c #CDA3A4",
"k+	c #EADADC",
"l+	c #97615F",
"m+	c #D3BCBA",
"n+	c #F6F6F7",
"o+	c #959698",
"p+	c #82888B",
"q+	c #E3EAF1",
"r+	c #525A60",
"s+	c #BFC6CC",
"t+	c #697C85",
"u+	c #6A7077",
"v+	c #B7B6B9",
"w+	c #C7C7C7",
"x+	c #F9F9F9",
"y+	c #E1D1D0",
"z+	c #916561",
"A+	c #D7C5C4",
"B+	c #FFF0F2",
"C+	c #F3E9EA",
"D+	c #835A5D",
"E+	c #886867",
"F+	c #F6F4F2",
"G+	c #E6EDF2",
"H+	c #808489",
"I+	c #BABBBB",
"J+	c #F9F8F9",
"K+	c #E5E6E6",
"L+	c #FEFFFF",
"M+	c #CBB8B6",
"N+	c #8E5956",
"O+	c #D1B7B5",
"P+	c #ECDEDD",
"Q+	c #905C5C",
"R+	c #966466",
"S+	c #E6DEDF",
"T+	c #D6BDBB",
"U+	c #965E5D",
"V+	c #986667",
"W+	c #E3C9CA",
"X+	c #D4B6B7",
"Y+	c #704240",
"Z+	c #A47D7B",
"`+	c #EEE1E1",
" @	c #B89393",
".@	c #83413F",
"+@	c #9A5B5D",
"@@	c #D1BBBA",
"#@	c #FAF8F8",
"$@	c #F9F2F1",
"%@	c #FAF7F7",
". . . . . . . . . . . + @ + . . . . . . . . . . . . . . . . . . . . . . . . . . . . . . . . . . ",
". . . . . . . . . . . # $ # . . . . . . . . . . . . . . . . . . . . . . . . . . . . . . . . . . ",
". . . . . . . . . . % & * & % . . . . . . . . . . . . . . . . . . . . . . . . . . . . . . . . . ",
". . . . . . . . . = - ; > ; - = . . . . . . . . . . . . . . . . . . . . . . . . . . . . . . . . ",
". . . , ' ) ! ~ { ] ^ / . / ^ ] { ~ ! ) ' , . . . . . . . . . . . ( _ : . . < . . . . . . . . . ",
". . . [ } | 1 2 3 4 5 6 7 6 5 4 3 2 1 | } [ . . . . . . . . < . 8 9 0 a b c d e . . . . . . . . ",
". . . f g h i j j + . k l k . + j j i h g f . . . . . . . . . m n o p q r s t . . . . . . . . . ",
". . . u v j . . . . . w x w . . . . . j v u . . . . . . . e y z A B C D E F G H I J . . . . . . ",
". . . K L M . . . . . N O P Q . . . . . R S . . . . . . . T U V W X Y Z `  .. ..+.i . . . . . . ",
". . . . @.#.. . . . . $.%.&.. . . . . . *.=.. . . . . . . . -.;.>.,.'.).!.~.{.].. . . . . . . . ",
". . . . ^./.. . . . . (._.:.. . . . . <.[.@ . . . . . . }.|.1.2.3.4.e 5.6.7.8.9.0.. J . . . . . ",
". . . . a.b.. . . . . c.d.e.. . . . . f.g.j . . . . . . h.i.j.k.l.m.n.o.p.q.r.s.t.u.J . . . . . ",
". . . . . v.w.. . . . x.y.z.. . . . . A.B.. . . . . . . . . C.D.E.F.G.H.I.J.K.L.. M.. . . . . . ",
". . . . . N.O.. . . . P.Q.R.. . . . S.T.U.. . . . . . . . V.W.X.Y.Z.`. +.+++@+#+$+%+. . . . . . ",
". . . . . &+*+=+. . . . -+;+. . . . >+,+5 . . . . . . . . '+)+C.!+{.~+{+]+^+/+(+_+:+. . . . . . ",
". . . . . . ^ <+. . . [+}+|+. . . 1+2+3+. . . . . . . . . . . 4+5+6+7+8+9+0+a+b+c+d+. . . . . . ",
". . . . . . e+f+g+. . h+i+j+. . k+l+m+. . . . . . . . . . . . n+o+p+q+r+s+t+u+v+w+x+. . . . . . ",
". . . . . . . y+z+A+. . B+. . C+D+E+F+. . . . . . . . . . . . . . '+G+H+I+J+K+. . . . . . . . . ",
". . . . . . . L+M+N+O+. . . P+Q+R+S+. . . . . . . . . . . . . . J . . . . . . J . . . . . . . . ",
". . . . . . . . j T+U+V+W+X+Y+Z+S.. . . . . . . . . . . . . . . . . . . . . . . . . . . . . . . ",
". . . . . . . . . . `+ @.@+@@@#@. . . . . . . . . . . . . . . . . . . . . . . . . . . . . . . . ",
". . . . . . . . . . . 5 $@%@J . . . . . . . . . . . . . . . . . . . . . . . . . . . . . . . . . ",
". . . . . . . . . . . . . . . . . . . . . . . . . . . . . . . . . . . . . . . . . . . . . . . . ",
". . . . . . . . . . . . . . . . . . . . . . . . . . . . . . . . . . . . . . . . . . . . . . . . "};
