/* XPM */
static char * protected_constructor_xpm[] = {
"48 24 620 2",
"  	c None",
". 	c #FFFFFF",
"+ 	c #FFFEFE",
"@ 	c #FCFAFA",
"# 	c #FEFEFE",
"$ 	c #FDFDFD",
"% 	c #F9FAFC",
"& 	c #F1F4E9",
"* 	c #EFF1EF",
"= 	c #F3F6F4",
"- 	c #F4F8F2",
"; 	c #F5F9F4",
"> 	c #F2F5EA",
", 	c #F6F9F0",
"' 	c #F4F7F6",
") 	c #F5F8F6",
"! 	c #F1F4EE",
"~ 	c #EDEFE9",
"{ 	c #F2F3F6",
"] 	c #D9C8C8",
"^ 	c #AC8C8A",
"/ 	c #FDFDFE",
"( 	c #FEFEFD",
"_ 	c #F6F6F5",
": 	c #E8EEEA",
"< 	c #F1F8EE",
"[ 	c #E7EDE1",
"} 	c #DDEBBF",
"| 	c #D3E2AB",
"1 	c #CDE18B",
"2 	c #CDE47D",
"3 	c #CBE08D",
"4 	c #CFE09E",
"5 	c #DAE7B6",
"6 	c #E7F0D2",
"7 	c #EFF4F5",
"8 	c #EAF3DF",
"9 	c #F4F4F3",
"0 	c #FAFAFA",
"a 	c #F7EAEA",
"b 	c #9D5B5E",
"c 	c #7C4846",
"d 	c #F3F4EF",
"e 	c #E7E9E7",
"f 	c #E6EFF2",
"g 	c #D3E4B0",
"h 	c #CAE28D",
"i 	c #D7E9A0",
"j 	c #E8F5C1",
"k 	c #EDF5E1",
"l 	c #F6FCE9",
"m 	c #F1FAE2",
"n 	c #EAF6CB",
"o 	c #DDEBB0",
"p 	c #D0E58D",
"q 	c #CFE29A",
"r 	c #E2ECE5",
"s 	c #E8EEE8",
"t 	c #EAEDE8",
"u 	c #FBFBFB",
"v 	c #FDFDFC",
"w 	c #F2E8E7",
"x 	c #B47275",
"y 	c #D29FA3",
"z 	c #F6E8E8",
"A 	c #F4F6F1",
"B 	c #DFE4DC",
"C 	c #DCE2E9",
"D 	c #C6DC8E",
"E 	c #C9E182",
"F 	c #DEF1AE",
"G 	c #DFF1B0",
"H 	c #D8ED9C",
"I 	c #D1F182",
"J 	c #C0E580",
"K 	c #CEED7E",
"L 	c #D7ED90",
"M 	c #DFF2A7",
"N 	c #DDEEB2",
"O 	c #D3E797",
"P 	c #C4DB75",
"Q 	c #D8E3DE",
"R 	c #DDE4E0",
"S 	c #E9EDEA",
"T 	c #FBFCFC",
"U 	c #EED2D5",
"V 	c #8F5858",
"W 	c #D6B7B5",
"X 	c #F0DBDB",
"Y 	c #F4DCDF",
"Z 	c #D2A8AD",
"` 	c #A45F62",
" .	c #CB9D9F",
"..	c #FCF7F8",
"+.	c #FCFCFD",
"@.	c #E8EBE8",
"#.	c #D9E0E2",
"$.	c #CCDF9E",
"%.	c #AED830",
"&.	c #BCDE66",
"*.	c #B4DF34",
"=.	c #A4D128",
"-.	c #A4D317",
";.	c #8BCA17",
">.	c #1E600B",
",.	c #96D126",
"'.	c #A6D215",
").	c #A6D526",
"!.	c #B0DB3E",
"~.	c #B8DE54",
"{.	c #B3DC47",
"].	c #B0D15D",
"^.	c #DBE4E5",
"/.	c #DEE6DC",
"(.	c #F4F5F6",
"_.	c #FDFCFD",
":.	c #F0CED1",
"<.	c #A6393F",
"[.	c #BF8280",
"}.	c #925551",
"|.	c #A04E52",
"1.	c #B2686C",
"2.	c #E1C2C4",
"3.	c #FDFCFC",
"4.	c #FEFAFA",
"5.	c #FBF0F0",
"6.	c #F4F7F8",
"7.	c #DDE1E0",
"8.	c #D8E1CF",
"9.	c #A3CE35",
"0.	c #97CF0A",
"a.	c #A2D415",
"b.	c #9FD010",
"c.	c #9ACE0C",
"d.	c #9CD313",
"e.	c #7DC00B",
"f.	c #0C6A04",
"g.	c #8DC611",
"h.	c #9AD610",
"i.	c #98D10A",
"j.	c #97CD04",
"k.	c #9AD313",
"l.	c #9ED70D",
"m.	c #9CCD13",
"n.	c #C4DF9C",
"o.	c #DAE1E5",
"p.	c #EAEEEA",
"q.	c #F9FCFB",
"r.	c #F5DEE0",
"s.	c #D17F86",
"t.	c #FDFBFC",
"u.	c #FEFDFD",
"v.	c #9B7573",
"w.	c #6B1D1D",
"x.	c #EAF0EE",
"y.	c #DAE0E1",
"z.	c #C4DA8F",
"A.	c #9ACF14",
"B.	c #94CE0D",
"C.	c #9ACC11",
"D.	c #91CD0D",
"E.	c #58A515",
"F.	c #63A50F",
"G.	c #84BF0E",
"H.	c #0C7405",
"I.	c #8DCA05",
"J.	c #5BA410",
"K.	c #52A113",
"L.	c #94CD0F",
"M.	c #95CA09",
"N.	c #98CA0E",
"O.	c #99CD10",
"P.	c #A9D743",
"Q.	c #D8E0DC",
"R.	c #E3E7E3",
"S.	c #F6FAF8",
"T.	c #F7E7E7",
"U.	c #B96D6F",
"V.	c #905857",
"W.	c #A75659",
"X.	c #E0E5E4",
"Y.	c #D8E0D9",
"Z.	c #ABD159",
"`.	c #95CB0A",
" +	c #93CC15",
".+	c #93C70D",
"++	c #6BB811",
"@+	c #207B0C",
"#+	c #6DB20D",
"$+	c #7EBD10",
"%+	c #198002",
"&+	c #85CB0A",
"*+	c #6EAF16",
"=+	c #207904",
"-+	c #62AC10",
";+	c #96CD0D",
">+	c #90C60A",
",+	c #94CC10",
"'+	c #96CB20",
")+	c #CDDDB7",
"!+	c #DCE1DC",
"~+	c #F2F5F4",
"{+	c #FDFEFE",
"]+	c #FFFAFA",
"^+	c #A9575A",
"/+	c #FEF9FA",
"(+	c #985F5C",
"_+	c #A65052",
":+	c #851D21",
"<+	c #FFFCFD",
"[+	c #8E4446",
"}+	c #EFE1E1",
"|+	c #DEE2E3",
"1+	c #D4DEC8",
"2+	c #9BCC3A",
"3+	c #8CC60A",
"4+	c #89C60D",
"5+	c #8AC40F",
"6+	c #3B920F",
"7+	c #459509",
"8+	c #95CC0D",
"9+	c #74BC0C",
"0+	c #25890D",
"a+	c #88C40F",
"b+	c #89C810",
"c+	c #4D9B0A",
"d+	c #3E9110",
"e+	c #86C612",
"f+	c #8BC60C",
"g+	c #8CC809",
"h+	c #8BC614",
"i+	c #BFD791",
"j+	c #DCE0E4",
"k+	c #EFF4EF",
"l+	c #AF6D6F",
"m+	c #F9EDED",
"n+	c #B78382",
"o+	c #933E3D",
"p+	c #822A2C",
"q+	c #864344",
"r+	c #FBF8F8",
"s+	c #DFE4E3",
"t+	c #D2DEC3",
"u+	c #96CA37",
"v+	c #84C208",
"w+	c #82C108",
"x+	c #84C10D",
"y+	c #268008",
"z+	c #5CA810",
"A+	c #8DC408",
"B+	c #74BB0B",
"C+	c #227F04",
"D+	c #8CC30B",
"E+	c #88C80E",
"F+	c #5FA407",
"G+	c #328306",
"H+	c #7DBE0F",
"I+	c #85C30D",
"J+	c #83C20A",
"K+	c #86C613",
"L+	c #B8D57E",
"M+	c #E0E4E6",
"N+	c #EFF4EE",
"O+	c #C89394",
"P+	c #DBC0C0",
"Q+	c #CE9C9D",
"R+	c #8E3E3D",
"S+	c #924E4D",
"T+	c #FCF0F0",
"U+	c #874D4D",
"V+	c #DEE3E3",
"W+	c #D2E0C8",
"X+	c #91C840",
"Y+	c #7DBE07",
"Z+	c #81BE0C",
"`+	c #83C00A",
" @	c #29810B",
".@	c #4A970D",
"+@	c #84C20D",
"@@	c #78BB0F",
"#@	c #66B511",
"$@	c #85C10C",
"%@	c #7EBE0D",
"&@	c #529D07",
"*@	c #378807",
"=@	c #79BB0C",
"-@	c #7ABC09",
";@	c #7CBD0D",
">@	c #80C114",
",@	c #B9D789",
"'@	c #DFE4E2",
")@	c #F0F5EF",
"!@	c #E6C9CA",
"~@	c #9F6D6D",
"{@	c #DCC0BE",
"]@	c #833634",
"^@	c #AA7675",
"/@	c #DBC5C4",
"(@	c #976666",
"_@	c #E0E3E3",
":@	c #D4E0CE",
"<@	c #90C64B",
"[@	c #76BA08",
"}@	c #76B609",
"|@	c #77B503",
"1@	c #449919",
"2@	c #267404",
"3@	c #6AB10C",
"4@	c #7CC00D",
"5@	c #7CBC07",
"6@	c #71B405",
"7@	c #6BB815",
"8@	c #308805",
"9@	c #4A9818",
"0@	c #77B90D",
"a@	c #72B609",
"b@	c #78BB0E",
"c@	c #78BB20",
"d@	c #C0D9A9",
"e@	c #DEE1E3",
"f@	c #F2F6F1",
"g@	c #8C5051",
"h@	c #F4E6E7",
"i@	c #F5DFE0",
"j@	c #6E1516",
"k@	c #AA7272",
"l@	c #A87B79",
"m@	c #BC9B9B",
"n@	c #ECEAEB",
"o@	c #E2E4E3",
"p@	c #A5CC7A",
"q@	c #6EB30D",
"r@	c #69B60C",
"s@	c #6CAE04",
"t@	c #64AD10",
"u@	c #257F0A",
"v@	c #1F7808",
"w@	c #479908",
"x@	c #58A909",
"y@	c #4AA00C",
"z@	c #2B7E0E",
"A@	c #34820E",
"B@	c #6BB012",
"C@	c #6EB706",
"D@	c #6BB304",
"E@	c #80BD32",
"F@	c #DCE5DC",
"G@	c #E8E4E6",
"H@	c #F8F8F9",
"I@	c #FCFCFC",
"J@	c #C9A6A5",
"K@	c #B88D8B",
"L@	c #FFF7F7",
"M@	c #7B2B29",
"N@	c #CB9D9B",
"O@	c #F9EDEE",
"P@	c #9F6666",
"Q@	c #EDE3E3",
"R@	c #F4F5F4",
"S@	c #E3E7E7",
"T@	c #CFDEC2",
"U@	c #70B12B",
"V@	c #60AF0C",
"W@	c #64B009",
"X@	c #60AE05",
"Y@	c #59A809",
"Z@	c #3C880C",
"`@	c #287A0F",
" #	c #20760D",
".#	c #2E810E",
"+#	c #448F0E",
"@#	c #62AB0F",
"##	c #64B108",
"$#	c #62AF05",
"%#	c #61AD09",
"&#	c #60AC0C",
"*#	c #A8CA85",
"=#	c #E6EAF0",
"-#	c #EAEBEA",
";#	c #FAECEB",
">#	c #894442",
",#	c #F7F0EF",
"'#	c #F1D9D5",
")#	c #FDF8F6",
"!#	c #C09898",
"~#	c #CBAFAF",
"{#	c #F9FBFA",
"]#	c #E5E9E7",
"^#	c #EBEDF0",
"/#	c #A5CC91",
"(#	c #51A203",
"_#	c #54A809",
":#	c #54A108",
"<#	c #5AA604",
"[#	c #5BA908",
"}#	c #509F05",
"|#	c #4E9F08",
"1#	c #59A907",
"2#	c #59AB07",
"3#	c #56A906",
"4#	c #55A808",
"5#	c #59A70A",
"6#	c #51A300",
"7#	c #77B03A",
"8#	c #E4EEEC",
"9#	c #E2E8E0",
"0#	c #EFF2F0",
"a#	c #B37E80",
"b#	c #F7D6D6",
"c#	c #611F1B",
"d#	c #9F7C77",
"e#	c #E8CECF",
"f#	c #AB7778",
"g#	c #EEE6E6",
"h#	c #F3F5F3",
"i#	c #E1E7E1",
"j#	c #E8EFE9",
"k#	c #8EC173",
"l#	c #469900",
"m#	c #49A805",
"n#	c #46A009",
"o#	c #4B9E05",
"p#	c #4D9F0C",
"q#	c #4BA10C",
"r#	c #459902",
"s#	c #4BA008",
"t#	c #4EA109",
"u#	c #4B9D05",
"v#	c #429C01",
"w#	c #5DAE29",
"x#	c #DFEED1",
"y#	c #E2EBE6",
"z#	c #EBF0ED",
"A#	c #FBFDFA",
"B#	c #FCF6F7",
"C#	c #AC7775",
"D#	c #D7BDBC",
"E#	c #EDC7C7",
"F#	c #A03D41",
"G#	c #CDA3A4",
"H#	c #EADADC",
"I#	c #97615F",
"J#	c #D3BCBA",
"K#	c #FFFEFF",
"L#	c #FCFBFB",
"M#	c #F1F2F1",
"N#	c #E8EDE5",
"O#	c #E8F2F4",
"P#	c #A5CD90",
"Q#	c #419313",
"R#	c #3B9C04",
"S#	c #3B9900",
"T#	c #3C9800",
"U#	c #419706",
"V#	c #3D9705",
"W#	c #3D9900",
"X#	c #399803",
"Y#	c #3B9A0A",
"Z#	c #72B24F",
"`#	c #E6E8E5",
" $	c #E2EAEE",
".$	c #E6ECE3",
"+$	c #F7F8F6",
"@$	c #FEFEFF",
"#$	c #E1D1D0",
"$$	c #916561",
"%$	c #D7C5C4",
"&$	c #FFF0F2",
"*$	c #F3E9EA",
"=$	c #835A5D",
"-$	c #886867",
";$	c #F6F4F2",
">$	c #FEFCFF",
",$	c #FCFBFC",
"'$	c #EDEFED",
")$	c #EEEEE7",
"!$	c #F1EEF6",
"~$	c #DCEAD8",
"{$	c #87B573",
"]$	c #539E3A",
"^$	c #409A27",
"/$	c #3E9922",
"($	c #429C24",
"_$	c #4F9C30",
":$	c #6CA954",
"<$	c #B7D5AD",
"[$	c #F7F2F7",
"}$	c #EEEDEC",
"|$	c #EEF4EB",
"1$	c #F7F8FA",
"2$	c #FEFFFF",
"3$	c #CBB8B6",
"4$	c #8E5956",
"5$	c #D1B7B5",
"6$	c #ECDEDD",
"7$	c #905C5C",
"8$	c #966466",
"9$	c #E6DEDF",
"0$	c #F4F3F1",
"a$	c #F1F0F0",
"b$	c #F1F0F2",
"c$	c #FAF8FA",
"d$	c #EDF0E9",
"e$	c #D6E4D3",
"f$	c #C7DDC6",
"g$	c #D0E3CC",
"h$	c #E2EADF",
"i$	c #F8F8F7",
"j$	c #F9F6F7",
"k$	c #F1F0EB",
"l$	c #EEF2EE",
"m$	c #FAFAF9",
"n$	c #FFFFFE",
"o$	c #D6BDBB",
"p$	c #965E5D",
"q$	c #986667",
"r$	c #E3C9CA",
"s$	c #D4B6B7",
"t$	c #704240",
"u$	c #A47D7B",
"v$	c #FDFFFF",
"w$	c #F9FBFC",
"x$	c #F4F7F5",
"y$	c #F0F3F1",
"z$	c #F1F4F4",
"A$	c #F4F2F6",
"B$	c #F7F4F9",
"C$	c #F9F8F9",
"D$	c #F4F6F6",
"E$	c #F0F3F0",
"F$	c #F2F5F2",
"G$	c #F8FAF9",
"H$	c #FBFEFE",
"I$	c #FEFEFB",
"J$	c #FDFEFA",
"K$	c #FCFDFA",
"L$	c #EEE1E1",
"M$	c #B89393",
"N$	c #83413F",
"O$	c #9A5B5D",
"P$	c #D1BBBA",
"Q$	c #FAF8F8",
"R$	c #FDFCFF",
"S$	c #F4FCEA",
"T$	c #EEF8DF",
"U$	c #E8F3D1",
"V$	c #E5F2CC",
"W$	c #DDEEC4",
"X$	c #DDF0BD",
"Y$	c #DFF3BE",
"Z$	c #DCEDBD",
"`$	c #E0EEC1",
" %	c #E4F0C7",
".%	c #E8F4CE",
"+%	c #EAF5D7",
"@%	c #F0FAE3",
"#%	c #FBFBF7",
"$%	c #FDFEF9",
"%%	c #FFFFFA",
"&%	c #FFFFFD",
"*%	c #F9F2F1",
"=%	c #FAF7F7",
"-%	c #FCFDF7",
";%	c #F8FBF3",
">%	c #EEF8E0",
",%	c #E5F4CC",
"'%	c #DDEFBB",
")%	c #D8EEAD",
"!%	c #CFEA9C",
"~%	c #CBE98E",
"{%	c #C9E786",
"]%	c #C8E687",
"^%	c #C8E685",
"/%	c #C8E686",
"(%	c #CAE787",
"_%	c #C9E889",
":%	c #CCE996",
"<%	c #D5ECA7",
"[%	c #DBEFB6",
"}%	c #E1F3C5",
"|%	c #E9F7D7",
"1%	c #F3F9EC",
"2%	c #F9FBF4",
"3%	c #FEFEFA",
"4%	c #FCFDF5",
"5%	c #F2F7E2",
"6%	c #E9F3CC",
"7%	c #E0F0B8",
"8%	c #D4EAA2",
"9%	c #CFE893",
"0%	c #C6E482",
"a%	c #C5E47F",
"b%	c #C5E381",
"c%	c #C4E280",
"d%	c #C5E47D",
"e%	c #CCE68E",
"f%	c #D2E99A",
"g%	c #DCF0B2",
"h%	c #E4F3C4",
"i%	c #EDF6DA",
"j%	c #F8FAF0",
"k%	c #FBFDF6",
"l%	c #F3F8E7",
"m%	c #EAF4D2",
"n%	c #E0F0BE",
"o%	c #DBEEB3",
"p%	c #CCE995",
"q%	c #CAE88D",
"r%	c #CAE78C",
"s%	c #C9E68B",
"t%	c #C9E68C",
"u%	c #CAE88C",
"v%	c #CAE88F",
"w%	c #D2EAA0",
"x%	c #D9EDAE",
"y%	c #DDF0B8",
"z%	c #E5F3CB",
"A%	c #EEF6E0",
"B%	c #F8FBF1",
"C%	c #FFFEFA",
". . . . . . . . . . . + @ + . . . . . . . . . . . # $ # # % & * = - ; > , ' ) ! ~ { # # # # . . ",
". . . . . . . . . . . ] ^ ] . . . . . . . . . . . # / ( _ : < [ } | 1 2 3 4 5 6 7 8 9 0 ( $ . . ",
". . . . . . . . . . a b c b a . . . . . . . . . . # $ d e f g h i j k l m n o p q r s t u v # . ",
". . . . . . . . . w x y z y x w . . . . . . . . . # A B C D E F G H I J K L M N O P Q R S T $ # ",
". . . U V W X Y Z `  .... .. .` Z Y X W V U . . . +.@.#.$.%.&.*.=.-.;.>.,.'.).!.~.{.].^./.(._.$ ",
". . . :.<.[.}.|.1.2.3.4.5.4.3.2.1.|.}.[.<.:.. . . 6.7.8.9.0.a.b.c.d.e.f.g.h.i.j.k.l.m.n.o.p.q.# ",
". . . r.s.t.$ u.u.+ . v.w.v.. + u.u.$ t.s.r.. . . x.y.z.A.B.C.D.E.F.G.H.I.J.K.L.M.N.O.P.Q.R.S.# ",
". . . T.U.u.. . . . . V.W.V.. . . . . u.U.T.. . . X.Y.Z.`. +.+++@+#+$+%+&+*+=+-+;+>+,+'+)+!+~+{+",
". . . ]+^+/+. . . . . (+_+:+<+. . . . . [+}+. . . |+1+2+3+4+5+6+7+8+9+0+a+b+c+d+e+f+g+h+i+j+k+$ ",
". . . . l+m+. . . . . n+o+p+. . . . . . q+r+. . . s+t+u+v+w+x+y+z+A+B+C+D+E+F+G+H+I+J+K+L+M+N+$ ",
". . . . O+P+. . . . . Q+R+S+. . . . . T+U+@ . . . V+W+X+Y+Z+`+ @.@+@@@#@$@%@&@*@=@-@;@>@,@'@)@$ ",
". . . . !@~@. . . . . {@]@^@. . . . . /@(@u.. . . _@:@<@[@}@|@1@2@3@4@5@6@7@8@9@0@a@b@c@d@e@f@$ ",
". . . . . g@h@. . . . i@j@k@. . . . . l@m@. . . . n@o@p@q@r@s@t@u@v@w@x@y@z@A@B@C@#+D@E@F@G@H@I@",
". . . . . J@K@. . . . L@M@N@. . . . O@P@Q@. . . . R@S@T@U@V@W@X@Y@Z@`@ #.#+#@###$#%#&#*#=#-#u # ",
". . . . . ;#>#,#. . . . '#)#. . . . !#~#3.. . . . {#]#^#/#(#_#:#<#[#}#|#1#2#3#4#5#6#7#8#9#0#$ # ",
". . . . . .  .a#. . . b#c#d#. . . e#f#g#. . . . . # h#i#j#k#l#m#n#o#p#q#r#s#t#u#v#w#x#y#z#A#. . ",
". . . . . . B#C#D#. . E#F#G#. . H#I#J#. . . . . . K#L#M#N#O#P#Q#R#S#T#U#V#W#X#Y#Z#`# $.$+$@$. . ",
". . . . . . . #$$$%$. . &$. . *$=$-$;$. . . . . . K#>$,$'$)$!$~${$]$^$/$($_$:$<$[$}$|$1$( $ . . ",
". . . . . . . 2$3$4$5$. . . 6$7$8$9$. . . . . . . . # # @$0$a$b$c$d$e$f$g$h$i$j$k$l$m$$ # n$. . ",
". . . . . . . . u.o$p$q$r$s$t$u$O@. . . . . . . . . # $ 3.v$w$x$y$z$A$B$C$D$E$F$G$H$I$J$K$$ . . ",
". . . . . . . . . . L$M$N$O$P$Q$. . . . . . . . . # $ _.R$S$T$U$V$W$X$Y$Z$`$ %.%+%@%#%$%%%&%. . ",
". . . . . . . . . . . 3.*%=%# . . . . . . . . . . -%;%>%,%'%)%!%~%{%]%^%/%(%_%:%<%[%}%|%1%2%3%# ",
". . . . . . . . . . . . . . . . . . . . . . . . . 4%5%6%7%8%9%0%a%0%b%c%b%b%a%d%e%f%g%h%i%j%%%. ",
". . . . . . . . . . . . . . . . . . . . . . . . . k%l%m%n%o%<%p%q%r%s%t%t%r%u%v%w%x%y%z%A%B%C%n$"};
