/* XPM */
static char * protected_destructor_xpm[] = {
"48 24 280 2",
"  	c None",
". 	c #FFFFFF",
"+ 	c #FFFEFE",
"@ 	c #FCFAFA",
"# 	c #FDFDFD",
"$ 	c #FCFCFC",
"% 	c #FAFAFA",
"& 	c #F7F7F7",
"* 	c #F0F0F0",
"= 	c #EEEEEE",
"- 	c #F2F2F2",
"; 	c #F4F4F4",
"> 	c #F6F6F6",
", 	c #F1F1F1",
"' 	c #F3F3F3",
") 	c #F5F5F5",
"! 	c #ECECEC",
"~ 	c #D9C8C8",
"{ 	c #AC8C8A",
"] 	c #EBEBEB",
"^ 	c #EAEAEA",
"/ 	c #E3E3E3",
"( 	c #D9D9D9",
"_ 	c #D5D5D5",
": 	c #D7D7D7",
"< 	c #E0E0E0",
"[ 	c #F8F8F8",
"} 	c #F7EAEA",
"| 	c #9D5B5E",
"1 	c #7C4846",
"2 	c #E7E7E7",
"3 	c #DBDBDB",
"4 	c #DEDEDE",
"5 	c #EDEDED",
"6 	c #E2E2E2",
"7 	c #D8D8D8",
"8 	c #E8E8E8",
"9 	c #F9F9F9",
"0 	c #F2E8E7",
"a 	c #B47275",
"b 	c #D29FA3",
"c 	c #F6E8E8",
"d 	c #E1E1E1",
"e 	c #DFDFDF",
"f 	c #D2D2D2",
"g 	c #D4D4D4",
"h 	c #DDDDDD",
"i 	c #E4E4E4",
"j 	c #CECECE",
"k 	c #EED2D5",
"l 	c #8F5858",
"m 	c #D6B7B5",
"n 	c #F0DBDB",
"o 	c #F4DCDF",
"p 	c #D2A8AD",
"q 	c #A45F62",
"r 	c #CB9D9F",
"s 	c #FCF7F8",
"t 	c #E9E9E9",
"u 	c #C2C2C2",
"v 	c #CDCDCD",
"w 	c #C9C9C9",
"x 	c #BBBBBB",
"y 	c #B0B0B0",
"z 	c #505050",
"A 	c #B8B8B8",
"B 	c #BEBEBE",
"C 	c #C6C6C6",
"D 	c #CCCCCC",
"E 	c #C1C1C1",
"F 	c #F0CED1",
"G 	c #A6393F",
"H 	c #BF8280",
"I 	c #925551",
"J 	c #A04E52",
"K 	c #B2686C",
"L 	c #E1C2C4",
"M 	c #FDFCFC",
"N 	c #FEFAFA",
"O 	c #FBF0F0",
"P 	c #FBFBFB",
"Q 	c #BABABA",
"R 	c #B6B6B6",
"S 	c #B5B5B5",
"T 	c #A5A5A5",
"U 	c #535353",
"V 	c #ADADAD",
"W 	c #B7B7B7",
"X 	c #B4B4B4",
"Y 	c #B9B9B9",
"Z 	c #F5DEE0",
"` 	c #D17F86",
" .	c #FDFBFC",
"..	c #FEFDFD",
"+.	c #9B7573",
"@.	c #6B1D1D",
"#.	c #CFCFCF",
"$.	c #B2B2B2",
"%.	c #8C8C8C",
"&.	c #8F8F8F",
"*.	c #A7A7A7",
"=.	c #595959",
"-.	c #AFAFAF",
";.	c #888888",
">.	c #B1B1B1",
",.	c #B3B3B3",
"'.	c #DCDCDC",
").	c #E5E5E5",
"!.	c #F7E7E7",
"~.	c #B96D6F",
"{.	c #905857",
"].	c #A75659",
"^.	c #C0C0C0",
"/.	c #9D9D9D",
"(.	c #626262",
"_.	c #999999",
":.	c #A4A4A4",
"<.	c #656565",
"[.	c #989898",
"}.	c #616161",
"|.	c #939393",
"1.	c #D6D6D6",
"2.	c #FFFAFA",
"3.	c #A9575A",
"4.	c #FEF9FA",
"5.	c #985F5C",
"6.	c #A65052",
"7.	c #851D21",
"8.	c #FFFCFD",
"9.	c #8E4446",
"0.	c #EFE1E1",
"a.	c #ACACAC",
"b.	c #797979",
"c.	c #7C7C7C",
"d.	c #A1A1A1",
"e.	c #6D6D6D",
"f.	c #ABABAB",
"g.	c #828282",
"h.	c #AEAEAE",
"i.	c #AF6D6F",
"j.	c #F9EDED",
"k.	c #B78382",
"l.	c #933E3D",
"m.	c #822A2C",
"n.	c #864344",
"o.	c #FBF8F8",
"p.	c #A8A8A8",
"q.	c #686868",
"r.	c #A0A0A0",
"s.	c #666666",
"t.	c #AAAAAA",
"u.	c #6C6C6C",
"v.	c #A9A9A9",
"w.	c #C89394",
"x.	c #DBC0C0",
"y.	c #CE9C9D",
"z.	c #8E3E3D",
"A.	c #924E4D",
"B.	c #FCF0F0",
"C.	c #874D4D",
"D.	c #DADADA",
"E.	c #A3A3A3",
"F.	c #A6A6A6",
"G.	c #696969",
"H.	c #7E7E7E",
"I.	c #A2A2A2",
"J.	c #9A9A9A",
"K.	c #858585",
"L.	c #707070",
"M.	c #CACACA",
"N.	c #E6C9CA",
"O.	c #9F6D6D",
"P.	c #DCC0BE",
"Q.	c #833634",
"R.	c #AA7675",
"S.	c #DBC5C4",
"T.	c #976666",
"U.	c #9E9E9E",
"V.	c #808080",
"W.	c #5F5F5F",
"X.	c #979797",
"Y.	c #9B9B9B",
"Z.	c #6F6F6F",
"`.	c #D0D0D0",
" +	c #8C5051",
".+	c #F4E6E7",
"++	c #F5DFE0",
"@+	c #6E1516",
"#+	c #AA7272",
"$+	c #A87B79",
"%+	c #BC9B9B",
"&+	c #BDBDBD",
"*+	c #959595",
"=+	c #949494",
"-+	c #606060",
";+	c #8D8D8D",
">+	c #9C9C9C",
",+	c #C9A6A5",
"'+	c #B88D8B",
")+	c #FFF7F7",
"!+	c #7B2B29",
"~+	c #CB9D9B",
"{+	c #F9EDEE",
"]+	c #9F6666",
"^+	c #EDE3E3",
"/+	c #717171",
"(+	c #6B6B6B",
"_+	c #929292",
":+	c #969696",
"<+	c #FAECEB",
"[+	c #894442",
"}+	c #F7F0EF",
"|+	c #F1D9D5",
"1+	c #FDF8F6",
"2+	c #C09898",
"3+	c #CBAFAF",
"4+	c #E6E6E6",
"5+	c #BFBFBF",
"6+	c #8E8E8E",
"7+	c #868686",
"8+	c #EFEFEF",
"9+	c #B37E80",
"0+	c #F7D6D6",
"a+	c #611F1B",
"b+	c #9F7C77",
"c+	c #E8CECF",
"d+	c #AB7778",
"e+	c #EEE6E6",
"f+	c #7F7F7F",
"g+	c #8A8A8A",
"h+	c #848484",
"i+	c #878787",
"j+	c #838383",
"k+	c #818181",
"l+	c #FCF6F7",
"m+	c #AC7775",
"n+	c #D7BDBC",
"o+	c #EDC7C7",
"p+	c #A03D41",
"q+	c #CDA3A4",
"r+	c #EADADC",
"s+	c #97615F",
"t+	c #D3BCBA",
"u+	c #7B7B7B",
"v+	c #7D7D7D",
"w+	c #9F9F9F",
"x+	c #E1D1D0",
"y+	c #916561",
"z+	c #D7C5C4",
"A+	c #FFF0F2",
"B+	c #F3E9EA",
"C+	c #835A5D",
"D+	c #886867",
"E+	c #F6F4F2",
"F+	c #898989",
"G+	c #CBCBCB",
"H+	c #FEFFFF",
"I+	c #CBB8B6",
"J+	c #8E5956",
"K+	c #D1B7B5",
"L+	c #ECDEDD",
"M+	c #905C5C",
"N+	c #966466",
"O+	c #E6DEDF",
"P+	c #D6BDBB",
"Q+	c #965E5D",
"R+	c #986667",
"S+	c #E3C9CA",
"T+	c #D4B6B7",
"U+	c #704240",
"V+	c #A47D7B",
"W+	c #EEE1E1",
"X+	c #B89393",
"Y+	c #83413F",
"Z+	c #9A5B5D",
"`+	c #D1BBBA",
" @	c #FAF8F8",
".@	c #F9F2F1",
"+@	c #FAF7F7",
"@@	c #FEFEFE",
". . . . . . . . . . . + @ + . . . . . . . . . . # $ % $ $ & * = - ; > , > ' ) , ! * $ $ $ $ # # ",
". . . . . . . . . . . ~ { ~ . . . . . . . . . . # $ % $ ' ] ; ^ / ( _ : _ : < ] * = , [ $ % # # ",
". . . . . . . . . . } | 1 | } . . . . . . . . . # $ % , 2 ] 3 _ 4 5 * & ; = 6 ( 7 8 ] ^ 9 % $ # ",
". . . . . . . . . 0 a b c b a 0 . . . . . . . . # $ - d e f g 2 2 d d _ h < 8 i 3 j e d ^ % % $ ",
". . . k l m n o p q r s . s r q p o n m l k . . # % t 4 _ u v w x x y z A x B C D w E d 6 - % % ",
". . . F G H I J K L M N O N M L K J I H G F . . P ' 4 3 Q R x A S Q T U V x W X Y x R g 4 ] 9 $ ",
". . . Z `  .# ....+ . +.@.+.. + ....#  .` Z . . P 5 4 #.W X X $.%.&.*.=.-.%.;.X >.,.S E '.).> $ ",
". . . !.~.... . . . . {.].{.. . . . . ..~.!.. . % 6 '.^.$.,.-./.(._.:.<.-.[.}.|.,.V ,.X 1.h - P ",
". . . 2.3.4.. . . . . 5.6.7.8.. . . . . 9.0.. . % < ( W a.a.a.b.c.$.d.e.f.-.g.b.a.a.h.V D 4 * % ",
". . . . i.j.. . . . . k.l.m.. . . . . . n.o.. . % 6 7 X p.*.p.q.&.f.r.s.t.h.%.u.:.v.*.a.w 6 * % ",
". . . . w.x.. . . . . y.z.A.. . . . . B.C.@ . . P d D.,.E.:.F.G.H.p.I.J.p.E.K.L.d.I.E.p.M.6 - % ",
". . . . N.O.. . . . . P.Q.R.. . . . . S.T.... . % d 3 $.d.U./.V.W.X.T I.Y./.Z.V.r./.I.I.`.e - % ",
". . . . .  +.+. . . . ++@+#+. . . . . $+%+. . . $ t / &+J.Y.*+=+s.-+V.;+K.G.e.X.>+_._.*.< i ) % ",
". . . . . ,+'+. . . . )+!+~+. . . . {+]+^+. . . $ - ).7 Y.=+*+|.;+/+<.W.(+b._+:+=+_+_+&+8 t 9 $ ",
". . . . . <+[+}+. . . . |+1+. . . . 2+3+M . . . % [ 4+] 5+;.%.;.%.6+7+K.;+&.;+;+%.;./.] ).8+% $ ",
". . . . . . r 9+. . . 0+a+b+. . . c+d+e+. . . . # $ - i ] $.f+g+h+h+K.7+f+K.i+j+k+=+8 8 5 % # # ",
". . . . . . l+m+n+. . o+p+q+. . r+s+t+. . . . . # $ 9 * ^ = ^.u+f+v+c.c.u+v+c.H.w+).8 8 ) $ # # ",
". . . . . . . x+y+z+. . A+. . B+C+D+E+. . . . . # $ P 9 5 ! = i *.F+k+V.j+7+X.G+, ! 8+> $ % # # ",
". . . . . . . H+I+J+K+. . . L+M+N+O+. . . . . . # # $ $ $ * = = & 5 e 1.'.2 ) ' = 8+& % $ # # # ",
". . . . . . . . ..P+Q+R+S+T+U+V+{+. . . . . . . # # $ % % $ [ ' * , * - ) - * - > P $ P % % # # ",
". . . . . . . . . . W+X+Y+Z+`+ @. . . . . . . . # $ % % % > - 5 ] 4+4+t i 4+t 5 = ; [ % # # # # ",
". . . . . . . . . . . M .@+@@@. . . . . . . . . P 9 & - ! )./ 4 3 7 : : : 7 7 3 d ).^ 8+) & $ $ ",
". . . . . . . . . . . . . . . . . . . . . . . . $ 9 - ! 2 e 3 1._ 1._ g _ _ _ _ ( h ).] 8+> # # ",
". . . . . . . . . . . . . . . . . . . . . . . . $ 9 ' = 2 i d 3 ( ( 7 7 7 ( ( ( 4 / 4+] * & $ # "};
