/* XPM */
static char * py_class_xpm[] = {
"24 24 249 2",
"  	c None",
". 	c #6A8952",
"+ 	c #829771",
"@ 	c #A2BD8D",
"# 	c #83C151",
"$ 	c #88A572",
"% 	c #79886E",
"& 	c #82BF50",
"* 	c #A6AB91",
"= 	c #D1DFC0",
"- 	c #85C753",
"; 	c #C5CEB4",
"> 	c #8DA77A",
", 	c #72A749",
"' 	c #88CA4F",
") 	c #848B62",
"! 	c #A6C289",
"~ 	c #76B948",
"{ 	c #797A58",
"] 	c #8AB567",
"^ 	c #679C44",
"/ 	c #77B946",
"( 	c #87CC51",
"_ 	c #88C95E",
": 	c #89CD56",
"< 	c #79C343",
"[ 	c #81B357",
"} 	c #87C159",
"| 	c #85A16C",
"1 	c #79BF47",
"2 	c #7BAF42",
"3 	c #89AF39",
"4 	c #88DA54",
"5 	c #90DD55",
"6 	c #85CF4D",
"7 	c #90D958",
"8 	c #98D167",
"9 	c #92C269",
"0 	c #6A9947",
"a 	c #83C046",
"b 	c #A49022",
"c 	c #A8A028",
"d 	c #88D34F",
"e 	c #91DC55",
"f 	c #92DE56",
"g 	c #7DB352",
"h 	c #76D13C",
"i 	c #8BBB43",
"j 	c #AE7913",
"k 	c #817214",
"l 	c #61A82F",
"m 	c #6AC131",
"n 	c #6BAA41",
"o 	c #6DCC30",
"p 	c #86D24F",
"q 	c #6CA23D",
"r 	c #5F6F28",
"s 	c #6E5F40",
"t 	c #67C02C",
"u 	c #8AD850",
"v 	c #ADE369",
"w 	c #BAD579",
"x 	c #7F5F31",
"y 	c #887C5B",
"z 	c #64874A",
"A 	c #769B58",
"B 	c #62B52D",
"C 	c #8AD54A",
"D 	c #E2EE8C",
"E 	c #EFE999",
"F 	c #84612E",
"G 	c #584A3E",
"H 	c #7FB653",
"I 	c #79AB50",
"J 	c #5BA92A",
"K 	c #7FD142",
"L 	c #D1E781",
"M 	c #F8F4A2",
"N 	c #86C853",
"O 	c #78A952",
"P 	c #9ABF7A",
"Q 	c #A6D082",
"R 	c #A2D379",
"S 	c #A2D279",
"T 	c #9FD374",
"U 	c #65AD36",
"V 	c #73CF38",
"W 	c #C3E777",
"X 	c #FFFDA9",
"Y 	c #B9BA93",
"Z 	c #7AA759",
"` 	c #89CF52",
" .	c #A1CE7A",
"..	c #A1D972",
"+.	c #9EE069",
"@.	c #9CE166",
"#.	c #9CDF65",
"$.	c #99DE62",
"%.	c #71BA3F",
"&.	c #67C82C",
"*.	c #B0DF6A",
"=.	c #FAF79B",
"-.	c #D7D8A9",
";.	c #A0C57A",
">.	c #89D150",
",.	c #77A852",
"'.	c #98C970",
").	c #A1E06C",
"!.	c #91DC56",
"~.	c #8DDA52",
"{.	c #7DCB44",
"].	c #5BB426",
"^.	c #A1DA5D",
"/.	c #EAEC8F",
"(.	c #F6F2B8",
"_.	c #9DC873",
":.	c #ADDD85",
"<.	c #89B26A",
"[.	c #86CE4F",
"}.	c #82BF53",
"|.	c #95DD5D",
"1.	c #8FDA55",
"2.	c #8EDA52",
"3.	c #8FDB53",
"4.	c #8FDB54",
"5.	c #90DC55",
"6.	c #90DC54",
"7.	c #86D34D",
"8.	c #57AF24",
"9.	c #8DD34D",
"0.	c #E7EF8F",
"a.	c #FFFFB1",
"b.	c #AECB84",
"c.	c #95DC5C",
"d.	c #B1E287",
"e.	c #93BF6E",
"f.	c #96DD5F",
"g.	c #87C955",
"h.	c #85B859",
"i.	c #8EDC52",
"j.	c #8EDA53",
"k.	c #8FDC54",
"l.	c #83C94C",
"m.	c #78CD3D",
"n.	c #67BE2D",
"o.	c #69BB33",
"p.	c #70C837",
"q.	c #5CB028",
"r.	c #87D14A",
"s.	c #DAE686",
"t.	c #F8F39C",
"u.	c #C0C99E",
"v.	c #8EDB52",
"w.	c #90DB56",
"x.	c #A3E271",
"y.	c #A0CF77",
"z.	c #7FA264",
"A.	c #7FA562",
"B.	c #A1D278",
"C.	c #92DB57",
"D.	c #87C657",
"E.	c #78B947",
"F.	c #8AD94D",
"G.	c #7EA463",
"H.	c #D7DAD5",
"I.	c #E6E6E5",
"J.	c #96B285",
"K.	c #5BB721",
"L.	c #8ED650",
"M.	c #E1EF8C",
"N.	c #FFFD9E",
"O.	c #E4E3BE",
"P.	c #7FCA47",
"Q.	c #8DD951",
"R.	c #8DDA51",
"S.	c #94DD5B",
"T.	c #A4E471",
"U.	c #AFE87E",
"V.	c #A8E574",
"W.	c #96DD5C",
"X.	c #8AD651",
"Y.	c #7DB451",
"Z.	c #71B544",
"`.	c #8DDA50",
" +	c #8BD950",
".+	c #84C155",
"++	c #89BF64",
"@+	c #6BBA38",
"#+	c #82D747",
"$+	c #A5DD63",
"%+	c #E6EC8E",
"&+	c #F6F296",
"*+	c #D9D8BB",
"=+	c #56A129",
"-+	c #6FC836",
";+	c #85D64A",
">+	c #8DD950",
",+	c #8BD94F",
"'+	c #8CD950",
")+	c #82CB4C",
"!+	c #65A143",
"~+	c #7BD140",
"{+	c #8EDA54",
"]+	c #8EDC51",
"^+	c #8FDC53",
"/+	c #8DDA53",
"(+	c #B3E06D",
"_+	c #F6F499",
":+	c #FFFB9E",
"<+	c #D3D3B3",
"[+	c #589732",
"}+	c #65BA30",
"|+	c #6FC438",
"1+	c #79CE3F",
"2+	c #77CF3C",
"3+	c #75C93D",
"4+	c #73BF40",
"5+	c #679B48",
"6+	c #63B333",
"7+	c #77D23A",
"8+	c #87D74D",
"9+	c #92D956",
"0+	c #D0E680",
"a+	c #FBF69D",
"b+	c #F8F5A2",
"c+	c #B1B098",
"d+	c #5CA332",
"e+	c #5FAD31",
"f+	c #5CAC2C",
"g+	c #5EA633",
"h+	c #5BA92D",
"i+	c #68C42E",
"j+	c #7CD440",
"k+	c #87D84C",
"l+	c #8CD951",
"m+	c #8CDA55",
"n+	c #B9DF72",
"o+	c #F6F59A",
"p+	c #F6F393",
"q+	c #CDCC8B",
"r+	c #5E9F38",
"s+	c #5FAD2F",
"t+	c #63BE2B",
"u+	c #6BCA30",
"v+	c #84CD40",
"w+	c #BED95D",
"x+	c #D6D771",
"y+	c #C9C670",
"z+	c #B7B66F",
"                                                ",
"                . + @ # $ %                     ",
"                & * = - ; >                     ",
"              , ' ) ! ~ { ]                     ",
"            ^ / ( _ : < [ } |                   ",
"              1 2 3 4 5 6 7 8 9                 ",
"              0 a b c d 5 e f g                 ",
"                h i j k l m n                   ",
"                o p q r s                       ",
"                t u v w   x y         z A       ",
"                B C D E     F G         H I     ",
"                J K L M                   N O   ",
"      P Q R S T U V W X Y                 Z `   ",
"     ...+.@.#.$.%.&.*.=.-.;.                >.,.",
"  '.).!.~.~.~.~.{.].^./.(._.:.<.            [.}.",
"  |.1.2.3.4.5.6.7.8.9.0.a.b.c.d.e.          f.g.",
"h.i.j.k.l.m.n.o.p.q.r.s.t.u.v.w.x.y.z.  A.B.C.D.",
"E.k.j.j.F.G.H.I.J.K.L.M.N.O.P.Q.R.S.T.U.V.W.X.Y.",
"Z.`.j.j.4. +.+++@+#+$+%+&+*+=+-+;+ +>+,+ +'+)+  ",
"!+~+j.{+j.j.i.]+^+/+(+_+:+<+  [+}+|+1+2+3+4+5+  ",
"  6+7+8+j.4.j.j./+9+0+a+b+c+      d+e+f+g+      ",
"    h+i+j+k+l+4.m+n+o+p+q+                      ",
"      r+s+t+u+v+w+x+y+z+                        ",
"                                                "};
