/* XPM */
static char * py_function_xpm[] = {
"24 24 203 2",
"  	c None",
". 	c #064BF5",
"+ 	c #264FFB",
"@ 	c #2C4EF8",
"# 	c #0C4DF7",
"$ 	c #233C7B",
"% 	c #7E2717",
"& 	c #772820",
"* 	c #75281C",
"= 	c #762A1E",
"- 	c #5A2B32",
"; 	c #214EFA",
"> 	c #294EF8",
", 	c #304DF8",
"' 	c #374EF9",
") 	c #014AF1",
"! 	c #572F35",
"~ 	c #77281F",
"{ 	c #78271E",
"] 	c #6F2A25",
"^ 	c #772C1D",
"/ 	c #0E52F8",
"( 	c #334DFA",
"_ 	c #314EF9",
": 	c #2C4EF9",
"< 	c #2E4DF8",
"[ 	c #1850F7",
"} 	c #183B87",
"| 	c #86261B",
"1 	c #7F2923",
"2 	c #72291F",
"3 	c #77261B",
"4 	c #6D2D27",
"5 	c #1D4EF9",
"6 	c #2E4BF8",
"7 	c #304DF9",
"8 	c #314DF9",
"9 	c #374BFA",
"0 	c #084DF5",
"a 	c #533034",
"b 	c #6C2A1B",
"c 	c #78281C",
"d 	c #78281D",
"e 	c #80271C",
"f 	c #462F29",
"g 	c #0E4DF5",
"h 	c #344EF8",
"i 	c #2D4DF8",
"j 	c #304CF9",
"k 	c #334CF9",
"l 	c #254EF9",
"m 	c #78291C",
"n 	c #77281B",
"o 	c #7A281A",
"p 	c #73291B",
"q 	c #31346C",
"r 	c #244FF9",
"s 	c #2F4CF8",
"t 	c #344CF9",
"u 	c #2F4DF9",
"v 	c #0950F8",
"w 	c #383236",
"x 	c #7C281B",
"y 	c #0F4CF9",
"z 	c #1F50F9",
"A 	c #284DFA",
"B 	c #472B43",
"C 	c #522E38",
"D 	c #552D39",
"E 	c #31357D",
"F 	c #467575",
"G 	c #009CFF",
"H 	c #0CBEFF",
"I 	c #13C8FF",
"J 	c #15C5FF",
"K 	c #07B6FF",
"L 	c #467554",
"M 	c #A27A11",
"N 	c #957C1B",
"O 	c #1663A3",
"P 	c #00A6FD",
"Q 	c #16C9FF",
"R 	c #15C7FF",
"S 	c #16CAFF",
"T 	c #11C3FF",
"U 	c #186C8F",
"V 	c #7F7B29",
"W 	c #9F7A13",
"X 	c #9B7C1C",
"Y 	c #A87A14",
"Z 	c #747935",
"` 	c #10C0FF",
" .	c #15C8FF",
"..	c #14C7FF",
"+.	c #17C8FF",
"@.	c #15C9FF",
"#.	c #07B8FF",
"$.	c #9C7A19",
"%.	c #997B12",
"&.	c #997C14",
"*.	c #9E7B15",
"=.	c #A97D13",
"-.	c #276E60",
";.	c #15C6FF",
">.	c #19C9FF",
",.	c #0AB7FF",
"'.	c #30735E",
").	c #907B16",
"!.	c #9D7B15",
"~.	c #9B7C17",
"{.	c #957B19",
"].	c #837831",
"^.	c #05ADFF",
"/.	c #17CAFF",
"(.	c #029CFC",
"_.	c #8F7B1D",
":.	c #9B7A19",
"<.	c #9B7B16",
"[.	c #9B7D15",
"}.	c #7D7B2C",
"|.	c #12C0FF",
"1.	c #0AB8FF",
"2.	c #47745D",
"3.	c #A47D0F",
"4.	c #A17C14",
"5.	c #927C19",
"6.	c #5F754C",
"7.	c #15CBFF",
"8.	c #17CBFF",
"9.	c #8EDD3D",
"0.	c #2D6C92",
"a.	c #386C74",
"b.	c #2A6996",
"c.	c #10C3FF",
"d.	c #06A6FD",
"e.	c #0DA7A4",
"f.	c #16BF86",
"g.	c #16C08C",
"h.	c #16BF76",
"i.	c #15BF76",
"j.	c #14C176",
"k.	c #D9E81F",
"l.	c #9BD92E",
"m.	c #9BDA2B",
"n.	c #97D82E",
"o.	c #8DD730",
"p.	c #77CC57",
"q.	c #79CC66",
"r.	c #2DABA6",
"s.	c #05A2FF",
"t.	c #007BEB",
"u.	c #15BD68",
"v.	c #14BE78",
"w.	c #16BF7B",
"x.	c #15BF77",
"y.	c #15BF7A",
"z.	c #12BE6B",
"A.	c #A8E133",
"B.	c #D4E81F",
"C.	c #D8E822",
"D.	c #D6E821",
"E.	c #D7E920",
"F.	c #D6E920",
"G.	c #DBEA18",
"H.	c #B9E836",
"I.	c #029AB6",
"J.	c #15BF73",
"K.	c #14BF77",
"L.	c #16C07A",
"M.	c #15BF7C",
"N.	c #15BF7F",
"O.	c #14BB5A",
"P.	c #D1EB20",
"Q.	c #D5E71C",
"R.	c #D5E824",
"S.	c #D3E822",
"T.	c #D3E920",
"U.	c #D1E72C",
"V.	c #0294C9",
"W.	c #17BC75",
"X.	c #17BF81",
"Y.	c #14BF72",
"Z.	c #15BF6C",
"`.	c #15BF6E",
" +	c #15BD5C",
".+	c #92E144",
"++	c #E1EA22",
"@+	c #CFE91F",
"#+	c #D0E91F",
"$+	c #D3E81F",
"%+	c #D4E924",
"&+	c #C4E837",
"*+	c #09B2A9",
"=+	c #11C076",
"-+	c #13BA7D",
";+	c #13BC88",
">+	c #13BD8D",
",+	c #14BE7F",
"'+	c #D8E927",
")+	c #C0E32A",
"!+	c #C0E429",
"~+	c #C7E638",
"{+	c #A2E03D",
"                                                ",
"                                                ",
"              . + @ # $ % & * = -               ",
"              ; > , ' ) ! ~ { ] ^               ",
"            / ( _ : < [ } | 1 2 3 4             ",
"            5 6 7 8 9 0   a b c d e f           ",
"          g h i j k l       m n o p q           ",
"            r s t u v       w x c &             ",
"              y z A         B C D E             ",
"                                        F       ",
"    G H I J K                       L M N O     ",
"    P Q R S T                   U V W X Y Z     ",
"    `  ...+.@.#.                  $.%.&.*.=.-.  ",
"    ;. . .>.,.                    '.).!.~.{.].  ",
"  ^...Q I /.(.                      _.:.<.[.}.  ",
"    |.R I 1.                        2.3.4.5.6.  ",
"    ^.7.8.                  9.        0.a.b.    ",
"      c.d.e.f.g.h.i.j.      k.l.m.n.o.p.q.r.    ",
"      s.t.u.v.w.x.y.z.    A.B.C.D.E.F.G.H.      ",
"        I.J.K.L.M.N.O.    P.Q.R.R.S.T.U.        ",
"        V.W.X.Y.Z.`. +    .+++@+#+$+%+&+        ",
"          *+=+-+;+>+,+      '+)+!+~+{+          ",
"                                                ",
"                                                "};
