/* XPM */
static char * py_init_xpm[] = {
"24 24 293 2",
"  	c None",
". 	c #F2DAAE",
"+ 	c #F1CF97",
"@ 	c #EDC584",
"# 	c #CD9D50",
"$ 	c #A06C25",
"% 	c #AD834E",
"& 	c #F4E5C7",
"* 	c #F7D2A1",
"= 	c #F7D199",
"- 	c #F7CB8A",
"; 	c #E9B86E",
"> 	c #BD8631",
", 	c #A1650D",
"' 	c #A0620A",
") 	c #A16B1D",
"! 	c #D9C098",
"~ 	c #F8D29B",
"{ 	c #FACE90",
"] 	c #FACC90",
"^ 	c #F7C885",
"/ 	c #E7B364",
"( 	c #BE842A",
"_ 	c #B17317",
": 	c #BB7E22",
"< 	c #C1872D",
"[ 	c #B37F27",
"} 	c #E9D8B3",
"| 	c #F5D1A1",
"1 	c #F8CC8C",
"2 	c #FBCA89",
"3 	c #FAC683",
"4 	c #F8C179",
"5 	c #E4AA56",
"6 	c #C0842D",
"7 	c #BF812A",
"8 	c #D69B47",
"9 	c #E9B767",
"0 	c #DBA754",
"a 	c #CA9B51",
"b 	c #E9C995",
"c 	c #F8C882",
"d 	c #FBC785",
"e 	c #FCC782",
"f 	c #FAC47B",
"g 	c #F5BA6B",
"h 	c #DB9E44",
"i 	c #BC7C22",
"j 	c #C6862D",
"k 	c #E5B566",
"l 	c #F3D397",
"m 	c #F0CE8E",
"n 	c #D1A74C",
"o 	c #D9BF88",
"p 	c #DBA250",
"q 	c #F9C47D",
"r 	c #FAC77C",
"s 	c #FAC276",
"t 	c #F9BC6E",
"u 	c #F0B25C",
"v 	c #D8973B",
"w 	c #BA791D",
"x 	c #CB8B30",
"y 	c #EEC27B",
"z 	c #F8E8BC",
"A 	c #FAEAC6",
"B 	c #E9C681",
"C 	c #D1A655",
"D 	c #B28755",
"E 	c #E2A350",
"F 	c #F9C37C",
"G 	c #F9C57A",
"H 	c #F9BF74",
"I 	c #F4B769",
"J 	c #ECAE59",
"K 	c #D39236",
"L 	c #BE7D21",
"M 	c #D09236",
"N 	c #F0C883",
"O 	c #FCF0CF",
"P 	c #FDF7E3",
"Q 	c #F7E4B7",
"R 	c #DEB25F",
"S 	c #E0C795",
"T 	c #92532E",
"U 	c #E2A04C",
"V 	c #F9BD73",
"W 	c #FAC179",
"X 	c #F5BD6F",
"Y 	c #F0B464",
"Z 	c #E9AA55",
"` 	c #CE8D31",
" .	c #D19139",
"..	c #F2CA8B",
"+.	c #FCF0D4",
"@.	c #FEF8ED",
"#.	c #FDF1DA",
"$.	c #EDC98B",
"%.	c #D3AC62",
"&.	c #7C3716",
"*.	c #DC9D44",
"=.	c #F6BB6B",
"-.	c #F8BF75",
";.	c #F6BC6F",
">.	c #E6A753",
",.	c #C7862A",
"'.	c #B17014",
").	c #C8882C",
"!.	c #EBC27B",
"~.	c #FAECC8",
"{.	c #FFFAEC",
"].	c #FFF6E6",
"^.	c #F2D69F",
"/.	c #D1A14C",
"(.	c #752D0A",
"_.	c #D99B3F",
":.	c #F5BA6A",
"<.	c #F9C076",
"[.	c #F7BA6E",
"}.	c #F2B462",
"|.	c #E5A750",
"1.	c #C28124",
"2.	c #A3620B",
"3.	c #BC7D21",
"4.	c #E4B262",
"5.	c #F6E2B6",
"6.	c #FEF7E7",
"7.	c #FEF6E8",
"8.	c #F4DBA7",
"9.	c #D19F45",
"0.	c #DDC692",
"a.	c #702701",
"b.	c #D39235",
"c.	c #F3B461",
"d.	c #F5BA6D",
"e.	c #F2B362",
"f.	c #E2A44C",
"g.	c #BF7D22",
"h.	c #9A5808",
"i.	c #AA6911",
"j.	c #D5A14B",
"k.	c #F0D69D",
"l.	c #FCF2D7",
"m.	c #FEF2D8",
"n.	c #F2D194",
"o.	c #CC9238",
"p.	c #D0B177",
"q.	c #6E2000",
"r.	c #CA8627",
"s.	c #F0B05D",
"t.	c #F7BC70",
"u.	c #F3B867",
"v.	c #EFB360",
"w.	c #E4A54E",
"x.	c #BC7B1D",
"y.	c #995606",
"z.	c #9D5B09",
"A.	c #C48B33",
"B.	c #EBC27A",
"C.	c #F7E5B9",
"D.	c #F6E2B7",
"E.	c #E9C077",
"F.	c #C28428",
"G.	c #C8A96B",
"H.	c #6D2000",
"I.	c #C27B1E",
"J.	c #E9AA53",
"K.	c #F6BD6E",
"L.	c #F4B968",
"M.	c #C07F22",
"N.	c #985408",
"O.	c #945304",
"P.	c #AE7416",
"Q.	c #D8A147",
"R.	c #F2C980",
"S.	c #F4CA83",
"T.	c #DEA550",
"U.	c #B4781D",
"V.	c #C4A471",
"W.	c #6F2502",
"X.	c #B76E16",
"Y.	c #E4A346",
"Z.	c #F5B969",
"`.	c #F4B969",
" +	c #EEB360",
".+	c #E3A54D",
"++	c #C07F24",
"@+	c #975505",
"#+	c #904D05",
"$+	c #A6650F",
"%+	c #C48729",
"&+	c #D7A043",
"*+	c #D99F44",
"=+	c #C78729",
"-+	c #A25F0B",
";+	c #C4A679",
">+	c #85461A",
",+	c #AA5F0D",
"'+	c #DB9A3C",
")+	c #F2B666",
"!+	c #F0B462",
"~+	c #E6A84F",
"{+	c #C48429",
"]+	c #9F5F08",
"^+	c #9E5F07",
"/+	c #B07115",
"(+	c #C18326",
"_+	c #C08326",
":+	c #BB7E20",
"<+	c #AC6B17",
"[+	c #90500A",
"}+	c #AD7E51",
"|+	c #9F5908",
"1+	c #CE8E31",
"2+	c #F0B364",
"3+	c #F1B665",
"4+	c #E9AB57",
"5+	c #D19136",
"6+	c #B67518",
"7+	c #BD7C1E",
"8+	c #D29231",
"9+	c #D69635",
"0+	c #BE7F23",
"a+	c #AA690F",
"b+	c #904E09",
"c+	c #9F6F33",
"d+	c #9B5C0D",
"e+	c #BA7A1E",
"f+	c #E5A953",
"g+	c #F2B767",
"h+	c #F3B96E",
"i+	c #EFB563",
"j+	c #DFA349",
"k+	c #D6983E",
"l+	c #DC9F44",
"m+	c #E7AA50",
"n+	c #E3A54B",
"o+	c #C28226",
"p+	c #94500C",
"q+	c #713201",
"r+	c #CAB081",
"s+	c #B99061",
"t+	c #A86811",
"u+	c #D59842",
"v+	c #F1B96D",
"w+	c #F4BC72",
"x+	c #F0B767",
"y+	c #EBB35E",
"z+	c #E8AF59",
"A+	c #EBB25D",
"B+	c #EFB45F",
"C+	c #E9AC54",
"D+	c #BA7922",
"E+	c #712F03",
"F+	c #996731",
"G+	c #A87C3A",
"H+	c #BC812C",
"I+	c #E9B267",
"J+	c #F0BA71",
"K+	c #F1BA6E",
"L+	c #EBB564",
"M+	c #EBB360",
"N+	c #EBB35F",
"O+	c #E9B058",
"P+	c #D4983D",
"Q+	c #904E0B",
"R+	c #804816",
"S+	c #DBC49C",
"T+	c #BB9050",
"U+	c #DEA45C",
"V+	c #EBBB74",
"W+	c #EDBA70",
"X+	c #E4AE5E",
"Y+	c #DDA64F",
"Z+	c #D29A42",
"`+	c #BC832D",
" @	c #9A5E10",
".@	c #9C6319",
"+@	c #DBC293",
"@@	c #DFC794",
"#@	c #E8BE82",
"$@	c #E6B66F",
"%@	c #D8A04F",
"&@	c #B67B26",
"*@	c #9F6412",
"=@	c #9F6A16",
"-@	c #B78E43",
";@	c #DEC79F",
">@	c #EBD5AA",
",@	c #DFBE85",
"'@	c #C39E5A",
")@	c #C9A467",
"!@	c #D9BD8D",
"                                                ",
"                  . + @ # $ %                   ",
"              & * = - ; > , ' ) !               ",
"              ~ { ] ^ / ( _ : < [ }             ",
"            | 1 2 3 4 5 6 7 8 9 0 a             ",
"          b c d e f g h i j k l m n o           ",
"          p q r s t u v w x y z A B C           ",
"        D E F G H I J K L M N O P Q R S         ",
"        T U V W X Y Z ` w  ...+.@.#.$.%.        ",
"        &.*.=.-.;.Y >.,.'.).!.~.{.].^./.        ",
"        (._.:.<.[.}.|.1.2.3.4.5.6.7.8.9.0.      ",
"        a.b.c.V d.e.f.g.h.i.j.k.l.m.n.o.p.      ",
"        q.r.s.t.u.v.w.x.y.z.A.B.C.D.E.F.G.      ",
"        H.I.J.K.L.v.w.M.N.O.P.Q.R.S.T.U.V.      ",
"        W.X.Y.Z.`. +.+++@+#+$+%+&+*+=+-+;+      ",
"        >+,+'+)+`.!+~+{+]+^+/+(+_+:+<+[+        ",
"        }+|+1+2+:.3+4+5+6+7+8+9+0+a+b+c+        ",
"          d+e+f+g+h+i+j+k+l+m+n+o+p+q+r+        ",
"          s+t+u+v+w+x+y+z+A+B+C+D+E+F+          ",
"            G+H+I+J+K+L+M+N+O+P+Q+R+S+          ",
"              T+U+V+W+X+Y+Z+`+ @.@+@            ",
"                @@#@$@%@&@*@=@-@;@              ",
"                    >@,@'@)@!@                  ",
"                                                "};
