/* XPM */
static char * py_member_xpm[] = {
"24 24 51 1",
" 	c None",
".	c #123406",
"+	c #143E06",
"@	c #123306",
"#	c #123506",
"$	c #40B216",
"%	c #184407",
"&	c #123A06",
"*	c #44BA17",
"=	c #40B416",
"-	c #153E06",
";	c #1A4808",
">	c #184308",
",	c #133606",
"'	c #133506",
")	c #4BD618",
"!	c #40B716",
"~	c #174506",
"{	c #143906",
"]	c #30860F",
"^	c #45C116",
"/	c #48C718",
"(	c #3BA314",
"_	c #143706",
":	c #143806",
"<	c #41B416",
"[	c #40B516",
"}	c #1B4B09",
"|	c #1C5009",
"1	c #45C314",
"2	c #40AF15",
"3	c #3FAF15",
"4	c #40B316",
"5	c #194707",
"6	c #143A06",
"7	c #42B816",
"8	c #3FAF16",
"9	c #40AF16",
"0	c #1E5609",
"a	c #3BA514",
"b	c #3FAE15",
"c	c #3FAE16",
"d	c #133406",
"e	c #43BC16",
"f	c #40B016",
"g	c #40B816",
"h	c #40B116",
"i	c #133405",
"j	c #45C316",
"k	c #43B916",
"l	c #40BA16",
"                        ",
"                        ",
"                        ",
"                        ",
"                        ",
"                        ",
"           ....         ",
"          +.@@..#.      ",
"      $  %&.....@.      ",
"     *=  -@@;> ,'.@     ",
"     )! .~{]^/( _:@     ",
"     <[ .}|1234  5,6    ",
"     789  0a$9b   ,'    ",
"      !94  999c   dd    ",
"      e99fgh99f   di    ",
"       49cc9b9    dd    ",
"         jkl     dd     ",
"                        ",
"                        ",
"                        ",
"                        ",
"                        ",
"                        ",
"                        "};
