/* XPM */
static char * py_package_xpm[] = {
"24 24 196 2",
"  	c None",
". 	c #6998FF",
"+ 	c #6499FF",
"@ 	c #6498FF",
"# 	c #6A9CFF",
"$ 	c #738CE1",
"% 	c #6EA8FF",
"& 	c #6A93FF",
"* 	c #6D94FF",
"= 	c #6D9AFF",
"- 	c #6D9FFF",
"; 	c #6E7FAA",
"> 	c #687398",
", 	c #6878A3",
"' 	c #697AAE",
") 	c #6C7EB8",
"! 	c #6984C2",
"~ 	c #6A87CE",
"{ 	c #6A88D8",
"] 	c #698ADA",
"^ 	c #687DB8",
"/ 	c #79DAFF",
"( 	c #727575",
"_ 	c #716C62",
": 	c #6F6C62",
"< 	c #6F6E63",
"[ 	c #6E6D67",
"} 	c #6E6E69",
"| 	c #6D6E69",
"1 	c #6F6F6C",
"2 	c #6E6F6C",
"3 	c #6D6F6A",
"4 	c #6A6E69",
"5 	c #6C6F6C",
"6 	c #717171",
"7 	c #756F6F",
"8 	c #7EBEFF",
"9 	c #73A3FF",
"0 	c #6FA4FF",
"a 	c #699CFF",
"b 	c #6795FF",
"c 	c #6494FF",
"d 	c #6692FF",
"e 	c #6490FF",
"f 	c #6690FF",
"g 	c #668FFF",
"h 	c #678EFF",
"i 	c #668CFF",
"j 	c #668DFF",
"k 	c #678DFF",
"l 	c #688DFF",
"m 	c #678FFF",
"n 	c #6994FF",
"o 	c #6C99FF",
"p 	c #739FFF",
"q 	c #6FAAFF",
"r 	c #69A2FF",
"s 	c #669AFF",
"t 	c #6390FF",
"u 	c #618DFF",
"v 	c #5E8AFF",
"w 	c #2B6287",
"x 	c #6188FF",
"y 	c #6389FF",
"z 	c #668EFF",
"A 	c #689AFF",
"B 	c #74AFFF",
"C 	c #6EA5FF",
"D 	c #68A0FF",
"E 	c #6397FF",
"F 	c #628FFF",
"G 	c #FFFFFF",
"H 	c #5F84FF",
"I 	c #5F87FF",
"J 	c #6288FF",
"K 	c #638FFF",
"L 	c #679EFF",
"M 	c #6FA3FF",
"N 	c #6CA3FF",
"O 	c #68A5FF",
"P 	c #6398FF",
"Q 	c #6193FF",
"R 	c #E6D457",
"S 	c #649AFF",
"T 	c #689FFF",
"U 	c #6EA2FF",
"V 	c #68A9FF",
"W 	c #649CFF",
"X 	c #6295FF",
"Y 	c #618FFF",
"Z 	c #618CFF",
"` 	c #6293FF",
" .	c #6197FF",
"..	c #639AFF",
"+.	c #68A2FF",
"@.	c #6F9EFF",
"#.	c #6A9DFF",
"$.	c #69ADFF",
"%.	c #66A0FF",
"&.	c #6297FF",
"*.	c #5F93FF",
"=.	c #5E95FF",
"-.	c #5E94FF",
";.	c #5F98FF",
">.	c #639DFF",
",.	c #68A3FF",
"'.	c #6C98FF",
").	c #6DA0FF",
"!.	c #69B0FF",
"~.	c #64A7FF",
"{.	c #629DFF",
"].	c #629CFF",
"^.	c #649EFF",
"/.	c #67A3FF",
"(.	c #6C95FF",
"_.	c #6DA2FF",
":.	c #6DB7FF",
"<.	c #64ADFF",
"[.	c #64A3FF",
"}.	c #62A0FF",
"|.	c #639EFF",
"1.	c #629EFF",
"2.	c #67A2FF",
"3.	c #6A8EF4",
"4.	c #6DA5FF",
"5.	c #6DC0FF",
"6.	c #68B5FF",
"7.	c #68AEFF",
"8.	c #64ABFF",
"9.	c #66A4FF",
"0.	c #66A2FF",
"a.	c #669FFF",
"b.	c #669CFF",
"c.	c #698CEB",
"d.	c #6FA9FF",
"e.	c #6FC8FF",
"f.	c #6AC0FF",
"g.	c #6CBAFF",
"h.	c #69B7FF",
"i.	c #69B3FF",
"j.	c #68AFFF",
"k.	c #67AEFF",
"l.	c #67ADFF",
"m.	c #68ABFF",
"n.	c #69AAFF",
"o.	c #67A7FF",
"p.	c #679AFF",
"q.	c #6D8EE8",
"r.	c #72ADFF",
"s.	c #73D0FF",
"t.	c #72C9FF",
"u.	c #6FC4FF",
"v.	c #6EC2FF",
"w.	c #6EBFFF",
"x.	c #6DBAFF",
"y.	c #6EB8FF",
"z.	c #6CB3FF",
"A.	c #6AB0FF",
"B.	c #6CAFFF",
"C.	c #6AAAFF",
"D.	c #6AA5FF",
"E.	c #69A3FF",
"F.	c #679FFF",
"G.	c #69A5FF",
"H.	c #6E90E5",
"I.	c #7CA7EB",
"J.	c #84D6FF",
"K.	c #8ADAFF",
"L.	c #8FDEFF",
"M.	c #94E0FF",
"N.	c #9AE5FF",
"O.	c #9FE5FF",
"P.	c #9FE8FF",
"Q.	c #A2E6FF",
"R.	c #9EE0FF",
"S.	c #9DDDFF",
"T.	c #99D6FF",
"U.	c #94D0FF",
"V.	c #8EC9FF",
"W.	c #87C3FF",
"X.	c #84C5FF",
"Y.	c #7C98CE",
"Z.	c #787A7A",
"`.	c #7D8182",
" +	c #838587",
".+	c #888A8C",
"++	c #959798",
"@+	c #9A9C9D",
"#+	c #9D9FA0",
"$+	c #9D9E9F",
"%+	c #9C9C9D",
"&+	c #939394",
"*+	c #858888",
"=+	c #818484",
"-+	c #7C7F7F",
";+	c #77797A",
"                                                ",
"                                                ",
"                                                ",
"                                                ",
"          . + @ @ + #                           ",
"        $ % & * . = - ; > , ' ) ! ~ { ] ^       ",
"        / ( _ : < [ [ } | 1 2 3 4 5 6 7 8       ",
"      9 0 a b c d e f g h i j i k l m n o p     ",
"      q r s t u v v w w w w x x x x y z A B     ",
"      C D E F v v v w G w w x x H I J K L M     ",
"      N O P Q v w w w w w w R R I x F S T M     ",
"      U V W X Y w w w w w w R R Z `  ...+.@.    ",
"      #.$.%.&.*.w w R R R R R R =.-.;.>.,.'.    ",
"      ).!.~.{.;.w w R R R R R R ;.;.].^./.(.    ",
"      _.:.<.[.}.}.}.R R G R |.|.|.1.^.^.2.3.    ",
"      4.5.6.7.8.}.}.R R R R |.|.9.0.a.b.D c.    ",
"      d.e.f.g.h.i.!.j.7.k.l.m.n.o.0.L p.r q.    ",
"      r.s.t.u.v.w.x.y.:.z.A.B.C.D.E.F.p.G.H.    ",
"      I.J.K.L.M.N.O.P.Q.Q.O.R.S.T.U.V.W.X.Y.    ",
"          Z.`. +.+++@+#+#+$+%+&+*+=+-+;+        ",
"                                                ",
"                                                ",
"                                                ",
"                                                "};
