/* XPM */
static char * save_all_xpm[] = {
"24 24 199 2",
"  	c None",
". 	c #585757",
"+ 	c #403E3F",
"@ 	c #858789",
"# 	c #B9BABE",
"$ 	c #B8B8BB",
"% 	c #B8B9BC",
"& 	c #B8BABD",
"* 	c #B9BBBD",
"= 	c #BABBBE",
"- 	c #BBBCBE",
"; 	c #BCBDBF",
"> 	c #AEB1B4",
", 	c #3B3939",
"' 	c #5B595A",
") 	c #424041",
"! 	c #8F8D8D",
"~ 	c #BBC0C5",
"{ 	c #F6FAFF",
"] 	c #F9FCFF",
"^ 	c #FAFCFF",
"/ 	c #FBFDFF",
"( 	c #FCFEFF",
"_ 	c #FEFFFF",
": 	c #FFFFFF",
"< 	c #E5EBF1",
"[ 	c #7F7D7D",
"} 	c #5A5959",
"| 	c #3A3939",
"1 	c #393838",
"2 	c #3C3B3B",
"3 	c #5A5858",
"4 	c #3B3A3A",
"5 	c #5B5859",
"6 	c #383737",
"7 	c #575556",
"8 	c #373535",
"9 	c #555152",
"0 	c #ACB0B5",
"a 	c #F9FBFE",
"b 	c #C4D3E2",
"c 	c #C4D4E3",
"d 	c #C5D4E3",
"e 	c #C6D5E3",
"f 	c #C3D3E2",
"g 	c #F9FAFC",
"h 	c #DBE2E9",
"i 	c #4D4C4C",
"j 	c #353434",
"k 	c #514E4F",
"l 	c #ABB0B4",
"m 	c #FCFDFE",
"n 	c #F9FBFC",
"o 	c #FAFBFC",
"p 	c #F8FAFB",
"q 	c #F6F9FB",
"r 	c #F5F7FA",
"s 	c #F3F6F9",
"t 	c #F8F9FB",
"u 	c #D8E0E7",
"v 	c #595757",
"w 	c #4B494A",
"x 	c #333132",
"y 	c #535152",
"z 	c #A8ADB2",
"A 	c #F7FAFC",
"B 	c #B2C6D9",
"C 	c #B3C7D9",
"D 	c #AEC3D7",
"E 	c #E9EEF3",
"F 	c #D4DDE5",
"G 	c #565354",
"H 	c #494748",
"I 	c #313030",
"J 	c #A4AAAF",
"K 	c #EAF0F6",
"L 	c #DEE6EF",
"M 	c #DDE6EE",
"N 	c #DDE5EE",
"O 	c #DCE5EE",
"P 	c #DBE4ED",
"Q 	c #D9E3EC",
"R 	c #E3EAF1",
"S 	c #D0DAE3",
"T 	c #524F50",
"U 	c #464545",
"V 	c #2F2D2E",
"W 	c #4D4A4B",
"X 	c #A1A7AD",
"Y 	c #E1E9F1",
"Z 	c #C8D6E4",
"` 	c #C7D6E3",
" .	c #C5D4E2",
"..	c #D8E1EB",
"+.	c #CCD6E0",
"@.	c #504C4C",
"#.	c #444243",
"$.	c #2C2A2B",
"%.	c #474445",
"&.	c #A1A8AF",
"*.	c #DCE9F5",
"=.	c #DBE8F3",
"-.	c #DCE8F3",
";.	c #DAE7F2",
">.	c #D9E6F2",
",.	c #D8E5F1",
"'.	c #D6E3F0",
").	c #CCDAE6",
"!.	c #4B4848",
"~.	c #282627",
"{.	c #423E3F",
"].	c #4F4D4D",
"^.	c #4D4B4B",
"/.	c #4D4B4C",
"(.	c #4E4B4C",
"_.	c #525051",
":.	c #222020",
"<.	c #3B3839",
"[.	c #4F4C4D",
"}.	c #4B4849",
"|.	c #4A4748",
"1.	c #4A4647",
"2.	c #3E3B3C",
"3.	c #595657",
"4.	c #231F20",
"5.	c #464344",
"6.	c #888687",
"7.	c #A5A4A4",
"8.	c #A09F9F",
"9.	c #9C9A9B",
"0.	c #9C9B9B",
"a.	c #605E5F",
"b.	c #3A3839",
"c.	c #6C6B6B",
"d.	c #5C5B5B",
"e.	c #3D393B",
"f.	c #B0B0B0",
"g.	c #5E5C5D",
"h.	c #585758",
"i.	c #959495",
"j.	c #CDCDCD",
"k.	c #CACBCB",
"l.	c #CBCBCB",
"m.	c #CECECE",
"n.	c #7B7A7A",
"o.	c #3F3E3F",
"p.	c #302D2E",
"q.	c #363434",
"r.	c #383334",
"s.	c #ACACAC",
"t.	c #3A3637",
"u.	c #353233",
"v.	c #807F7F",
"w.	c #C8C8C8",
"x.	c #C0C0C0",
"y.	c #BABABA",
"z.	c #B9BAB9",
"A.	c #757273",
"B.	c #434041",
"C.	c #302E2E",
"D.	c #433F40",
"E.	c #333131",
"F.	c #312E2F",
"G.	c #AAA9A9",
"H.	c #2C2929",
"I.	c #747373",
"J.	c #B8B8B8",
"K.	c #AFAFAF",
"L.	c #AAAAAA",
"M.	c #A9A9A9",
"N.	c #696868",
"O.	c #2D2B2C",
"P.	c #464243",
"Q.	c #3C393A",
"R.	c #2D292A",
"S.	c #9B9B9B",
"T.	c #716F70",
"U.	c #686767",
"V.	c #8A8989",
"W.	c #A7A7A7",
"X.	c #A0A0A0",
"Y.	c #999999",
"Z.	c #353132",
"`.	c #3B3637",
" +	c #2D2B2B",
".+	c #151112",
"++	c #717171",
"@+	c #898989",
"#+	c #858585",
"$+	c #828282",
"%+	c #7F7F7F",
"&+	c #7C7C7C",
"*+	c #7B7B7B",
"=+	c #7E7E7E",
"-+	c #413F40",
";+	c #1D1A1B",
">+	c #1B1919",
",+	c #201D1E",
"'+	c #242122",
"                                                ",
"                                                ",
"    . + @ # $ $ % & * = = - ; > , '             ",
"    ) ! ~ { ] ] ^ / / ( _ : : < [ }             ",
"    | 1 . + @ # $ $ % & * = = - ; > , '         ",
"    2 3 ) ! ~ { ] ] ^ / / ( _ : : < [ }         ",
"    4 5 | 1 . + @ # $ $ % & * = = - ; > , '     ",
"    6 7 2 3 ) ! ~ { ] ] ^ / / ( _ : : < [ }     ",
"    8 9 4 5 | 1 0 a b c d d d e e f g h 5 i     ",
"    j k 6 7 2 3 l m n o o g p q r s t u v w     ",
"    x y 8 9 4 5 z A B C C C C C C D E F G H     ",
"    I k j k 6 7 J K L L L M N O P Q R S T U     ",
"    V W x y 8 9 X Y Z Z Z Z Z ` `  ...+.@.#.    ",
"    $.%.I k j k &.*.=.-.=.-.;.;.>.,.'.).!.)     ",
"    ~.{.V W x y ].^./././././././././.(._.+     ",
"    :.<.$.%.I k [.}.|.|.|.|.|.|.1.W [.[.[.2.    ",
"    3.4.~.{.V W 5.6.7.7.8.9.0.0.8.a., b.W <.    ",
"    c.d.:.<.$.%.e.f.g.h.i.j.k.l.m.n.o.p.%.q.    ",
"        3.4.~.{.r.s.t.u.v.w.x.y.z.A.B.C.D.E.    ",
"          d.:.<.F.G.F.H.I.J.K.L.M.N.2.O.P.Q.    ",
"            3.4.R.S.T.U.V.W.X.S.Y.d.Z.~.`. +    ",
"              d..+++@+#+$+%+&+*+=+-+;+>+,+'+    ",
"                                                ",
"                                                "};
