/* XPM */
static char * target_xpm[] = {
"24 24 41 1",
" 	c None",
".	c #FAD7D7",
"+	c #EF8D8D",
"@	c #E54343",
"#	c #E01919",
"$	c #F9D0D0",
"%	c #E33232",
"&	c #DE0E0E",
"*	c #F09494",
"=	c #E33636",
"-	c #EE8080",
";	c #F8CACA",
">	c #EF8E8E",
",	c #E43D3D",
"'	c #FADBDB",
")	c #F7C3C3",
"!	c #ED7979",
"~	c #D7FADE",
"{	c #8DEF9F",
"]	c #DF1212",
"^	c #E64A4A",
"/	c #D0F9D7",
"(	c #32E353",
"_	c #0EDE35",
":	c #F7C6C6",
"<	c #DE1111",
"[	c #C3F7CC",
"}	c #30BC2F",
"|	c #EC7272",
"1	c #E64747",
"2	c #12DF38",
"3	c #37B52D",
"4	c #BF2D14",
"5	c #E22D2D",
"6	c #F19B9B",
"7	c #C6F7CF",
"8	c #10DC35",
"9	c #DB110F",
"0	c #FBE0E0",
"a	c #72EC89",
"b	c #3FAD2C",
"                        ",
"                        ",
"        .+@##@+.        ",
"      $%&&&&&&&&%$      ",
"     *&&&=-;;-=&&&*     ",
"    >&&,'      ',&&>    ",
"   )&&!   ~{{~   !&&)   ",
"   ]&^  /(____(/  ^&]   ",
"  :&<  [___}}___[  <&:  ",
"  |&1  2_34&&43_2  1&|  ",
"  5&6 7_89&&&&98_7 6&5  ",
"  ]&0 a_b&&&&&&b_a 0&]  ",
"  5&6 7_89&&&&98_7 6&5  ",
"  |&1  2_34&&43_2  1&|  ",
"  :&<  [___}}___[  <&:  ",
"   ]&^  /(____(/  ^&]   ",
"   )&&!   ~{{~   !&&)   ",
"    >&&,'      ',&&>    ",
"     *&&&=-;;-=&&&*     ",
"      $%&&&&&&&&%$      ",
"        .+@##@+.        ",
"                        ",
"                        ",
"                        "};
