/* XPM */
static char * type_xpm[] = {
"24 24 28 1",
" 	c None",
".	c #C737BE",
"+	c #C11FB7",
"@	c #DE8CD9",
"#	c #F6E2F5",
"$	c #F2D3F0",
"%	c #C634BD",
"&	c #F8E7F7",
"*	c #EBB9E8",
"=	c #ECBDE9",
"-	c #CB45C2",
";	c #F8E8F7",
">	c #EBBAE8",
",	c #D261CB",
"'	c #DF8EDA",
")	c #ECBBE9",
"!	c #C635BD",
"~	c #D362CC",
"{	c #DF8DDA",
"]	c #D260CB",
"^	c #ECBCE9",
"/	c #ECBFEA",
"(	c #D66FD0",
"_	c #C224B8",
":	c #D059C9",
"<	c #E8B0E5",
"[	c #F7E5F6",
"}	c #F1D0EF",
"                        ",
"                        ",
"                        ",
"                        ",
"                        ",
"                        ",
"       .+++++++++@      ",
"      #+$  %+&  +*      ",
"      =-  ;+%   +&      ",
"          >+,           ",
"          '+'           ",
"          ,+)           ",
"          %+;           ",
"         &+!            ",
"         >+~            ",
"         {+'            ",
"         ]+^            ",
"       /(_+:<           ",
"       [}}}}&           ",
"                        ",
"                        ",
"                        ",
"                        ",
"                        "};
