/* XPM */
static char * virtual_xpm[] = {
"24 24 216 2",
"  	c None",
". 	c #F3D39F",
"+ 	c #F8C991",
"@ 	c #F7C082",
"# 	c #F9CE9C",
"$ 	c #F3D7A9",
"% 	c #F1D69F",
"& 	c #F4D8AD",
"* 	c #F4CF9C",
"= 	c #EDAB5E",
"- 	c #E97622",
"; 	c #E95F0E",
"> 	c #E67D2B",
", 	c #ECAD6B",
"' 	c #ECB56D",
") 	c #F4CA8A",
"! 	c #F3DAAF",
"~ 	c #F6DBA8",
"{ 	c #F2E3AD",
"] 	c #F7D8A2",
"^ 	c #FAD99C",
"/ 	c #E8B26D",
"( 	c #DF8437",
"_ 	c #B63A0E",
": 	c #B22F0A",
"< 	c #B52C08",
"[ 	c #B73008",
"} 	c #AE3107",
"| 	c #AC4E18",
"1 	c #D08340",
"2 	c #D5B375",
"3 	c #EBD091",
"4 	c #E8CF89",
"5 	c #EBDBA1",
"6 	c #F3DEA8",
"7 	c #F6DB9D",
"8 	c #F8CB62",
"9 	c #DD8931",
"0 	c #CE610F",
"a 	c #991808",
"b 	c #A83123",
"c 	c #B75540",
"d 	c #C07151",
"e 	c #BF784E",
"f 	c #C37845",
"g 	c #BD612B",
"h 	c #98450E",
"i 	c #A54C10",
"j 	c #AF923E",
"k 	c #E3C167",
"l 	c #E0CC8B",
"m 	c #DDDAAA",
"n 	c #F3E09D",
"o 	c #FADA60",
"p 	c #D9831B",
"q 	c #CF5D03",
"r 	c #881710",
"s 	c #BC6B4E",
"t 	c #E2B57F",
"u 	c #E1B57E",
"v 	c #DAA461",
"w 	c #AE611F",
"x 	c #A14207",
"y 	c #966216",
"z 	c #D8A329",
"A 	c #DAC67C",
"B 	c #D4D69E",
"C 	c #F8D991",
"D 	c #ECA726",
"E 	c #D86A00",
"F 	c #87100D",
"G 	c #C36E4C",
"H 	c #E6AE66",
"I 	c #A25E1D",
"J 	c #471205",
"K 	c #9B6710",
"L 	c #D8C576",
"M 	c #F5C980",
"N 	c #E6971C",
"O 	c #9A1705",
"P 	c #BB5B42",
"Q 	c #E1AC62",
"R 	c #803E13",
"S 	c #7E551D",
"T 	c #ECD097",
"U 	c #F3D6A5",
"V 	c #F3BF82",
"W 	c #CB8424",
"X 	c #A83F1C",
"Y 	c #D89D71",
"Z 	c #DBA167",
"` 	c #C58A3D",
" .	c #AC723A",
"..	c #E9CCA3",
"+.	c #EFD09C",
"@.	c #F6CE97",
"#.	c #EFA44D",
"$.	c #B9680E",
"%.	c #C0612F",
"&.	c #D29E57",
"*.	c #9F5B1A",
"=.	c #E6B97B",
"-.	c #F0CE9B",
";.	c #F8C67D",
">.	c #EF8118",
",.	c #B7610D",
"'.	c #C5713C",
").	c #D0A164",
"!.	c #A35B13",
"~.	c #DE802B",
"{.	c #EDD2A0",
"].	c #F7CE98",
"^.	c #F2B250",
"/.	c #9C5002",
"(.	c #BB6F3A",
"_.	c #D2A362",
":.	c #A95D1E",
"<.	c #DE8E41",
"[.	c #EED2A1",
"}.	c #F4D8A9",
"|.	c #F8CA8A",
"1.	c #764919",
"2.	c #9A5424",
"3.	c #CB9850",
"4.	c #A8682A",
"5.	c #E5BC83",
"6.	c #F3D9AC",
"7.	c #FBD598",
"8.	c #926D2A",
"9.	c #762903",
"0.	c #DDA059",
"a.	c #D7A86F",
"b.	c #995F27",
"c.	c #C18A3B",
"d.	c #F0CD9C",
"e.	c #EAD49F",
"f.	c #F7D686",
"g.	c #E7A21F",
"h.	c #713404",
"i.	c #A0501A",
"j.	c #E8AF5D",
"k.	c #E4BB77",
"l.	c #A87C36",
"m.	c #A16819",
"n.	c #DBA362",
"o.	c #F6DAAE",
"p.	c #F9DF8D",
"q.	c #F8D03F",
"r.	c #DD9511",
"s.	c #C46203",
"t.	c #A55B20",
"u.	c #EDBA65",
"v.	c #DFBC80",
"w.	c #A67939",
"x.	c #8E4207",
"y.	c #B37F3D",
"z.	c #F9D39D",
"A.	c #F0E4A3",
"B.	c #F7DD8A",
"C.	c #F7D867",
"D.	c #E1B236",
"E.	c #C86807",
"F.	c #A03F0D",
"G.	c #D3863A",
"H.	c #E1A55B",
"I.	c #DEA973",
"J.	c #DDA879",
"K.	c #D6A66E",
"L.	c #CBA14F",
"M.	c #984317",
"N.	c #A42C08",
"O.	c #AC7A33",
"P.	c #F4C48B",
"Q.	c #F5D9B0",
"R.	c #F6EAAF",
"S.	c #F5DF8B",
"T.	c #FBDF88",
"U.	c #E2B15D",
"V.	c #DD9C22",
"W.	c #AA3D05",
"X.	c #9F3703",
"Y.	c #BB5D0F",
"Z.	c #BF5F14",
"`.	c #A7400B",
" +	c #A41003",
".+	c #D24A17",
"++	c #C59554",
"@+	c #FFD69E",
"#+	c #F4D6A9",
"$+	c #F1E3A0",
"%+	c #F5E2A0",
"&+	c #F6ECAF",
"*+	c #F4E89E",
"=+	c #F5DBA7",
"-+	c #F2D179",
";+	c #E8B534",
">+	c #E69A21",
",+	c #E27609",
"'+	c #E15901",
")+	c #E7710C",
"!+	c #E88B29",
"~+	c #F5B86F",
"{+	c #F8DAB0",
"]+	c #F3E2A3",
"^+	c #F5DE95",
"/+	c #F4CD73",
"(+	c #F5B256",
"_+	c #F49E2D",
":+	c #F4AC3B",
"<+	c #F8CB6E",
"[+	c #F0D6A4",
"}+	c #DDCDA7",
"|+	c #E2CD89",
"1+	c #E2C776",
"2+	c #DEC793",
"3+	c #E0D1A8",
"                                                ",
"                                                ",
"                  . + @ # $   %                 ",
"              & * = - ; > , ' ) !     ~         ",
"        { ] ^ / ( _ : < [ } | 1 2 3 4 5 6       ",
"        7 8 9 0 a b c d e f g h i j k l m       ",
"      n o p q r s t         u v w x y z A B     ",
"      C D E F G                 H I J K L       ",
"      M N O P                     Q R S T       ",
"    U V W X Y                     Z `  ...+.    ",
"    @.#.$.%.                        &.*.=.-.    ",
"    ;.>.,.'.                        ).!.~.{.    ",
"    ].^./.(.                        _.:.<.[.    ",
"    }.|.1.2.                        3.4.5.6.    ",
"      7.8.9.0.                    a.b.c.d.e.    ",
"      f.g.h.i.j.                k.l.m.n.o.      ",
"      p.q.r.s.t.u.            v.w.x.y.z.        ",
"      A.B.C.D.E.F.G.H.I.J.K.L.M.N.O.P.Q.        ",
"        R.S.T.U.V.W.X.Y.Z.`. +.+++@+#+          ",
"    $+%+&+*+  =+-+;+>+,+'+)+!+~+{+              ",
"                ]+^+/+(+_+:+<+[+                ",
"                    }+|+1+2+3+                  ",
"                                                ",
"                                                "};
