/* XPM */
static char * child_xpm[] = {
"16 16 87 1",
" 	c None",
".	c #FFFFFF",
"+	c #F2F2F2",
"@	c #E6E6E6",
"#	c #F4F4F4",
"$	c #F6F6F6",
"%	c #F3F3F3",
"&	c #DADADA",
"*	c #CFCFCF",
"=	c #E8E8E8",
"-	c #EEEEEE",
";	c #FCFCFC",
">	c #FBFBFB",
",	c #FAFAFA",
"'	c #F5F5F5",
")	c #EDEDED",
"!	c #949494",
"~	c #DBDBDB",
"{	c #C8C8C8",
"]	c #EFEFEF",
"^	c #FCFCFB",
"/	c #E9E8E8",
"(	c #EEEDED",
"_	c #E7E7E7",
":	c #FDFDFD",
"<	c #ECECEC",
"[	c #BABABA",
"}	c #E4E4E4",
"|	c #FEFEFE",
"1	c #EFEDED",
"2	c #E2E2E3",
"3	c #D2D2D2",
"4	c #DADBDB",
"5	c #F0F0F0",
"6	c #F1F1F1",
"7	c #F7F7F7",
"8	c #E5E5E5",
"9	c #C7C7C7",
"0	c #F9F9FA",
"a	c #F1F0F2",
"b	c #E8E9E8",
"c	c #DEDEDE",
"d	c #CDCDCD",
"e	c #C0C0C0",
"f	c #B8B8B8",
"g	c #CCCCCC",
"h	c #E1E1E1",
"i	c #AFAFAF",
"j	c #898989",
"k	c #BBBBBB",
"l	c #9A9A9A",
"m	c #B2B2B2",
"n	c #E2E2E2",
"o	c #D9D9D9",
"p	c #B7B7B7",
"q	c #969696",
"r	c #8C8C8C",
"s	c #9B9B9B",
"t	c #B9B9B9",
"u	c #939393",
"v	c #A7A7A7",
"w	c #B6B6B6",
"x	c #ABABAB",
"y	c #BEBEBE",
"z	c #8A8A8A",
"A	c #9E9E9E",
"B	c #BFBFBF",
"C	c #9D9D9D",
"D	c #909090",
"E	c #A2A2A2",
"F	c #C3C3C3",
"G	c #B5B5B5",
"H	c #C5C5C5",
"I	c #A6A6A6",
"J	c #A3A3A3",
"K	c #C2C2C2",
"L	c #959595",
"M	c #EAEAEA",
"N	c #C1C1C1",
"O	c #AAAAAA",
"P	c #C9C9C9",
"Q	c #DDDDDD",
"R	c #D8D8D8",
"S	c #D4D4D4",
"T	c #CACACA",
"U	c #BDBDBD",
"V	c #D7D7D7",
"...+@#$$%&*=-;..",
"..>,'%#')!*~{]..",
".^/(@-%#%_:<[}..",
".|12345%6789[-..",
"..0ab@]7cdefg6..",
"....=h}ijkglmn:.",
"....:+-&opqrs@..",
"......||;tuvk6..",
"........:wuxy]..",
"........>vzAB6..",
"........}CDEF+..",
".......|GvteH'..",
".......%Ii+[p%..",
".......#Jf.KLM..",
"...:$5nNOw=PtQ;.",
"...5RSTBUN9[UV%."};
